<?xml version="1.0" encoding="UTF-8" standalone="no"?>
<svg
   width="128"
   height="64"
   viewBox="0 0 128 64"
   version="1.1"
   id="SVGRoot"
   sodipodi:docname="bush_dead_tee.svg"
   inkscape:version="1.2-dev (2933c477aa, 2021-06-11)"
   xmlns:inkscape="http://www.inkscape.org/namespaces/inkscape"
   xmlns:sodipodi="http://sodipodi.sourceforge.net/DTD/sodipodi-0.dtd"
   xmlns="http://www.w3.org/2000/svg"
   xmlns:svg="http://www.w3.org/2000/svg"
   xmlns:rdf="http://www.w3.org/1999/02/22-rdf-syntax-ns#"
   xmlns:cc="http://creativecommons.org/ns#"
   xmlns:dc="http://purl.org/dc/elements/1.1/">
  <metadata
     id="metadata15">
    <rdf:RDF>
      <cc:Work
         rdf:about="">
        <dc:format>image/svg+xml</dc:format>
        <dc:type
           rdf:resource="http://purl.org/dc/dcmitype/StillImage" />
      </cc:Work>
    </rdf:RDF>
  </metadata>
  <defs
     id="defs823" />
  <sodipodi:namedview
     id="base"
     pagecolor="#9f9f9f"
     bordercolor="#666666"
     borderopacity="1.0"
     inkscape:pageopacity="0"
     inkscape:pageshadow="2"
     inkscape:zoom="15.839192"
     inkscape:cx="55.874063"
     inkscape:cy="56.94735"
     inkscape:document-units="px"
     inkscape:current-layer="layer1"
     showgrid="true"
     inkscape:window-width="3840"
     inkscape:window-height="2100"
     inkscape:window-x="1920"
     inkscape:window-y="32"
     inkscape:window-maximized="1"
     inkscape:snap-page="true"
     inkscape:document-rotation="0"
     inkscape:snap-global="false"
     inkscape:object-nodes="true"
     inkscape:snap-nodes="true"
     inkscape:snap-others="true"
     inkscape:snap-to-guides="true"
     inkscape:snap-bbox="true"
     inkscape:snap-grids="false"
     inkscape:object-paths="true"
     inkscape:snap-intersection-paths="true"
     inkscape:snap-smooth-nodes="true"
     inkscape:snap-midpoints="true"
     inkscape:pagecheckerboard="0">
    <inkscape:grid
       type="xygrid"
       id="grid17"
       spacingx="64"
       spacingy="64" />
  </sodipodi:namedview>
  <g
     inkscape:label="Layer 1"
     inkscape:groupmode="layer"
     id="layer1"
     transform="translate(-83.411035,-321.7401)">
    <g
       id="g3220">
      <g
         id="g3158">
        <path
           style="fill:#32690b;stroke:none;stroke-width:1px;stroke-linecap:butt;stroke-linejoin:miter;stroke-opacity:1;fill-opacity:1"
           d="M 89.705915,385.7401 H 200.1988 c 0.38593,-0.0953 -17.60541,-5.62478 -21.53317,-6.36094 1.51265,-0.70824 8.87864,-8.54551 8.23893,-8.39923 -7.12815,-0.32284 -12.5354,3.727 -18.25506,6.98301 1.34445,-5.03528 3.59589,-10.81138 5.13465,-16.64925 -6.06415,3.97321 -12.18733,9.77081 -16.33007,15.68688 l -38.56155,-0.96782 c -2.0829,-6.47669 -3.9938,-14.20174 -5.54284,-23.53748 -2.68573,7.53777 -4.18205,16.88926 -4.19551,25.35762 0,0 -19.069746,-12.83332 -21.784436,-9.9155 2.668263,1.96735 12.219293,11.96671 12.36778,13.44927 -5.36997,1.20825 -7.167516,2.84477 -10.031609,4.35344 z"
           id="path864"
           sodipodi:nodetypes="ccccccccccccc" />
        <path
           style="fill:#265008;stroke:none;stroke-width:1px;stroke-linecap:butt;stroke-linejoin:miter;stroke-opacity:1;fill-opacity:1"
           d="m 105.20233,385.7401 h 74.61744 c 2.15815,-0.46034 -33.73153,-14.64218 -49.40326,-10.62605 -23.3107,5.97374 -26.52968,10.43163 -25.21418,10.62605 z"
           id="path2601"
           sodipodi:nodetypes="ccsc" />
      </g>
      <g
         id="g3187">
        <ellipse
           style="fill:#604830;fill-opacity:1;stroke:none;stroke-width:0.471939;stroke-opacity:1"
           id="ellipse2816"
           cx="296.49966"
           cy="305.51743"
           rx="6.2166982"
           ry="8.9497452"
           transform="matrix(0.95306351,0.30277044,-0.38791656,0.9216945,0,0)" />
        <g
           id="g2562"
           transform="translate(-80)">
          <g
             id="g2541">
            <g
               id="g2525">
              <g
                 id="g2513">
                <circle
                   style="fill:#c99865;fill-opacity:1;stroke:none;stroke-width:0.40787;stroke-opacity:1"
                   id="circle3081"
                   cx="221.86153"
                   cy="361.10989"
                   r="20.908554" />
                <path
                   id="path2948"
                   style="fill:#a17b55;fill-opacity:1;stroke:none;stroke-width:0.40787;stroke-opacity:1"
                   d="m 210.7333,343.46276 a 20.908554,20.908554 0 0 0 -3.33594,2.59765 41.246841,34.045437 0 0 1 28.25196,15.60352 20.908554,20.908554 0 0 1 -19.79688,14.30859 20.908554,20.908554 0 0 1 -11.52539,-3.48633 20.908554,20.908554 0 0 0 17.53516,9.53321 20.908554,20.908554 0 0 0 20.9082,-20.91016 20.908554,20.908554 0 0 0 -9.40039,-17.45312 20.908554,20.908554 0 0 1 3.39062,11.4082 20.908554,20.908554 0 0 1 -0.15234,2.12109 41.246841,34.045437 0 0 0 -25.875,-13.72265 z" />
              </g>
              <g
                 id="g1725"
                 transform="translate(80)">
                <path
                   id="path859"
                   style="fill:#745535;fill-opacity:1;stroke-width:0.352535"
                   d="m 136.33541,343.2389 c 0.21148,0.18026 0.59635,0.32559 0.40062,0.77998 -0.23249,0.53971 -1.1199,1.42562 -1.78669,2.06435 -0.76635,0.73411 -1.57516,1.64283 -2.19727,1.83648 -0.37491,0.1167 -0.69032,-0.272 -0.86429,-0.42029 -0.21127,-0.18008 -0.33281,-0.37455 -0.13764,-0.82831 0.23225,-0.53995 0.85632,-1.37674 1.5237,-2.01604 0.47338,-0.45346 1.36171,-1.20356 1.81729,-1.46801 0.72642,-0.42169 0.95995,-0.19053 1.24428,0.0519 z"
                   sodipodi:nodetypes="sssssssss" />
                <path
                   id="path859-3"
                   style="fill:#745535;fill-opacity:1;stroke-width:0.352535"
                   d="m 142.52061,345.80661 c 0.20123,0.19163 0.57752,0.35793 0.35707,0.80086 -0.26185,0.52609 -1.19668,1.3618 -1.89762,1.96286 -0.8056,0.69081 -1.66321,1.55362 -2.29504,1.71273 -0.38077,0.0959 -0.6743,-0.30959 -0.83984,-0.46723 -0.20104,-0.19144 -0.31169,-0.3923 -0.0918,-0.83463 0.26162,-0.52635 0.93081,-1.32751 1.63237,-1.9291 0.49762,-0.42672 1.4259,-1.12678 1.89535,-1.36575 0.74853,-0.38106 0.96898,-0.13739 1.23953,0.12032 z"
                   sodipodi:nodetypes="sssssssss" />
                <path
                   id="path1636"
                   style="fill:#745535;fill-opacity:1;stroke-width:0.352535"
                   d="m 147.25226,349.30882 c 0.1801,0.21161 0.53694,0.41634 0.2714,0.8338 -0.3154,0.49583 -1.33247,1.22925 -2.0924,1.75375 -0.8734,0.60281 -1.8165,1.37125 -2.4615,1.46344 -0.38871,0.0556 -0.63824,-0.37838 -0.7864,-0.55246 -0.17993,-0.2114 -0.26897,-0.42273 -0.004,-0.83965 0.31521,-0.49612 1.06447,-1.22294 1.82508,-1.7479 0.53949,-0.37237 1.53587,-0.97156 2.02772,-1.16015 0.78427,-0.30073 0.97804,-0.0353 1.22017,0.24923 z"
                   sodipodi:nodetypes="sssssssss" />
                <path
                   id="path1636-6"
                   style="fill:#745535;fill-opacity:1;stroke-width:0.352535"
                   d="m 152.74176,353.58483 c 0.0734,0.268 0.30981,0.6047 -0.10766,0.87022 -0.49585,0.31537 -1.72792,0.54847 -2.63853,0.70136 -1.04659,0.17572 -2.22651,0.47189 -2.84977,0.28196 -0.37562,-0.11442 -0.41765,-0.61326 -0.47804,-0.83373 -0.0733,-0.26774 -0.0644,-0.49689 0.35232,-0.76217 0.4958,-0.31571 1.48252,-0.65636 2.39395,-0.80938 0.64647,-0.10856 1.8029,-0.22886 2.32831,-0.19116 0.8378,0.0601 0.90078,0.38264 0.99946,0.74298 z"
                   sodipodi:nodetypes="sssssssss" />
                <path
                   id="path1636-6-7"
                   style="fill:#745535;fill-opacity:1;stroke-width:0.352535"
                   d="m 156.78911,358.90962 c 0.0286,0.27639 0.20675,0.64722 -0.24852,0.8409 -0.54075,0.23003 -1.79435,0.25851 -2.7177,0.26043 -1.06124,0.002 -2.27371,0.10143 -2.85752,-0.18787 -0.35185,-0.1743 -0.31174,-0.6733 -0.33526,-0.90068 -0.0285,-0.27612 0.0177,-0.50073 0.47222,-0.69429 0.54075,-0.23038 1.56989,-0.40509 2.49408,-0.407 0.65552,-10e-4 1.81605,0.0691 2.32823,0.19217 0.81669,0.1963 0.82608,0.5248 0.8645,0.89642 z"
                   sodipodi:nodetypes="sssssssss" />
                <path
                   id="path1636-6-7-5"
                   style="fill:#745535;fill-opacity:1;stroke-width:0.352535"
                   d="m 159.59002,364.05944 c 0.0286,0.27639 0.20675,0.64722 -0.24852,0.8409 -0.54075,0.23003 -1.79435,0.25851 -2.7177,0.26043 -1.06124,0.002 -2.27371,0.10143 -2.85752,-0.18787 -0.35185,-0.1743 -0.31174,-0.6733 -0.33526,-0.90068 -0.0285,-0.27612 0.0177,-0.50073 0.47222,-0.69429 0.54075,-0.23038 1.56989,-0.40509 2.49408,-0.407 0.65552,-0.001 1.81605,0.0691 2.32823,0.19217 0.81669,0.1963 0.82608,0.5248 0.8645,0.89642 z"
                   sodipodi:nodetypes="sssssssss" />
              </g>
            </g>
            <g
               id="g2455"
               transform="translate(80)">
              <path
                 style="fill:#3f2f1f;fill-opacity:1;stroke:none;stroke-width:1px;stroke-linecap:butt;stroke-linejoin:miter;stroke-opacity:1"
                 d="m 139.16267,356.62853 c 0.12681,0.42225 0.20832,0.94086 0.56943,1.19379 0.30738,0.2153 0.77353,0.25094 1.12064,0.10826 0.32304,-0.13278 0.57257,-0.46987 0.67061,-0.8051 0.2028,-0.69343 -0.15616,-1.43714 -0.27123,-2.1504 -0.0841,-0.52158 -0.20365,-1.03684 -0.30625,-1.5551 -0.0483,-0.24385 -0.33994,-0.57645 -0.14556,-0.7314 0.2028,-0.16165 0.63573,0.28657 0.71,0.31815 0.0743,0.0316 1.0331,0.51748 1.56114,0.75135 0.35202,0.15591 0.69415,0.35209 1.07032,0.43409 0.23424,0.0511 0.59583,0.10369 0.71854,0.0316 0.12272,-0.0721 0.53014,-0.46797 0.63229,-0.78921 0.10579,-0.3327 0.1485,-0.76734 -0.0625,-1.04548 -0.43321,-0.57104 -1.352,-0.47686 -2.03253,-0.70187 -0.47385,-0.15667 -0.95223,-0.2993 -1.42761,-0.45126 -0.69446,-0.22198 -1.58444,-0.13904 -2.08121,-0.67268 -0.38244,-0.41083 -0.18529,-1.1174 -0.40201,-1.63515 -0.17225,-0.41151 -0.38556,-0.82482 -0.70155,-1.13972 -0.21201,-0.21127 -0.47586,-0.39568 -0.76629,-0.46803 -0.41239,-0.10273 -0.92353,-0.16581 -1.27267,0.0765 -0.25456,0.17667 -0.38755,0.54008 -0.37688,0.84976 0.0143,0.41601 0.47261,0.92976 0.58368,1.10397 0.11108,0.17421 0.82198,0.69718 0.61901,1.04871 -0.43182,0.74788 -1.72794,-0.0643 -2.59064,-0.0251 -0.48885,0.0222 -1.02723,-0.08 -1.46067,0.14713 -0.23571,0.12352 -0.43923,0.35338 -0.51782,0.60762 -0.0744,0.24072 0.0427,0.50245 0.0801,0.75163 0.046,0.3065 -0.0133,0.66816 0.17703,0.91277 0.10883,0.13988 0.30775,0.1893 0.48104,0.22645 0.71946,0.15425 1.47155,-0.0192 2.2071,-0.0388 0.8979,-0.024 2.00493,-0.67396 2.69292,-0.0965 0.96514,0.81009 0.15915,2.53721 0.52157,3.74402 z"
                 id="path1760"
                 sodipodi:nodetypes="ssssssssssssssssssssssssssssssss" />
              <path
                 style="fill:#3f2f1f;fill-opacity:1;stroke:none;stroke-width:1px;stroke-linecap:butt;stroke-linejoin:miter;stroke-opacity:1"
                 d="m 145.86078,348.66201 c 0.0279,0.31435 -0.13296,0.68796 0.0495,0.94545 0.0805,0.11359 0.2497,0.13185 0.38628,0.15884 0.2246,0.0444 0.47588,0.089 0.68684,0 0.15635,-0.0659 0.29138,-0.20732 0.35537,-0.36448 0.13688,-0.33619 0.0228,-0.72665 6e-4,-1.08895 -0.0235,-0.38309 -0.11216,-0.76002 -0.14135,-1.14271 -0.014,-0.1834 -0.14716,-0.42251 -0.0161,-0.55156 0.2355,-0.2319 0.6709,-0.0398 0.99055,0.0442 0.28579,0.0751 0.51023,0.30765 0.79056,0.40113 0.22866,0.0762 0.51271,0.26064 0.71216,0.12531 0.12658,-0.0859 0.0861,-0.29655 0.0931,-0.44935 0.008,-0.18359 0.0383,-0.3937 -0.0617,-0.54788 -0.22617,-0.34864 -0.68537,-0.48634 -1.07442,-0.63242 -0.43271,-0.16247 -0.9213,-0.11954 -1.36261,-0.25694 -0.27453,-0.0855 -0.60469,-0.12854 -0.78855,-0.3496 -0.24634,-0.29618 -0.1061,-0.77465 -0.26804,-1.12419 -0.15003,-0.32384 -0.35125,-0.64502 -0.63397,-0.86285 -0.26097,-0.20108 -0.59011,-0.37444 -0.91935,-0.36279 -0.18814,0.007 -0.43401,0.0714 -0.50939,0.24391 -0.0976,0.22337 0.10883,0.47977 0.21629,0.69857 0.11472,0.23356 0.4317,0.37894 0.44902,0.63858 0.0111,0.16667 -0.0897,0.35586 -0.23124,0.44458 -0.47697,0.29898 -1.12861,-0.0137 -1.68811,0.0484 -0.40174,0.0446 -0.94565,-0.0898 -1.19023,0.23199 -0.16163,0.21268 0.0471,0.71708 0.0629,0.7989 0.0158,0.0818 0.0977,0.5981 0.31194,0.777 0.28826,0.24073 0.72827,0.21515 1.10366,0.22666 0.30358,0.009 0.59857,-0.11694 0.90208,-0.12829 0.40495,-0.0151 0.8151,0.004 1.21302,0.0808 0.11161,0.0215 0.2519,0.0177 0.32431,0.10532 0.40498,0.49002 0.18074,1.25914 0.23688,1.89237 z"
                 id="path2143"
                 sodipodi:nodetypes="ssssssssssssssssssssssssssssssss" />
            </g>
          </g>
          <g
             id="g4115"
             transform="translate(80)">
            <path
               style="fill:#818285;fill-opacity:1;stroke:none;stroke-width:1px;stroke-linecap:butt;stroke-linejoin:miter;stroke-opacity:1"
               d="m 150.2682,355.26452 0.89721,2.35533 2.52601,-0.2106 24.67901,-25.8067 -2.68684,-5.02673 -4.86048,-0.17588 z"
               id="path3615" />
            <path
               id="path3672"
               style="fill:#d1d2d4;fill-opacity:1;stroke:none;stroke-width:1px;stroke-linecap:butt;stroke-linejoin:miter;stroke-opacity:1"
               d="m 87.412109,4.6601562 -20.554687,28.8652348 0.896484,2.353515 0.134766,-0.01172 C 74.7026,27.836796 90.109375,9.515625 90.109375,9.515625 L 87.554688,4.6660156 Z"
               transform="translate(83.411035,321.7401)" />
            <path
               id="path3674"
               style="fill:#a5a7aa;fill-opacity:1;stroke:none;stroke-width:1px;stroke-linecap:butt;stroke-linejoin:miter;stroke-opacity:1"
               d="m 87.554688,4.6660156 2.554687,4.8496094 -0.01758,0.021484 4.78125,0.1640625 -2.599609,-4.8652344 z"
               transform="translate(83.411035,321.7401)" />
          </g>
        </g>
        <g
           id="g2404">
          <ellipse
             style="fill:#745535;stroke:none;stroke-width:0.4;stroke-opacity:1;fill-opacity:1"
             id="ellipse2291"
             cx="121.72969"
             cy="376.01413"
             rx="7.354919"
             ry="7.3233843" />
          <path
             id="path2169"
             style="fill:#604830;stroke:none;stroke-width:0.4;stroke-opacity:1;fill-opacity:1"
             d="M 42.011719 47.943359 A 7.354919 7.3233843 0 0 1 43.824219 52.751953 A 7.354919 7.3233843 0 0 1 36.46875 60.076172 A 7.354919 7.3233843 0 0 1 32.746094 59.052734 A 7.354919 7.3233843 0 0 0 38.318359 61.597656 A 7.354919 7.3233843 0 0 0 45.673828 54.273438 A 7.354919 7.3233843 0 0 0 42.011719 47.943359 z "
             transform="translate(83.411035,321.7401)" />
        </g>
        <g
           id="g2566">
          <ellipse
             style="fill:#745535;fill-opacity:1;stroke:none;stroke-width:0.497577;stroke-opacity:1"
             id="ellipse2656"
             cx="284.71799"
             cy="313.44476"
             rx="6.524879"
             ry="9.4786291"
             transform="matrix(0.95201234,0.30605964,-0.384005,0.92333101,0,0)" />
          <path
             id="path2428"
             style="fill:#604830;fill-opacity:1;stroke:none;stroke-width:0.496718;stroke-opacity:1"
             d="M 72.761719 47.236328 A 6.4825337 9.5076397 26.767114 0 1 72.208984 54.652344 A 6.4825337 9.5076397 26.767114 0 1 62.357422 61.408203 A 6.4825337 9.5076397 26.767114 0 1 60.515625 60.236328 A 6.4825337 9.5076397 26.767114 0 0 63.640625 63.566406 A 6.4825337 9.5076397 26.767114 0 0 73.492188 56.810547 A 6.4825337 9.5076397 26.767114 0 0 72.761719 47.236328 z "
             transform="translate(83.411035,321.7401)" />
        </g>
      </g>
    </g>
  </g>
</svg>
