<?xml version="1.0" encoding="UTF-8" standalone="no"?>
<svg
   width="576"
   height="192"
   viewBox="0 0 576 192"
   version="1.1"
   id="SVGRoot"
   sodipodi:docname="big_bush.svg"
   inkscape:version="1.2-dev (2933c477aa, 2021-06-11)"
   xmlns:inkscape="http://www.inkscape.org/namespaces/inkscape"
   xmlns:sodipodi="http://sodipodi.sourceforge.net/DTD/sodipodi-0.dtd"
   xmlns="http://www.w3.org/2000/svg"
   xmlns:svg="http://www.w3.org/2000/svg"
   xmlns:rdf="http://www.w3.org/1999/02/22-rdf-syntax-ns#"
   xmlns:cc="http://creativecommons.org/ns#"
   xmlns:dc="http://purl.org/dc/elements/1.1/">
  <metadata
     id="metadata15">
    <rdf:RDF>
      <cc:Work
         rdf:about="">
        <dc:format>image/svg+xml</dc:format>
        <dc:type
           rdf:resource="http://purl.org/dc/dcmitype/StillImage" />
      </cc:Work>
    </rdf:RDF>
  </metadata>
  <defs
     id="defs823" />
  <sodipodi:namedview
     id="base"
     pagecolor="#9d9d9d"
     bordercolor="#666666"
     borderopacity="1.0"
     inkscape:pageopacity="0"
     inkscape:pageshadow="2"
     inkscape:zoom="1.4"
     inkscape:cx="186.42857"
     inkscape:cy="100.71429"
     inkscape:document-units="px"
     inkscape:current-layer="layer1"
     showgrid="true"
     inkscape:window-width="1920"
     inkscape:window-height="2100"
     inkscape:window-x="3840"
     inkscape:window-y="32"
     inkscape:window-maximized="0"
     inkscape:snap-page="true"
     inkscape:document-rotation="0"
     inkscape:snap-global="false"
     inkscape:object-nodes="true"
     inkscape:snap-nodes="true"
     inkscape:snap-others="true"
     inkscape:snap-to-guides="true"
     inkscape:snap-bbox="true"
     inkscape:snap-grids="false"
     inkscape:object-paths="true"
     inkscape:snap-intersection-paths="true"
     inkscape:snap-smooth-nodes="true"
     inkscape:snap-midpoints="true"
     inkscape:pagecheckerboard="0">
    <inkscape:grid
       type="xygrid"
       id="grid17"
       spacingx="64"
       spacingy="64" />
  </sodipodi:namedview>
  <g
     inkscape:label="Layer 1"
     inkscape:groupmode="layer"
     id="layer1"
     transform="translate(-83.411035,-321.7401)">
    <g
       id="g9806">
      <g
         id="g5474">
        <path
           style="fill:#36520e;fill-opacity:1;stroke:none;stroke-width:1px;stroke-linecap:butt;stroke-linejoin:miter;stroke-opacity:1"
           d="m 383.16135,513.7401 h 218.77359 c 10.63655,-1.67 24.33137,-4.93689 24.80538,-8.9894 0.70081,-3.90375 -14.00378,-15.21727 -23.84199,-21.16806 15.1127,-6.47302 36.62917,-19.64296 36.72855,-25.95869 -2.25927,-6.2272 -32.6731,-11.30666 -53.27256,-11.77191 16.29125,-9.3739 30.35913,-26.60866 28.92939,-31.21218 -2.89028,-5.30926 -31.78612,-5.37027 -49.94257,-1.61591 10.95921,-14.71585 19.33311,-39.8442 16.63528,-43.04674 -4.96679,-5.10678 -35.05778,10.65097 -51.04106,20.82687 -0.25757,-15.35372 -4.98268,-43.85097 -9.62656,-44.24828 -4.97888,-0.41605 -20.31775,21.53741 -26.81091,35.25551 -7.37366,-15.64515 -26.97213,-42.2564 -31.12081,-40.35026 -6.20598,1.36583 -8.59881,32.67373 -7.59994,50.39335 -3.72915,-15.49982 -15.96913,-36.01324 -20.88907,-36.72679 -7.20748,0.26541 -13.11793,32.30771 -16.67057,48.28702 -9.36066,-5.5044 -23.42241,-18.34323 -28.66359,-16.13384 -2.86338,1.84822 -2.45412,17.88462 3.40158,33.99626 z"
           id="path5361"
           sodipodi:nodetypes="ccccccccccccccccccc" />
        <path
           id="path1157"
           style="fill:#293f0b;fill-opacity:1;stroke:none;stroke-width:1px;stroke-linecap:butt;stroke-linejoin:miter;stroke-opacity:1"
           d="M 496.46875,47.380859 C 486.78224,65.450026 476.01166,82.549389 463.25,97.865234 l -13.44531,-4.117187 c 3.52536,5.79937 4.00187,14.362793 2.32031,16.498043 -4.57529,1.34274 -14.69542,-9.08839 -22.33008,-14.771481 0.27937,11.935341 0.80301,31.630811 -3.49023,33.136721 -5.8184,0.16856 -16.82531,-15.72118 -24.67969,-27.32031 -5.8529,9.86905 -6.77965,20.55307 -8.19141,31.15625 -25.33925,-14.15923 -40.01405,-18.15197 -21.66211,9.3457 -23.98349,5.08567 -45.83768,6.99384 -67.63671,8.82031 L 299.75,192 h 218.77344 c 10.63655,-1.67 24.33263,-4.93772 24.80664,-8.99023 0.70081,-3.90375 -14.00554,-15.21718 -23.84375,-21.16797 15.1127,-6.47302 36.63109,-19.6413 36.73047,-25.95703 -2.25927,-6.2272 -32.67398,-11.30819 -53.27344,-11.77344 16.29125,-9.3739 30.35943,-26.607419 28.92969,-31.210939 -2.89028,-5.30926 -31.78691,-5.371548 -49.94336,-1.617188 10.95921,-14.71585 19.33259,-39.844335 16.63476,-43.046875 -0.46687,-0.480033 -1.21742,-0.722182 -2.0957,-0.855469 z"
           transform="translate(83.411035,321.7401)" />
      </g>
      <g
         id="g9798">
        <path
           style="fill:#426411;fill-opacity:1;stroke:none;stroke-width:1px;stroke-linecap:butt;stroke-linejoin:miter;stroke-opacity:1"
           d="m 112.74767,513.7401 h 329.31414 c 12.69613,-5.54638 26.41401,-11.30708 27.83857,-18.72396 -2.27057,-7.42143 -29.67953,-14.72372 -46.85774,-18.56404 8.00222,-10.69733 18.23945,-26.16895 16.10221,-27.94418 -3.59136,-4.60899 -26.29775,-0.67076 -39.31553,2.74425 11.52409,-12.23232 28.11705,-33.44938 25.02842,-40.51135 -9.23828,-6.00587 -35.09009,3.02454 -53.03768,10.41244 3.74475,-11.64922 6.42507,-34.44617 2.35834,-35.66724 -12.88304,1.21612 -33.90078,17.98018 -46.2774,33.88018 0.72903,-16.63168 0.56559,-41.59055 -7.0263,-49.18795 -5.87139,-2.50616 -24.33532,23.95546 -32.86707,40.48561 0.41449,-15.5677 -3.00124,-40.54561 -9.60274,-45.36213 -7.05505,0.18197 -22.2905,26.16025 -29.52193,41.09111 -3.83119,-14.54925 -19.37076,-40.14839 -24.49899,-39.28648 -6.67931,4.34986 -12.94908,32.24613 -13.95961,50.07246 -9.67802,-12.3177 -29.22313,-28.84817 -32.59285,-24.41391 -3.45647,2.036 -2.48889,23.91814 -0.70461,37.06245 -10.12372,-9.34697 -31.55758,-26.03497 -35.89195,-21.555 -2.65066,4.49653 0.29275,23.58558 3.03354,36.2292 -13.74324,-2.73827 -37.40466,-7.26243 -40.98005,-0.65771 -2.90152,3.94536 15.94315,23.91398 25.45901,34.87345 -15.84763,6.07449 -40.38119,14.37298 -41.34437,20.03201 -0.4977,6.1519 15.08867,11.0708 25.34459,14.99079 z"
           id="path8578"
           sodipodi:nodetypes="cccccccccccccccccccccccc" />
        <path
           id="path5509"
           style="fill:#324c0d;fill-opacity:1;stroke:none;stroke-width:1px;stroke-linecap:butt;stroke-linejoin:miter;stroke-opacity:1"
           d="m 375.28994,386.70299 c -3.02905,17.16702 -8.14323,33.46758 -24.12304,46.39844 -8.28783,-2.42969 -14.37472,-5.37111 -27.74414,-6.89258 5.61071,14.07432 14.41886,31.32812 12.26366,37.67773 -2.71243,4.36762 -27.61086,-19.1382 -40.14257,-18.5039 22.71889,54.31352 -1.3881,36.79395 -25.16602,19.7793 -1.90633,6.16602 -2.5866,12.58676 -3.20898,19.01953 -21.06363,-48.22288 -20.24233,-7.09588 -26.03515,7.02734 -26.73736,-14.2776 -57.73607,-32.97161 -34.95899,4.07227 -55.19758,-6.08966 -60.23152,0.54371 -43.93555,12.58789 -15.38919,2.1235 -34.52051,3.81456 -52.43555,4.76757 0.97134,0.36091 2.04009,0.75828 2.94336,1.10352 h 329.31445 c 12.69614,-5.54638 26.41529,-11.30773 27.83984,-18.72461 -2.27057,-7.42143 -29.68116,-14.72218 -46.85937,-18.5625 8.00223,-10.69733 18.24076,-26.17008 16.10352,-27.94531 -3.59137,-4.60899 -26.29863,-0.67087 -39.31641,2.74414 11.5241,-12.23232 28.11794,-33.44975 25.0293,-40.51172 -9.23827,-6.00587 -35.09147,3.02616 -53.03906,10.41406 3.32377,-10.33963 5.79756,-29.42874 3.4707,-34.45117 z"
           sodipodi:nodetypes="cccccccccccccccccccc" />
      </g>
    </g>
  </g>
</svg>
