<?xml version="1.0" encoding="UTF-8" standalone="no"?>
<svg
   width="256"
   height="128"
   viewBox="0 0 256 128"
   version="1.1"
   id="SVGRoot"
   sodipodi:docname="chest.svg"
   inkscape:version="1.2-dev (2933c477aa, 2021-06-11)"
   xmlns:inkscape="http://www.inkscape.org/namespaces/inkscape"
   xmlns:sodipodi="http://sodipodi.sourceforge.net/DTD/sodipodi-0.dtd"
   xmlns="http://www.w3.org/2000/svg"
   xmlns:svg="http://www.w3.org/2000/svg"
   xmlns:rdf="http://www.w3.org/1999/02/22-rdf-syntax-ns#"
   xmlns:cc="http://creativecommons.org/ns#"
   xmlns:dc="http://purl.org/dc/elements/1.1/">
  <metadata
     id="metadata15">
    <rdf:RDF>
      <cc:Work
         rdf:about="">
        <dc:format>image/svg+xml</dc:format>
        <dc:type
           rdf:resource="http://purl.org/dc/dcmitype/StillImage" />
      </cc:Work>
    </rdf:RDF>
  </metadata>
  <defs
     id="defs823" />
  <sodipodi:namedview
     id="base"
     pagecolor="#9f9f9f"
     bordercolor="#666666"
     borderopacity="1.0"
     inkscape:pageopacity="0"
     inkscape:pageshadow="2"
     inkscape:zoom="7.9195959"
     inkscape:cx="127.27922"
     inkscape:cy="90.534922"
     inkscape:document-units="px"
     inkscape:current-layer="layer1"
     showgrid="true"
     inkscape:window-width="3840"
     inkscape:window-height="2100"
     inkscape:window-x="1920"
     inkscape:window-y="32"
     inkscape:window-maximized="1"
     inkscape:snap-page="true"
     inkscape:document-rotation="0"
     inkscape:snap-global="true"
     inkscape:object-nodes="true"
     inkscape:snap-nodes="true"
     inkscape:snap-others="true"
     inkscape:snap-to-guides="true"
     inkscape:snap-bbox="true"
     inkscape:snap-grids="false"
     inkscape:object-paths="true"
     inkscape:snap-intersection-paths="true"
     inkscape:snap-smooth-nodes="true"
     inkscape:snap-midpoints="true"
     inkscape:pagecheckerboard="0">
    <inkscape:grid
       type="xygrid"
       id="grid17"
       spacingx="64"
       spacingy="64" />
  </sodipodi:namedview>
  <g
     inkscape:label="Layer 1"
     inkscape:groupmode="layer"
     id="layer1"
     transform="translate(-83.411035,-321.7401)">
    <g
       id="g18858">
      <g
         id="g18823">
        <path
           style="fill:#223408;fill-opacity:1;stroke:none;stroke-width:1px;stroke-linecap:butt;stroke-linejoin:miter;stroke-opacity:1"
           d="m 320.55121,449.7401 9.94668,-36.18805 -19.10817,19.22168 0.3624,-37.17664 -12.94645,38.17787 -0.11087,15.96514 z"
           id="path18656" />
        <path
           style="fill:#32690b;fill-opacity:0.998525;stroke:none;stroke-width:1px;stroke-linecap:butt;stroke-linejoin:miter;stroke-opacity:1"
           d="m 99.555444,449.7401 h 32.595096 c -2.54166,-14.36853 -1.67147,-29.97765 -14.79627,-40.49803 2.20267,11.10694 4.11232,22.18821 2.2847,32.94221 -2.98486,-3.24596 -6.3207,-5.97204 -10.12785,-8.00005 1.19969,3.9106 2.1526,7.78032 1.92947,11.45524 -5.7183,-4.94819 -11.917317,-8.75046 -19.162041,-10.05996 2.810343,4.66085 5.691307,9.31081 7.276895,14.16059 z"
           id="path16071"
           sodipodi:nodetypes="cccccccc" />
        <g
           id="g16001">
          <g
             id="g14805"
             transform="translate(0,-160)">
            <path
               style="fill:#53412f;fill-opacity:0.996486;stroke:none;stroke-width:1px;stroke-linecap:butt;stroke-linejoin:miter;stroke-opacity:1"
               d="m 241.04346,605.96728 59.67657,-0.15755 9.96648,-63.14077 -0.0155,-14.49126 -2.55606,-14.94085 -4.49457,-9.31144 -8.69626,-10.80708 -12.0619,-6.53809 -14.64428,-2.38057 -14.84694,6.5185 -8.5625,8.28913 -4.52613,6.12733 -5.60835,10.71026 -1.03784,7.66392 -2.65766,18.22164 z"
               id="path3944" />
            <g
               id="g14782"
               transform="translate(0,160)">
              <path
                 style="fill:#6a5137;fill-opacity:0.996078;stroke:none;stroke-width:1px;stroke-linecap:butt;stroke-linejoin:miter;stroke-opacity:1"
                 d="m 132.97583,445.99816 105.18533,0.82559 -11.03015,-70.31759 9.94311,-35.12363 26.74092,-19.64243 h -99.89179 c -33.93252,9.68893 -34.09166,32.99558 -37.87901,45.7623 l -3.48072,8.85273 z"
                 id="path1387"
                 sodipodi:nodetypes="ccccccccc" />
              <g
                 id="g14761">
                <g
                   id="g14742">
                  <g
                     id="g14727">
                    <path
                       id="path10651"
                       style="fill:#cea32e;fill-opacity:0.993111;stroke:none;stroke-width:0.3;stroke-linecap:butt;stroke-linejoin:miter;stroke-miterlimit:4;stroke-dasharray:none;stroke-opacity:1"
                       d="m 160.05752,321.37487 c -25.65409,-0.48912 -39.31103,30.43846 -40.69727,46 h -5.56445 v 18.04882 h 6.36523 l 7.96875,52.53321 h -2.15625 v 11.7832 h 13.62696 104.8587 c -0.12627,-4.94654 -0.19542,-6.83962 -0.2146,-12.21484 l -2.99053,0.11112 -7.27712,-52.64919 6.53566,0.57518 v -18.20313 h -10.10352 c 5.58113,-16.69796 12.24106,-33.16088 37.26563,-45.61914 -37.32316,2.10593 -42.86683,33.1777 -44.14845,45.61914 h -10.11523 v 2.72656 h -14.54688 l 0.22461,-3.99804 -49.79687,0.32226 0.71289,4.5586 h -18.95312 v -3.59375 H 126.079 c 1.62249,-9.30745 5.45751,-37.76538 37.84375,-45.63477 -1.30847,-0.22138 -2.59746,-0.34106 -3.86523,-0.36523 z m -29.00586,60.875 h 20.71484 l 9.58203,61.3164 h -21.74804 v -5.60937 h -5.49805 l -7.9707,-52.53321 h 4.91992 z m 67.10156,0.48437 h 15.25781 v 2.82813 h 8.92383 l 6.93555,51.96289 h -8.0879 v 6.04101 h -26.4453 z"
                       sodipodi:nodetypes="ccccccccccccccccccccccccccccccccccccccccccccccc" />
                    <g
                       id="g14362">
                      <path
                         style="fill:#bb8128;fill-opacity:1;stroke:none;stroke-width:1px;stroke-linecap:butt;stroke-linejoin:miter;stroke-opacity:1"
                         d="m 131.05166,385.42369 h -4.91992 l -0.0527,-18.04882 h 4.97266 v 18.04882"
                         id="path11127" />
                      <path
                         style="fill:#bb8128;fill-opacity:1;stroke:none;stroke-width:1px;stroke-linecap:butt;stroke-linejoin:miter;stroke-opacity:1"
                         d="m 135.66295,449.7401 h 3.93754 v -11.7832 h -4.05188 z"
                         id="path11368" />
                      <path
                         style="fill:#bb8128;fill-opacity:1;stroke:none;stroke-width:1px;stroke-linecap:butt;stroke-linejoin:miter;stroke-opacity:1"
                         d="m 188.34681,449.7401 h 5.93172 l 0.45868,-6.17383 3.41601,-60.83203 -1.75588,0.0157 0.91754,-12.70715 1.54927,0.043 0.22461,-3.99804 -5.49749,0.0356 z"
                         id="path14115" />
                    </g>
                  </g>
                  <g
                     id="g14080">
                    <g
                       id="g14072">
                      <path
                         style="fill:#bb8128;fill-opacity:0.988235;stroke:none;stroke-width:1px;stroke-linecap:butt;stroke-linejoin:miter;stroke-opacity:1"
                         d="m 165.62513,442.53999 20.26225,0.077 2.32426,-69.83284 -34.78796,-0.0361 z"
                         id="path13435" />
                      <path
                         id="path13249"
                         style="fill:#a27025;fill-opacity:0.995449;stroke:none;stroke-width:1px;stroke-linecap:butt;stroke-linejoin:miter;stroke-opacity:1"
                         d="m 70.011719,51.007812 12.203125,69.792968 3.789062,0.0137 -12.017578,-69.802731 c -1.324828,-0.0013 -2.649781,-0.0027 -3.974609,-0.0039 z"
                         transform="translate(83.411035,321.7401)" />
                    </g>
                    <g
                       id="g13214">
                      <path
                         style="fill:#463626;fill-opacity:0.980392;stroke:none;stroke-width:1px;stroke-linecap:butt;stroke-linejoin:miter;stroke-opacity:1"
                         d="m 168.34749,421.42516 12.53203,0.14293 -5.659,-15.3122 4.52275,-5.30228 -6.59583,-6.83036 -5.7374,6.8286 4.88158,4.95869 z"
                         id="path11729"
                         sodipodi:nodetypes="cccccccc" />
                      <path
                         style="fill:#6a5137;fill-opacity:0.980392;stroke:none;stroke-width:1px;stroke-linecap:butt;stroke-linejoin:miter;stroke-opacity:1"
                         d="m 168.34749,421.42516 4.12578,0.0471 2.74725,-15.21633 -3.8548,-5.47226 3.28081,-5.10803 -1.49909,-1.55235 -5.7374,6.8286 4.88158,4.95869 z"
                         id="path11519"
                         sodipodi:nodetypes="ccccccccc" />
                    </g>
                  </g>
                </g>
                <g
                   id="g14489">
                  <path
                     id="path5906"
                     style="fill:#bb8128;fill-opacity:0.992963;stroke:none;stroke-width:1px;stroke-linecap:butt;stroke-linejoin:miter;stroke-opacity:1"
                     d="m 268.95791,321.7401 c -26.03921,0.4236 -39.97788,35.68679 -39.31836,45.36328 l -3.19922,-0.0996 0.37109,18.98047 h 1.91211 l 6.9043,51.50977 -2.33203,0.0645 0.0664,12.18164 h 78.55274 l -0.44336,-12.73633 -5.29493,0.17969 6.53322,-51.35938 5.82616,-0.2207 0.0176,-18.94141 -4.35548,-0.0742 c -1.09957,-6.88962 -8.38429,-44.85066 -45.24023,-44.84766 z m 2.34765,6.09375 c 24.42591,0.21359 35.53622,27.50383 36.46875,38.68945 l -6.42773,0.10742 0.13281,3.65625 -60.80859,-0.1289 -0.2168,-3.48828 -5.16406,-0.0781 c 0.98926,-11.54318 10.73613,-37.73735 36.01562,-38.75781 z m 30.17969,54.71094 0.0801,3.26562 4.96093,-0.12109 -6.3828,51.27148 -4.73048,0.13086 0.13867,6.33399 -48.05078,0.12304 0.0488,-6.54492 -5.78125,-0.0742 -6.88281,-51.09961 5.64062,-0.0957 0.0293,-3.08984 z" />
                  <path
                     id="path7706"
                     style="fill:#a27025;fill-opacity:0.388235;stroke:none;stroke-width:1px;stroke-linecap:butt;stroke-linejoin:miter;stroke-opacity:1"
                     d="m 301.56535,385.81041 4.96093,-0.12109 c 0.11723,-9.2015 0.0412,-12.85448 -0.0285,-19.14469 -1.70103,0.0537 -3.15107,0.11122 -5.15123,0.0861 0.14437,7.88408 0.28641,14.27613 0.2188,19.17968 z"
                     sodipodi:nodetypes="ccccc" />
                </g>
              </g>
            </g>
          </g>
          <g
             id="g15972">
            <path
               style="fill:#000000;fill-opacity:0.233423;stroke:none;stroke-width:1px;stroke-linecap:butt;stroke-linejoin:miter;stroke-opacity:1"
               d="m 255.81855,385.0611 c 0.57003,2.63011 1.19542,5.26326 2.12438,7.78902 0.73117,1.98799 2.63746,5.61705 2.69866,5.75305 0.0612,0.136 4.02128,5.04718 4.17532,5.23193 0.15406,0.18476 3.59224,2.98455 5.61395,4.12832 1.79855,1.01752 3.73333,1.82204 5.72042,2.38913 1.48936,0.42504 3.03886,0.6914 4.58686,0.74193 1.39473,0.0455 2.80425,-0.0994 4.16751,-0.39752 1.34978,-0.29518 2.72519,-0.66049 3.91394,-1.3647 1.67311,-0.99115 3.16133,-2.35502 4.33122,-3.90841 1.07136,-1.42256 1.9676,-3.06014 2.34463,-4.80064 0.47864,-2.20957 0.16062,-4.54603 -0.1877,-6.77986 -0.23465,-1.50482 -0.84909,-2.92528 -1.27011,-4.38894 -0.42979,-1.49415 -0.67293,-3.05413 -1.28219,-4.48452 -0.45333,-1.06431 -0.8111,-2.3172 -1.74502,-2.9999 -0.75695,-0.55333 -1.80867,-0.6333 -2.746,-0.60978 -0.39385,0.01 -0.79213,0.1279 -1.1395,0.31377 -0.36104,0.19319 -0.69988,0.46464 -0.92844,0.8044 -0.33603,0.49952 -0.4989,1.11368 -0.58095,1.71008 -0.0502,0.3649 -0.0169,0.74312 0.0597,1.10339 0.20839,0.97973 0.72865,1.86624 1.0729,2.80687 0.36617,1.00053 0.75565,1.99462 1.05559,3.01696 0.21754,0.7415 0.4311,1.48966 0.53794,2.25499 0.13911,0.99649 0.2173,2.01324 0.13043,3.01564 -0.0976,1.1257 -0.18182,2.32114 -0.72688,3.3109 -0.52464,0.95267 -1.48997,1.59123 -2.31919,2.29495 -0.5989,0.50826 -1.17434,1.10218 -1.90788,1.38313 -1.40585,0.53845 -2.98839,0.54844 -4.49178,0.47002 -1.19235,-0.0622 -2.37155,-0.3641 -3.50433,-0.74141 -1.1107,-0.36996 -2.18291,-0.87444 -3.18565,-1.47862 -1.19141,-0.71785 -2.38115,-1.50084 -3.32199,-2.52533 -0.86213,-0.93878 -1.42048,-2.11972 -2.04701,-3.22969 -0.86451,-1.5316 -1.68167,-3.09669 -2.35575,-4.72113 -0.50016,-1.20532 -1.19776,-3.56398 -1.24579,-3.71142 -0.048,-0.14741 -0.62699,-2.79809 -1.31495,-4.03367 -0.39725,-0.71346 -0.8654,-1.47699 -1.57999,-1.87219 -0.7629,-0.42192 -1.72355,-0.46615 -2.58961,-0.36631 -0.30302,0.0349 -0.59772,0.16421 -0.85313,0.33096 -0.31305,0.20438 -0.58724,0.48135 -0.79203,0.79414 -0.30581,0.46708 -0.55413,1.0032 -0.61395,1.55827 -0.0439,0.40697 0.10967,0.81215 0.19637,1.21219 z"
               id="path15059-6"
               sodipodi:nodetypes="sssssssssssssssssssssssssssssssssssssssss" />
            <g
               id="g15966">
              <path
                 style="fill:#b97f28;fill-opacity:0.996078;stroke:none;stroke-width:1px;stroke-linecap:butt;stroke-linejoin:miter;stroke-opacity:1"
                 d="m 256.8432,380.71082 c 0.57003,2.63011 1.19542,5.26326 2.12438,7.78902 0.73117,1.98799 2.63746,5.61705 2.69866,5.75305 0.0612,0.136 4.02128,5.04718 4.17532,5.23193 0.15406,0.18476 3.59224,2.98455 5.61395,4.12832 1.79855,1.01752 3.73333,1.82204 5.72042,2.38913 1.48936,0.42504 3.03886,0.6914 4.58686,0.74193 1.39473,0.0455 2.80425,-0.0994 4.16751,-0.39752 1.34978,-0.29518 2.72519,-0.66049 3.91394,-1.3647 1.67311,-0.99115 3.16133,-2.35502 4.33122,-3.90841 1.07136,-1.42256 1.9676,-3.06014 2.34463,-4.80064 0.47864,-2.20957 0.16062,-4.54603 -0.1877,-6.77986 -0.23465,-1.50482 -0.84909,-2.92528 -1.27011,-4.38894 -0.42979,-1.49415 -0.67293,-3.05413 -1.28219,-4.48452 -0.45333,-1.06431 -0.8111,-2.3172 -1.74502,-2.9999 -0.75695,-0.55333 -1.80867,-0.6333 -2.746,-0.60978 -0.39385,0.01 -0.79213,0.1279 -1.1395,0.31377 -0.36104,0.19319 -0.69988,0.46464 -0.92844,0.8044 -0.33603,0.49952 -0.4989,1.11368 -0.58095,1.71008 -0.0502,0.3649 -0.0169,0.74312 0.0597,1.10339 0.20839,0.97973 0.72865,1.86624 1.0729,2.80687 0.36617,1.00053 0.75565,1.99462 1.05559,3.01696 0.21754,0.7415 0.4311,1.48966 0.53794,2.25499 0.13911,0.99649 0.2173,2.01324 0.13043,3.01564 -0.0976,1.1257 -0.18182,2.32114 -0.72688,3.3109 -0.52464,0.95267 -1.48997,1.59123 -2.31919,2.29495 -0.5989,0.50826 -1.17434,1.10218 -1.90788,1.38313 -1.40585,0.53845 -2.98839,0.54844 -4.49178,0.47002 -1.19235,-0.0622 -2.37155,-0.3641 -3.50433,-0.74141 -1.1107,-0.36996 -2.18291,-0.87444 -3.18565,-1.47862 -1.19141,-0.71785 -2.38115,-1.50084 -3.32199,-2.52533 -0.86213,-0.93878 -1.42048,-2.11972 -2.04701,-3.22969 -0.86451,-1.5316 -1.68167,-3.09669 -2.35575,-4.72113 -0.50016,-1.20532 -1.19776,-3.56398 -1.24579,-3.71142 -0.048,-0.14741 -0.62699,-2.79809 -1.31495,-4.03367 -0.39725,-0.71346 -0.8654,-1.47699 -1.57999,-1.87219 -0.7629,-0.42192 -1.72355,-0.46615 -2.58961,-0.36631 -0.30302,0.0349 -0.59772,0.16421 -0.85313,0.33096 -0.31305,0.20438 -0.58724,0.48135 -0.79203,0.79414 -0.30581,0.46708 -0.55413,1.0032 -0.61395,1.55827 -0.0439,0.40697 0.10967,0.81215 0.19637,1.21219 z"
                 id="path15059"
                 sodipodi:nodetypes="sssssssssssssssssssssssssssssssssssssssss" />
              <path
                 id="path14840"
                 style="fill:#a27025;fill-opacity:0.996078;stroke:none;stroke-width:1px;stroke-linecap:butt;stroke-linejoin:miter;stroke-opacity:1"
                 d="m 210.4707,59.138672 -0.78906,0.296875 -0.73242,0.626953 c 0,0 0.0302,1.509701 0.0606,1.650391 0.0304,0.14068 0.85682,3.591363 0.91992,3.845703 0.0631,0.25434 1.09179,3.939453 1.09179,3.939453 l -0.44336,3.658203 -1.44726,2.996094 -2.01758,2.601562 -2.98633,2.195313 -3.55468,0.666015 h -3.90235 l -2.98047,-0.505859 -3.27343,-1.089844 -3.00391,-1.574219 -2.92578,-1.845703 -2.08985,-2.419921 -1.74414,-2.601563 c 0,0 -1.8783,-3.475293 -1.9414,-3.601563 -0.0631,-0.126269 -1.21229,-4.216036 -1.27539,-4.378906 -0.0631,-0.16288 -0.73046,-2.43643 -0.85352,-2.61914 -0.12306,-0.1827 -0.65039,-0.830078 -0.65039,-0.830078 l -0.86133,-0.453126 -1.45703,0.08203 c 0.52419,2.360424 1.10948,4.715186 1.94336,6.982422 0.73117,1.98799 2.63802,5.617906 2.69922,5.753906 0.0612,0.136 4.01979,5.045719 4.17383,5.230469 0.15406,0.18476 3.59352,2.985136 5.61523,4.128906 1.79855,1.01752 3.73362,1.821582 5.7207,2.388672 1.48936,0.42504 3.03794,0.691657 4.58594,0.742187 1.39473,0.0455 2.80471,-0.09836 4.16797,-0.396484 1.34978,-0.29518 2.72531,-0.661024 3.91406,-1.365234 1.67311,-0.991151 3.16019,-2.354814 4.33008,-3.908204 1.07136,-1.42256 1.96868,-3.060281 2.34571,-4.800781 0.47863,-2.20957 0.16081,-4.545467 -0.1875,-6.779297 -0.23465,-1.50482 -0.85047,-2.926965 -1.27149,-4.390625 -0.4041,-1.40483 -0.64615,-2.865816 -1.17969,-4.224609 z"
                 transform="translate(83.411035,321.7401)" />
            </g>
          </g>
        </g>
        <path
           style="fill:#509803;fill-opacity:1;stroke:none;stroke-width:1px;stroke-linecap:butt;stroke-linejoin:miter;stroke-opacity:1"
           d="m 178.86909,449.7401 h 42.45025 c 2.52953,-5.21154 4.16668,-8.6286 5.26768,-10.96753 -5.51653,-0.0579 -10.55535,4.37579 -15.75951,7.25485 -0.13252,-3.00339 1.27057,-5.58806 2.64854,-8.17958 -4.85286,0.60304 -7.49578,3.17322 -10.6322,5.30412 -1.20374,-8.86802 2.43312,-17.40063 3.96344,-26.0792 -7.07025,6.5132 -11.96812,13.97743 -16.809,21.4666 -3.25385,-6.46317 -6.82697,-11.80512 -10.49205,-16.82415 1.42767,7.35107 2.82603,14.73167 4.10607,22.23146 -4.21709,-3.37572 -7.75045,-4.54192 -11.32581,-5.84387 2.19895,2.88167 4.39734,5.88041 6.58259,11.6373 z"
           id="path16881"
           sodipodi:nodetypes="cccccccccccc" />
      </g>
      <path
         style="fill:#326a0b;fill-opacity:1;stroke:none;stroke-width:1px;stroke-linecap:butt;stroke-linejoin:miter;stroke-opacity:1"
         d="m 278.63853,449.7401 h 33.63513 c 2.27705,-8.08714 5.86755,-13.57184 9.40469,-19.16226 -8.29794,1.06853 -15.21571,7.70672 -22.34068,13.50877 -1.74153,-10.95324 -4.75846,-20.35439 -10.45412,-26.49569 -0.25359,6.54509 -0.58289,12.69028 0.097,24.16589 -6.27832,-8.94256 -13.78584,-10.20412 -21.1883,-12.12221 5.07745,6.4563 12.06135,12.59243 10.84628,20.1055 z"
         id="path18084"
         sodipodi:nodetypes="cccccccc" />
    </g>
  </g>
</svg>
