<?xml version="1.0" encoding="UTF-8" standalone="no"?>
<svg
   width="128"
   height="128"
   viewBox="0 0 128 128"
   version="1.1"
   id="SVGRoot"
   sodipodi:docname="curley_grass2.svg"
   inkscape:version="1.2-dev (2933c477aa, 2021-06-11)"
   xmlns:inkscape="http://www.inkscape.org/namespaces/inkscape"
   xmlns:sodipodi="http://sodipodi.sourceforge.net/DTD/sodipodi-0.dtd"
   xmlns="http://www.w3.org/2000/svg"
   xmlns:svg="http://www.w3.org/2000/svg"
   xmlns:rdf="http://www.w3.org/1999/02/22-rdf-syntax-ns#"
   xmlns:cc="http://creativecommons.org/ns#"
   xmlns:dc="http://purl.org/dc/elements/1.1/">
  <metadata
     id="metadata15">
    <rdf:RDF>
      <cc:Work
         rdf:about="">
        <dc:format>image/svg+xml</dc:format>
        <dc:type
           rdf:resource="http://purl.org/dc/dcmitype/StillImage" />
      </cc:Work>
    </rdf:RDF>
  </metadata>
  <defs
     id="defs823" />
  <sodipodi:namedview
     id="base"
     pagecolor="#959595"
     bordercolor="#666666"
     borderopacity="1.0"
     inkscape:pageopacity="0"
     inkscape:pageshadow="2"
     inkscape:zoom="7.919596"
     inkscape:cx="38.512066"
     inkscape:cy="94.7018"
     inkscape:document-units="px"
     inkscape:current-layer="layer1"
     showgrid="true"
     inkscape:window-width="3840"
     inkscape:window-height="2100"
     inkscape:window-x="1920"
     inkscape:window-y="32"
     inkscape:window-maximized="1"
     inkscape:snap-page="true"
     inkscape:document-rotation="0"
     inkscape:snap-global="true"
     inkscape:object-nodes="true"
     inkscape:snap-nodes="true"
     inkscape:snap-others="true"
     inkscape:snap-to-guides="true"
     inkscape:snap-bbox="true"
     inkscape:snap-grids="false"
     inkscape:object-paths="true"
     inkscape:snap-intersection-paths="true"
     inkscape:snap-smooth-nodes="true"
     inkscape:snap-midpoints="true"
     inkscape:pagecheckerboard="0">
    <inkscape:grid
       type="xygrid"
       id="grid17"
       spacingx="64"
       spacingy="64" />
  </sodipodi:namedview>
  <g
     inkscape:label="Layer 1"
     inkscape:groupmode="layer"
     id="layer1"
     transform="translate(-83.411035,-321.7401)">
    <path
       style="fill:#32690b;stroke:none;stroke-width:1px;stroke-linecap:butt;stroke-linejoin:miter;stroke-opacity:1;fill-opacity:1"
       d="m 150.18998,449.7401 h 11.54123 c 0,0 2.47739,-21.3547 4.01401,-31.99185 0.32997,-2.28419 0.35325,-4.65524 1.11752,-6.83293 0.78095,-2.22523 2.00894,-4.31472 3.47189,-6.1644 1.55644,-1.96788 3.38285,-3.809 5.53113,-5.10513 2.07342,-1.25097 4.43986,-2.16994 6.84794,-2.4252 2.86032,-0.30319 5.85619,0.12238 8.55715,1.11139 1.98797,0.72794 3.82703,1.95892 5.33724,3.44256 1.20815,1.1869 2.21014,2.64383 2.82935,4.2202 0.64626,1.64522 0.88937,3.47003 0.83426,5.23677 -0.0323,1.03492 -0.22583,2.10014 -0.67892,3.03117 -0.61353,1.26069 -1.53004,2.42973 -2.66274,3.25601 -1.01381,0.73955 -2.25913,1.21214 -3.50281,1.37951 -1.35439,0.18227 -2.83065,0.12216 -4.07608,-0.44042 -0.78652,-0.35528 -1.57034,-0.95434 -1.91036,-1.74758 -0.34733,-0.8103 -0.20982,-1.80271 0.0528,-2.64429 0.11756,-0.37672 0.33677,-0.75196 0.65375,-0.98703 0.17732,-0.1315 0.41459,-0.20839 0.63455,-0.18965 0.33164,0.0283 0.76757,0.13598 0.89454,0.44365 0.1334,0.32325 -0.34414,0.64366 -0.33756,0.9933 0.003,0.16943 0.0429,0.37743 0.18158,0.47485 0.4548,0.31954 1.19415,0.32418 1.66717,0.0323 0.25219,-0.15562 0.3168,-0.51338 0.38324,-0.80217 0.14901,-0.64767 0.2687,-1.38026 0.0131,-1.99374 -0.23446,-0.56275 -0.75179,-1.02757 -1.30702,-1.27932 -0.68759,-0.31177 -1.53636,-0.39459 -2.25825,-0.17356 -0.88506,0.27098 -1.6359,0.97395 -2.17494,1.72641 -0.33665,0.46994 -0.50451,1.0604 -0.58389,1.63301 -0.13376,0.96489 -0.003,1.96255 0.19826,2.91561 0.16352,0.77366 0.35299,1.58454 0.81051,2.22949 0.43905,0.61892 1.65471,1.36167 1.76227,1.44115 0.10757,0.0795 1.38742,1.10402 2.21493,1.36149 1.19686,0.37239 2.51543,0.38032 3.75526,0.19597 1.40384,-0.20873 2.79369,-0.70737 4.00354,-1.4494 0.75132,-0.46081 1.34671,-1.14673 1.92933,-1.80808 1.14032,-1.29443 2.29973,-2.63146 3.0345,-4.19223 0.44474,-0.9447 0.64264,-1.99805 0.78543,-3.03239 0.22306,-1.61584 0.34881,-3.27998 0.10233,-4.89241 -0.25191,-1.64795 -0.8592,-3.24399 -1.59359,-4.74061 -0.66359,-1.35233 -1.50205,-2.63781 -2.507,-3.75997 -1.03734,-1.15833 -2.24545,-2.18956 -3.57334,-2.99859 -1.75564,-1.06965 -3.73695,-1.73732 -5.68962,-2.38035 -1.58574,-0.5222 -3.20989,-0.97149 -4.86496,-1.19057 -1.64525,-0.21778 -3.32951,-0.31171 -4.97747,-0.11548 -1.32665,0.15797 -2.62339,0.55892 -3.87313,1.03128 -1.41149,0.5335 -2.75812,1.24218 -4.05122,2.01988 -1.54947,0.93188 -4.41345,3.15352 -4.41345,3.15352 0,0 -0.40087,-4.44061 -0.85672,-6.61771 -0.44663,-2.1331 -1.07125,-4.23392 -1.83232,-6.27607 -0.82034,-2.20118 -1.70728,-4.40409 -2.93404,-6.40739 -1.09098,-1.78158 -2.47971,-3.37261 -3.88948,-4.91431 -1.48066,-1.61922 -3.00309,-3.23709 -4.77636,-4.52926 -1.84678,-1.34574 -3.90152,-2.41918 -6.01408,-3.29021 -2.29224,-0.94511 -4.70034,-1.65541 -7.14543,-2.06666 -2.08246,-0.35026 -4.21751,-0.43148 -6.32667,-0.32755 -1.96826,0.097 -3.96086,0.30843 -5.84539,0.88465 -2.13613,0.65315 -4.18292,1.6534 -6.0536,2.87413 -1.53147,0.99937 -2.92788,2.22793 -4.14944,3.58878 -1.30893,1.45819 -2.45458,3.08851 -3.34489,4.83406 -0.71379,1.39948 -1.24554,2.90771 -1.56283,4.44633 -0.24577,1.19179 -0.27036,2.42527 -0.25071,3.64198 0.0244,1.50757 0.0695,3.0429 0.45621,4.50024 0.40333,1.52012 1.05038,2.99807 1.91385,4.31254 0.55289,0.84167 1.29011,1.55774 2.04761,2.22128 0.91731,0.80353 1.93086,1.50465 2.99297,2.10384 0.81538,0.46 1.65785,0.92325 2.57061,1.13136 0.75171,0.17139 1.54106,0.10179 2.3117,0.078 1.03231,-0.0319 2.09198,-0.009 3.0843,-0.29533 0.82201,-0.23719 1.58202,-0.67751 2.29252,-1.1541 0.88975,-0.59683 1.74391,-1.28206 2.42631,-2.10801 0.44124,-0.53407 0.84797,-1.13298 1.04264,-1.79783 0.30264,-1.03361 0.34574,-2.17019 0.14257,-3.22786 -0.17861,-0.92981 -0.58884,-1.8401 -1.16779,-2.58928 -0.3853,-0.49859 -0.88757,-0.94985 -1.4715,-1.18665 -0.71988,-0.29193 -1.55749,-0.359 -2.32062,-0.21383 -0.64076,0.1219 -1.68037,0.77159 -1.74648,0.88246 -0.0661,0.11086 -0.52769,0.49965 -0.64336,0.83005 -0.17492,0.49964 -0.21283,1.09398 -0.0225,1.58796 0.17624,0.45742 0.55121,0.88397 1.0021,1.07633 0.3293,0.14049 0.75682,0.15047 1.07394,-0.0157 0.38442,-0.20143 0.59608,-0.65636 0.75661,-1.05958 0.10411,-0.26151 0.24512,-0.58639 0.11587,-0.83643 -0.14867,-0.28762 -0.76285,-0.13945 -0.86199,-0.44767 -0.0401,-0.12452 0.0755,-0.26809 0.17749,-0.34997 0.17318,-0.13903 0.4238,-0.18181 0.64531,-0.16577 0.4942,0.0358 0.99195,0.2548 1.37145,0.57339 0.22956,0.19272 0.38375,0.47498 0.48528,0.75699 0.23353,0.64865 0.18454,1.36678 0.2498,2.05309 0.0362,0.38092 0.12032,0.76487 0.0786,1.14523 -0.0581,0.52918 -0.14136,1.09951 -0.45216,1.53172 -0.31298,0.43523 -0.85663,0.64843 -1.31731,0.92259 -0.58797,0.34991 -1.18489,0.70851 -1.83683,0.91618 -1.08568,0.34584 -2.23879,0.55613 -3.37779,0.52464 -0.90295,-0.025 -1.81589,-0.21822 -2.6507,-0.56323 -0.58414,-0.24141 -1.11214,-0.61874 -1.59184,-1.03031 -0.95459,-0.81901 -1.79661,-1.78198 -2.50796,-2.81928 -0.46635,-0.68003 -0.84992,-1.42472 -1.13177,-2.19963 -0.2299,-0.63208 -0.35411,-1.30165 -0.44522,-1.96804 -0.22667,-1.65786 -0.45202,-3.35305 -0.24731,-5.01377 0.15538,-1.26055 0.56073,-2.49919 1.10627,-3.64615 0.59082,-1.24216 1.39642,-2.39052 2.30734,-3.42119 1.13922,-1.28898 2.49032,-2.39171 3.89162,-3.38954 1.03035,-0.73369 2.12527,-1.39824 3.29113,-1.88883 0.96237,-0.40496 1.99138,-0.64218 3.01411,-0.85236 1.34928,-0.27729 2.72024,-0.52487 4.09768,-0.53481 2.16793,-0.0156 4.35721,0.22389 6.46075,0.74858 1.71392,0.4275 3.36621,1.1197 4.93389,1.93375 1.24995,0.64906 2.41447,1.46359 3.52414,2.33094 1.8065,1.41201 3.61068,2.8807 5.06794,4.65089 1.06048,1.2882 1.88624,2.76757 2.61299,4.26954 1.12956,2.33445 1.97413,4.80821 2.68324,7.30275 0.39609,1.39338 0.72623,2.81624 0.87103,4.25757 0.28343,2.82113 0.33027,5.69151 -0.0131,8.50597 -0.13371,1.09595 -0.5438,2.14034 -0.7914,3.2163 -0.61291,2.66341 -1.11801,5.35071 -1.71804,8.01706 -0.47587,2.11463 -1.0263,4.21216 -1.49255,6.32894 -0.96143,4.36488 -1.76403,8.7634 -2.69024,13.13589 -1.2089,5.70698 -3.74191,17.09614 -3.74191,17.09614 z"
       id="path858"
       sodipodi:nodetypes="ccssssssssssssssssssssssssssssssssssssssssssssscssssssssssssssssssssssssssssssssssssssssssssssssssssssssssssssssssssssc" />
  </g>
</svg>
