<?xml version="1.0" encoding="UTF-8" standalone="no"?>
<svg
   width="128"
   height="128"
   viewBox="0 0 128 128"
   version="1.1"
   id="SVGRoot"
   sodipodi:docname="curley_grass1.svg"
   inkscape:version="1.2-dev (2933c477aa, 2021-06-11)"
   xmlns:inkscape="http://www.inkscape.org/namespaces/inkscape"
   xmlns:sodipodi="http://sodipodi.sourceforge.net/DTD/sodipodi-0.dtd"
   xmlns="http://www.w3.org/2000/svg"
   xmlns:svg="http://www.w3.org/2000/svg"
   xmlns:rdf="http://www.w3.org/1999/02/22-rdf-syntax-ns#"
   xmlns:cc="http://creativecommons.org/ns#"
   xmlns:dc="http://purl.org/dc/elements/1.1/">
  <metadata
     id="metadata15">
    <rdf:RDF>
      <cc:Work
         rdf:about="">
        <dc:format>image/svg+xml</dc:format>
        <dc:type
           rdf:resource="http://purl.org/dc/dcmitype/StillImage" />
      </cc:Work>
    </rdf:RDF>
  </metadata>
  <defs
     id="defs823" />
  <sodipodi:namedview
     id="base"
     pagecolor="#959595"
     bordercolor="#666666"
     borderopacity="1.0"
     inkscape:pageopacity="0"
     inkscape:pageshadow="2"
     inkscape:zoom="3.959798"
     inkscape:cx="64.649763"
     inkscape:cy="106.82363"
     inkscape:document-units="px"
     inkscape:current-layer="layer1"
     showgrid="true"
     inkscape:window-width="3840"
     inkscape:window-height="2100"
     inkscape:window-x="1920"
     inkscape:window-y="32"
     inkscape:window-maximized="1"
     inkscape:snap-page="true"
     inkscape:document-rotation="0"
     inkscape:snap-global="true"
     inkscape:object-nodes="true"
     inkscape:snap-nodes="true"
     inkscape:snap-others="true"
     inkscape:snap-to-guides="true"
     inkscape:snap-bbox="true"
     inkscape:snap-grids="false"
     inkscape:object-paths="true"
     inkscape:snap-intersection-paths="true"
     inkscape:snap-smooth-nodes="true"
     inkscape:snap-midpoints="true"
     inkscape:pagecheckerboard="0">
    <inkscape:grid
       type="xygrid"
       id="grid17"
       spacingx="64"
       spacingy="64" />
  </sodipodi:namedview>
  <g
     inkscape:label="Layer 1"
     inkscape:groupmode="layer"
     id="layer1"
     transform="translate(-83.411035,-321.7401)">
    <path
       style="fill:#35511b;stroke:none;stroke-width:1px;stroke-linecap:butt;stroke-linejoin:miter;stroke-opacity:1;fill-opacity:1"
       d="m 140.55758,449.7401 h 14.12575 c 0,0 -1.40416,-17.54889 1.50058,-25.58173 1.40101,-3.8744 3.62526,-8.1561 7.33518,-9.94783 3.13561,-1.51436 7.47658,-1.45707 10.43982,0.37174 2.367,1.46083 3.48702,4.20432 3.42428,6.9851 -0.0298,1.31892 -0.39806,2.95548 -1.47392,3.719 -1.52034,1.07897 -3.84181,2.068 -5.47093,1.16159 -1.03229,-0.57435 -1.77031,-2.29797 -1.20231,-3.33377 0.17271,-0.31495 0.72732,-0.3919 1.05127,-0.23672 0.26452,0.12671 0.14782,0.62079 0.38735,0.79005 0.38964,0.27533 1.02087,0.4234 1.42179,0.16477 0.3936,-0.25391 0.54205,-0.88405 0.4281,-1.33836 -0.15856,-0.63216 -0.77612,-1.18619 -1.40406,-1.36071 -0.80059,-0.2225 -1.83501,-0.0191 -2.42854,0.5624 -0.76402,0.74859 -0.81941,2.59003 -0.81892,2.69065 0.003,0.68528 0.12202,0.99728 0.31756,1.65085 0.25628,0.85659 0.80266,1.76891 1.40115,2.20378 1.4595,1.0605 3.52631,1.15459 5.26751,0.68232 1.44753,-0.39262 2.87957,-1.34662 3.80823,-2.52437 1.03801,-1.31642 1.6894,-2.88957 2.0091,-4.53523 0.38038,-1.95801 0.37398,-4.33935 -0.30574,-6.21457 -0.83517,-2.30406 -2.64784,-4.28778 -4.66002,-5.68684 -2.52597,-1.75629 -5.65273,-3.0211 -8.72918,-2.99786 -3.80418,0.0287 -7.66554,1.62468 -10.73684,3.86962 -1.65839,1.21218 -3.75067,4.8897 -3.75067,4.8897 0,0 -1.59664,-21.85711 0.13118,-32.5783 1.21168,-7.51851 2.71551,-15.48483 7.09006,-21.71856 3.24036,-4.6175 8.01441,-8.55773 13.34277,-10.40969 4.51135,-1.568 9.79127,-1.58602 14.32792,-0.0928 4.45287,1.46565 8.56869,4.58774 11.25992,8.42616 2.3322,3.32634 3.37319,7.60325 3.53875,11.66235 0.16983,4.16376 -0.57563,8.60107 -2.64368,12.21893 -1.10329,1.93011 -2.75433,3.94649 -4.90142,4.52318 -2.90728,0.78087 -6.50272,-0.0444 -8.81233,-1.97517 -1.59369,-1.33226 -2.56562,-3.67075 -2.41932,-5.74279 0.10763,-1.52442 1.08143,-3.08972 2.35591,-3.93301 0.65823,-0.43554 1.70858,-0.79202 2.34534,-0.32566 0.40362,0.29561 0.4855,1.03727 0.25177,1.47961 -0.19457,0.36822 -0.95817,0.14411 -1.13564,0.52087 -0.26049,0.55301 -0.0731,1.49557 0.47204,1.77208 0.64722,0.32827 1.62289,-0.18891 2.02848,-0.79071 0.78121,-1.15913 0.85697,-3.13348 -0.0547,-4.19307 -1.01199,-1.17618 -3.11756,-1.23401 -4.59327,-0.75463 -1.32908,0.43175 -2.30245,1.74151 -2.94772,2.98106 -0.77405,1.48693 -1.0555,3.27841 -0.90111,4.94763 0.17911,1.93649 0.79898,3.98788 2.08044,5.45074 1.81021,2.06645 4.52715,3.53299 7.24597,3.92675 2.47119,0.3579 5.17862,-0.28305 7.32795,-1.55396 2.72051,-1.60865 4.65436,-4.4189 6.19302,-7.1796 1.62793,-2.92087 2.24338,-6.45459 2.38307,-9.79556 0.20339,-4.86434 -0.39923,-9.66795 -2.57917,-14.02122 -2.08253,-4.15874 -5.15028,-8.09405 -9.06237,-10.60952 -3.92866,-2.52613 -8.80545,-3.62609 -13.47038,-3.85878 -4.86854,-0.24285 -9.98322,0.523 -14.3893,2.6082 -5.06849,2.39869 -9.46603,6.40045 -12.81494,10.89801 -4.68914,6.2975 -7.69694,13.91715 -9.47576,21.56453 -1.24833,5.36671 -0.71168,16.51461 -0.71168,16.51461 0,0 -5.70548,-9.8244 -10.13276,-13.1396 -4.49156,-3.36334 -10.11694,-5.41635 -15.68487,-6.11235 -3.86346,-0.48294 -7.91218,0.16096 -11.5925,1.43171 -3.48502,1.20332 -7.040185,2.93779 -9.475209,5.70618 -2.741324,3.11663 -4.603025,7.26897 -5.010202,11.39964 -0.38474,3.90305 0.440649,8.17562 2.539858,11.48849 1.432808,2.26119 3.844753,3.9735 6.350243,4.91607 1.94212,0.73063 4.19266,0.84969 6.2135,0.37867 1.97464,-0.46025 3.96413,-1.47561 5.28215,-3.01634 1.02386,-1.19686 1.66997,-2.84159 1.6794,-4.4166 0.0108,-1.80186 -0.49403,-3.90096 -1.86062,-5.07538 -0.80372,-0.6907 -2.06441,-0.76743 -3.11558,-0.63291 -1.05793,0.13538 -2.34513,0.47997 -2.87419,1.40606 -0.40181,0.70334 -0.32684,1.79797 0.18874,2.42272 0.48591,0.58879 1.52002,0.93857 2.20806,0.60784 0.3944,-0.18958 0.66101,-0.79232 0.5185,-1.20606 -0.15097,-0.43832 -1.25523,-0.20621 -1.2196,-0.66843 0.0432,-0.55987 1.02318,-0.60379 1.58391,-0.57368 0.65064,0.0349 1.4282,0.29556 1.75603,0.85865 0.76605,1.31577 0.44137,3.21864 -0.28094,4.55892 -0.54129,1.00439 -1.65836,1.68484 -2.73781,2.0544 -1.92129,0.65777 -4.17282,0.76249 -6.09151,0.0972 -2.00668,-0.69579 -3.925257,-2.15815 -4.940425,-4.02371 -1.463184,-2.68888 -1.39701,-6.09303 -1.002601,-9.12872 0.206389,-1.58854 0.829038,-3.15836 1.727906,-4.48429 1.382712,-2.03966 3.34818,-3.69487 5.42364,-5.02324 1.79758,-1.15051 3.82287,-2.0372 5.91805,-2.44362 3.69329,-0.71641 7.66227,-0.91634 11.286,0.0947 3.64339,1.01653 9.61933,5.53062 9.75747,5.79311 0.0761,0.14455 2.58898,3.27145 4.3138,6.26753 1.40722,2.44441 2.05601,4.8647 2.12536,5.0502 1.05072,2.81045 1.52293,8.20464 2.06659,12.46467 0.69633,5.45642 0.94392,10.95401 1.3128,16.30081 0.47504,6.88543 0.36847,20.7021 0.36847,20.7021 z"
       id="path980"
       sodipodi:nodetypes="ccssssssssssssssssssssssscssssssssssssssssssssssssssssssscsssssssssssssssssssssssssssssssssc" />
  </g>
</svg>
