<?xml version="1.0" encoding="UTF-8" standalone="no"?>
<svg
   width="128"
   height="64"
   viewBox="0 0 128 64"
   version="1.1"
   id="SVGRoot"
   sodipodi:docname="gold2.svg"
   inkscape:version="1.2-dev (2933c477aa, 2021-06-11)"
   xmlns:inkscape="http://www.inkscape.org/namespaces/inkscape"
   xmlns:sodipodi="http://sodipodi.sourceforge.net/DTD/sodipodi-0.dtd"
   xmlns="http://www.w3.org/2000/svg"
   xmlns:svg="http://www.w3.org/2000/svg"
   xmlns:rdf="http://www.w3.org/1999/02/22-rdf-syntax-ns#"
   xmlns:cc="http://creativecommons.org/ns#"
   xmlns:dc="http://purl.org/dc/elements/1.1/">
  <metadata
     id="metadata15">
    <rdf:RDF>
      <cc:Work
         rdf:about="">
        <dc:format>image/svg+xml</dc:format>
        <dc:type
           rdf:resource="http://purl.org/dc/dcmitype/StillImage" />
      </cc:Work>
    </rdf:RDF>
  </metadata>
  <defs
     id="defs823" />
  <sodipodi:namedview
     id="base"
     pagecolor="#9f9f9f"
     bordercolor="#666666"
     borderopacity="1.0"
     inkscape:pageopacity="0"
     inkscape:pageshadow="2"
     inkscape:zoom="8"
     inkscape:cx="32.375"
     inkscape:cy="81.125"
     inkscape:document-units="px"
     inkscape:current-layer="layer1"
     showgrid="true"
     inkscape:window-width="3840"
     inkscape:window-height="2100"
     inkscape:window-x="1920"
     inkscape:window-y="32"
     inkscape:window-maximized="1"
     inkscape:snap-page="true"
     inkscape:document-rotation="0"
     inkscape:snap-global="true"
     inkscape:object-nodes="true"
     inkscape:snap-nodes="true"
     inkscape:snap-others="true"
     inkscape:snap-to-guides="true"
     inkscape:snap-bbox="true"
     inkscape:snap-grids="false"
     inkscape:object-paths="true"
     inkscape:snap-intersection-paths="true"
     inkscape:snap-smooth-nodes="true"
     inkscape:snap-midpoints="true"
     inkscape:pagecheckerboard="0"
     width="128px">
    <inkscape:grid
       type="xygrid"
       id="grid17"
       spacingx="64"
       spacingy="64" />
  </sodipodi:namedview>
  <g
     inkscape:label="Layer 1"
     inkscape:groupmode="layer"
     id="layer1"
     transform="translate(-83.411035,-321.7401)">
    <g
       id="g3419"
       transform="translate(11.304027,-0.02522159)">
      <path
         style="fill:#cba235;fill-opacity:1;stroke:none;stroke-width:1px;stroke-linecap:butt;stroke-linejoin:miter;stroke-opacity:1"
         d="m 96.29961,385.7401 h 38.3478 c 0.88582,-0.21714 1.51633,-0.61072 1.57038,-1.40273 l -0.11071,-6.73256 c -0.23781,-0.96447 -0.64976,-1.79409 -1.85292,-2.01105 H 96.32312 c -0.72622,0.13052 -1.53162,0.37866 -2.00722,1.41742 l -0.0122,7.23996 c 0.24856,1.00604 1.00456,1.39144 1.99594,1.48896 z"
         id="path2079"
         sodipodi:nodetypes="ccccccccc" />
      <path
         style="fill:#b9822f;fill-opacity:1;stroke:none;stroke-width:1px;stroke-linecap:butt;stroke-linejoin:miter;stroke-opacity:1"
         d="m 96.299613,385.7401 h 38.347797 c 0.88582,-0.21714 1.51633,-0.61072 1.57038,-1.40273 l -0.11071,-6.73256 c -0.23781,-0.96447 -0.64976,-1.79409 -1.85292,-2.01105 -7.73385,6.2265 -4.13725,6.25588 -39.94756,6.91168 l -0.0029,1.7457 c 0.248563,1.00604 1.004565,1.39144 1.995943,1.48896 z"
         id="path2564"
         sodipodi:nodetypes="ccccccccc" />
      <path
         style="fill:#996f30;fill-opacity:1;stroke:none;stroke-width:1px;stroke-linecap:butt;stroke-linejoin:miter;stroke-opacity:1"
         d="m 125.70556,385.7401 h 8.94185 c 0.88582,-0.21714 1.51633,-0.61072 1.57038,-1.40273 l -0.0583,-3.54223 c -3.21807,2.1611 -9.12637,5.13625 -10.45398,4.94496 z"
         id="path1096"
         sodipodi:nodetypes="ccccc" />
    </g>
    <g
       id="g845"
       transform="translate(-3.583818,-10.171562)">
      <path
         style="fill:#cba235;fill-opacity:1;stroke:none;stroke-width:1px;stroke-linecap:butt;stroke-linejoin:miter;stroke-opacity:1"
         d="m 96.29961,385.7401 h 38.3478 c 0.88582,-0.21714 1.51633,-0.61072 1.57038,-1.40273 l -0.11071,-6.73256 c -0.23781,-0.96447 -0.64976,-1.79409 -1.85292,-2.01105 H 96.32312 c -0.72622,0.13052 -1.53162,0.37866 -2.00722,1.41742 l -0.0122,7.23996 c 0.24856,1.00604 1.00456,1.39144 1.99594,1.48896 z"
         id="path839"
         sodipodi:nodetypes="ccccccccc" />
      <path
         style="fill:#b9822f;fill-opacity:1;stroke:none;stroke-width:1px;stroke-linecap:butt;stroke-linejoin:miter;stroke-opacity:1"
         d="m 96.299613,385.7401 h 38.347797 c 0.88582,-0.21714 1.51633,-0.61072 1.57038,-1.40273 l -0.11071,-6.73256 c -0.23781,-0.96447 -0.64976,-1.79409 -1.85292,-2.01105 -7.73385,6.2265 -4.13725,6.25588 -39.94756,6.91168 l -0.0029,1.7457 c 0.248563,1.00604 1.004565,1.39144 1.995943,1.48896 z"
         id="path841"
         sodipodi:nodetypes="ccccccccc" />
      <path
         style="fill:#996f30;fill-opacity:1;stroke:none;stroke-width:1px;stroke-linecap:butt;stroke-linejoin:miter;stroke-opacity:1"
         d="m 125.70556,385.7401 h 8.94185 c 0.88582,-0.21714 1.51633,-0.61072 1.57038,-1.40273 l -0.0583,-3.54223 c -3.21807,2.1611 -9.12637,5.13625 -10.45398,4.94496 z"
         id="path843"
         sodipodi:nodetypes="ccccc" />
    </g>
    <g
       id="g853"
       transform="translate(11.197653,-20.317902)">
      <path
         style="fill:#cba235;fill-opacity:1;stroke:none;stroke-width:1px;stroke-linecap:butt;stroke-linejoin:miter;stroke-opacity:1"
         d="m 96.29961,385.7401 h 38.3478 c 0.88582,-0.21714 1.51633,-0.61072 1.57038,-1.40273 l -0.11071,-6.73256 c -0.23781,-0.96447 -0.64976,-1.79409 -1.85292,-2.01105 H 96.32312 c -0.72622,0.13052 -1.53162,0.37866 -2.00722,1.41742 l -0.0122,7.23996 c 0.24856,1.00604 1.00456,1.39144 1.99594,1.48896 z"
         id="path847"
         sodipodi:nodetypes="ccccccccc" />
      <path
         style="fill:#b9822f;fill-opacity:1;stroke:none;stroke-width:1px;stroke-linecap:butt;stroke-linejoin:miter;stroke-opacity:1"
         d="m 96.299613,385.7401 h 38.347797 c 0.88582,-0.21714 1.51633,-0.61072 1.57038,-1.40273 l -0.11071,-6.73256 c -0.23781,-0.96447 -0.64976,-1.79409 -1.85292,-2.01105 -7.73385,6.2265 -4.13725,6.25588 -39.94756,6.91168 l -0.0029,1.7457 c 0.248563,1.00604 1.004565,1.39144 1.995943,1.48896 z"
         id="path849"
         sodipodi:nodetypes="ccccccccc" />
      <path
         style="fill:#996f30;fill-opacity:1;stroke:none;stroke-width:1px;stroke-linecap:butt;stroke-linejoin:miter;stroke-opacity:1"
         d="m 125.70556,385.7401 h 8.94185 c 0.88582,-0.21714 1.51633,-0.61072 1.57038,-1.40273 l -0.0583,-3.54223 c -3.21807,2.1611 -9.12637,5.13625 -10.45398,4.94496 z"
         id="path851"
         sodipodi:nodetypes="ccccc" />
    </g>
    <g
       id="g861"
       transform="translate(53.218117,0.06100841)">
      <path
         style="fill:#cba235;fill-opacity:1;stroke:none;stroke-width:1px;stroke-linecap:butt;stroke-linejoin:miter;stroke-opacity:1"
         d="m 96.29961,385.7401 h 38.3478 c 0.88582,-0.21714 1.51633,-0.61072 1.57038,-1.40273 l -0.11071,-6.73256 c -0.23781,-0.96447 -0.64976,-1.79409 -1.85292,-2.01105 H 96.32312 c -0.72622,0.13052 -1.53162,0.37866 -2.00722,1.41742 l -0.0122,7.23996 c 0.24856,1.00604 1.00456,1.39144 1.99594,1.48896 z"
         id="path855"
         sodipodi:nodetypes="ccccccccc" />
      <path
         style="fill:#b9822f;fill-opacity:1;stroke:none;stroke-width:1px;stroke-linecap:butt;stroke-linejoin:miter;stroke-opacity:1"
         d="m 96.299613,385.7401 h 38.347797 c 0.88582,-0.21714 1.51633,-0.61072 1.57038,-1.40273 l -0.11071,-6.73256 c -0.23781,-0.96447 -0.64976,-1.79409 -1.85292,-2.01105 -7.73385,6.2265 -4.13725,6.25588 -39.94756,6.91168 l -0.0029,1.7457 c 0.248563,1.00604 1.004565,1.39144 1.995943,1.48896 z"
         id="path857"
         sodipodi:nodetypes="ccccccccc" />
      <path
         style="fill:#996f30;fill-opacity:1;stroke:none;stroke-width:1px;stroke-linecap:butt;stroke-linejoin:miter;stroke-opacity:1"
         d="m 125.70556,385.7401 h 8.94185 c 0.88582,-0.21714 1.51633,-0.61072 1.57038,-1.40273 l -0.0583,-3.54223 c -3.21807,2.1611 -9.12637,5.13625 -10.45398,4.94496 z"
         id="path859"
         sodipodi:nodetypes="ccccc" />
    </g>
  </g>
</svg>
