<?xml version="1.0" encoding="UTF-8" standalone="no"?>
<svg
   width="320"
   height="64"
   viewBox="0 0 320 64"
   version="1.1"
   id="SVGRoot"
   sodipodi:docname="grass1.svg"
   inkscape:version="1.2-dev (2933c477aa, 2021-06-11)"
   xmlns:inkscape="http://www.inkscape.org/namespaces/inkscape"
   xmlns:sodipodi="http://sodipodi.sourceforge.net/DTD/sodipodi-0.dtd"
   xmlns="http://www.w3.org/2000/svg"
   xmlns:svg="http://www.w3.org/2000/svg"
   xmlns:rdf="http://www.w3.org/1999/02/22-rdf-syntax-ns#"
   xmlns:cc="http://creativecommons.org/ns#"
   xmlns:dc="http://purl.org/dc/elements/1.1/">
  <metadata
     id="metadata15">
    <rdf:RDF>
      <cc:Work
         rdf:about="">
        <dc:format>image/svg+xml</dc:format>
        <dc:type
           rdf:resource="http://purl.org/dc/dcmitype/StillImage" />
        <dc:title />
      </cc:Work>
    </rdf:RDF>
  </metadata>
  <defs
     id="defs823" />
  <sodipodi:namedview
     id="base"
     pagecolor="#ffffff"
     bordercolor="#666666"
     borderopacity="1.0"
     inkscape:pageopacity="0.0"
     inkscape:pageshadow="2"
     inkscape:zoom="11.2"
     inkscape:cx="121.29464"
     inkscape:cy="75.625"
     inkscape:document-units="px"
     inkscape:current-layer="layer1"
     showgrid="true"
     inkscape:window-width="3840"
     inkscape:window-height="2100"
     inkscape:window-x="1920"
     inkscape:window-y="32"
     inkscape:window-maximized="1"
     inkscape:snap-page="true"
     inkscape:document-rotation="0"
     inkscape:snap-global="false"
     inkscape:object-nodes="true"
     inkscape:snap-nodes="true"
     inkscape:snap-others="true"
     inkscape:snap-to-guides="true"
     inkscape:snap-bbox="true"
     inkscape:snap-grids="false"
     inkscape:object-paths="true"
     inkscape:snap-intersection-paths="true"
     inkscape:snap-smooth-nodes="true"
     inkscape:snap-midpoints="true"
     inkscape:pagecheckerboard="0">
    <inkscape:grid
       type="xygrid"
       id="grid17"
       spacingx="64"
       spacingy="64" />
  </sodipodi:namedview>
  <g
     inkscape:label="Layer 1"
     inkscape:groupmode="layer"
     id="layer1"
     transform="translate(-83.411035,-321.7401)">
    <path
       style="fill:#478906;stroke:none;stroke-width:1px;stroke-linecap:butt;stroke-linejoin:miter;stroke-opacity:1;fill-opacity:1"
       d="M 94.894491,385.7401 H 272.05573 c -2.6551,-5.07541 -4.12084,-11.79533 -3.02338,-22.05933 l -12.93333,12.89013 c -3.5002,-5.29116 -1.50715,-13.48751 1.6113,-22.27904 -8.37161,5.77358 -13.67214,12.9637 -19.73661,19.80145 -3.83671,-3.45453 -4.66322,-9.70456 -4.07017,-17.27291 -6.12865,4.26469 -11.11683,9.42601 -14.10956,16.15611 -3.01295,-11.64516 -3.35026,-13.96283 -5.02317,-20.93649 -1.58214,4.71038 -0.70198,19.11241 -2.69998,24.52728 l -14.98781,-23.67083 c -1.54873,6.97721 -4.44487,13.39675 -8.69372,18.48226 -2.46089,-5.98996 -4.96084,-11.76389 -7.84062,-15.43675 -2.67804,4.65972 -4.72241,9.31945 -6.84765,13.97917 -1.64824,-7.44741 -3.30267,-14.89641 -7.0793,-22.88644 -2.00845,7.21776 -2.67314,14.28812 -3.78807,21.40787 l -5.71189,-7.06109 c -2.0693,7.31091 -4.52189,13.12156 -8.04237,14.75239 -1.59305,-5.14699 -2.01528,-11.22915 -2.46253,-17.29133 -3.71573,4.10712 -6.54619,8.79291 -9.26826,13.54955 -2.09635,-3.83041 -3.87238,-7.78177 -7.66967,-10.96984 0.1926,5.43945 -0.48459,10.40838 -1.304,15.30038 l -5.592,-21.49655 c -4.90983,4.54019 -5.46724,11.69726 -7.62276,17.89347 -1.62714,-1.90601 -2.26858,-9.98896 -3.96769,-15.2546 l -5.17134,18.2614 c -3.77924,-4.08506 -6.209264,-14.41649 -7.313306,-15.95349 l -0.06348,18.72971 c -2.481675,0.0924 -5.718348,-4.17727 -8.684482,-6.88389 1.320687,4.71499 2.646994,9.42753 4.934605,13.72141 z"
       id="path33"
       sodipodi:nodetypes="ccccccccccccccccccccccccccccccc" />
    <path
       style="fill:#509803;stroke:none;stroke-width:3.3;stroke-linecap:butt;stroke-linejoin:miter;stroke-opacity:1;stroke-miterlimit:4;stroke-dasharray:none;fill-opacity:1"
       d="m 287.18587,385.7401 h 45.17133 c 0.40268,-3.83703 2.63001,-7.31695 4.7111,-10.82549 -8.29842,0.38547 -11.87705,3.9652 -15.59266,7.45222 -0.60156,-1.5236 0.77477,-5.64239 1.73302,-9.21262 -3.59076,2.30595 -5.8668,4.61189 -8.50345,6.91784 -1.05718,-11.61298 1.8406,-19.37027 3.07839,-28.60727 -7.94295,7.44852 -11.35855,15.41258 -15.28667,23.43697 -4.31684,-7.71906 -8.72773,-14.33383 -13.33818,-18.60567 2.12641,8.48517 4.30524,16.97704 4.7866,25.25196 -4.06253,-2.72455 -7.58142,-6.13175 -12.67628,-7.56002 2.00341,4.00306 4.02671,8.06084 5.9168,11.75208 z"
       id="path1598"
       sodipodi:nodetypes="cccccccccccc" />
    <path
       style="fill:#509803;stroke:none;stroke-width:1px;stroke-linecap:butt;stroke-linejoin:miter;stroke-opacity:1;fill-opacity:1"
       d="m 361.11947,385.7401 h 25.97425 c -2.18155,-6.7151 -3.73959,-13.25518 -10.07326,-21.13576 0.33655,5.42313 1.13561,10.84626 0.28716,16.26939 -8.36055,-9.76928 -15.77707,-20.15953 -28.21762,-27.24506 6.15972,10.73896 12.16343,21.54458 12.02947,32.11143 z"
       id="path2302"
       sodipodi:nodetypes="cccccc" />
  </g>
</svg>
