<?xml version="1.0" encoding="UTF-8" standalone="no"?>
<svg
   width="64"
   height="128"
   viewBox="0 0 64 128"
   version="1.1"
   id="SVGRoot"
   sodipodi:docname="curley_grass3.svg"
   inkscape:version="1.2-dev (2933c477aa, 2021-06-11)"
   xmlns:inkscape="http://www.inkscape.org/namespaces/inkscape"
   xmlns:sodipodi="http://sodipodi.sourceforge.net/DTD/sodipodi-0.dtd"
   xmlns="http://www.w3.org/2000/svg"
   xmlns:svg="http://www.w3.org/2000/svg"
   xmlns:rdf="http://www.w3.org/1999/02/22-rdf-syntax-ns#"
   xmlns:cc="http://creativecommons.org/ns#"
   xmlns:dc="http://purl.org/dc/elements/1.1/">
  <metadata
     id="metadata15">
    <rdf:RDF>
      <cc:Work
         rdf:about="">
        <dc:format>image/svg+xml</dc:format>
        <dc:type
           rdf:resource="http://purl.org/dc/dcmitype/StillImage" />
      </cc:Work>
    </rdf:RDF>
  </metadata>
  <defs
     id="defs823" />
  <sodipodi:namedview
     id="base"
     pagecolor="#adadad"
     bordercolor="#666666"
     borderopacity="1.0"
     inkscape:pageopacity="0"
     inkscape:pageshadow="2"
     inkscape:zoom="1.4"
     inkscape:cx="-212.85714"
     inkscape:cy="129.28571"
     inkscape:document-units="px"
     inkscape:current-layer="layer1"
     showgrid="true"
     inkscape:window-width="3840"
     inkscape:window-height="2100"
     inkscape:window-x="1920"
     inkscape:window-y="32"
     inkscape:window-maximized="1"
     inkscape:snap-page="true"
     inkscape:document-rotation="0"
     inkscape:snap-global="true"
     inkscape:object-nodes="true"
     inkscape:snap-nodes="true"
     inkscape:snap-others="true"
     inkscape:snap-to-guides="true"
     inkscape:snap-bbox="true"
     inkscape:snap-grids="false"
     inkscape:object-paths="true"
     inkscape:snap-intersection-paths="true"
     inkscape:snap-smooth-nodes="true"
     inkscape:snap-midpoints="true"
     inkscape:pagecheckerboard="0">
    <inkscape:grid
       type="xygrid"
       id="grid17"
       spacingx="64"
       spacingy="64" />
  </sodipodi:namedview>
  <g
     inkscape:label="Layer 1"
     inkscape:groupmode="layer"
     id="layer1"
     transform="translate(-83.411035,-321.7401)">
    <path
       style="fill:#32690b;fill-opacity:1;stroke:none;stroke-width:1px;stroke-linecap:butt;stroke-linejoin:miter;stroke-opacity:1"
       d="m 129.22921,449.7401 h 10.47658 c 0,0 0.83945,-28.47544 -0.98053,-42.54295 -0.38104,-2.94522 -1.0726,-5.86801 -2.06819,-8.66592 -0.60167,-1.69087 -1.41902,-3.30862 -2.33927,-4.84946 -1.0219,-1.71105 -2.10631,-3.42527 -3.50948,-4.84057 -1.46395,-1.4766 -3.26377,-2.58934 -5.01853,-3.70483 -1.90308,-1.20977 -3.83058,-2.44741 -5.94804,-3.22305 -1.43199,-0.52454 -4.35597,-0.89254 -4.47869,-0.93436 -0.12269,-0.0418 -3.94904,-0.41901 -5.91516,-0.24892 -1.5642,0.13532 -3.09679,0.5569 -4.60205,1.00328 -1.43106,0.42437 -2.87531,0.87474 -4.18787,1.58551 -2.357451,1.27658 -4.541178,2.90757 -6.495488,4.74276 -1.122028,1.05364 -2.056901,2.29858 -2.951813,3.55087 -0.570193,0.7979 -1.12306,1.62048 -1.531284,2.51217 -0.780876,1.70568 -1.380983,3.51299 -1.723497,5.35738 -0.195042,1.05028 -0.179302,3.08277 -0.179302,3.19968 0,0.11691 0.177008,2.85785 0.655725,4.18691 0.35781,0.99339 1.508288,2.52341 1.61796,2.7232 0.109673,0.19978 2.250851,2.35154 2.357619,2.45207 0.106768,0.10053 1.98076,1.2335 2.128345,1.31471 0.147586,0.0812 1.844882,0.56292 2.798642,0.64894 0.829478,0.0748 2.367042,-0.11978 2.495662,-0.11978 0.128621,0 1.872761,-0.16272 2.718141,-0.53413 1.15148,-0.5059 2.13862,-1.35775 3.04014,-2.23474 0.5322,-0.51772 1.01586,-1.10414 1.36826,-1.75766 0.25917,-0.48062 0.43551,-1.01269 0.52714,-1.55099 0.1612,-0.94704 0.20072,-1.93692 0.0276,-2.88186 -0.12922,-0.70533 -0.33166,-1.44596 -0.78187,-2.00408 -0.5372,-0.66595 -1.30195,-1.24401 -2.13972,-1.41781 -0.80259,-0.1665 -1.7019,0.0374 -2.42101,0.43076 -0.42429,0.23211 -0.7543,0.64045 -0.98442,1.06582 -0.29749,0.54991 -0.49258,1.19496 -0.4569,1.81916 0.0247,0.43144 0.14318,0.91615 0.45704,1.21321 0.18431,0.17445 0.47306,0.20967 0.72611,0.22885 0.29634,0.0225 0.59976,-0.0408 0.88101,-0.13677 0.28346,-0.0968 0.56991,-0.22742 0.78684,-0.43395 0.15794,-0.15036 0.37902,-0.34146 0.34369,-0.55665 -0.0297,-0.18111 -0.25746,-0.27402 -0.42388,-0.35143 -0.22862,-0.10634 -0.52283,-0.014 -0.74441,-0.13434 -0.16849,-0.0915 -0.34868,-0.23286 -0.39388,-0.41919 -0.0338,-0.1394 0.0174,-0.31177 0.11821,-0.41379 0.10293,-0.10414 0.27551,-0.10851 0.42093,-0.12558 0.33127,-0.0389 0.6747,-0.0215 0.99904,0.0563 0.40186,0.0964 0.84216,0.20748 1.13477,0.49929 0.16954,0.16908 0.23495,0.42393 0.2911,0.6567 0.14008,0.58069 0.18024,1.19719 0.10058,1.7892 -0.0604,0.44922 -0.21042,0.89404 -0.43247,1.28919 -0.31958,0.5687 -0.78861,1.04677 -1.26119,1.49647 -0.41316,0.39316 -0.85312,0.77765 -1.36137,1.03639 -0.73822,0.37581 -1.55804,0.615 -2.380565,0.71321 -0.83936,0.10022 -1.705691,0.0413 -2.532349,-0.1354 -0.825588,-0.17643 -1.652086,-0.45566 -2.363444,-0.91029 -0.754974,-0.48251 -1.412555,-1.13935 -1.930259,-1.87064 -0.515979,-0.72885 -0.872542,-1.57577 -1.119189,-2.43404 -0.341372,-1.18789 -0.505721,-2.44163 -0.475867,-3.67723 0.02975,-1.23112 0.256344,-2.47002 0.650531,-3.6367 0.566635,-1.67708 1.330585,-3.33386 2.427107,-4.72358 0.924499,-1.1717 2.090691,-2.11498 3.268749,-3.03136 1.272811,-0.99009 2.645036,-1.94372 4.085956,-2.66764 1.06474,-0.53493 2.2283,-0.8771 3.39508,-1.11885 1.51771,-0.31446 3.0811,-0.39863 4.63091,-0.41914 1.3195,-0.0175 2.6474,0.046 3.95078,0.2524 1.51942,0.24057 3.06096,0.52853 4.47128,1.14294 1.94963,0.84936 3.83713,1.97256 5.36615,3.45058 1.76108,1.70235 3.07374,3.85776 4.18157,6.04227 0.94076,1.85506 1.5975,3.86448 2.04147,5.89651 0.27969,1.28012 0.34324,2.60272 0.38037,3.91252 0.14658,5.17061 -0.4659,10.33524 -0.62417,15.50551 -0.27476,8.97541 -0.56493,26.93292 -0.56493,26.93292 z"
       id="path867"
       sodipodi:nodetypes="ccsssssssssssssssssssssssssssssssssssssssssssssssssssssssssssssssssssc" />
  </g>
</svg>
