<?xml version="1.0" encoding="UTF-8" standalone="no"?>
<svg
   width="320"
   height="64"
   viewBox="0 0 320 64"
   version="1.1"
   id="SVGRoot"
   sodipodi:docname="grass2.svg"
   inkscape:version="1.2-dev (2933c477aa, 2021-06-11)"
   xmlns:inkscape="http://www.inkscape.org/namespaces/inkscape"
   xmlns:sodipodi="http://sodipodi.sourceforge.net/DTD/sodipodi-0.dtd"
   xmlns="http://www.w3.org/2000/svg"
   xmlns:svg="http://www.w3.org/2000/svg"
   xmlns:rdf="http://www.w3.org/1999/02/22-rdf-syntax-ns#"
   xmlns:cc="http://creativecommons.org/ns#"
   xmlns:dc="http://purl.org/dc/elements/1.1/">
  <metadata
     id="metadata15">
    <rdf:RDF>
      <cc:Work
         rdf:about="">
        <dc:format>image/svg+xml</dc:format>
        <dc:type
           rdf:resource="http://purl.org/dc/dcmitype/StillImage" />
      </cc:Work>
    </rdf:RDF>
  </metadata>
  <defs
     id="defs823" />
  <sodipodi:namedview
     id="base"
     pagecolor="#ffffff"
     bordercolor="#666666"
     borderopacity="1.0"
     inkscape:pageopacity="0.0"
     inkscape:pageshadow="2"
     inkscape:zoom="11.2"
     inkscape:cx="156.33929"
     inkscape:cy="51.964286"
     inkscape:document-units="px"
     inkscape:current-layer="layer1"
     showgrid="true"
     inkscape:window-width="3840"
     inkscape:window-height="2100"
     inkscape:window-x="1920"
     inkscape:window-y="32"
     inkscape:window-maximized="1"
     inkscape:snap-page="true"
     inkscape:document-rotation="0"
     inkscape:snap-global="true"
     inkscape:object-nodes="true"
     inkscape:snap-nodes="true"
     inkscape:snap-others="true"
     inkscape:snap-to-guides="true"
     inkscape:snap-bbox="true"
     inkscape:snap-grids="false"
     inkscape:object-paths="true"
     inkscape:snap-intersection-paths="true"
     inkscape:snap-smooth-nodes="true"
     inkscape:snap-midpoints="true"
     inkscape:pagecheckerboard="0">
    <inkscape:grid
       type="xygrid"
       id="grid17"
       spacingx="64"
       spacingy="64" />
  </sodipodi:namedview>
  <g
     inkscape:label="Layer 1"
     inkscape:groupmode="layer"
     id="layer1"
     transform="translate(-83.411035,-321.7401)">
    <path
       style="fill:#509803;stroke:none;stroke-width:1px;stroke-linecap:butt;stroke-linejoin:miter;stroke-opacity:1;fill-opacity:1"
       d="m 105.67305,385.7401 h 28.37207 c 2.14434,-6.07217 5.63598,-11.34108 8.95992,-16.70998 -6.48593,3.3359 -11.45185,8.18685 -16.03541,13.41891 -0.92722,-8.93236 1.41977,-17.58512 2.82087,-26.31866 -3.89451,4.65359 -10.16953,14.68485 -12.56138,24.30217 -5.50367,-4.55631 -12.45617,-7.3127 -20.385581,-9.07603 4.082431,4.58203 8.567781,9.08891 8.829511,14.38359 z"
       id="path860"
       sodipodi:nodetypes="cccccccc" />
    <path
       style="fill:#509803;stroke:none;stroke-width:1px;stroke-linecap:butt;stroke-linejoin:miter;stroke-opacity:1;fill-opacity:1"
       d="m 168.26049,385.7401 h 8.78865 c -6.4695,-12.26487 -14.01684,-19.64546 -23.84758,-23.35132 5.69702,7.64474 14.55118,14.64146 15.05893,23.35132 z"
       id="path862"
       sodipodi:nodetypes="cccc" />
    <path
       style="fill:#509803;stroke:none;stroke-width:1px;stroke-linecap:butt;stroke-linejoin:miter;stroke-opacity:1;fill-opacity:1"
       d="m 191.2927,385.7401 h 28.22057 c 0.97126,-5.64755 5.31679,-9.62793 8.90592,-13.98204 -7.1394,1.35193 -14.41057,2.15397 -20.29623,8.73808 -3.8326,-10.23189 -7.72826,-19.91919 -12.28668,-23.8827 1.52654,8.7406 3.81854,17.51609 2.53656,26.12867 -5.22888,-6.65182 -10.39811,-12.16331 -15.35017,-13.52222 3.18308,5.43858 6.90861,10.79045 8.27003,16.52021 z"
       id="path864"
       sodipodi:nodetypes="cccccccc" />
    <path
       style="fill:#509803;stroke:none;stroke-width:1px;stroke-linecap:butt;stroke-linejoin:miter;stroke-opacity:1;fill-opacity:1"
       d="m 233.88194,385.7401 h 8.1083 c 1.04633,-6.49341 5.8426,-11.13981 10.73278,-15.73997 -10.52699,2.54903 -14.68278,9.1453 -18.84108,15.73997 z"
       id="path866"
       sodipodi:nodetypes="cccc" />
    <path
       style="fill:#509803;stroke:none;stroke-width:1px;stroke-linecap:butt;stroke-linejoin:miter;stroke-opacity:1;fill-opacity:1"
       d="m 287.07105,385.7401 h 6.59159 c -2.82125,-11.03454 -7.42796,-15.45034 -12.14621,-18.0784 2.59774,5.45232 4.69202,11.29179 5.55462,18.0784 z"
       id="path868"
       sodipodi:nodetypes="cccc" />
    <path
       style="fill:#509803;stroke:none;stroke-width:1px;stroke-linecap:butt;stroke-linejoin:miter;stroke-opacity:1;fill-opacity:1"
       d="m 310.769,385.7401 h 8.92741 c -3.2176,-27.15385 -22.7474,-51.14105 -24.68674,-51.95328 14.28785,27.00914 17.10935,41.71856 15.75933,51.95328 z"
       id="path870"
       sodipodi:nodetypes="cccc" />
    <path
       style="fill:#509803;stroke:none;stroke-width:1px;stroke-linecap:butt;stroke-linejoin:miter;stroke-opacity:1;fill-opacity:1"
       d="m 330.01928,385.7401 h 26.57726 c 0.62797,-12.69157 6.63065,-22.04984 11.62774,-32.03177 -4.62351,0.67625 -29.33706,28.66636 -27.9397,27.70114 0.63845,-0.441 0.36027,-16.37009 0.36027,-16.37009 -5.22776,6.20637 -8.37477,13.26912 -10.62557,20.70072 z"
       id="path872"
       sodipodi:nodetypes="cccscc" />
    <path
       style="fill:#509803;stroke:none;stroke-width:1px;stroke-linecap:butt;stroke-linejoin:miter;stroke-opacity:1;fill-opacity:1"
       d="m 378.66221,385.7401 h 9.98126 c -2.77631,-12.84591 -10.62943,-19.59145 -17.97551,-25.53646 2.81647,8.3037 7.14341,17.01659 7.99425,25.53646 z"
       id="path874"
       sodipodi:nodetypes="cccc" />
  </g>
</svg>
