<?xml version="1.0" encoding="UTF-8" standalone="no"?>
<svg
   width="384"
   height="320"
   viewBox="0 0 384 320"
   version="1.1"
   id="SVGRoot"
   sodipodi:docname="house.svg"
   inkscape:version="1.2-dev (1d8154c6cf, 2021-12-02)"
   xmlns:inkscape="http://www.inkscape.org/namespaces/inkscape"
   xmlns:sodipodi="http://sodipodi.sourceforge.net/DTD/sodipodi-0.dtd"
   xmlns="http://www.w3.org/2000/svg"
   xmlns:svg="http://www.w3.org/2000/svg"
   xmlns:rdf="http://www.w3.org/1999/02/22-rdf-syntax-ns#"
   xmlns:cc="http://creativecommons.org/ns#"
   xmlns:dc="http://purl.org/dc/elements/1.1/">
  <metadata
     id="metadata15">
    <rdf:RDF>
      <cc:Work
         rdf:about="">
        <dc:format>image/svg+xml</dc:format>
        <dc:type
           rdf:resource="http://purl.org/dc/dcmitype/StillImage" />
      </cc:Work>
    </rdf:RDF>
  </metadata>
  <defs
     id="defs823" />
  <sodipodi:namedview
     id="base"
     pagecolor="#9f9f9f"
     bordercolor="#666666"
     borderopacity="1.0"
     inkscape:pageopacity="0"
     inkscape:pageshadow="2"
     inkscape:zoom="4"
     inkscape:cx="128.5"
     inkscape:cy="172.25"
     inkscape:document-units="px"
     inkscape:current-layer="g16109"
     showgrid="true"
     inkscape:window-width="3840"
     inkscape:window-height="2100"
     inkscape:window-x="1920"
     inkscape:window-y="32"
     inkscape:window-maximized="1"
     inkscape:snap-page="true"
     inkscape:document-rotation="0"
     inkscape:snap-global="false"
     inkscape:object-nodes="true"
     inkscape:snap-nodes="true"
     inkscape:snap-others="true"
     inkscape:snap-to-guides="true"
     inkscape:snap-bbox="true"
     inkscape:snap-grids="false"
     inkscape:object-paths="true"
     inkscape:snap-intersection-paths="true"
     inkscape:snap-smooth-nodes="true"
     inkscape:snap-midpoints="true"
     inkscape:pagecheckerboard="0"
     inkscape:blackoutopacity="0.0">
    <inkscape:grid
       type="xygrid"
       id="grid17"
       spacingx="64"
       spacingy="64" />
  </sodipodi:namedview>
  <g
     inkscape:label="Layer 1"
     inkscape:groupmode="layer"
     id="layer1"
     transform="translate(-83.411035,-321.7401)">
    <g
       id="g16143">
      <g
         id="g16109">
        <path
           style="fill:#36520e;fill-opacity:1;stroke:none;stroke-width:1px;stroke-linecap:butt;stroke-linejoin:miter;stroke-opacity:1"
           d="m 276.0117,641.7401 h 127.39934 c 10.13988,-20.59156 0.23604,-28.03309 -10.13529,-27.245 17.62972,-18.02436 21.66158,-27.28177 19.86915,-30.55219 -3.71403,-3.17418 -18.69262,-0.26959 -36.17372,5.26265 11.1535,-14.62973 10.47722,-36.07677 7.533,-38.51995 -4.96778,-2.72618 -21.69328,13.98533 -30.90577,25.67316 -24.63277,-45.57808 -51.78492,-30.03055 -53.7839,15.07047 -10.23306,-12.63135 -16.11757,-16.04353 -18.92102,-15.05543 -6.39903,5.9448 -2.18306,26.71174 0.61422,38.37878 -42.64594,-8.11616 -21.33057,10.58464 -5.49601,26.98751 z"
           id="path2880"
           sodipodi:nodetypes="ccccccccccc" />
        <path
           id="path5815"
           style="fill:#293f0b;fill-opacity:1;stroke:none;stroke-width:1px;stroke-linecap:butt;stroke-linejoin:miter;stroke-opacity:1"
           d="m 377.21964,578.59886 c -2.88303,-0.7409 -25.7661,24.9321 -26.31642,27.85022 -0.83425,-1.6721 -7.2525,-12.0476 -10.41211,-12.73046 -3.62981,0.81424 -6.24857,11.02995 -8.10351,17.35156 -9.86166,-3.71559 -22.85624,-7.92756 -24.47266,-4.94727 -1.10549,1.55969 1.68958,8.85457 3.54297,13.36719 -11.43832,3.59365 -31.0716,9.08114 -31.52344,14.125 -0.56356,1.36823 4.17551,3.66919 6.45508,5.53711 0,0 -6.59405,1.11331 -11.07617,1.87109 0.23065,0.23766 0.47064,0.48002 0.69922,0.7168 h 127.39843 c 12.27836,-6.13189 26.40397,-10.7776 24.6631,-16.35874 1.102,-0.42548 -5.72509,-8.66171 -34.79786,-10.8854 17.62972,-18.02436 24.0967,-30.08295 22.30427,-33.35337 -3.59575,-4.02236 -20.692,1.89877 -32.34426,5.93573 -4.63896,-1.33524 -2.17369,-5.53679 -6.01664,-8.47946 z"
           sodipodi:nodetypes="cccccccccccccccc" />
      </g>
      <g
         id="g13159">
        <g
           id="g6599">
          <g
             id="g6573">
            <g
               id="g6564">
              <circle
                 style="fill:#755332;fill-opacity:1;stroke:none;stroke-width:0.188651;stroke-opacity:1"
                 id="circle5681"
                 cx="244.79996"
                 cy="490.53369"
                 r="129.71713" />
              <path
                 id="circle5260"
                 style="fill:#674b2d;fill-opacity:1;stroke:none;stroke-width:0.188651;stroke-opacity:1"
                 d="M 161.38867,39.076172 C 89.748138,39.076357 31.672058,97.152438 31.671875,168.79297 c 3.616604,9.20456 7.098366,22.65808 10.935547,24.91211 4.638123,4.29517 13.794271,-12.65625 20.691406,-18.98438 -2.3e-5,-1e-5 14.256124,22.8891 16.810547,23.2168 1.215413,1.74506 22.146485,-17.93164 22.146485,-17.93164 l 8.44531,15.72266 69.24219,-6.03321 c 7.53385,8.13997 13.51444,22.27689 22.60156,24.41992 3.79327,-0.21083 13.40521,-15.71146 19.56836,-24.25 5.16087,7.30036 9.72338,15.60052 15.7168,21.50977 -0.0718,0.10505 -0.13886,0.21353 -0.21094,0.31836 -23.38485,34.0098 -62.56946,56.31044 -106.96289,56.31055 -26.68587,-0.0983 -52.692043,-8.4246 -74.472656,-23.84375 24.271202,33.99981 63.431116,54.23007 105.205076,54.34961 71.64053,-1.8e-4 129.71662,-58.07627 129.7168,-129.7168 -0.002,-5.55943 -0.38246,-11.06705 -1.08203,-16.50586 -0.0599,-0.4085 -0.12175,-0.8167 -0.18555,-1.22461 -0.70316,-5.08187 -1.70098,-10.09429 -2.98828,-15.01758 -0.16975,-0.62891 -0.34423,-1.25653 -0.52344,-1.88281 -1.31261,-4.72756 -2.88577,-9.36363 -4.71679,-13.89453 -0.27914,-0.69582 -0.56431,-1.38921 -0.85547,-2.08008 -1.90598,-4.4907 -4.06535,-8.86375 -6.46289,-13.10938 -0.3305,-0.60357 -0.6658,-1.2045 -1.00586,-1.80273 -2.56823,-4.383535 -5.39671,-8.615645 -8.47071,-12.679687 -0.3042,-0.412621 -0.61085,-0.823436 -0.91992,-1.232422 -3.18419,-4.107475 -6.62556,-8.029887 -10.30664,-11.75 -0.50256,-0.489779 -1.00909,-0.975472 -1.51953,-1.457031 -3.41207,-3.33813 -7.00801,-6.511668 -10.80859,-9.482422 -0.75347,-0.579296 -1.51328,-1.150294 -2.2793,-1.71289 -0.95961,-0.716751 -1.89061,-1.463967 -2.87305,-2.15625 0.10406,0.145256 0.19931,0.295769 0.30274,0.441406 -21.8949,-15.642963 -48.11271,-24.089639 -75.02149,-24.169922 z"
                 transform="translate(83.411035,321.7401)"
                 sodipodi:nodetypes="cccccccccccsccccccccccccccccccccc" />
            </g>
            <g
               id="g5204">
              <path
                 id="path4706"
                 style="fill:#3f3021;fill-opacity:1;stroke:none;stroke-width:0.204089"
                 d="m 280.12797,558.71901 c -0.11335,41.03602 -23.44081,73.84207 -49.59985,74.30228 -7.14482,0.1257 -47.23044,-45.22122 -46.31058,-87.24658 0.93364,-42.65504 20.18117,-54.91712 47.95605,-53.54662 27.24674,1.34444 48.06773,25.4549 47.95438,66.49092 z"
                 sodipodi:nodetypes="sssss" />
              <path
                 id="path3240"
                 style="fill:#3a2c20;fill-opacity:1;stroke:none;stroke-width:0.204089"
                 d="m 143.65625,170.39453 c -25.00381,0.3741 -41.97432,13.65153 -42.84961,53.64063 -0.919859,42.02536 39.16573,87.37179 46.31055,87.24609 26.15904,-0.46021 49.48626,-33.26671 49.59961,-74.30273 0.11335,-41.03602 -20.70834,-65.1458 -47.95508,-66.49024 -1.73593,-0.0857 -3.43855,-0.11869 -5.10547,-0.0937 z m 4.79687,2.45899 c 25.17129,-0.67168 45.56483,21.33735 44.49219,65.22265 -0.95798,39.19456 -18.22175,65.08964 -42.84179,66.10938 -6.98905,0.28948 -41.04741,-39.6613 -39.11329,-80.76367 1.91453,-40.68634 9.47375,-48.29129 35.01368,-50.4336 0.82136,-0.0689 1.63724,-0.1131 2.44921,-0.13476 z"
                 transform="translate(83.411035,321.7401)" />
              <path
                 id="path4624"
                 style="fill:#583f28;fill-opacity:1;stroke:none;stroke-width:0.204089"
                 d="m 227.06728,492.13463 c -25.00381,0.3741 -41.97432,13.65153 -42.84961,53.64063 -0.91985,42.02536 39.16573,87.37179 46.31055,87.24609 26.15904,-0.46021 49.48627,-33.26671 49.59961,-74.30273 0.11335,-41.03602 -20.70834,-65.1458 -47.95508,-66.49024 -1.73593,-0.0857 -3.43855,-0.11869 -5.10547,-0.0937 z m 2.34766,2.59375 c 26.3737,-0.3389 48.04864,19.78693 46.94141,65.08789 -0.95799,39.19456 -20.17294,67.15214 -44.79298,68.17188 -6.98905,0.28948 -44.36723,-40.5202 -43.46679,-81.65821 0.91393,-41.75441 14.0991,-51.25181 41.31836,-51.60156 z" />
            </g>
          </g>
          <g
             id="g3076">
            <g
               id="g2487">
              <g
                 id="g2479">
                <path
                   style="fill:#67492c;fill-opacity:1;stroke:none;stroke-width:1px;stroke-linecap:butt;stroke-linejoin:miter;stroke-opacity:1"
                   d="m 114.08221,641.7401 h 261.72637 l -11.18634,-18.6657 -24.01376,-4.59381 -13.22203,-15.8314 -5.96957,-1.796 -148.68491,0.12206 -6.53072,1.16423 -17.61426,16.54718 -23.50414,3.98822 z"
                   id="path939" />
                <path
                   id="path2033"
                   style="fill:#8e6f4d;fill-opacity:1;stroke:none;stroke-width:1px;stroke-linecap:butt;stroke-linejoin:miter;stroke-opacity:1"
                   d="m 321.41689,600.85338 -148.68554,0.1211 -6.5293,1.16406 c 17.9698,0.0716 143.33572,0.58059 161.18359,0.50976 z m -22.70702,17.57422 c -54.23287,0.0207 -135.17052,0.22245 -150.12305,0.25977 l -23.50391,3.98828 c 26.38904,-0.88992 194.04183,0.14289 239.53907,0.39843 l -24.01368,-4.59375 c -8.71019,-0.0459 -23.82082,-0.0596 -41.89843,-0.0527 z" />
              </g>
              <g
                 id="g2469">
                <path
                   id="path2241"
                   style="fill:#573f27;fill-opacity:1;stroke:none;stroke-width:1px;stroke-linecap:butt;stroke-linejoin:miter;stroke-opacity:1"
                   d="m 238.00586,279.11328 -66.01563,0.0547 1.85157,1.56445 4.28711,16.01953 6.85351,4.10547 L 190.21875,320 h 102.17969 l -11.1875,-18.66602 -24.01367,-4.59375 -13.22266,-15.83203 z"
                   transform="translate(83.411035,321.7401)" />
                <path
                   id="path857"
                   style="fill:#6f563b;fill-opacity:1;stroke:none;stroke-width:1px;stroke-linecap:butt;stroke-linejoin:miter;stroke-opacity:1"
                   d="m 238.00586,279.11328 -66.01563,0.0547 1.85157,1.56445 c 30.79317,0.10502 62.36267,0.20662 70.13281,0.17578 z m -22.70703,17.57422 c -13.42786,0.005 -21.87475,0.0424 -37.16992,0.0645 l 6.8457,4.07617 0.008,0.0293 c 38.00126,0.17317 78.98303,0.3797 96.22852,0.47656 l -24.01367,-4.59375 c -8.71019,-0.0459 -23.82083,-0.0596 -41.89844,-0.0527 z"
                   transform="translate(83.411035,321.7401)" />
              </g>
            </g>
            <g
               id="g2773">
              <path
                 style="fill:#5a4127;fill-opacity:1;stroke:none;stroke-width:1px;stroke-linecap:butt;stroke-linejoin:miter;stroke-opacity:1"
                 d="m 160.46269,641.7401 -31.56008,-37.59639 13.54655,-17.3238 19.17333,5.27431 26.43593,49.64588 z"
                 id="path2522" />
              <path
                 style="fill:#8e6236;fill-opacity:1;stroke:none;stroke-width:1px;stroke-linecap:butt;stroke-linejoin:miter;stroke-opacity:1"
                 d="m 128.90261,604.14371 19.67359,4.76137 13.04629,-16.81086 -19.17333,-5.27431 z"
                 id="path2524" />
              <path
                 style="fill:#71502f;fill-opacity:1;stroke:none;stroke-width:1px;stroke-linecap:butt;stroke-linejoin:miter;stroke-opacity:1"
                 d="m 128.90261,604.14371 19.67359,4.76137 23.13577,32.83502 h -11.24928 z"
                 id="path2526" />
            </g>
            <g
               id="g3059">
              <path
                 style="fill:#5a4127;fill-opacity:1;stroke:none;stroke-width:1px;stroke-linecap:butt;stroke-linejoin:miter;stroke-opacity:1"
                 d="m 301.42392,641.7401 h 27.74385 l 30.86537,-37.50876 -13.70832,-17.28492 -19.12328,5.26375 z"
                 id="path2808" />
              <path
                 style="fill:#71502f;fill-opacity:1;stroke:none;stroke-width:1px;stroke-linecap:butt;stroke-linejoin:miter;stroke-opacity:1"
                 d="m 301.42391,641.7401 h 16.06767 l 23.42097,-32.83055 -13.71102,-16.69938 z"
                 id="path2810" />
              <path
                 style="fill:#8e6236;fill-opacity:1;stroke:none;stroke-width:1px;stroke-linecap:butt;stroke-linejoin:miter;stroke-opacity:1"
                 d="m 327.20154,592.21017 13.71101,16.69938 19.12059,-4.67821 -13.70832,-17.28492 z"
                 id="path2812" />
            </g>
          </g>
        </g>
        <g
           id="g13129">
          <path
             style="fill:#c3a96d;fill-opacity:1;stroke:none;stroke-width:1px;stroke-linecap:butt;stroke-linejoin:miter;stroke-opacity:1"
             d="m 116.78152,482.25685 c 3.397,7.52634 7.94134,21.83103 12.50727,21.61661 5.4442,0.24048 11.56433,-12.89959 17.34649,-19.34938 6.45551,7.12425 15.57736,20.05226 19.40379,20.79172 3.09436,-0.53996 12.80769,-12.82626 19.21154,-19.23939 6.62568,7.90315 16.88224,24.31391 19.87705,23.70945 2.45898,0.38793 11.47367,-10.99344 17.21051,-16.49016 6.83279,8.69451 13.83571,22.01422 22.62107,24.09148 5.40526,0.34457 14.90353,-16.19094 22.09382,-24.26837 6.13379,5.55896 15.24545,17.94286 18.83845,16.76591 6.08649,-1.53103 12.25773,-16.00559 18.60514,-23.96387 5.56514,6.31322 13.67515,18.34855 16.69541,18.93965 5.42322,1.05565 14.17093,-13.58241 21.2564,-20.37361 5.98058,6.55487 13.52849,20.7748 17.94173,19.66462 5.05123,-1.94916 9.56789,-14.50849 11.59006,-21.83063 6.85121,1.98706 18.80063,8.99436 20.55362,5.96117 3.10548,-3.75536 -2.50756,-24.83095 -7.90254,-38.81473 -0.69282,-0.37204 13.21368,-0.19586 15.06258,-2.68324 3.21489,-2.38442 -21.46798,-40.20565 -22.56752,-38.12324 5.67065,-2.03276 14.00521,-6.59697 13.18766,-7.73931 -0.50649,-5.07978 -23.22319,-20.33469 -37.02853,-28.51883 3.07404,-3.93336 10.03574,-8.48069 9.2211,-11.80006 0.31649,-3.51295 -31.25023,-11.80035 -46.36566,-14.61714 1.50961,-4.71741 6.09936,-11.59684 4.52883,-14.15224 -1.79396,-3.50653 -32.2376,1.14911 -47.69878,4.67665 -0.37414,-4.92716 1.39439,-11.55764 -1.30998,-14.27773 -4.09002,-1.28553 -18.31561,8.75912 -27.56071,13.38465 -8.76728,-4.62558 -24.59873,-14.21618 -26.30511,-13.85134 -1.06949,0.37018 -0.98937,9.72239 -1.48555,14.59736 -15.5623,-2.65302 -47.15423,-6.46878 -47.763,-4.8626 -1.67123,1.32322 3.08294,9.3947 4.40295,14.52598 -16.47012,4.64871 -44.96784,8.92687 -45.71218,15.03869 0.4261,3.87542 5.36503,6.97377 8.20993,11.16174 -12.06063,9.72778 -36.95386,22.80288 -36.18188,29.18333 -0.11026,2.25516 8.86222,4.68327 13.29333,7.02491 -9.02806,12.01653 -24.97382,31.08662 -22.79689,38.70411 0.95343,1.6417 9.63196,0.75456 14.44794,1.13184 -3.97801,13.24156 -10.5875,37.74453 -7.98154,39.72468 0.3504,1.4926 13.70213,-3.82579 20.5532,-5.73868 z"
             id="path11411"
             sodipodi:nodetypes="ccccccccccccccccccccccccccccccccccccccc" />
          <path
             id="path6860"
             style="fill:#a58b4d;fill-opacity:1;stroke:none;stroke-width:1px;stroke-linecap:butt;stroke-linejoin:miter;stroke-opacity:1"
             d="m 188.49023,0.84179688 c -2.62571,5.59701092 -5.63585,11.00270112 -8.89257,16.28515612 5.80244,4.33928 17.54281,10.351388 17.4082,13.017578 -0.52136,2.35613 -10.84282,3.763071 -16.26367,5.644531 12.13908,14.069051 31.42609,33.123466 27.62695,39.578126 -0.39605,2.006539 -12.93241,-0.986689 -19.39844,-1.480469 2.05473,14.72376 10.71244,40.323551 6.16407,44.171871 -1.07716,1.22438 -11.56053,-2.98189 -17.38282,-4.49609 -5.2687,14.024 -13.29728,38.85461 -19.92773,41.27148 -1.72024,0.87024 -9.51154,-6.14434 -14.92969,-10.07617 -9.35564,6.80623 -23.27304,21.49296 -25.55859,21.85157 -4.37493,-1.87476 -8.58628,-7.92541 -12.86524,-12.24805 -1.1758,3.86707 -2.54577,7.64534 -3.96679,11.40234 0.4298,-0.44901 0.93018,-1.02139 1.33593,-1.42773 6.62568,7.90315 16.88215,24.31344 19.87696,23.70898 2.45898,0.38793 11.47409,-10.99351 17.21093,-16.49023 6.83279,8.69451 13.83574,22.01453 22.6211,24.09179 5.40526,0.34457 14.90346,-16.19014 22.09375,-24.26757 6.13379,5.55896 15.24489,17.94257 18.83789,16.76562 6.08649,-1.53103 12.25806,-16.00461 18.60547,-23.96289 5.56514,6.31322 13.67505,18.34835 16.69531,18.93945 5.42322,1.05565 14.17039,-13.5838 21.25586,-20.375 5.98058,6.55487 13.52817,20.7762 17.94141,19.66602 5.05123,-1.94916 9.56767,-14.50989 11.58984,-21.83203 6.85121,1.98706 18.8017,8.99413 20.55469,5.96094 3.10548,-3.75536 -2.50737,-24.83068 -7.90235,-38.81446 -0.69282,-0.37204 13.2136,-0.19426 15.0625,-2.68164 3.11123,-2.30754 -19.90264,-37.801945 -22.38672,-38.20117 5.66556,-2.061818 13.81528,-6.531133 13.00586,-7.662109 -0.50649,-5.07978 -23.222,-20.335392 -37.02734,-28.519532 3.07404,-3.93336 10.03534,-8.479458 9.2207,-11.798828 0.31649,-3.51295 -31.2498,-11.800397 -46.36523,-14.617187 1.50961,-4.71741 6.09787,-11.596944 4.52734,-14.152344 -1.79396,-3.50653 -32.23608,1.148241 -47.69726,4.675781 -0.36042,-4.746408 1.22728,-11.0383287 -1.07032,-13.92773412 z"
             transform="translate(83.411035,321.7401)" />
        </g>
      </g>
    </g>
  </g>
</svg>
