<?xml version="1.0" encoding="UTF-8" standalone="no"?>
<svg
   width="64"
   height="128"
   viewBox="0 0 64 128"
   version="1.1"
   id="SVGRoot"
   sodipodi:docname="vine_double_ending3.svg"
   inkscape:version="1.2-dev (1d8154c6cf, 2021-12-02)"
   xmlns:inkscape="http://www.inkscape.org/namespaces/inkscape"
   xmlns:sodipodi="http://sodipodi.sourceforge.net/DTD/sodipodi-0.dtd"
   xmlns="http://www.w3.org/2000/svg"
   xmlns:svg="http://www.w3.org/2000/svg"
   xmlns:rdf="http://www.w3.org/1999/02/22-rdf-syntax-ns#"
   xmlns:cc="http://creativecommons.org/ns#"
   xmlns:dc="http://purl.org/dc/elements/1.1/">
  <metadata
     id="metadata15">
    <rdf:RDF>
      <cc:Work
         rdf:about="">
        <dc:format>image/svg+xml</dc:format>
        <dc:type
           rdf:resource="http://purl.org/dc/dcmitype/StillImage" />
      </cc:Work>
    </rdf:RDF>
  </metadata>
  <defs
     id="defs823" />
  <sodipodi:namedview
     id="base"
     pagecolor="#9f9f9f"
     bordercolor="#666666"
     borderopacity="1.0"
     inkscape:pageopacity="0"
     inkscape:pageshadow="2"
     inkscape:zoom="3.959798"
     inkscape:cx="-77.781746"
     inkscape:cy="52.275394"
     inkscape:document-units="px"
     inkscape:current-layer="layer1"
     showgrid="true"
     inkscape:window-width="3840"
     inkscape:window-height="2100"
     inkscape:window-x="1920"
     inkscape:window-y="32"
     inkscape:window-maximized="1"
     inkscape:snap-page="true"
     inkscape:document-rotation="0"
     inkscape:snap-global="false"
     inkscape:object-nodes="true"
     inkscape:snap-nodes="true"
     inkscape:snap-others="true"
     inkscape:snap-to-guides="true"
     inkscape:snap-bbox="true"
     inkscape:snap-grids="false"
     inkscape:object-paths="true"
     inkscape:snap-intersection-paths="true"
     inkscape:snap-smooth-nodes="true"
     inkscape:snap-midpoints="true"
     inkscape:pagecheckerboard="0"
     inkscape:blackoutopacity="0.0"
     showguides="true"
     inkscape:lockguides="true">
    <inkscape:grid
       type="xygrid"
       id="grid17"
       spacingx="64"
       spacingy="64" />
    <sodipodi:guide
       position="56.000000,0.00000"
       orientation="1,0"
       id="guide533"
       inkscape:locked="true" />
    <sodipodi:guide
       position="46.000000,0.00000"
       orientation="1,0"
       id="guide535"
       inkscape:locked="true" />
    <sodipodi:guide
       position="44.000000,0.00000"
       orientation="1,0"
       id="guide537"
       inkscape:locked="true" />
    <sodipodi:guide
       position="34.000000,0.00000"
       orientation="1,0"
       id="guide539"
       inkscape:locked="true" />
  </sodipodi:namedview>
  <g
     inkscape:label="Layer 1"
     inkscape:groupmode="layer"
     id="layer1"
     transform="translate(-83.411035,-321.7401)">
    <g
       id="g18155">
      <g
         id="g18033">
        <g
           id="g18028">
          <path
             style="fill:#503820;stroke:none;stroke-width:0.3;stroke-linecap:butt;stroke-linejoin:miter;stroke-miterlimit:4;stroke-dasharray:none;stroke-opacity:1;fill-opacity:1"
             d="m 120.88767,355.93311 c 0,0 4.89091,2.54055 5.84464,4.89633 4.13699,10.21868 6.21725,22.85689 6.67799,23.2688 1.16988,1.04591 2.36375,1.89812 3.54562,2.84718 0.9172,-2.12531 0.36866,-4.46391 0.553,-6.69587 l 4.6867,-0.32438 c -1.78536,-6.7729 -3.08656,-13.48615 -5.78493,-20.37152 -1.64902,-4.20777 -5.87912,-7.66641 -5.78702,-9.48389 z"
             id="path16623"
             sodipodi:nodetypes="csscccscc" />
          <path
             id="path12920"
             style="fill:#47311c;stroke:none;stroke-width:0.3;stroke-linecap:butt;stroke-linejoin:miter;stroke-miterlimit:4;stroke-dasharray:none;stroke-opacity:1;fill-opacity:1"
             d="M 47.212891 28.330078 L 43.929688 30.306641 C 45.189222 32.43049 47.784611 35.384628 48.994141 38.787109 C 51.349663 45.41331 53.153709 51.943694 54.761719 58.462891 L 58.785156 58.185547 C 56.999796 51.412647 55.69837 44.699823 53 37.814453 C 51.35098 33.606683 47.120791 30.147558 47.212891 28.330078 z "
             transform="translate(83.411035,321.7401)" />
        </g>
      </g>
      <g
         id="g12855">
        <path
           style="fill:#47311c;fill-opacity:1;stroke:none;stroke-width:1px;stroke-linecap:butt;stroke-linejoin:miter;stroke-opacity:1"
           d="m 117.41103,321.7401 h 10 l -1.51218,48.1352 c -0.22357,7.11634 -1.99693,14.0902 -1.3463,19.7235 2.74337,23.75256 2.28987,27.88648 2.85058,38.00134 l -10.15551,0.0237 c 0.84111,-13.08662 -2.8998,-38.93074 -2.86429,-41.28088 0.14237,-9.42311 2.72612,-19.52211 2.76408,-25.19642 z"
           id="path1037"
           sodipodi:nodetypes="ccssccssc" />
        <g
           id="g12326">
          <path
             id="path10201"
             style="fill:#624426;fill-opacity:1;stroke:none;stroke-width:1px;stroke-linecap:butt;stroke-linejoin:miter;stroke-opacity:1"
             d="m 129.41103,321.7401 c 0,0 0.85527,9.57027 0.0859,14.26172 -0.44083,2.6882 -0.35392,6.27246 -2.65625,7.72851 -0.0397,0.0251 -0.0804,0.0444 -0.12109,0.0645 l -0.006,0.17187 c -2.55377,4.00989 -5.85907,5.83248 -9.49609,6.6211 l 0.0469,-7.00196 c -1.75421,0.215 -3.4416,0.64421 -4.92578,1.54102 -1.71865,1.03849 -3.17538,2.84692 -3.63867,4.80078 -0.44706,1.88541 -0.11223,4.17136 1.05664,5.7168 2.2382,2.95926 6.27462,5.10873 9.98047,4.92578 5.28484,-0.2609 10.45509,-4.04746 13.47461,-8.39258 2.06345,-2.96932 4.00378,-6.77436 4.92382,-11.51367 1.7145,-8.83178 1.27539,-18.92383 1.27539,-18.92383 z" />
          <path
             id="path6835"
             style="fill:#47311c;fill-opacity:1;stroke:none;stroke-width:1px;stroke-linecap:butt;stroke-linejoin:miter;stroke-opacity:1"
             d="m 52.369141,0 c 0.05854,2.8186836 0.07395,10.476174 -1.306641,17.587891 -0.92004,4.73931 -2.860378,8.544352 -4.923828,11.513671 -3.01952,4.345121 -8.189769,8.131679 -13.47461,8.392579 -0.755283,0.03729 -1.524338,-0.02633 -2.289062,-0.169922 1.8575,1.020009 3.951808,1.604564 5.951172,1.505859 5.28484,-0.2609 10.455089,-4.047458 13.474609,-8.392578 2.06345,-2.96932 4.003788,-6.774362 4.923828,-11.513672 C 56.439109,10.092048 56,0 56,0 Z"
             transform="translate(83.411035,321.7401)" />
        </g>
      </g>
    </g>
  </g>
</svg>
