<?xml version="1.0" encoding="UTF-8" standalone="no"?>
<svg
   width="128"
   height="64"
   viewBox="0 0 128 64"
   version="1.1"
   id="SVGRoot"
   sodipodi:docname="bush_tiny1.svg"
   inkscape:version="1.1-dev (cef4a25b16, 2020-10-10)"
   xmlns:inkscape="http://www.inkscape.org/namespaces/inkscape"
   xmlns:sodipodi="http://sodipodi.sourceforge.net/DTD/sodipodi-0.dtd"
   xmlns="http://www.w3.org/2000/svg"
   xmlns:svg="http://www.w3.org/2000/svg"
   xmlns:rdf="http://www.w3.org/1999/02/22-rdf-syntax-ns#"
   xmlns:cc="http://creativecommons.org/ns#"
   xmlns:dc="http://purl.org/dc/elements/1.1/">
  <defs
     id="defs860" />
  <sodipodi:namedview
     id="base"
     pagecolor="#ffffff"
     bordercolor="#666666"
     borderopacity="1.0"
     inkscape:pageopacity="0.0"
     inkscape:pageshadow="2"
     inkscape:zoom="11.2"
     inkscape:cx="70.580357"
     inkscape:cy="4.2410714"
     inkscape:document-units="px"
     inkscape:current-layer="layer1"
     inkscape:document-rotation="0"
     showgrid="true"
     inkscape:window-width="1920"
     inkscape:window-height="2105"
     inkscape:window-x="1920"
     inkscape:window-y="27"
     inkscape:window-maximized="0"
     inkscape:snap-page="true" />
  <metadata
     id="metadata863">
    <rdf:RDF>
      <cc:Work
         rdf:about="">
        <dc:format>image/svg+xml</dc:format>
        <dc:type
           rdf:resource="http://purl.org/dc/dcmitype/StillImage" />
      </cc:Work>
    </rdf:RDF>
  </metadata>
  <g
     inkscape:label="Layer 1"
     inkscape:groupmode="layer"
     id="layer1"
     transform="translate(-102.4498,-121.1143)">
    <g
       id="g1514"
       transform="translate(-103.66438,799.77679)" />
    <g
       id="g927">
      <path
         id="path836"
         style="fill:#8fb45b;fill-opacity:1;fill-rule:evenodd;stroke:none;stroke-width:0.0940739;stroke-opacity:0.816227"
         d="M 55.832031 2.6992188 A 35.995583 35.362423 0 0 0 19.835938 38.0625 A 35.995583 35.362423 0 0 0 20.806641 45.822266 A 21.208246 20.835196 0 0 0 8.4980469 64 L 113.92188 64 A 22.941238 22.537704 0 0 0 117.92578 51.425781 A 22.941238 22.537704 0 0 0 94.984375 28.888672 A 22.941238 22.537704 0 0 0 90.640625 29.324219 A 35.995583 35.362423 0 0 0 55.832031 2.6992188 z "
         transform="translate(102.4498,121.1143)" />
      <ellipse
         style="fill:#000000;fill-opacity:0.18411;fill-rule:evenodd;stroke:none;stroke-width:3.4198;stroke-opacity:1"
         id="ellipse1125-3"
         cx="138.82637"
         cy="158.06689"
         rx="5.4590359"
         ry="5.7912507" />
      <ellipse
         style="fill:#ef7043;fill-opacity:1;fill-rule:evenodd;stroke:none;stroke-width:3.4198;stroke-opacity:1"
         id="ellipse1127-5"
         cx="137.48347"
         cy="156.98184"
         rx="5.4590359"
         ry="5.7912507" />
      <ellipse
         style="fill:#768f50;fill-opacity:1;fill-rule:evenodd;stroke:none;stroke-width:0.0350955;stroke-opacity:0.816227"
         id="path887"
         cx="169.25098"
         cy="144.06241"
         rx="3.3804317"
         ry="3.542562" />
      <ellipse
         style="fill:#768f50;fill-opacity:1;fill-rule:evenodd;stroke:none;stroke-width:0.0299843;stroke-opacity:0.816227"
         id="path887-3"
         cx="204.51459"
         cy="166.81786"
         rx="3.0114741"
         ry="2.902663" />
      <path
         id="path836-5"
         style="fill:#000000;fill-opacity:0.196078;fill-rule:evenodd;stroke:none;stroke-width:0.0940739;stroke-opacity:0.816227"
         d="m 179.35801,163.52836 a 38.554272,34.221958 0 0 1 -29.70117,12.41797 38.554272,34.221958 0 0 1 -26.48047,-9.45312 35.995583,35.362423 0 0 0 0.0801,0.44335 21.208246,20.835196 0 0 0 -12.3086,18.17774 h 105.42383 a 22.941238,22.537704 0 0 0 3.72852,-9.23828 31.839664,29.019127 0 0 1 -12.97461,2.60351 31.839664,29.019127 0 0 1 -27.76758,-14.95117 z" />
    </g>
  </g>
</svg>
