<?xml version="1.0" encoding="UTF-8" standalone="no"?>
<svg
   width="128"
   height="64"
   viewBox="0 0 128 64"
   version="1.1"
   id="SVGRoot"
   sodipodi:docname="bush_tiny2.svg"
   inkscape:version="1.1-dev (cef4a25b16, 2020-10-10)"
   xmlns:inkscape="http://www.inkscape.org/namespaces/inkscape"
   xmlns:sodipodi="http://sodipodi.sourceforge.net/DTD/sodipodi-0.dtd"
   xmlns="http://www.w3.org/2000/svg"
   xmlns:svg="http://www.w3.org/2000/svg"
   xmlns:rdf="http://www.w3.org/1999/02/22-rdf-syntax-ns#"
   xmlns:cc="http://creativecommons.org/ns#"
   xmlns:dc="http://purl.org/dc/elements/1.1/">
  <defs
     id="defs860" />
  <sodipodi:namedview
     id="base"
     pagecolor="#ffffff"
     bordercolor="#666666"
     borderopacity="1.0"
     inkscape:pageopacity="0.0"
     inkscape:pageshadow="2"
     inkscape:zoom="1.979899"
     inkscape:cx="115.40993"
     inkscape:cy="-57.326157"
     inkscape:document-units="px"
     inkscape:current-layer="layer1"
     inkscape:document-rotation="0"
     showgrid="true"
     inkscape:window-width="1920"
     inkscape:window-height="2105"
     inkscape:window-x="1920"
     inkscape:window-y="27"
     inkscape:window-maximized="0"
     inkscape:snap-page="true" />
  <metadata
     id="metadata863">
    <rdf:RDF>
      <cc:Work
         rdf:about="">
        <dc:format>image/svg+xml</dc:format>
        <dc:type
           rdf:resource="http://purl.org/dc/dcmitype/StillImage" />
      </cc:Work>
    </rdf:RDF>
  </metadata>
  <g
     inkscape:label="Layer 1"
     inkscape:groupmode="layer"
     id="layer1"
     transform="translate(-102.4498,-121.1143)">
    <g
       id="g1514"
       transform="translate(-103.66438,799.77679)" />
    <path
       id="path876"
       style="fill:#8fb45b;fill-opacity:1;fill-rule:evenodd;stroke-width:0.0855776;stroke-opacity:0.816227"
       d="M 67.314453 11.234375 A 33.069088 33.214378 0 0 0 34.244141 44.447266 A 33.069088 33.214378 0 0 0 34.326172 45.583984 A 11.798503 11.495103 0 0 0 27.523438 55.982422 A 11.798503 11.495103 0 0 0 30.972656 64 L 94.033203 64 A 33.069088 33.214378 0 0 0 100.38281 44.447266 A 33.069088 33.214378 0 0 0 67.314453 11.234375 z "
       transform="translate(102.4498,121.1143)" />
    <ellipse
       style="fill:#768f50;fill-opacity:1;fill-rule:evenodd;stroke:none;stroke-width:0.0358926;stroke-opacity:0.816227"
       id="path887-3-5"
       cx="188.28087"
       cy="161.2773"
       rx="3.604871"
       ry="3.4746192" />
    <ellipse
       style="fill:#768f50;fill-opacity:1;fill-rule:evenodd;stroke:none;stroke-width:0.013341;stroke-opacity:0.816227"
       id="path887-3-5-3"
       cx="168.50198"
       cy="169.07335"
       rx="1.3399053"
       ry="1.2914916" />
    <ellipse
       style="fill:#768f50;fill-opacity:1;fill-rule:evenodd;stroke:none;stroke-width:0.0212184;stroke-opacity:0.816227"
       id="path887-3-5-3-5"
       cx="155.41148"
       cy="150.02826"
       rx="2.1310754"
       ry="2.054075" />
    <path
       id="path876-6"
       style="fill:#000000;fill-opacity:0.196078;fill-rule:evenodd;stroke-width:0.0855776;stroke-opacity:0.816227"
       d="m 149.10295,170.64862 c -2.08106,7.79224 -10.24959,9.83561 -17.92659,9.87388 -0.2002,-0.0171 -0.4001,-0.038 -0.59961,-0.0625 0.55443,1.75016 1.53009,3.34591 2.84571,4.6543 h 63.06055 c 3.39712,-4.6989 5.50832,-10.21025 6.12304,-15.98437 -7.72055,3.17054 -16.48679,4.8505 -25.41797,4.87109 -10.59138,-0.0107 -19.46995,0.99801 -28.08513,-3.3524 z"
       sodipodi:nodetypes="cccccccc" />
  </g>
</svg>
