<?xml version="1.0" encoding="UTF-8" standalone="no"?>
<svg
   width="512"
   height="192"
   viewBox="0 0 512 192"
   version="1.1"
   id="SVGRoot"
   sodipodi:docname="bush_big.svg"
   inkscape:version="1.1-dev (cef4a25b16, 2020-10-10)"
   xmlns:inkscape="http://www.inkscape.org/namespaces/inkscape"
   xmlns:sodipodi="http://sodipodi.sourceforge.net/DTD/sodipodi-0.dtd"
   xmlns="http://www.w3.org/2000/svg"
   xmlns:svg="http://www.w3.org/2000/svg"
   xmlns:rdf="http://www.w3.org/1999/02/22-rdf-syntax-ns#"
   xmlns:cc="http://creativecommons.org/ns#"
   xmlns:dc="http://purl.org/dc/elements/1.1/">
  <defs
     id="defs860" />
  <sodipodi:namedview
     id="base"
     pagecolor="#ffffff"
     bordercolor="#666666"
     borderopacity="1.0"
     inkscape:pageopacity="0.0"
     inkscape:pageshadow="2"
     inkscape:zoom="1.4"
     inkscape:cx="253.92857"
     inkscape:cy="398.92857"
     inkscape:document-units="px"
     inkscape:current-layer="layer1"
     inkscape:document-rotation="0"
     showgrid="true"
     inkscape:window-width="1920"
     inkscape:window-height="2105"
     inkscape:window-x="1920"
     inkscape:window-y="27"
     inkscape:window-maximized="0"
     inkscape:snap-page="true"
     inkscape:snap-object-midpoints="false"
     inkscape:object-paths="true"
     inkscape:snap-global="true" />
  <metadata
     id="metadata863">
    <rdf:RDF>
      <cc:Work
         rdf:about="">
        <dc:format>image/svg+xml</dc:format>
        <dc:type
           rdf:resource="http://purl.org/dc/dcmitype/StillImage" />
      </cc:Work>
    </rdf:RDF>
  </metadata>
  <g
     inkscape:label="Layer 1"
     inkscape:groupmode="layer"
     id="layer1"
     transform="translate(-3.7274581,-341.3063)">
    <g
       id="g1479"
       transform="translate(-10.240741,3.92969)">
      <g
         id="g1312">
        <path
           id="path908"
           style="fill:#8fb45b;fill-opacity:1;fill-rule:evenodd;stroke:none;stroke-width:0.0645568;stroke-opacity:0.816227"
           d="m 347.375,32.740234 a 43.308018,45.293232 0 0 0 -40.35742,29.021485 57.689384,60.267075 0 0 0 -53.6836,48.203121 59.320614,60.849819 0 0 0 -10.01367,1.3125 63.631771,65.758476 0 0 0 -57.11523,-36.792965 63.631771,65.758476 0 0 0 -56.00977,34.710935 22.939899,22.457361 0 0 0 -18.80469,-9.744138 22.939899,22.457361 0 0 0 -22.939448,22.457028 22.939899,22.457361 0 0 0 0.541016,4.60938 41.365421,40.305428 0 0 0 -27.830079,36.99804 19.907019,20.025187 0 0 0 -5.107421,3.25 19.907019,20.025187 0 0 0 -14.333985,-6.14062 19.907019,20.025187 0 0 0 -19.90625,20.02539 19.907019,20.025187 0 0 0 1.441406,7.41992 H 136 a 41.365421,40.305428 0 0 0 2.69922,-4.10547 63.631771,65.758476 0 0 0 3.93164,4.10547 h 334.22266 a 26.456535,25.216738 0 0 0 1.46679,-8.27539 26.456535,25.216738 0 0 0 -26.45703,-25.2168 26.456535,25.216738 0 0 0 -16.32226,5.44336 42.492477,39.595901 0 0 0 -17.17774,-10.7207 42.492477,39.595901 0 0 0 3.85156,-16.3164 42.492477,39.595901 0 0 0 -34.44726,-38.794927 43.308018,45.293232 0 0 0 2.91601,-16.15625 A 43.308018,45.293232 0 0 0 347.375,32.740234 Z"
           transform="translate(3.7274581,341.3063)" />
        <path
           id="path938-7-1"
           style="fill:#000000;fill-opacity:0.196078;fill-rule:evenodd;stroke:none;stroke-width:0.22691;stroke-opacity:0.816227"
           d="m 422.13867,135.16797 a 33.155003,31.977734 0 0 1 -22.65429,8.7207 33.155003,31.977734 0 0 1 -14.13086,-3.07812 c -15.27375,17.07359 -40.46249,27.61661 -67.84766,27.6289 -24.99621,-0.008 -48.64998,-8.82346 -64.36328,-23.98633 1.92356,5.94142 4.78008,11.60318 8.48242,16.8125 -2.52292,0.83719 -5.15539,1.26672 -7.80469,1.27344 -2.03821,-0.0278 -4.06604,-0.30576 -6.04101,-0.82812 -15.66244,13.81445 -35.08597,17.75171 -57.11719,17.78125 -16.26487,-0.0437 -33.87317,-1.94606 -47.46875,-9.90625 0.3911,-2.15098 0.60208,-2.86454 0.63086,-5.04883 -0.005,-1.68362 -0.11744,-3.3653 -0.33789,-5.03516 -8.45371,13.57123 -25.6058,22.12991 -44.355471,22.13282 -10.017814,-0.0246 -19.792666,-2.50337 -28.042968,-7.11133 -0.203591,0.22197 -0.412616,0.43521 -0.625,0.64258 -1.715499,2.31523 -4.008053,3.61065 -6.394532,3.61328 -1.952503,-0.0174 -3.850515,-0.90039 -5.419921,-2.52149 -7.053762,3.51614 -15.320228,4.61805 -23.90625,4.61914 -4.344707,-0.0205 -8.659919,-0.54605 -12.796876,-1.55859 -0.05836,0.44242 -0.102007,0.88668 -0.130859,1.33203 0.0078,2.54294 0.496957,5.06111 1.441406,7.41992 H 68.992188 135.96289 136 c 0.98394,-1.31416 1.88533,-2.68516 2.69922,-4.10547 1.25173,1.42734 2.56354,2.79715 3.93164,4.10547 h 334.22266 c 0.97048,-2.661 1.46628,-5.4582 1.46679,-8.27539 4e-5,-13.92703 -11.84527,-25.21706 -26.45703,-25.2168 -5.92686,0.0206 -11.6748,1.93752 -16.32226,5.44336 -4.69141,-4.83687 -10.59197,-8.51944 -17.17774,-10.7207 2.18882,-4.45817 3.46512,-9.25138 3.77539,-14.13281 z"
           transform="translate(3.7274581,341.3063)" />
      </g>
      <ellipse
         style="fill:#000000;fill-opacity:0.18411;fill-rule:evenodd;stroke:none;stroke-width:4.95758;stroke-opacity:1"
         id="ellipse1609"
         cx="161.30644"
         cy="456.24011"
         rx="7.9669166"
         ry="8.3395481" />
      <ellipse
         style="fill:#ef7043;fill-opacity:1;fill-rule:evenodd;stroke:none;stroke-width:4.95758;stroke-opacity:1"
         id="ellipse1611"
         cx="159.34674"
         cy="454.67758"
         rx="7.9669166"
         ry="8.3395481" />
      <ellipse
         style="fill:#000000;fill-opacity:0.18411;fill-rule:evenodd;stroke:none;stroke-width:3.66331;stroke-opacity:1"
         id="ellipse1609-6"
         cx="405.45258"
         cy="469.09641"
         rx="5.8869958"
         ry="6.1623445" />
      <ellipse
         style="fill:#ef7043;fill-opacity:1;fill-rule:evenodd;stroke:none;stroke-width:3.66331;stroke-opacity:1"
         id="ellipse1611-1"
         cx="404.00449"
         cy="467.9418"
         rx="5.8869958"
         ry="6.1623445" />
      <ellipse
         style="fill:#000000;fill-opacity:0.18411;fill-rule:evenodd;stroke:none;stroke-width:3.66331;stroke-opacity:1"
         id="ellipse1609-6-8"
         cx="350.81305"
         cy="454.55566"
         rx="5.8869958"
         ry="6.1623445" />
      <ellipse
         style="fill:#ef7043;fill-opacity:1;fill-rule:evenodd;stroke:none;stroke-width:3.66331;stroke-opacity:1"
         id="ellipse1611-1-7"
         cx="349.36496"
         cy="453.40106"
         rx="5.8869958"
         ry="6.1623445" />
      <ellipse
         style="fill:#000000;fill-opacity:0.18411;fill-rule:evenodd;stroke:none;stroke-width:3.01311;stroke-opacity:1"
         id="ellipse1609-6-8-9"
         cx="204.32671"
         cy="477.55231"
         rx="4.8421063"
         ry="5.068583" />
      <ellipse
         style="fill:#ef7043;fill-opacity:1;fill-rule:evenodd;stroke:none;stroke-width:3.01311;stroke-opacity:1"
         id="ellipse1611-1-7-2"
         cx="203.13564"
         cy="476.60266"
         rx="4.8421063"
         ry="5.068583" />
      <ellipse
         style="fill:#000000;fill-opacity:0.18411;fill-rule:evenodd;stroke:none;stroke-width:2.85448;stroke-opacity:1"
         id="ellipse1609-6-8-9-0"
         cx="93.795792"
         cy="499.7269"
         rx="4.587183"
         ry="4.8017364" />
      <ellipse
         style="fill:#ef7043;fill-opacity:1;fill-rule:evenodd;stroke:none;stroke-width:2.85448;stroke-opacity:1"
         id="ellipse1611-1-7-2-2"
         cx="92.667427"
         cy="498.82724"
         rx="4.587183"
         ry="4.8017364" />
      <ellipse
         style="fill:#000000;fill-opacity:0.18411;fill-rule:evenodd;stroke:none;stroke-width:2.2235;stroke-opacity:1"
         id="ellipse1609-6-8-9-0-3"
         cx="39.862034"
         cy="513.01794"
         rx="3.5731962"
         ry="3.7403231" />
      <ellipse
         style="fill:#ef7043;fill-opacity:1;fill-rule:evenodd;stroke:none;stroke-width:2.2235;stroke-opacity:1"
         id="ellipse1611-1-7-2-2-7"
         cx="38.983089"
         cy="512.31714"
         rx="3.5731962"
         ry="3.7403231" />
      <ellipse
         style="fill:#768f50;fill-opacity:1;fill-rule:evenodd;stroke:none;stroke-width:0.0960337;stroke-opacity:0.816227"
         id="path1392"
         cx="358.65735"
         cy="399.80652"
         rx="3.8727694"
         ry="3.960732" />
      <ellipse
         style="fill:#768f50;fill-opacity:1;fill-rule:evenodd;stroke:none;stroke-width:0.0960337;stroke-opacity:0.816227"
         id="path1392-5"
         cx="317.12009"
         cy="471.65063"
         rx="3.8727694"
         ry="3.960732" />
      <ellipse
         style="fill:#000000;fill-opacity:0.18411;fill-rule:evenodd;stroke:none;stroke-width:2.11073;stroke-opacity:1"
         id="ellipse1609-6-8-9-9"
         cx="307.27783"
         cy="420.16406"
         rx="3.3919711"
         ry="3.5506215" />
      <ellipse
         style="fill:#ef7043;fill-opacity:1;fill-rule:evenodd;stroke:none;stroke-width:2.11073;stroke-opacity:1"
         id="ellipse1611-1-7-2-22"
         cx="306.44348"
         cy="419.49881"
         rx="3.3919711"
         ry="3.5506215" />
      <ellipse
         style="fill:#768f50;fill-opacity:1;fill-rule:evenodd;stroke:none;stroke-width:0.0664233;stroke-opacity:0.816227"
         id="path1392-5-8"
         cx="216.42247"
         cy="439.5802"
         rx="2.82883"
         ry="2.5940835" />
      <ellipse
         style="fill:#768f50;fill-opacity:1;fill-rule:evenodd;stroke:none;stroke-width:0.0664233;stroke-opacity:0.816227"
         id="path1392-5-8-9"
         cx="177.15025"
         cy="505.69421"
         rx="2.82883"
         ry="2.5940835" />
      <ellipse
         style="fill:#768f50;fill-opacity:1;fill-rule:evenodd;stroke:none;stroke-width:0.0414829;stroke-opacity:0.816227"
         id="path1392-5-8-9-7"
         cx="130.03094"
         cy="481.27768"
         rx="1.7666717"
         ry="1.6200669" />
    </g>
    <g
       id="g1514"
       transform="translate(-103.66438,799.77679)" />
  </g>
</svg>
