<?xml version="1.0" encoding="UTF-8" standalone="no"?>
<svg
   width="320"
   height="64"
   viewBox="0 0 320 64"
   version="1.1"
   id="SVGRoot"
   sodipodi:docname="grass1.svg"
   inkscape:version="1.1-dev (cef4a25b16, 2020-10-10)"
   xmlns:inkscape="http://www.inkscape.org/namespaces/inkscape"
   xmlns:sodipodi="http://sodipodi.sourceforge.net/DTD/sodipodi-0.dtd"
   xmlns="http://www.w3.org/2000/svg"
   xmlns:svg="http://www.w3.org/2000/svg">
  <defs
     id="defs823" />
  <sodipodi:namedview
     id="base"
     pagecolor="#ffffff"
     bordercolor="#666666"
     borderopacity="1.0"
     inkscape:pageopacity="0.0"
     inkscape:pageshadow="2"
     inkscape:zoom="7.919596"
     inkscape:cx="198.68438"
     inkscape:cy="102.34108"
     inkscape:document-units="px"
     inkscape:current-layer="layer1"
     showgrid="true"
     inkscape:window-width="3840"
     inkscape:window-height="2105"
     inkscape:window-x="0"
     inkscape:window-y="27"
     inkscape:window-maximized="1"
     inkscape:snap-page="true" />
  <g
     inkscape:label="Layer 1"
     inkscape:groupmode="layer"
     id="layer1"
     transform="translate(-83.411035,-321.7401)">
    <path
       style="fill:#81a055;fill-opacity:1;stroke:none;stroke-width:0.1;stroke-linecap:butt;stroke-linejoin:miter;stroke-miterlimit:4;stroke-dasharray:none;stroke-opacity:1"
       d="m 135.60104,385.7401 h 8.26268 c -1.48682,-5.67359 -2.98085,-11.3455 -6.15929,-16.62753 -0.2625,6.52851 -1.09258,11.78117 -2.10339,16.62753 z"
       id="path838"
       sodipodi:nodetypes="cccc" />
    <path
       style="fill:#81a055;stroke:none;stroke-width:0.1;stroke-linecap:butt;stroke-linejoin:miter;stroke-miterlimit:4;stroke-dasharray:none;stroke-opacity:1;fill-opacity:1"
       d="m 150.74888,385.7401 h 10.38161 c -3.53314,-6.859 -7.16876,-10.21309 -10.47578,-24.80605 -0.89862,8.34873 -0.43265,16.58001 0.0942,24.80605 z"
       id="path840"
       sodipodi:nodetypes="cccc" />
    <path
       style="fill:#81a055;stroke:none;stroke-width:0.1;stroke-linecap:butt;stroke-linejoin:miter;stroke-miterlimit:4;stroke-dasharray:none;stroke-opacity:1;fill-opacity:1"
       d="m 165.43406,385.7401 h 14.7742 c 0.41104,-6.01685 2.14433,-11.5226 4.48639,-16.42717 -4.07178,1.05415 -7.60341,5.55103 -10.87994,8.60603 -1.60652,-6.68572 -5.42876,-12.25992 -12.06667,-16.66532 3.68749,8.32873 4.34651,16.45229 3.68602,24.48646 z"
       id="path842"
       sodipodi:nodetypes="cccccc" />
    <path
       style="fill:#81a055;stroke:none;stroke-width:0.1;stroke-linecap:butt;stroke-linejoin:miter;stroke-miterlimit:4;stroke-dasharray:none;stroke-opacity:1;fill-opacity:1"
       d="m 187.22403,385.7401 h 8.28394 c -1.10897,-3.30465 -2.71457,-5.65208 -2.42804,-11.6465 -3.20056,3.20126 -4.161,7.51948 -5.8559,11.6465 z"
       id="path844"
       sodipodi:nodetypes="cccc" />
    <path
       style="fill:#81a055;stroke:none;stroke-width:0.1;stroke-linecap:butt;stroke-linejoin:miter;stroke-miterlimit:4;stroke-dasharray:none;stroke-opacity:1;fill-opacity:1"
       d="m 232.19638,385.7401 h 23.26817 c -1.74107,-6.42895 -0.78471,-13.81526 -0.0817,-20.584 -3.38035,3.59799 -7.72234,6.41135 -8.42219,12.40748 -3.14232,-3.88327 -6.017,-7.75228 -8.55973,-13.70373 -0.67993,5.28663 -0.63726,10.67611 0.37841,16.20406 -4.44158,-1.63916 -7.70448,-5.59465 -11.04312,-8.75772 0.68908,8.3585 2.81721,10.31731 4.46013,14.43391 z"
       id="path846"
       sodipodi:nodetypes="cccccccc" />
    <path
       style="fill:#81a055;stroke:none;stroke-width:0.1;stroke-linecap:butt;stroke-linejoin:miter;stroke-miterlimit:4;stroke-dasharray:none;stroke-opacity:1;fill-opacity:1"
       d="m 280.7984,385.7401 h 7.95743 c -1.59742,-3.97558 -3.154,-7.9608 -5.70158,-11.71221 -0.47953,3.9392 -1.14792,7.85405 -2.25585,11.71221 z"
       id="path848"
       sodipodi:nodetypes="cccc" />
    <path
       style="fill:#81a055;stroke:none;stroke-width:0.1;stroke-linecap:butt;stroke-linejoin:miter;stroke-miterlimit:4;stroke-dasharray:none;stroke-opacity:1;fill-opacity:1"
       d="m 298.50127,385.7401 h 31.25796 c 0.33508,-5.45389 1.17426,-11.37945 2.74761,-16.36307 -4.12999,1.88495 -6.89429,6.0727 -8.54115,10.34113 -1.98047,-3.17669 -3.86286,-5.63162 -6.36443,-12.64301 -1.95016,4.16705 -1.65742,8.46443 -2.02655,12.72335 -1.18429,-2.05224 -2.10753,-4.69522 -4.16325,-6.45134 -1.89355,1.14077 -3.43432,2.5282 -4.54284,4.21787 -4.21135,-3.3172 -7.71422,-7.9314 -10.36426,-14.36702 -1.08616,7.64416 -0.81754,15.18769 1.99691,22.54209 z"
       id="path850"
       sodipodi:nodetypes="cccccccccc" />
    <path
       style="fill:#81a055;stroke:none;stroke-width:0.1;stroke-linecap:butt;stroke-linejoin:miter;stroke-miterlimit:4;stroke-dasharray:none;stroke-opacity:1;fill-opacity:1"
       d="m 344.85726,385.7401 h 8.02293 c -0.83363,-4.21904 -3.1701,-8.0722 -5.80941,-11.85162 0.15314,4.37448 -0.93947,8.75928 -2.21352,11.85162 z"
       id="path852"
       sodipodi:nodetypes="cccc" />
    <path
       style="fill:#81a055;stroke:none;stroke-width:0.4;stroke-linecap:butt;stroke-linejoin:miter;stroke-miterlimit:4;stroke-dasharray:none;stroke-opacity:1;fill-opacity:1"
       d="m 360.28913,385.7401 h 9.63724 c 1.17537,-7.49196 2.42696,-15.45672 -0.0133,-23.64876 -2.18572,9.19998 -5.66157,17.00554 -9.6239,23.64876 z"
       id="path854"
       sodipodi:nodetypes="cccc" />
  </g>
</svg>
