<?xml version="1.0" encoding="UTF-8" standalone="no"?>
<svg
   width="128"
   height="128"
   viewBox="0 0 128 128"
   version="1.1"
   id="SVGRoot"
   sodipodi:docname="stone_big.svg"
   inkscape:version="1.1-dev (cef4a25b16, 2020-10-10)"
   xmlns:inkscape="http://www.inkscape.org/namespaces/inkscape"
   xmlns:sodipodi="http://sodipodi.sourceforge.net/DTD/sodipodi-0.dtd"
   xmlns="http://www.w3.org/2000/svg"
   xmlns:svg="http://www.w3.org/2000/svg">
  <defs
     id="defs823" />
  <sodipodi:namedview
     id="base"
     pagecolor="#ffffff"
     bordercolor="#666666"
     borderopacity="1.0"
     inkscape:pageopacity="0.0"
     inkscape:pageshadow="2"
     inkscape:zoom="1.979899"
     inkscape:cx="-221.47595"
     inkscape:cy="239.65869"
     inkscape:document-units="px"
     inkscape:current-layer="layer1"
     showgrid="true"
     inkscape:window-width="3840"
     inkscape:window-height="2105"
     inkscape:window-x="0"
     inkscape:window-y="27"
     inkscape:window-maximized="1"
     inkscape:snap-page="true" />
  <g
     inkscape:label="Layer 1"
     inkscape:groupmode="layer"
     id="layer1"
     transform="translate(-83.411035,-321.7401)">
    <g
       id="g950">
      <path
         style="fill:#e3e5e7;fill-opacity:1;stroke:none;stroke-width:0.4;stroke-linecap:butt;stroke-linejoin:miter;stroke-miterlimit:4;stroke-dasharray:none;stroke-opacity:1"
         d="m 115.36543,449.7401 h 77.53455 c 3.21163,-9.39302 7.15253,-18.48764 8.48223,-28.65069 -15.76132,-13.77792 -37.91193,-35.06465 -68.89919,-45.13923 -8.53342,-1.03621 -32.47113,-0.60664 -35.371366,9.38737 -3.530345,18.34426 11.237896,43.5818 18.253776,64.40255 z"
         id="path854"
         sodipodi:nodetypes="cccccc" />
      <path
         id="path854-7"
         style="fill:#000000;fill-opacity:0.196078;stroke:none;stroke-width:0.4;stroke-linecap:butt;stroke-linejoin:miter;stroke-miterlimit:4;stroke-dasharray:none;stroke-opacity:1"
         d="m 97.114155,385.32994 c -7.52e-4,0.003 -0.0012,0.005 -0.002,0.008 -3.53034,18.34426 11.238035,43.5816 18.253905,64.40235 h 77.53325 c 3.21162,-9.39301 7.15272,-18.48733 8.48242,-28.65038 -6.55796,5.72968 -10.43097,7.51855 -17.9707,9.84766 -9.40699,2.90594 -23.24916,4.41952 -48.58984,5.36718 -10.09286,-3.23614 -31.28635,-20.48481 -37.707035,-50.97461 z" />
      <path
         id="path854-7-5"
         style="fill:#000000;fill-opacity:0.196078;stroke:none;stroke-width:0.4;stroke-linecap:butt;stroke-linejoin:miter;stroke-miterlimit:4;stroke-dasharray:none;stroke-opacity:1"
         d="m 201.38173,421.08971 c -6.55796,5.72969 -10.43097,7.51855 -17.9707,9.84766 -9.407,2.90594 -23.24915,4.41952 -48.58984,5.36718 v 13.43555 h 58.07812 c 3.21162,-9.393 7.15272,-18.48733 8.48242,-28.65039 z" />
      <g
         id="g938">
        <path
           id="path856"
           style="fill:#000000;fill-opacity:0.196078;fill-rule:evenodd;stroke:none;stroke-width:0.28096;stroke-miterlimit:4;stroke-dasharray:none;stroke-opacity:0.816227"
           d="m 160.03281,394.40665 c -0.0816,1.16176 -9.13512,1.09232 -20.02721,0.0978 -10.89211,-0.99452 -27.46751,-2.84445 -27.38581,-4.00621 0.0817,-1.16176 15.63227,-0.31611 26.52435,0.67929 10.89208,0.99452 20.97033,2.06823 20.88867,3.22999 z"
           sodipodi:nodetypes="ssssss" />
        <path
           id="path856-3"
           style="fill:#000000;fill-opacity:0.196078;fill-rule:evenodd;stroke:none;stroke-width:0.160412;stroke-miterlimit:4;stroke-dasharray:none;stroke-opacity:0.816227"
           d="m 167.72816,404.11697 c -0.0493,0.62643 -5.52258,0.58899 -12.10734,0.0527 -6.58476,-0.53625 -16.60532,-1.53375 -16.55593,-2.16018 0.0494,-0.62643 9.4504,-0.17045 16.03514,0.36628 6.58475,0.53625 12.6775,1.1152 12.62813,1.74164 z"
           sodipodi:nodetypes="ssssss" />
        <path
           id="path856-3-6"
           style="fill:#000000;fill-opacity:0.196078;fill-rule:evenodd;stroke:none;stroke-width:0.295875;stroke-miterlimit:4;stroke-dasharray:none;stroke-opacity:0.816227"
           d="m 183.2866,417.47816 c -0.0831,1.26376 -9.31304,1.18823 -20.41731,0.10631 -11.10426,-1.08183 -28.00251,-3.0942 -27.91923,-4.35797 0.0833,-1.26376 15.93676,-0.34387 27.04099,0.73894 11.10425,1.08184 21.37881,2.24982 21.29555,3.5136 z"
           sodipodi:nodetypes="ssssss" />
      </g>
    </g>
  </g>
</svg>
