<?xml version="1.0" encoding="UTF-8" standalone="no"?>
<svg
   width="192"
   height="192"
   viewBox="0 0 192 192"
   version="1.1"
   id="SVGRoot"
   sodipodi:docname="tree_small.svg"
   inkscape:version="1.1-dev (cef4a25b16, 2020-10-10)"
   xmlns:inkscape="http://www.inkscape.org/namespaces/inkscape"
   xmlns:sodipodi="http://sodipodi.sourceforge.net/DTD/sodipodi-0.dtd"
   xmlns="http://www.w3.org/2000/svg"
   xmlns:svg="http://www.w3.org/2000/svg">
  <defs
     id="defs823" />
  <sodipodi:namedview
     id="base"
     pagecolor="#ffffff"
     bordercolor="#666666"
     borderopacity="1.0"
     inkscape:pageopacity="0.0"
     inkscape:pageshadow="2"
     inkscape:zoom="1.4"
     inkscape:cx="71.785714"
     inkscape:cy="128.92857"
     inkscape:document-units="px"
     inkscape:current-layer="layer1"
     showgrid="true"
     inkscape:window-width="1920"
     inkscape:window-height="2105"
     inkscape:window-x="1920"
     inkscape:window-y="27"
     inkscape:window-maximized="0"
     inkscape:snap-page="true" />
  <g
     inkscape:label="Layer 1"
     inkscape:groupmode="layer"
     id="layer1"
     transform="translate(-83.411035,-321.7401)">
    <g
       id="g1057">
      <g
         id="g1009"
         transform="translate(48.572647,3.45263)">
        <path
           style="fill:#87602f;fill-opacity:0.996358;stroke:none;stroke-width:0.1;stroke-linecap:butt;stroke-linejoin:miter;stroke-miterlimit:4;stroke-dasharray:none;stroke-opacity:1"
           d="m 119.49498,510.28843 h 25.82091 c -2.02108,-16.3263 -3.78261,-33.03599 -4.87844,-49.36229 l -15.27683,-0.73265 c 3.53296,19.66015 0.12283,35.69509 -5.66564,50.09494 z"
           id="path979"
           sodipodi:nodetypes="ccccc" />
        <path
           id="path979-2"
           style="fill:#000000;fill-opacity:0.196078;stroke:none;stroke-width:0.1;stroke-linecap:butt;stroke-linejoin:miter;stroke-miterlimit:4;stroke-dasharray:none;stroke-opacity:1"
           d="m 125.16011,460.19177 c 1.24566,6.93183 1.61255,13.40571 1.33203,19.52343 l 8.86914,-5.48046 3.14844,3.70312 c 0.78859,11.74873 0.39132,21.64624 0.85156,32.34961 h 5.95313 c -2.02108,-16.3263 -3.78113,-33.03503 -4.87696,-49.36133 z" />
      </g>
      <g
         id="g1045">
        <path
           id="path829"
           style="fill:#8fb45b;fill-opacity:1;fill-rule:evenodd;stroke-width:0.1;stroke-opacity:0.816227"
           d="m 146.97976,358.27279 a 39.577068,41.194969 0 0 0 -39.57618,41.19532 39.577068,41.194969 0 0 0 8.28907,25.21093 40.407646,39.629414 0 0 0 -7.15821,22.37304 40.407646,39.629414 0 0 0 40.40821,39.63086 40.407646,39.629414 0 0 0 31.20313,-14.54882 39.549732,39.101646 0 0 0 21.19141,6.17382 39.549732,39.101646 0 0 0 39.54882,-39.10156 39.549732,39.101646 0 0 0 -14.12304,-29.85156 38.716274,35.173958 0 0 0 0.64258,-6.35156 38.716274,35.173958 0 0 0 -38.7168,-35.17383 38.716274,35.173958 0 0 0 -13.82032,2.41211 39.577068,41.194969 0 0 0 -27.88867,-11.96875 z" />
        <ellipse
           style="fill:#000000;fill-opacity:0.196078;fill-rule:evenodd;stroke-width:0.0858265;stroke-opacity:0.816227"
           id="path862"
           cx="163.12395"
           cy="385.99619"
           rx="4.7026281"
           ry="4.7152162" />
        <ellipse
           style="fill:#000000;fill-opacity:0.196078;fill-rule:evenodd;stroke-width:0.0550595;stroke-opacity:0.816227"
           id="path862-7"
           cx="197.13034"
           cy="427.46805"
           rx="3.0168371"
           ry="3.0249126" />
        <ellipse
           style="fill:#000000;fill-opacity:0.196078;fill-rule:evenodd;stroke-width:0.0384384;stroke-opacity:0.816227"
           id="path862-7-5"
           cx="205.77174"
           cy="382.34"
           rx="2.1061273"
           ry="2.1117649" />
        <path
           id="path862-7-5-3"
           style="fill:#000000;fill-opacity:0.0816803;fill-rule:evenodd;stroke:none;stroke-width:0.301255;stroke-opacity:0.816227"
           d="m 171.89609,412.45358 c -2.07874,4.25447 -5.61312,7.69301 -10.01172,9.74023 4.3243,1.22591 7.92542,3.47309 11.71996,5.19512 2.50804,-5.52436 6.15429,-8.28894 10.27574,-10.20196 -5.24991,-1.25414 -7.46431,-1.96564 -11.98398,-4.73339 z"
           sodipodi:nodetypes="ccccc" />
        <path
           id="path829-9"
           style="fill:#000000;fill-opacity:0.196078;fill-rule:evenodd;stroke-width:0.1;stroke-opacity:0.816227"
           d="m 238.0657,424.82748 a 45.763294,45.935817 55.914238 0 1 -29.12109,22.89257 45.763294,45.935817 55.914238 0 1 -25.61133,-0.85351 46.394818,46.918258 69.453173 0 1 -30.85742,25.55859 46.394818,46.918258 69.453173 0 1 -39.58984,-7.67187 40.407646,39.629414 0 0 0 36.05664,21.92968 40.407646,39.629414 0 0 0 31.20312,-14.54882 39.549732,39.101646 0 0 0 21.19141,6.17382 39.549732,39.101646 0 0 0 39.54883,-39.10156 39.549732,39.101646 0 0 0 -2.82032,-14.3789 z" />
      </g>
    </g>
  </g>
</svg>
