<?xml version="1.0" encoding="UTF-8" standalone="no"?>
<svg
   width="320"
   height="320"
   viewBox="0 0 320 320"
   version="1.1"
   id="SVGRoot"
   sodipodi:docname="tree_forked.svg"
   inkscape:version="1.1-dev (cef4a25b16, 2020-10-10)"
   xmlns:inkscape="http://www.inkscape.org/namespaces/inkscape"
   xmlns:sodipodi="http://sodipodi.sourceforge.net/DTD/sodipodi-0.dtd"
   xmlns="http://www.w3.org/2000/svg"
   xmlns:svg="http://www.w3.org/2000/svg">
  <defs
     id="defs823" />
  <sodipodi:namedview
     id="base"
     pagecolor="#ffffff"
     bordercolor="#666666"
     borderopacity="1.0"
     inkscape:pageopacity="0.0"
     inkscape:pageshadow="2"
     inkscape:zoom="4.0000002"
     inkscape:cx="165.62499"
     inkscape:cy="212.87499"
     inkscape:document-units="px"
     inkscape:current-layer="g1616"
     showgrid="true"
     inkscape:window-width="2034"
     inkscape:window-height="2105"
     inkscape:window-x="1806"
     inkscape:window-y="27"
     inkscape:window-maximized="0"
     guidetolerance="20"
     showguides="true"
     inkscape:guide-bbox="true"
     inkscape:snap-others="false"
     inkscape:snap-nodes="true"
     inkscape:object-nodes="true"
     inkscape:snap-smooth-nodes="true"
     inkscape:snap-global="true"
     inkscape:snap-to-guides="false"
     inkscape:snap-grids="false">
    <inkscape:grid
       type="xygrid"
       id="grid838"
       spacingx="63.999999"
       spacingy="63.999999" />
    <sodipodi:guide
       position="108,320"
       orientation="1,0"
       id="guide839" />
    <sodipodi:guide
       position="130,320"
       orientation="1,0"
       id="guide841" />
    <sodipodi:guide
       position="124,320"
       orientation="1,0"
       id="guide843" />
  </sodipodi:namedview>
  <g
     inkscape:label="Layer 1"
     inkscape:groupmode="layer"
     id="layer1"
     transform="translate(-542.5691,-10.482071)">
    <g
       id="g1616"
       transform="matrix(1.0618393,0,0,1.0618393,113.16658,-530.65295)">
      <path
         id="path1485-1"
         style="fill:#8fb45b;fill-opacity:1;fill-rule:evenodd;stroke:none;stroke-width:1.0517"
         d="m 622.76925,515.21887 a 40.847549,41.211514 0 0 0 -30.6582,14.10937 73.153595,72.404839 0 0 0 -17.97657,-2.22851 73.153595,72.404839 0 0 0 -32.24218,7.5 68.802086,70.074799 0 0 0 -47.24219,-19.14063 68.802086,70.074799 0 0 0 -68.80274,70.07422 68.802086,70.074799 0 0 0 68.80274,70.07422 68.802086,70.074799 0 0 0 27.06641,-5.66211 73.153595,72.404839 0 0 0 52.41796,21.96289 73.153595,72.404839 0 0 0 73.1543,-72.40429 73.153595,72.404839 0 0 0 -0.66211,-9.69922 40.847549,41.211514 0 0 0 16.99024,-33.375 40.847549,41.211514 0 0 0 -40.84766,-41.21094 z" />
      <path
         id="path1485-1-0"
         style="fill:#000000;fill-opacity:0.196078;fill-rule:evenodd;stroke:none;stroke-width:1.0517"
         d="m 661.87276,568.11731 a 65.957489,59.178009 0 0 1 -43.96485,15.07812 65.957489,59.178009 0 0 1 -20.8457,-3.05664 58.345779,65.965454 0 0 1 -53.10351,38.69922 58.345779,65.965454 0 0 1 -36.48046,-14.59961 78.720261,82.349297 0 0 1 -45.7461,15.33398 78.720261,82.349297 0 0 1 -30.23047,-6.32226 68.802086,70.074799 0 0 0 63.14844,42.35742 68.802086,70.074799 0 0 0 27.06641,-5.66211 73.153595,72.404839 0 0 0 52.41796,21.96289 73.153595,72.404839 0 0 0 73.15429,-72.4043 73.153595,72.404839 0 0 0 -0.66211,-9.69921 40.847549,41.211514 0 0 0 15.2461,-21.6875 z" />
      <ellipse
         style="fill:#000000;fill-opacity:0.196078;fill-rule:evenodd;stroke:none"
         id="path1581"
         cx="475.06589"
         cy="559.65613"
         rx="7.5506115"
         ry="7.5581694" />
      <ellipse
         style="fill:#000000;fill-opacity:0.196078;fill-rule:evenodd;stroke:none"
         id="path1583"
         cx="457.76062"
         cy="595.21265"
         rx="4.2879138"
         ry="4.1293392" />
      <circle
         style="fill:#000000;fill-opacity:0.196078;fill-rule:evenodd;stroke:none"
         id="path1585"
         cx="526.41833"
         cy="570.38507"
         r="3.2039266" />
      <circle
         style="fill:#000000;fill-opacity:0.196078;fill-rule:evenodd;stroke:none"
         id="path1587"
         cx="566.95593"
         cy="589.56232"
         r="1.9292872" />
      <circle
         style="fill:#000000;fill-opacity:0.196078;fill-rule:evenodd;stroke:none"
         id="path1589"
         cx="616.54901"
         cy="550.53723"
         r="3.7800908" />
      <path
         style="fill:#000000;fill-opacity:0.12088121;stroke:none;stroke-width:0.941762px;stroke-linecap:butt;stroke-linejoin:miter;stroke-opacity:1"
         d="m 556.64553,646.13482 c 4.38179,-0.89797 4.59853,-1.2747 8.35942,-3.42588 0.26277,4.32815 1.1217,6.8295 1.54156,8.20995 -2.9211,0.58824 -4.62876,1.576 -6.79492,2.4128 -1.26519,-2.4341 -1.00211,-4.56908 -3.10606,-7.19687 z"
         id="path889"
         sodipodi:nodetypes="ccccc" />
      <path
         style="fill:#87602f;fill-opacity:1;stroke:none;stroke-width:1px;stroke-linecap:butt;stroke-linejoin:miter;stroke-opacity:1"
         d="m 524.10086,677.84234 c 6.80973,-3.53645 13.4824,-7.2332 21.28346,-9.6103 4.69857,-6.97175 7.49601,-13.12137 14.75613,-21.66266 1.09089,-0.6952 2.43831,-1.31883 4.10155,-1.85434 l -0.85201,6.80616 c -3.13305,7.02872 -7.56495,13.84992 -11.5977,20.73489 -11.83384,5.70953 -19.64263,12.80458 -27.52981,20.25854 z"
         id="path1343"
         sodipodi:nodetypes="cccccccc" />
      <path
         style="fill:#000000;fill-opacity:0.120881;stroke:none;stroke-width:0.941762px;stroke-linecap:butt;stroke-linejoin:miter;stroke-opacity:1"
         d="m 501.21322,649.02141 c 4.38179,-0.89797 15.89896,-9.33315 19.65985,-11.48433 0.26277,4.32815 13.42174,10.54657 13.8416,11.92702 -2.9211,0.58824 -14.1554,5.24903 -16.32156,6.08583 -0.63931,-1.22998 -6.61484,-0.85353 -10.53173,-1.86409 -3.83454,-0.98931 -5.60736,-3.36449 -6.64816,-4.66443 z"
         id="path889-0"
         sodipodi:nodetypes="ccccsc" />
      <path
         id="path1331"
         style="fill:#87602f;fill-opacity:1;stroke:none;stroke-width:1px;stroke-linecap:butt;stroke-linejoin:miter;stroke-opacity:1"
         d="m 519.99827,641.57112 -14.12342,9.17163 c -0.24667,13.39303 0.64533,26.38368 0.23047,39.69602 0.21003,25.76762 0.12081,44.78633 0,60.27277 0.74887,20.89166 -0.62536,51.92566 -4.32282,60.27271 h 39.04687 c -3.67097,-18.29093 -8.19118,-6.3287 -14.00528,-60.27271 -0.32435,-18.03803 0.12102,-43.43299 0,-60.27277 -0.11927,-16.59716 1.07788,-24.59936 1.2631,-42.30999 z"
         sodipodi:nodetypes="cccccccscc" />
      <path
         style="fill:#87602f;fill-opacity:1;stroke:none;stroke-width:1px;stroke-linecap:butt;stroke-linejoin:miter;stroke-opacity:1"
         d="m 508.57775,723.1601 c -4.53555,-3.50741 -9.11646,-6.99668 -15.12061,-9.91692 l 2.98348,-5.16748 c 5.20386,1.44943 9.1352,4.18994 13.36851,6.48667 z"
         id="path1345"
         sodipodi:nodetypes="ccccc" />
      <g
         id="g1483"
         transform="translate(50.905333,-31.38967)">
        <circle
           style="fill:#8fb45b;fill-opacity:1;fill-rule:evenodd;stroke:none"
           id="path1418"
           cx="432.95956"
           cy="737.58392"
           r="14.851564" />
        <path
           id="path1418-2"
           style="fill:#000000;fill-opacity:0.196078;fill-rule:evenodd;stroke:none"
           d="m 442.70175,726.38667 a 14.851564,14.851564 0 0 1 1.49609,6.49218 14.851564,14.851564 0 0 1 -14.85156,14.85157 14.851564,14.851564 0 0 1 -9.79101,-3.77149 14.851564,14.851564 0 0 0 13.40429,8.47656 14.851564,14.851564 0 0 0 14.85156,-14.85156 14.851564,14.851564 0 0 0 -5.10937,-11.19726 z" />
      </g>
      <path
         id="path1343-3"
         style="fill:#000000;fill-opacity:0.196078;stroke:none;stroke-width:1px;stroke-linecap:butt;stroke-linejoin:miter;stroke-opacity:1"
         d="m 519.99815,641.57199 -14.12275,9.17114 c -0.0709,3.84791 -0.0426,7.65885 0.0166,11.45749 l 9.47648,-3.87925 5.80508,3.74682 c -0.14859,14.20829 -0.11854,22.20227 -0.046,33.0187 -1.86345,2.3757 -3.41062,5.49274 -4.72904,9.26126 -1.44077,4.11834 -3.9933,9.60263 -3.9933,14.61571 0,4.94122 4.28303,12.88477 5.68553,16.96092 0.98412,2.8602 1.93342,5.09982 2.98715,6.848 0.0183,2.55546 0.0459,5.17068 0.0956,7.93877 1.56658,42.15957 6.35816,52.52257 10.46975,60.27277 h 9.18585 c -3.67097,-18.29093 -8.19092,-6.32876 -14.00503,-60.27277 -0.32434,-18.03804 0.12103,-43.433 0,-60.27278 -8.3e-4,-0.11533 7.1e-4,-0.21107 0,-0.32557 7.06177,-6.5678 14.41392,-12.76474 24.96773,-17.85669 4.03275,-6.88497 8.46424,-13.7066 11.59728,-20.73532 l 0.85348,-6.8057 c -1.66325,0.5355 -3.01093,1.15889 -4.10182,1.85409 -2.58678,3.04326 -4.59326,5.77491 -6.33482,8.3563 l 6.33482,-0.8829 c -3.13304,7.02872 -6.51609,10.46405 -10.54884,17.34902 -9.21676,4.44686 -16.3733,8.05133 -22.75496,13.21226 0.15113,-12.90464 1.08862,-20.96974 1.25079,-36.47489 z m 1.1772,66.56345 c 0.006,6.61484 -0.0368,12.86713 -0.0809,19.09643 -1.24355,-3.10751 -2.31395,-6.31739 -2.31395,-8.78671 0,-3.41469 1.18432,-7.03865 2.39487,-10.30972 z" />
    </g>
  </g>
</svg>
