<?xml version="1.0" encoding="UTF-8" standalone="no"?>
<svg
   width="1920px"
   height="1080px"
   viewBox="0 0 1920 1080"
   version="1.1"
   id="SVGRoot"
   sodipodi:docname="bush_small.svg"
   inkscape:version="1.1-dev (3cce3c2d6a, 2020-09-19)"
   xmlns:inkscape="http://www.inkscape.org/namespaces/inkscape"
   xmlns:sodipodi="http://sodipodi.sourceforge.net/DTD/sodipodi-0.dtd"
   xmlns="http://www.w3.org/2000/svg"
   xmlns:svg="http://www.w3.org/2000/svg"
   xmlns:rdf="http://www.w3.org/1999/02/22-rdf-syntax-ns#"
   xmlns:cc="http://creativecommons.org/ns#"
   xmlns:dc="http://purl.org/dc/elements/1.1/">
  <defs
     id="defs860" />
  <sodipodi:namedview
     id="base"
     pagecolor="#ffffff"
     bordercolor="#666666"
     borderopacity="1.0"
     inkscape:pageopacity="0.0"
     inkscape:pageshadow="2"
     inkscape:zoom="0.49497475"
     inkscape:cx="1758.6756"
     inkscape:cy="407.09148"
     inkscape:document-units="px"
     inkscape:current-layer="layer1"
     inkscape:document-rotation="0"
     showgrid="false"
     inkscape:window-width="3840"
     inkscape:window-height="2105"
     inkscape:window-x="0"
     inkscape:window-y="27"
     inkscape:window-maximized="1" />
  <metadata
     id="metadata863">
    <rdf:RDF>
      <cc:Work
         rdf:about="">
        <dc:format>image/svg+xml</dc:format>
        <dc:type
           rdf:resource="http://purl.org/dc/dcmitype/StillImage" />
      </cc:Work>
    </rdf:RDF>
  </metadata>
  <g
     inkscape:label="Layer 1"
     inkscape:groupmode="layer"
     id="layer1">
    <g
       id="g1514"
       transform="translate(-103.66438,799.77679)" />
    <g
       id="g1204"
       transform="translate(2.7823586,13.952732)">
      <path
         id="path1106"
         style="fill:#8fb45b;fill-opacity:1;fill-rule:evenodd;stroke-width:26.3"
         d="m 1153.978,107.16157 a 224.32378,222.71638 0 0 0 -224.32423,222.71485 224.32378,222.71638 0 0 0 1.07226,20.83203 439.04416,371.1286 0 0 0 -176.83398,-31.44336 439.04416,371.1286 0 0 0 -393.74023,207.0625 235.25365,217.16652 0 0 0 -25.23047,-1.26172 235.25365,217.16652 0 0 0 -235.253907,217.16601 235.25365,217.16652 0 0 0 24.437497,96.30665 H 1759.896 a 354.07291,331.7811 0 0 0 48.0527,-166.86719 354.07291,331.7811 0 0 0 -354.0722,-331.78125 354.07291,331.7811 0 0 0 -76.3028,7.87109 224.32378,222.71638 0 0 0 0.7266,-17.88281 224.32378,222.71638 0 0 0 -224.3223,-222.7168 z" />
      <g
         id="g1161">
        <ellipse
           style="fill:#000000;fill-opacity:0.18411;fill-rule:evenodd;stroke:none;stroke-width:25.6362;stroke-opacity:1"
           id="ellipse1125"
           cx="827.61108"
           cy="476.13202"
           rx="41.197586"
           ry="43.124489" />
        <ellipse
           style="fill:#ef7043;fill-opacity:1;fill-rule:evenodd;stroke:none;stroke-width:25.6362;stroke-opacity:1"
           id="ellipse1127"
           cx="817.47675"
           cy="468.05209"
           rx="41.197586"
           ry="43.124489" />
        <ellipse
           style="fill:#000000;fill-opacity:0.18411;fill-rule:evenodd;stroke:none;stroke-width:21.5536;stroke-opacity:1"
           id="ellipse1129"
           cx="300.017"
           cy="666.61932"
           rx="34.636784"
           ry="36.256821" />
        <ellipse
           style="fill:#ef7043;fill-opacity:1;fill-rule:evenodd;stroke:none;stroke-width:21.5536;stroke-opacity:1"
           id="ellipse1131"
           cx="291.49655"
           cy="659.82617"
           rx="34.636784"
           ry="36.256821" />
        <ellipse
           style="fill:#000000;fill-opacity:0.18411;fill-rule:evenodd;stroke:none;stroke-width:14.7191;stroke-opacity:1"
           id="ellipse1133"
           cx="832.64441"
           cy="691.75916"
           rx="23.653633"
           ry="24.759964" />
        <ellipse
           style="fill:#ef7043;fill-opacity:1;fill-rule:evenodd;stroke:none;stroke-width:14.7191;stroke-opacity:1"
           id="ellipse1135"
           cx="826.82574"
           cy="687.12006"
           rx="23.653633"
           ry="24.759964" />
        <ellipse
           style="fill:#000000;fill-opacity:0.18411;fill-rule:evenodd;stroke:none;stroke-width:25.6362;stroke-opacity:1"
           id="ellipse1137"
           cx="1351.915"
           cy="677.836"
           rx="41.197586"
           ry="43.124489" />
        <ellipse
           style="fill:#ef7043;fill-opacity:1;fill-rule:evenodd;stroke:none;stroke-width:25.6362;stroke-opacity:1"
           id="ellipse1139"
           cx="1341.7806"
           cy="669.7561"
           rx="41.197586"
           ry="43.124489" />
        <ellipse
           style="fill:#000000;fill-opacity:0.18411;fill-rule:evenodd;stroke:none;stroke-width:20.0698;stroke-opacity:1"
           id="ellipse1141"
           cx="1510.6635"
           cy="485.245"
           rx="32.252403"
           ry="33.760918" />
        <ellipse
           style="fill:#ef7043;fill-opacity:1;fill-rule:evenodd;stroke:none;stroke-width:20.0698;stroke-opacity:1"
           id="ellipse1143"
           cx="1502.7295"
           cy="478.91949"
           rx="32.252403"
           ry="33.760918" />
        <ellipse
           style="fill:#000000;fill-opacity:0.18411;fill-rule:evenodd;stroke:none;stroke-width:14.8976;stroke-opacity:1"
           id="ellipse1145"
           cx="1194.6538"
           cy="304.63855"
           rx="23.940681"
           ry="25.060438" />
        <ellipse
           style="fill:#ef7043;fill-opacity:1;fill-rule:evenodd;stroke:none;stroke-width:14.8976;stroke-opacity:1"
           id="ellipse1147"
           cx="1188.7644"
           cy="299.94321"
           rx="23.940681"
           ry="25.060438" />
      </g>
      <path
         id="path1163"
         style="fill:#000000;fill-opacity:0.109804;fill-rule:evenodd;stroke-width:26.3"
         d="m 1466.6094,340.11523 a 408.01187,194.26416 0 0 1 -14.0059,7.04883 315.5173,213.02615 0 0 1 25.9785,-6.45508 354.07291,331.7811 0 0 0 -11.9726,-0.59375 z M 898.625,522.34375 A 317.75375,325.5137 0 0 1 629.62305,674.77344 317.75375,325.5137 0 0 1 405.6582,580.13477 223.29414,243.95294 0 0 1 195.56055,741.49219 a 223.29414,243.95294 0 0 1 -94.44532,-22.9668 235.25365,217.16652 0 0 0 -1.447261,23.70703 235.25365,217.16652 0 0 0 24.437501,96.30664 H 1759.8965 a 354.07291,331.7811 0 0 0 47.6601,-151.58789 315.5173,213.02615 0 0 1 -233.5117,69.77344 315.5173,213.02615 0 0 1 -291.9258,-132.25 236.33858,233.24055 0 0 1 -158.4082,60.27148 A 236.33858,233.24055 0 0 1 898.625,522.34375 Z" />
    </g>
  </g>
</svg>
