<?xml version="1.0" encoding="UTF-8" standalone="no"?>
<svg
   width="192"
   height="128"
   viewBox="0 0 192 128"
   version="1.1"
   id="SVGRoot"
   sodipodi:docname="bush_medium.svg"
   inkscape:version="1.1-dev (cef4a25b16, 2020-10-10)"
   xmlns:inkscape="http://www.inkscape.org/namespaces/inkscape"
   xmlns:sodipodi="http://sodipodi.sourceforge.net/DTD/sodipodi-0.dtd"
   xmlns="http://www.w3.org/2000/svg"
   xmlns:svg="http://www.w3.org/2000/svg"
   xmlns:rdf="http://www.w3.org/1999/02/22-rdf-syntax-ns#"
   xmlns:cc="http://creativecommons.org/ns#"
   xmlns:dc="http://purl.org/dc/elements/1.1/">
  <defs
     id="defs860" />
  <sodipodi:namedview
     id="base"
     pagecolor="#ffffff"
     bordercolor="#666666"
     borderopacity="1.0"
     inkscape:pageopacity="0.0"
     inkscape:pageshadow="2"
     inkscape:zoom="1.4"
     inkscape:cx="206.78571"
     inkscape:cy="-40.357143"
     inkscape:document-units="px"
     inkscape:current-layer="layer1"
     inkscape:document-rotation="0"
     showgrid="true"
     inkscape:window-width="1920"
     inkscape:window-height="2105"
     inkscape:window-x="1920"
     inkscape:window-y="27"
     inkscape:window-maximized="0"
     inkscape:snap-page="true" />
  <metadata
     id="metadata863">
    <rdf:RDF>
      <cc:Work
         rdf:about="">
        <dc:format>image/svg+xml</dc:format>
        <dc:type
           rdf:resource="http://purl.org/dc/dcmitype/StillImage" />
      </cc:Work>
    </rdf:RDF>
  </metadata>
  <g
     inkscape:label="Layer 1"
     inkscape:groupmode="layer"
     id="layer1"
     transform="translate(-102.4498,-121.1143)">
    <g
       id="g1514"
       transform="translate(-103.66438,799.77679)" />
    <path
       id="path842"
       style="fill:#8fb45b;fill-opacity:1;fill-rule:evenodd;stroke-width:0.0999624;stroke-opacity:0.816227"
       d="m 201.50253,157.94828 a 45.085796,47.10067 0 0 0 -45.08593,47.10157 45.085796,47.10067 0 0 0 0.79882,8.34765 30.797882,31.683371 0 0 0 -15.90625,19.80078 16.279406,16.125166 0 0 0 -5.57031,-0.97656 16.279406,16.125166 0 0 0 -16.27929,16.125 16.279406,16.125166 0 0 0 0.0762,0.76758 h 144.52539 a 31.793037,33.022945 0 0 0 0.01,-0.4082 31.793037,33.022945 0 0 0 -19.38281,-30.40039 45.085796,47.10067 0 0 0 1.90039,-13.25586 45.085796,47.10067 0 0 0 -45.08594,-47.10157 z" />
    <ellipse
       style="fill:#768f50;fill-opacity:1;fill-rule:evenodd;stroke:none;stroke-width:0.0197909;stroke-opacity:0.816227"
       id="path887"
       cx="221.4044"
       cy="184.12335"
       rx="1.9062798"
       ry="1.9977077" />
    <ellipse
       style="fill:#000000;fill-opacity:0.18411;fill-rule:evenodd;stroke:none;stroke-width:3.4198;stroke-opacity:1"
       id="ellipse1125-3-6"
       cx="216.62431"
       cy="218.37358"
       rx="5.4590359"
       ry="5.7912507" />
    <ellipse
       style="fill:#ef7043;fill-opacity:1;fill-rule:evenodd;stroke:none;stroke-width:3.4198;stroke-opacity:1"
       id="ellipse1127-5-7"
       cx="215.28142"
       cy="217.28853"
       rx="5.4590359"
       ry="5.7912507" />
    <ellipse
       style="fill:#000000;fill-opacity:0.18411;fill-rule:evenodd;stroke:none;stroke-width:2.31798;stroke-opacity:1"
       id="ellipse1125-3-6-5"
       cx="181.94722"
       cy="183.575"
       rx="3.7002041"
       ry="3.9253838" />
    <ellipse
       style="fill:#ef7043;fill-opacity:1;fill-rule:evenodd;stroke:none;stroke-width:2.31798;stroke-opacity:1"
       id="ellipse1127-5-7-3"
       cx="181.03699"
       cy="182.83954"
       rx="3.7002041"
       ry="3.9253838" />
    <ellipse
       style="fill:#000000;fill-opacity:0.18411;fill-rule:evenodd;stroke:none;stroke-width:2.31798;stroke-opacity:1"
       id="ellipse1125-3-6-5-5"
       cx="154.70383"
       cy="229.69226"
       rx="3.7002041"
       ry="3.9253838" />
    <ellipse
       style="fill:#ef7043;fill-opacity:1;fill-rule:evenodd;stroke:none;stroke-width:2.31798;stroke-opacity:1"
       id="ellipse1127-5-7-3-6"
       cx="153.79361"
       cy="228.9568"
       rx="3.7002041"
       ry="3.9253838" />
    <path
       id="path842-2"
       style="fill:#000000;fill-opacity:0.196078;fill-rule:evenodd;stroke-width:0.0999624;stroke-opacity:0.816227"
       d="m 244.786,217.89165 a 47.216732,40.488121 0 0 1 -36.58594,15.00195 47.216732,40.488121 0 0 1 -22.97851,-5.17383 35.587311,39.565323 0 0 1 -27.80469,14.88477 35.587311,39.565323 0 0 1 -18.26562,-5.76758 17.61334,18.799509 0 0 1 -13.2754,6.46094 17.61334,18.799509 0 0 1 -5.18164,-0.92578 16.279406,16.125166 0 0 0 -1.23437,5.97461 16.279406,16.125166 0 0 0 0.0762,0.76757 h 144.52539 a 31.793037,33.022945 0 0 0 0.01,-0.4082 31.793037,33.022945 0 0 0 -19.38281,-30.40039 45.085796,47.10067 0 0 0 0.0976,-0.41406 z" />
  </g>
</svg>
