<?xml version="1.0" encoding="UTF-8" standalone="no"?>
<svg
   width="192"
   height="128"
   viewBox="0 0 192 128"
   version="1.1"
   id="SVGRoot"
   sodipodi:docname="bush_small2.svg"
   inkscape:version="1.1-dev (cef4a25b16, 2020-10-10)"
   xmlns:inkscape="http://www.inkscape.org/namespaces/inkscape"
   xmlns:sodipodi="http://sodipodi.sourceforge.net/DTD/sodipodi-0.dtd"
   xmlns="http://www.w3.org/2000/svg"
   xmlns:svg="http://www.w3.org/2000/svg"
   xmlns:rdf="http://www.w3.org/1999/02/22-rdf-syntax-ns#"
   xmlns:cc="http://creativecommons.org/ns#"
   xmlns:dc="http://purl.org/dc/elements/1.1/">
  <defs
     id="defs860" />
  <sodipodi:namedview
     id="base"
     pagecolor="#ffffff"
     bordercolor="#666666"
     borderopacity="1.0"
     inkscape:pageopacity="0.0"
     inkscape:pageshadow="2"
     inkscape:zoom="3.959798"
     inkscape:cx="102.40421"
     inkscape:cy="92.05015"
     inkscape:document-units="px"
     inkscape:current-layer="layer1"
     inkscape:document-rotation="0"
     showgrid="true"
     inkscape:window-width="1920"
     inkscape:window-height="2105"
     inkscape:window-x="1920"
     inkscape:window-y="27"
     inkscape:window-maximized="0"
     inkscape:snap-page="true" />
  <metadata
     id="metadata863">
    <rdf:RDF>
      <cc:Work
         rdf:about="">
        <dc:format>image/svg+xml</dc:format>
        <dc:type
           rdf:resource="http://purl.org/dc/dcmitype/StillImage" />
      </cc:Work>
    </rdf:RDF>
  </metadata>
  <g
     inkscape:label="Layer 1"
     inkscape:groupmode="layer"
     id="layer1"
     transform="translate(-102.4498,-121.1143)">
    <g
       id="g1514"
       transform="translate(-103.66438,799.77679)" />
    <g
       id="g1009">
      <path
         id="path840"
         style="fill:#8fb45b;fill-opacity:1;fill-rule:evenodd;stroke:none;stroke-width:0.159444;stroke-opacity:0.816227"
         d="M 73.333984 54.140625 A 28.65663 27.305483 0 0 0 46.166016 72.810547 A 38.135662 37.157562 0 0 0 24.152344 106.46289 A 38.135662 37.157562 0 0 0 25.382812 115.52539 A 17.836462 18.705208 0 0 0 15.150391 128 L 180.09375 128 A 17.836462 18.705208 0 0 0 162.29492 109.6875 A 17.836462 18.705208 0 0 0 155.30664 111.20117 A 28.063702 28.393084 0 0 0 155.41797 109.77539 A 28.063702 28.393084 0 0 0 127.35352 81.382812 A 28.063702 28.393084 0 0 0 104.51758 93.304688 A 17.397295 23.930824 0 0 0 100.12109 90.958984 A 28.65663 27.305483 0 0 0 101.99023 81.445312 A 28.65663 27.305483 0 0 0 73.333984 54.140625 z "
         transform="translate(102.4498,121.1143)" />
      <ellipse
         style="fill:#000000;fill-opacity:0.18411;fill-rule:evenodd;stroke:none;stroke-width:1.51864;stroke-opacity:1"
         id="ellipse1145"
         cx="224.87634"
         cy="215.59546"
         rx="2.4404783"
         ry="2.5546248" />
      <ellipse
         style="fill:#ef7043;fill-opacity:1;fill-rule:evenodd;stroke:none;stroke-width:1.51864;stroke-opacity:1"
         id="ellipse1147"
         cx="224.27599"
         cy="215.11682"
         rx="2.4404783"
         ry="2.5546248" />
      <ellipse
         style="fill:#000000;fill-opacity:0.18411;fill-rule:evenodd;stroke:none;stroke-width:2.61332;stroke-opacity:1"
         id="ellipse1125"
         cx="175.46968"
         cy="194.78496"
         rx="4.1996222"
         ry="4.3960481" />
      <ellipse
         style="fill:#ef7043;fill-opacity:1;fill-rule:evenodd;stroke:none;stroke-width:2.61332;stroke-opacity:1"
         id="ellipse1127"
         cx="174.4366"
         cy="193.96129"
         rx="4.1996222"
         ry="4.3960481" />
      <ellipse
         style="fill:#000000;fill-opacity:0.18411;fill-rule:evenodd;stroke:none;stroke-width:1.51864;stroke-opacity:1"
         id="ellipse1145-7"
         cx="240.9649"
         cy="222.21199"
         rx="2.4404783"
         ry="2.5546248" />
      <ellipse
         style="fill:#ef7043;fill-opacity:1;fill-rule:evenodd;stroke:none;stroke-width:1.51864;stroke-opacity:1"
         id="ellipse1147-5"
         cx="240.36455"
         cy="221.73335"
         rx="2.4404783"
         ry="2.5546248" />
      <ellipse
         style="fill:#000000;fill-opacity:0.18411;fill-rule:evenodd;stroke:none;stroke-width:2.13513;stroke-opacity:1"
         id="ellipse1125-3"
         cx="151.60771"
         cy="215.19098"
         rx="3.5283625"
         ry="3.4927166" />
      <ellipse
         style="fill:#ef7043;fill-opacity:1;fill-rule:evenodd;stroke:none;stroke-width:2.13513;stroke-opacity:1"
         id="ellipse1127-5"
         cx="150.73975"
         cy="214.53658"
         rx="3.5283625"
         ry="3.4927166" />
      <ellipse
         style="fill:#000000;fill-opacity:0.18411;fill-rule:evenodd;stroke:none;stroke-width:1.51864;stroke-opacity:1"
         id="ellipse1145-6"
         cx="184.40149"
         cy="224.00732"
         rx="2.4404783"
         ry="2.5546248" />
      <ellipse
         style="fill:#ef7043;fill-opacity:1;fill-rule:evenodd;stroke:none;stroke-width:1.51864;stroke-opacity:1"
         id="ellipse1147-2"
         cx="183.80113"
         cy="223.52869"
         rx="2.4404783"
         ry="2.5546248" />
      <path
         id="path840-9"
         style="fill:#000000;fill-opacity:0.196078;fill-rule:evenodd;stroke:none;stroke-width:0.159444;stroke-opacity:0.816227"
         d="m 127.4791,220.1143 a 38.135662,37.157562 0 0 0 -0.87696,7.46289 38.135662,37.157562 0 0 0 1.23047,9.0625 17.836462,18.705208 0 0 0 -10.23242,12.47461 h 164.94336 a 17.836462,18.705208 0 0 0 -16.24023,-18.15039 40.920334,37.899509 0 0 1 -29.90821,12.04493 40.920334,37.899509 0 0 1 -34.06054,-17.04102 46.989849,45.107815 0 0 1 -35.13282,15.29883 46.989849,45.107815 0 0 1 -39.72265,-21.15235 z" />
    </g>
  </g>
</svg>
