<?xml version="1.0" encoding="UTF-8" standalone="no"?>
<svg
   width="1915.5121"
   height="738.16779"
   viewBox="0 0 1915.5121 738.16779"
   version="1.1"
   id="SVGRoot"
   sodipodi:docname="bush_big.svg"
   inkscape:version="1.1-dev (cef4a25b16, 2020-10-10)"
   xmlns:inkscape="http://www.inkscape.org/namespaces/inkscape"
   xmlns:sodipodi="http://sodipodi.sourceforge.net/DTD/sodipodi-0.dtd"
   xmlns="http://www.w3.org/2000/svg"
   xmlns:svg="http://www.w3.org/2000/svg"
   xmlns:rdf="http://www.w3.org/1999/02/22-rdf-syntax-ns#"
   xmlns:cc="http://creativecommons.org/ns#"
   xmlns:dc="http://purl.org/dc/elements/1.1/">
  <defs
     id="defs860" />
  <sodipodi:namedview
     id="base"
     pagecolor="#ffffff"
     bordercolor="#666666"
     borderopacity="1.0"
     inkscape:pageopacity="0.0"
     inkscape:pageshadow="2"
     inkscape:zoom="0.35"
     inkscape:cx="1040"
     inkscape:cy="782.85714"
     inkscape:document-units="px"
     inkscape:current-layer="layer1"
     inkscape:document-rotation="0"
     showgrid="true"
     inkscape:window-width="1920"
     inkscape:window-height="1052"
     inkscape:window-x="0"
     inkscape:window-y="0"
     inkscape:window-maximized="1" />
  <metadata
     id="metadata863">
    <rdf:RDF>
      <cc:Work
         rdf:about="">
        <dc:format>image/svg+xml</dc:format>
        <dc:type
           rdf:resource="http://purl.org/dc/dcmitype/StillImage" />
      </cc:Work>
    </rdf:RDF>
  </metadata>
  <g
     inkscape:label="Layer 1"
     inkscape:groupmode="layer"
     id="layer1"
     transform="translate(-3.7274581,-341.3063)">
    <g
       id="g1514"
       transform="translate(-103.66438,799.77679)" />
    <g
       id="g1720"
       transform="matrix(0.65743433,0,0,0.65743433,1683.0215,429.1862)">
      <path
         id="path1452"
         style="fill:#8fb45b;fill-opacity:1;fill-rule:evenodd;stroke:none;stroke-width:26.3;stroke-opacity:1"
         d="m -340.17373,-133.67099 a 259.97455,247.52425 0 0 0 -246.30079,168.310547 440.55453,448.95657 0 0 0 -22.1387,-0.566407 440.55453,448.95657 0 0 0 -418.94918,310.08398 340.50677,269.3754 0 0 0 -48.7734,-2.77734 340.50677,269.3754 0 0 0 -58.4629,4 467.49295,379.95166 0 0 0 -442.3027,-256.916018 467.49295,379.95166 0 0 0 -462.1915,322.894528 210.55312,183.4991 0 0 0 -190.1953,182.53516 206.67648,186.61005 0 0 0 -143.914,177.79687 206.67648,186.61005 0 0 0 3.9101,36.12305 85.007698,93.621567 0 0 0 -37.5761,21.56836 106.11071,96.954216 0 0 0 -41.1348,-7.58203 106.11071,96.954216 0 0 0 -106.1113,96.95508 106.11071,96.954216 0 0 0 33.125,70.37501 H 282.60557 A 171.4481,224.3539 0 0 0 359.30283,802.15127 171.4481,224.3539 0 0 0 187.85558,577.79775 171.4481,224.3539 0 0 0 96.539167,612.2665 300.11578,192.83168 0 0 0 24.599707,573.16103 230.56047,221.88651 0 0 0 60.666117,454.00674 230.56047,221.88651 0 0 0 -115.49794,238.38369 259.97455,247.52425 0 0 0 -80.199107,113.85439 259.97455,247.52425 0 0 0 -340.17373,-133.67099 Z" />
      <g
         id="g1647">
        <ellipse
           style="fill:#000000;fill-opacity:0.18411;fill-rule:evenodd;stroke:none;stroke-width:41.2947;stroke-opacity:1"
           id="ellipse1583"
           cx="-1825.9185"
           cy="428.93771"
           rx="66.360893"
           ry="69.464737" />
        <ellipse
           style="fill:#ef7043;fill-opacity:1;fill-rule:evenodd;stroke:none;stroke-width:41.2947;stroke-opacity:1"
           id="path1579"
           cx="-1842.2428"
           cy="415.92261"
           rx="66.360893"
           ry="69.464737" />
        <ellipse
           style="fill:#000000;fill-opacity:0.18411;fill-rule:evenodd;stroke:none;stroke-width:24.5977;stroke-opacity:1"
           id="ellipse1585"
           cx="-1372.066"
           cy="565.65839"
           rx="39.528782"
           ry="41.377632" />
        <ellipse
           style="fill:#ef7043;fill-opacity:1;fill-rule:evenodd;stroke:none;stroke-width:24.5977;stroke-opacity:1"
           id="ellipse1587"
           cx="-1381.7899"
           cy="557.90576"
           rx="39.528782"
           ry="41.377632" />
        <ellipse
           style="fill:#000000;fill-opacity:0.18411;fill-rule:evenodd;stroke:none;stroke-width:12.0217;stroke-opacity:1"
           id="ellipse1589"
           cx="-1300.5027"
           cy="320.88181"
           rx="19.319042"
           ry="20.222635" />
        <ellipse
           style="fill:#ef7043;fill-opacity:1;fill-rule:evenodd;stroke:none;stroke-width:12.0217;stroke-opacity:1"
           id="ellipse1591"
           cx="-1305.255"
           cy="317.09286"
           rx="19.319042"
           ry="20.222635" />
        <ellipse
           style="fill:#000000;fill-opacity:0.18411;fill-rule:evenodd;stroke:none;stroke-width:12.6241;stroke-opacity:1"
           id="ellipse1593"
           cx="-1666.8602"
           cy="774.24554"
           rx="20.287136"
           ry="21.236012" />
        <ellipse
           style="fill:#ef7043;fill-opacity:1;fill-rule:evenodd;stroke:none;stroke-width:12.6241;stroke-opacity:1"
           id="ellipse1595"
           cx="-1671.8507"
           cy="770.26672"
           rx="20.287136"
           ry="21.236012" />
        <ellipse
           style="fill:#000000;fill-opacity:0.18411;fill-rule:evenodd;stroke:none;stroke-width:8.18828;stroke-opacity:1"
           id="ellipse1597"
           cx="-1983.0005"
           cy="599.79901"
           rx="13.158671"
           ry="13.774132" />
        <ellipse
           style="fill:#ef7043;fill-opacity:1;fill-rule:evenodd;stroke:none;stroke-width:8.18828;stroke-opacity:1"
           id="ellipse1599"
           cx="-1986.2374"
           cy="597.21826"
           rx="13.158671"
           ry="13.774132" />
        <ellipse
           style="fill:#000000;fill-opacity:0.18411;fill-rule:evenodd;stroke:none;stroke-width:18.315;stroke-opacity:1"
           id="ellipse1601"
           cx="-2174.4434"
           cy="793.10217"
           rx="29.432533"
           ry="30.80916" />
        <ellipse
           style="fill:#ef7043;fill-opacity:1;fill-rule:evenodd;stroke:none;stroke-width:18.315;stroke-opacity:1"
           id="ellipse1603"
           cx="-2181.6833"
           cy="787.32965"
           rx="29.432533"
           ry="30.80916" />
        <ellipse
           style="fill:#000000;fill-opacity:0.18411;fill-rule:evenodd;stroke:none;stroke-width:10.5088;stroke-opacity:1"
           id="ellipse1605"
           cx="-2442.4038"
           cy="879.99719"
           rx="16.887827"
           ry="17.67771" />
        <ellipse
           style="fill:#ef7043;fill-opacity:1;fill-rule:evenodd;stroke:none;stroke-width:10.5088;stroke-opacity:1"
           id="ellipse1607"
           cx="-2446.5579"
           cy="876.685"
           rx="16.887827"
           ry="17.67771" />
        <ellipse
           style="fill:#000000;fill-opacity:0.18411;fill-rule:evenodd;stroke:none;stroke-width:31.6745;stroke-opacity:1"
           id="ellipse1609"
           cx="-396.75589"
           cy="438.20499"
           rx="50.90155"
           ry="53.282333" />
        <ellipse
           style="fill:#ef7043;fill-opacity:1;fill-rule:evenodd;stroke:none;stroke-width:31.6745;stroke-opacity:1"
           id="ellipse1611"
           cx="-409.27661"
           cy="428.22171"
           rx="50.90155"
           ry="53.282333" />
        <ellipse
           style="fill:#000000;fill-opacity:0.18411;fill-rule:evenodd;stroke:none;stroke-width:23.6927;stroke-opacity:1"
           id="ellipse1613"
           cx="-84.60244"
           cy="524.99542"
           rx="38.074593"
           ry="39.855431" />
        <ellipse
           style="fill:#ef7043;fill-opacity:1;fill-rule:evenodd;stroke:none;stroke-width:23.6927;stroke-opacity:1"
           id="ellipse1615"
           cx="-93.967995"
           cy="517.52789"
           rx="38.074593"
           ry="39.855431" />
        <ellipse
           style="fill:#000000;fill-opacity:0.18411;fill-rule:evenodd;stroke:none;stroke-width:21.4862;stroke-opacity:1"
           id="ellipse1617"
           cx="-679.11584"
           cy="185.61061"
           rx="34.528732"
           ry="36.143723" />
        <ellipse
           style="fill:#ef7043;fill-opacity:1;fill-rule:evenodd;stroke:none;stroke-width:21.4862;stroke-opacity:1"
           id="ellipse1619"
           cx="-687.60913"
           cy="178.83852"
           rx="34.528732"
           ry="36.143723" />
        <ellipse
           style="fill:#000000;fill-opacity:0.18411;fill-rule:evenodd;stroke:none;stroke-width:13.072;stroke-opacity:1"
           id="ellipse1621"
           cx="-720.71692"
           cy="520.32159"
           rx="21.006977"
           ry="21.989523" />
        <ellipse
           style="fill:#ef7043;fill-opacity:1;fill-rule:evenodd;stroke:none;stroke-width:13.072;stroke-opacity:1"
           id="ellipse1623"
           cx="-725.88416"
           cy="516.20154"
           rx="21.006977"
           ry="21.989523" />
      </g>
      <path
         id="path1649"
         style="fill:#000000;fill-opacity:0.109759;fill-rule:evenodd;stroke:none;stroke-width:26.3;stroke-opacity:1"
         d="m 187.85547,577.79688 a 171.4481,224.3539 0 0 0 -91.316408,34.46874 300.11578,192.83168 0 0 0 -16.273437,-11.20703 167.88557,93.306244 0 0 1 -123.001953,29.80274 167.88557,93.306244 0 0 1 -58.070312,-5.75977 463.56403,270.11337 0 0 1 -463.19141,259.28125 463.56403,270.11337 0 0 1 -459.27925,-233.47461 143.56294,97.901657 0 0 1 -34.3711,2.84766 143.56294,97.901657 0 0 1 -74.3887,-14.16797 463.20963,302.89874 0 0 1 -463.1387,297.60547 463.20963,302.89874 0 0 1 -412.166,-164.67383 192.68814,117.59602 0 0 1 -191.2266,103.14649 192.68814,117.59602 0 0 1 -130.4394,-31.04102 45.629391,60.769947 0 0 1 -44.9199,50.10156 45.629391,60.769947 0 0 1 -7.8731,-0.91211 158.02951,183.29878 0 0 1 -94.0644,36.00977 158.02951,183.29878 0 0 1 -77.5586,-23.5957 106.11071,96.954216 0 0 0 -0.8907,12.52539 106.11071,96.954216 0 0 0 33.125,70.375 H 282.60547 A 171.4481,224.3539 0 0 0 359.30273,802.15039 171.4481,224.3539 0 0 0 187.85547,577.79688 Z" />
    </g>
  </g>
</svg>
