<?xml version="1.0" encoding="UTF-8" standalone="no"?>
<svg
   width="320"
   height="64"
   viewBox="0 0 320 64"
   version="1.1"
   id="SVGRoot"
   sodipodi:docname="grass.svg"
   inkscape:version="1.1-dev (cef4a25b16, 2020-10-10)"
   xmlns:inkscape="http://www.inkscape.org/namespaces/inkscape"
   xmlns:sodipodi="http://sodipodi.sourceforge.net/DTD/sodipodi-0.dtd"
   xmlns="http://www.w3.org/2000/svg"
   xmlns:svg="http://www.w3.org/2000/svg">
  <defs
     id="defs823" />
  <sodipodi:namedview
     id="base"
     pagecolor="#ffffff"
     bordercolor="#666666"
     borderopacity="1.0"
     inkscape:pageopacity="0.0"
     inkscape:pageshadow="2"
     inkscape:zoom="7.919596"
     inkscape:cx="118.88233"
     inkscape:cy="38.322662"
     inkscape:document-units="px"
     inkscape:current-layer="layer1"
     showgrid="true"
     inkscape:window-width="1920"
     inkscape:window-height="2105"
     inkscape:window-x="1920"
     inkscape:window-y="27"
     inkscape:window-maximized="0"
     inkscape:snap-page="true" />
  <g
     inkscape:label="Layer 1"
     inkscape:groupmode="layer"
     id="layer1"
     transform="translate(-83.411035,-321.7401)">
    <path
       style="mix-blend-mode:normal;fill:#81a055;fill-opacity:1;stroke:none;stroke-width:0.110646px;stroke-linecap:butt;stroke-linejoin:miter;stroke-opacity:1"
       d="m 133.98096,363.36597 c -0.53069,7.44077 -1.03644,14.8819 1.93213,22.37413 h 86.59936 c 3.06819,-5.10372 4.59389,-10.78184 4.59327,-15.58798 -3.03042,3.24298 -6.11197,7.11361 -10.2689,9.25194 -2.13653,-2.59383 -3.88273,-5.70992 -4.33689,-12.25718 -2.15182,3.40853 -3.78815,6.27913 -4.57458,10.02226 -1.53275,-3.01897 -2.40587,-6.68636 -1.98443,-10.54601 -3.27686,2.92739 -4.87579,6.71483 -6.42682,10.35059 -1.09652,-2.20162 -2.36413,-4.3224 -3.84144,-6.32469 -2.57041,1.68237 -3.87732,4.03097 -5.67416,6.31318 -2.26285,-4.11583 -4.24392,-8.68853 -5.33323,-14.27205 -3.01146,3.83661 -6.19834,8.56284 -7.63172,13.17375 l -5.60601,-6.76361 -0.11656,9.01876 c -4.18793,-3.88873 -8.55344,-7.51827 -10.48484,-14.70051 -0.92992,5.3591 -2.58581,10.5476 -2.45712,16.15547 -2.46656,-2.69546 -4.6973,-5.50847 -7.48028,-8.04626 -2.52937,1.52548 -4.1228,3.89986 -6.03765,5.9827 -4.84674,-3.34632 -8.58576,-7.93175 -10.87013,-14.14444 z"
       id="path902"
       sodipodi:nodetypes="ccccccccccccccccccccc" />
    <path
       style="fill:#81a055;fill-opacity:1;stroke:none;stroke-width:0.1;stroke-linecap:butt;stroke-linejoin:miter;stroke-miterlimit:4;stroke-dasharray:none;stroke-opacity:1"
       d="m 233.27684,385.7401 c 1.10393,-3.89018 2.03484,-7.8481 2.55487,-11.96688 3.04869,4.00475 4.45792,7.98499 5.97705,11.96688 z"
       id="path846"
       sodipodi:nodetypes="cccc" />
    <path
       style="fill:#81a055;stroke:none;stroke-width:0.1;stroke-linecap:butt;stroke-linejoin:miter;stroke-miterlimit:4;stroke-dasharray:none;stroke-opacity:1;fill-opacity:1"
       d="m 242.62516,385.7401 c 4.35539,-7.13228 7.34117,-15.91067 9.81831,-24.94353 1.34192,9.27652 1.31218,17.75205 -0.01,24.94353 z"
       id="path848"
       sodipodi:nodetypes="cccc" />
    <path
       style="fill:#81a055;stroke:none;stroke-width:0.1;stroke-linecap:butt;stroke-linejoin:miter;stroke-miterlimit:4;stroke-dasharray:none;stroke-opacity:1;fill-opacity:1"
       d="m 267.03679,385.7401 h 11.88512 c 0.47492,-6.76462 -0.39943,-13.30541 2.44748,-20.55799 -3.34078,3.37739 -6.52096,7.81732 -8.30051,12.09716 -2.43794,-3.85069 -6.71505,-6.51088 -11.018,-8.48481 2.89039,5.46443 4.53652,11.22164 4.98591,16.94564 z"
       id="path850"
       sodipodi:nodetypes="cccccc" />
    <path
       style="fill:#81a055;fill-opacity:1;stroke:none;stroke-width:0.1;stroke-linecap:butt;stroke-linejoin:miter;stroke-miterlimit:4;stroke-dasharray:none;stroke-opacity:1"
       d="m 294.76171,385.7401 h 66.22968 c 0.30277,-5.30927 0.30742,-10.54956 1.98774,-16.17762 -3.88854,1.7067 -6.08881,5.64338 -8.30592,9.55782 -2.27306,-3.33358 -4.45686,-7.5233 -6.2713,-12.20756 -1.61153,3.6679 -1.79248,8.01003 -2.07358,12.37224 -0.95404,-2.14577 -2.32995,-4.2228 -3.75094,-6.14117 -2.18339,0.7646 -3.70514,2.46058 -5.28165,4.07947 -3.11261,-3.54491 -5.97658,-7.98613 -8.32069,-14.30134 -1.01997,5.72182 -1.9626,11.04623 -1.77231,16.88101 -1.28162,-1.49798 -2.64225,-3.49533 -4.27839,-4.88672 -1.81352,1.63165 -3.33428,3.35494 -4.97581,5.04043 -0.20751,-4.52164 -1.14956,-8.7553 0.0681,-15.33779 -4.18798,3.65363 -7.45008,7.77941 -8.57633,12.99435 -3.55533,-4.31671 -6.24197,-9.30793 -8.47354,-14.97868 -0.70572,6.3061 -0.79043,12.07759 0.17202,17.3434 -3.53221,-2.13635 -7.34057,-4.51412 -10.68437,-8.89863 0.51239,5.09375 1.79735,10.01446 4.30727,14.66079 z"
       id="path852"
       sodipodi:nodetypes="ccccccccccccccccccc" />
  </g>
</svg>
