<?xml version="1.0" encoding="UTF-8" standalone="no"?>
<svg
   width="320"
   height="64"
   viewBox="0 0 320 64"
   version="1.1"
   id="SVGRoot"
   sodipodi:docname="grass3.svg"
   inkscape:version="1.1-dev (cef4a25b16, 2020-10-10)"
   xmlns:inkscape="http://www.inkscape.org/namespaces/inkscape"
   xmlns:sodipodi="http://sodipodi.sourceforge.net/DTD/sodipodi-0.dtd"
   xmlns="http://www.w3.org/2000/svg"
   xmlns:svg="http://www.w3.org/2000/svg">
  <defs
     id="defs823" />
  <sodipodi:namedview
     id="base"
     pagecolor="#ffffff"
     bordercolor="#666666"
     borderopacity="1.0"
     inkscape:pageopacity="0.0"
     inkscape:pageshadow="2"
     inkscape:zoom="2.8"
     inkscape:cx="216.60714"
     inkscape:cy="56.607142"
     inkscape:document-units="px"
     inkscape:current-layer="layer1"
     showgrid="true"
     inkscape:window-width="3840"
     inkscape:window-height="2105"
     inkscape:window-x="0"
     inkscape:window-y="27"
     inkscape:window-maximized="1"
     inkscape:snap-page="true" />
  <g
     inkscape:label="Layer 1"
     inkscape:groupmode="layer"
     id="layer1"
     transform="translate(-83.411035,-321.7401)">
    <path
       style="fill:#81a055;stroke:none;stroke-width:0.1;stroke-linecap:butt;stroke-linejoin:miter;stroke-miterlimit:4;stroke-dasharray:none;stroke-opacity:1;fill-opacity:1"
       d="M 238.52846,385.7401 H 244.58 c -1.40059,-3.63445 -3.55514,-6.93999 -7.98587,-9.87853 1.04298,3.39631 2.19549,6.5968 1.93433,9.87853 z"
       id="path893"
       sodipodi:nodetypes="cccc" />
    <path
       style="fill:#81a055;stroke:none;stroke-width:0.1;stroke-linecap:butt;stroke-linejoin:miter;stroke-miterlimit:4;stroke-dasharray:none;stroke-opacity:1;fill-opacity:1"
       d="m 251.56616,385.7401 h 35.92782 c 0.16321,-6.77511 2.77085,-12.70569 5.8423,-18.47603 -1.09433,-0.33887 -11.32723,12.54032 -11.95199,12.38628 -0.67658,-0.16681 -3.97,-9.31431 -4.1022,-10.38561 -1.39992,2.67054 -1.9976,5.65895 -2.74731,8.60396 -1.25675,-0.76454 -2.53594,-1.50493 -3.91071,-2.1425 -1.455,1.32681 -3.07297,2.60154 -4.53936,4.36701 -0.3432,-4.63226 -0.53087,-9.36819 -1.66541,-13.47303 -2.04083,4.52276 -3.69553,9.35793 -6.82111,13.003 -2.17747,-3.82161 -4.37355,-7.80168 -8.122,-10.59351 1.50863,5.60698 1.87502,11.16214 2.08997,16.71043 z"
       id="path895"
       sodipodi:nodetypes="cccscccccccc" />
    <path
       style="fill:#81a055;stroke:none;stroke-width:0.1;stroke-linecap:butt;stroke-linejoin:miter;stroke-miterlimit:4;stroke-dasharray:none;stroke-opacity:1;fill-opacity:1"
       d="m 294.30993,385.7401 c -0.4138,-3.3406 -0.63352,-4.52255 0.0812,-9.81433 1.08655,4.02202 3.45498,6.93222 5.85581,9.81433 z"
       id="path897"
       sodipodi:nodetypes="cccc" />
    <path
       style="fill:#81a055;stroke:none;stroke-width:0.1;stroke-linecap:butt;stroke-linejoin:miter;stroke-miterlimit:4;stroke-dasharray:none;stroke-opacity:1;fill-opacity:1"
       d="m 301.204,385.7401 c -0.22717,-10.77114 -0.82592,-22.03765 -2.5298,-33.09431 5.32418,7.90265 8.02009,16.353 10.67298,24.81232 1.33412,-1.49711 2.42979,-3.17838 4.16385,-4.36661 2.10878,2.22096 2.75994,4.46721 3.75167,6.70755 4.83721,-3.71639 6.20718,-9.2297 8.78258,-14.11829 0.80258,6.96902 0.82724,13.6844 -0.19226,20.05934 z"
       id="path899"
       sodipodi:nodetypes="cccccccc" />
    <path
       style="fill:#81a055;stroke:none;stroke-width:0.1;stroke-linecap:butt;stroke-linejoin:miter;stroke-miterlimit:4;stroke-dasharray:none;stroke-opacity:1;fill-opacity:1"
       d="m 333.4249,385.7401 h 13.96249 c 3.3167,-6.66227 2.53983,-14.83089 2.62692,-22.68159 -3.06718,5.10295 -5.95424,10.56718 -10.63327,14.59164 -2.19052,-2.51409 -5.19748,-4.57635 -8.465,-6.32141 1.97839,3.94937 2.4746,9.08148 2.50886,14.41136 z"
       id="path901"
       sodipodi:nodetypes="cccccc" />
    <path
       style="fill:#81a055;stroke:none;stroke-width:0.1;stroke-linecap:butt;stroke-linejoin:miter;stroke-miterlimit:4;stroke-dasharray:none;stroke-opacity:1;fill-opacity:1"
       d="m 356.57069,385.7401 h 7.58889 c -1.82902,-4.96238 -3.36892,-9.77613 -7.60455,-15.62459 0.0253,5.88437 0.0772,10.74848 0.0156,15.62459 z"
       id="path903"
       sodipodi:nodetypes="ccccc" />
    <path
       style="fill:#81a055;stroke:none;stroke-width:0.1;stroke-linecap:butt;stroke-linejoin:miter;stroke-miterlimit:4;stroke-dasharray:none;stroke-opacity:1;fill-opacity:1"
       d="m 374.53743,385.7401 h 4.67244 c -0.40283,-2.70658 -0.59533,-5.4283 -2.37358,-8.03583 -1.53779,2.33473 -2.02623,5.13719 -2.29886,8.03583 z"
       id="path905"
       sodipodi:nodetypes="cccc" />
  </g>
</svg>
