<?xml version="1.0" encoding="UTF-8" standalone="no"?>
<svg
   width="1920px"
   height="1080px"
   viewBox="0 0 1920 1080"
   version="1.1"
   id="SVGRoot"
   sodipodi:docname="house.svg"
   inkscape:version="1.1-dev (b27f5715b4, 2020-10-07)"
   xmlns:inkscape="http://www.inkscape.org/namespaces/inkscape"
   xmlns:sodipodi="http://sodipodi.sourceforge.net/DTD/sodipodi-0.dtd"
   xmlns="http://www.w3.org/2000/svg"
   xmlns:svg="http://www.w3.org/2000/svg">
  <defs
     id="defs939" />
  <sodipodi:namedview
     id="base"
     pagecolor="#ffffff"
     bordercolor="#666666"
     borderopacity="1.0"
     inkscape:pageopacity="0.0"
     inkscape:pageshadow="2"
     inkscape:zoom="1"
     inkscape:cx="793.5"
     inkscape:cy="637.5"
     inkscape:document-units="px"
     inkscape:current-layer="layer1"
     showgrid="true"
     inkscape:window-width="3840"
     inkscape:window-height="2105"
     inkscape:window-x="0"
     inkscape:window-y="27"
     inkscape:window-maximized="1"
     objecttolerance="20" />
  <g
     inkscape:label="Layer 1"
     inkscape:groupmode="layer"
     id="layer1">
    <g
       id="g1544"
       transform="matrix(3.7531276,0,0,3.7531276,-341.44577,-2362.373)">
      <g
         id="g1322"
         transform="translate(-26.883782,-3.1650624)">
        <g
           id="g1307">
          <path
             id="path1034"
             style="fill:#d8e4e1;fill-opacity:1;fill-rule:evenodd;stroke:none;stroke-width:1.01814"
             d="M 502.29901,773.84077 A 138.83499,138.83499 0 0 1 363.46402,912.67576 138.83499,138.83499 0 0 1 224.62903,773.84077 138.83499,138.83499 0 0 1 363.46402,635.00578 138.83499,138.83499 0 0 1 502.29901,773.84077 Z" />
          <g
             id="g1301">
            <path
               id="path1034-3"
               style="fill:#000000;fill-opacity:0.0868073;fill-rule:evenodd;stroke:none;stroke-width:1.01814"
               d="m 438.29883,656.90625 a 138.83499,138.83499 0 0 1 25.09961,79.60156 138.83499,138.83499 0 0 1 -70.71485,120.96289 c 2.26242,-10.59315 3.27807,-22.27095 2.79688,-34.48437 -1.79838,-45.64535 -30.30663,-69.65829 -58.2832,-68.54688 -27.97656,1.11142 -44.82768,26.92691 -43.0293,72.57227 0.69217,17.56835 5.04394,33.77272 11.71875,47.01367 a 138.83499,138.83499 0 0 1 -56.20117,-20.71289 138.83499,138.83499 0 0 0 113.77929,59.36328 138.83499,138.83499 0 0 0 138.83399,-138.83594 138.83499,138.83499 0 0 0 -64,-116.93359 z M 338.27148,762.27148 c 0.78556,0.0128 1.5712,0.0474 2.35547,0.10352 0.17926,0.0128 0.35797,0.0376 0.53711,0.0527 0.60218,0.0507 1.20423,0.1055 1.80469,0.18165 0.24412,0.0309 0.48671,0.0762 0.73047,0.11132 0.53325,0.0769 1.06647,0.15306 1.59766,0.25 0.33899,0.0619 0.67567,0.13897 1.01367,0.20899 0.41857,0.0867 0.83707,0.16841 1.2539,0.26758 0.37649,0.0896 0.75012,0.19521 1.125,0.29492 0.40207,0.10692 0.80505,0.20956 1.20508,0.32812 0.33874,0.10041 0.67458,0.21548 1.01172,0.32422 0.4167,0.13439 0.834,0.26503 1.24805,0.41211 0.33717,0.11978 0.67059,0.25463 1.00586,0.38281 0.42391,0.16207 0.84891,0.32063 1.26953,0.4961 0.30854,0.12872 0.61327,0.27033 0.91992,0.40625 0.42707,0.18927 0.85418,0.37688 1.27734,0.58008 0.3249,0.15601 0.64631,0.32407 0.96875,0.48828 0.40503,0.20625 0.81,0.41171 1.21094,0.63086 0.32455,0.17738 0.64507,0.36496 0.9668,0.55078 0.38413,0.22186 0.76854,0.44388 1.14844,0.67773 0.33677,0.20732 0.66867,0.42586 1.00195,0.64258 0.36239,0.23564 0.72397,0.47202 1.08203,0.71875 0.3275,0.22568 0.65089,0.46037 0.97461,0.69531 0.36275,0.26327 0.72424,0.52788 1.08203,0.80274 0.30905,0.23741 0.61473,0.48246 0.91992,0.72851 0.35898,0.2894 0.71688,0.5815 1.07031,0.88281 0.30508,0.26009 0.60547,0.52794 0.90625,0.79688 0.33774,0.30198 0.67373,0.60679 1.00586,0.91992 0.30608,0.28856 0.60902,0.58286 0.91016,0.88086 0.31926,0.31592 0.63568,0.63638 0.94922,0.96289 0.29847,0.31082 0.5936,0.62687 0.88672,0.94727 0.31089,0.33982 0.61916,0.68459 0.92383,1.03515 0.28468,0.32759 0.56662,0.65915 0.8457,0.9961 0.29606,0.35743 0.58738,0.7219 0.87695,1.08984 0.27114,0.34454 0.54136,0.69119 0.80664,1.04492 0.29494,0.39326 0.58362,0.79463 0.8711,1.19922 0.25103,0.35331 0.5009,0.70838 0.74609,1.07031 0.27717,0.40912 0.54886,0.82599 0.81836,1.2461 0.2429,0.37864 0.48419,0.75893 0.7207,1.14648 0.26263,0.43034 0.51889,0.86925 0.77344,1.31055 0.22633,0.39236 0.45209,0.78454 0.67187,1.18555 0.25192,0.45963 0.49518,0.92943 0.73829,1.40039 0.21176,0.41023 0.42398,0.81947 0.6289,1.23828 0.23245,0.47506 0.45625,0.96119 0.67969,1.44726 0.19411,0.42226 0.38901,0.8429 0.57617,1.27344 0.22221,0.51117 0.43429,1.03382 0.64649,1.55664 0.17635,0.43452 0.35414,0.86604 0.52343,1.3086 0.20656,0.53994 0.40185,1.09265 0.59766,1.64453 0.15479,0.43625 0.313,0.86881 0.46094,1.3125 0.1965,0.58933 0.38029,1.1925 0.56445,1.79492 0.13142,0.4299 0.26756,0.85446 0.39258,1.29101 0.17536,0.61237 0.33554,1.23983 0.49805,1.86524 0.11651,0.44841 0.23982,0.8906 0.34961,1.3457 0.14942,0.61947 0.28125,1.25488 0.41796,1.88672 0.10563,0.48813 0.21851,0.96935 0.31641,1.46484 0.11396,0.57684 0.21115,1.16907 0.31445,1.75586 0.099,0.5625 0.20585,1.11784 0.29492,1.68946 0.0921,0.59094 0.16486,1.19815 0.2461,1.79882 0.0786,0.58077 0.16612,1.15431 0.23437,1.74414 0.0692,0.59809 0.11931,1.21293 0.17774,1.82032 0.0591,0.61443 0.12787,1.21982 0.17578,1.84375 7.1e-4,0.009 0.001,0.0181 0.002,0.0273 0.0933,1.21945 0.16538,2.45535 0.21485,3.71094 0.0597,1.51577 0.0858,3.0209 0.0957,4.51758 0.003,0.43933 -0.002,0.87497 -0.004,1.3125 -0.003,1.10583 -0.0187,2.2052 -0.0488,3.29883 -0.0117,0.41997 -0.0215,0.83975 -0.0371,1.25781 -0.0501,1.35406 -0.11851,2.6986 -0.20899,4.03125 -0.007,0.0972 -0.0107,0.19586 -0.0176,0.29297 -0.10815,1.54125 -0.24323,3.06685 -0.40429,4.57617 -0.0101,0.0938 -0.023,0.18567 -0.0332,0.2793 -0.15054,1.38091 -0.32565,2.74437 -0.51953,4.0957 -0.0306,0.21303 -0.064,0.42446 -0.0957,0.63672 -0.19635,1.31777 -0.41165,2.6215 -0.64844,3.9082 -0.0202,0.10963 -0.0381,0.22068 -0.0586,0.33008 -0.54445,2.91034 -1.19137,5.73481 -1.93555,8.46484 -6.35776,23.3234 -19.80126,39.57888 -37.03906,40.26367 -14.65204,0.58208 -28.8283,-10.21966 -38.52539,-27.4082 -2.1946,-3.89003 -4.1576,-8.10374 -5.84571,-12.5918 -0.0317,-0.0843 -0.0641,-0.16747 -0.0957,-0.25195 -0.28541,-0.76524 -0.56095,-1.53978 -0.83008,-2.32031 -0.0817,-0.23658 -0.16397,-0.47299 -0.24414,-0.71094 -0.2431,-0.72265 -0.48017,-1.45054 -0.70898,-2.18555 -0.0906,-0.29068 -0.17727,-0.58439 -0.26563,-0.87695 -0.21512,-0.71344 -0.42949,-1.42798 -0.63086,-2.15234 -0.0838,-0.30109 -0.16076,-0.60723 -0.24218,-0.91016 -0.36253,-1.35106 -0.70045,-2.71939 -1.01368,-4.10547 -0.0868,-0.38356 -0.18071,-0.76231 -0.26367,-1.14844 -0.10167,-0.47412 -0.19135,-0.9557 -0.28711,-1.43359 -0.12769,-0.63611 -0.25602,-1.27146 -0.37304,-1.91406 -0.0956,-0.52571 -0.18121,-1.05604 -0.26954,-1.58594 -0.103,-0.61688 -0.20385,-1.23503 -0.29687,-1.85742 -0.0797,-0.53445 -0.15429,-1.07102 -0.22656,-1.60938 -0.0838,-0.62296 -0.16077,-1.2489 -0.23438,-1.87695 -0.0631,-0.53915 -0.12613,-1.07836 -0.18164,-1.62109 -0.0715,-0.69838 -0.13265,-1.40136 -0.1914,-2.10547 -0.0383,-0.45962 -0.0805,-0.91695 -0.11329,-1.37891 -0.0839,-1.18128 -0.15405,-2.36864 -0.20117,-3.56445 -0.051,-1.2946 -0.0853,-2.5727 -0.10351,-3.83203 -10e-6,-6.6e-4 1e-5,-10e-4 0,-0.002 -0.0182,-1.25995 -0.0201,-2.50218 -0.006,-3.72656 0.0285,-2.44876 0.12152,-4.82602 0.27734,-7.13086 0.23369,-3.45657 0.60857,-6.75014 1.11914,-9.87695 1.1e-4,-6.4e-4 -1e-4,-0.001 0,-0.002 0.85111,-5.21159 2.07951,-9.96006 3.6582,-14.22852 2.2e-4,-5.8e-4 -2.1e-4,-10e-4 0,-0.002 1.57921,-4.26947 3.50858,-8.05756 5.76368,-11.34961 0.90185,-1.31674 1.85524,-2.55238 2.85937,-3.70899 0.50208,-0.57828 1.0179,-1.13597 1.54492,-1.67382 1.05433,-1.07613 2.15692,-2.07173 3.3086,-2.98438 2.3022,-1.82429 4.7956,-3.32039 7.46679,-4.47852 1.33589,-0.57913 2.71745,-1.07314 4.14063,-1.48242 1.42317,-0.40927 2.88935,-0.73344 4.39648,-0.9707 1.50714,-0.23725 3.05482,-0.3881 4.64258,-0.45117 0.79388,-0.0315 1.58874,-0.0403 2.38281,-0.0273 z m 44.86719,100.04297 a 138.83499,138.83499 0 0 1 -58.57422,13.0293 138.83499,138.83499 0 0 1 -13.54687,-0.79297 c 9.37612,15.97738 22.79334,25.92901 36.64062,25.37891 16.33732,-0.64903 29.15847,-15.76172 35.48047,-37.61524 z" />
            <path
               id="path1136-6-9"
               style="fill:#333333;fill-opacity:0.171269;fill-rule:evenodd;stroke:none;stroke-width:0.93591;stroke-opacity:1"
               d="m 335.88937,762.29945 c -25.40413,1.00922 -40.70232,24.45091 -39.06931,65.89918 1.63302,41.44828 25.63702,74.62002 51.04114,73.6108 25.40412,-1.00921 42.58822,-35.81722 40.95521,-77.2655 -1.63302,-41.44827 -27.52291,-63.25369 -52.92704,-62.24448 z m 0.15329,2.0722 c 24.62564,-0.97829 49.72387,20.21151 51.31061,60.48507 1.58673,40.27356 -15.06878,74.09409 -39.69441,75.07238 -24.62563,0.97829 -47.897,-31.25608 -49.48373,-71.52964 -1.58673,-40.27356 13.2419,-63.04951 37.86753,-64.02781 z" />
          </g>
        </g>
        <g
           id="g1291"
           transform="translate(-0.79669251,-3.9203618)">
          <path
             id="rect1064"
             style="fill:#868588;fill-opacity:1;fill-rule:evenodd;stroke:none;stroke-width:2.49981"
             d="m 253.02958,910.71064 h 221.67189 l 3.61944,13.57596 H 249.21458 Z"
             sodipodi:nodetypes="ccccc" />
          <path
             id="rect1067"
             style="fill:#bfbec1;fill-opacity:1;fill-rule:evenodd;stroke:none;stroke-width:3.14466"
             d="m 275.25195,908.40461 h 177.48613 l 21.95487,2.30604 H 253.02959 Z"
             sodipodi:nodetypes="ccccc" />
          <path
             id="rect1070"
             style="fill:#868588;fill-opacity:1;fill-rule:evenodd;stroke:none;stroke-width:3.10007"
             d="m 279.55753,894.45314 h 169.01673 l 4.05988,13.95145 h -177.3822 z"
             sodipodi:nodetypes="ccccc" />
          <path
             id="rect1073"
             style="fill:#bfbec1;fill-opacity:1;fill-rule:evenodd;stroke:none;stroke-width:4.38747"
             d="m 285.8898,892.26228 h 156.92673 l 5.75422,2.19084 H 279.55754 Z"
             sodipodi:nodetypes="ccccc" />
          <path
             id="rect1064-7"
             style="fill:#000000;fill-opacity:0.347018;fill-rule:evenodd;stroke:none;stroke-width:2.49981"
             d="m 374.55166,910.71067 1.45898,13.57617 h 102.31055 l -3.61914,-13.57617 z" />
          <path
             id="rect1067-5"
             style="fill:#000000;fill-opacity:0.347018;fill-rule:evenodd;stroke:none;stroke-width:3.14466"
             d="m 370.87979,908.40403 3.56445,2.30664 h 100.24805 l -21.95508,-2.30664 z" />
          <path
             id="rect1070-3"
             style="fill:#000000;fill-opacity:0.347018;fill-rule:evenodd;stroke:none;stroke-width:3.10007"
             d="m 369.41885,894.45285 1.46679,13.95118 h 81.74805 l -4.05859,-13.95118 z" />
        </g>
      </g>
      <g
         id="g1368"
         transform="translate(-355.85081,-4.7205047)">
        <g
           id="g1363">
          <path
             style="fill:#99a3a3;fill-opacity:1;stroke:none;stroke-width:1px;stroke-linecap:butt;stroke-linejoin:miter;stroke-opacity:1"
             d="m 670.04739,827.7368 -15.15696,-17.79633 c -13.4411,-14.32084 4.81525,-30.2174 15.00357,-11.85955 6.77965,-18.57041 28.27835,-3.76551 13.62348,12.92054 z"
             id="path1324"
             sodipodi:nodetypes="ccccc" />
        </g>
        <path
           id="path1324-3"
           style="fill:#000000;fill-opacity:0.196078;stroke:none;stroke-width:1px;stroke-linecap:butt;stroke-linejoin:miter;stroke-opacity:1"
           d="m 680.03657,789.48131 c -3.74264,-0.22469 -7.81207,2.21603 -10.14257,8.59961 l 3.02143,-0.1202 c 2.98825,-5.90126 4.73689,-6.91874 8.54107,-8.24699 -0.46619,-0.11435 -0.93851,-0.20352 -1.41993,-0.23242 z m -20.84375,0.33008 c -7.8014,-0.30792 -13.54349,10.28333 -4.30273,20.1289 l 15.1582,17.79493 1.33399,-1.65821 -13.5,-15.84765 c -8.42351,-8.3387 -4.75578,-19.13178 1.33789,-20.41602 -0.009,-3.8e-4 -0.0183,-0.002 -0.0273,-0.002 z"
           sodipodi:nodetypes="scccscccccccc" />
      </g>
      <g
         id="g1518"
         transform="translate(-3.0726064,2.3678949)">
        <circle
           style="fill:#000000;fill-opacity:0.0705882;fill-rule:evenodd;stroke:none;stroke-width:1.6646;stroke-miterlimit:4;stroke-dasharray:none;stroke-opacity:1"
           id="path1370-02"
           cx="344.81241"
           cy="840.93353"
           r="11.324631" />
        <g
           id="g1487"
           transform="translate(-320.39644,-12.32407)">
          <circle
             style="fill:#f0ed00;fill-opacity:0.987866;fill-rule:evenodd;stroke:none;stroke-width:1.6646;stroke-miterlimit:4;stroke-dasharray:none;stroke-opacity:1"
             id="path1370"
             cx="661.5614"
             cy="849.80737"
             r="11.324631" />
          <ellipse
             style="fill:#ffffff;fill-opacity:0.987866;fill-rule:evenodd;stroke:none;stroke-width:0.212493;stroke-miterlimit:4;stroke-dasharray:none;stroke-opacity:1"
             id="path1370-0"
             cx="223.64066"
             cy="1072.355"
             rx="1.6301211"
             ry="1.2820308"
             transform="matrix(0.84512684,-0.53456582,0.43472777,0.90056192,0,0)" />
          <path
             id="path1370-7"
             style="fill:#000000;fill-opacity:0.196078;fill-rule:evenodd;stroke:none;stroke-width:1.6646;stroke-miterlimit:4;stroke-dasharray:none;stroke-opacity:1"
             d="m 668.40352,840.78076 c 1.05033,1.74956 1.50762,3.79582 1.51445,5.83643 -2.3e-4,6.2541 -5.07012,11.32399 -11.32422,11.32422 -2.44218,-0.0342 -4.82619,-0.85092 -6.76246,-2.33963 2.03699,3.42604 5.74341,5.52289 9.72926,5.53103 6.25562,8.5e-4 11.32702,-5.07055 11.32617,-11.32617 -0.0376,-3.54611 -1.63337,-6.91524 -4.4832,-9.02588 z"
             sodipodi:nodetypes="ccccccc" />
        </g>
      </g>
    </g>
  </g>
</svg>
