<?xml version="1.0" encoding="UTF-8" standalone="no"?>
<svg
   width="128"
   height="64"
   viewBox="0 0 128 64"
   version="1.1"
   id="SVGRoot"
   sodipodi:docname="stone_flat.svg"
   inkscape:version="1.1-dev (cef4a25b16, 2020-10-10)"
   xmlns:inkscape="http://www.inkscape.org/namespaces/inkscape"
   xmlns:sodipodi="http://sodipodi.sourceforge.net/DTD/sodipodi-0.dtd"
   xmlns="http://www.w3.org/2000/svg"
   xmlns:svg="http://www.w3.org/2000/svg">
  <defs
     id="defs823" />
  <sodipodi:namedview
     id="base"
     pagecolor="#ffffff"
     bordercolor="#666666"
     borderopacity="1.0"
     inkscape:pageopacity="0.0"
     inkscape:pageshadow="2"
     inkscape:zoom="2.8"
     inkscape:cx="-146.60714"
     inkscape:cy="79.464285"
     inkscape:document-units="px"
     inkscape:current-layer="layer1"
     showgrid="true"
     inkscape:window-width="3840"
     inkscape:window-height="2105"
     inkscape:window-x="0"
     inkscape:window-y="27"
     inkscape:window-maximized="1"
     inkscape:snap-page="true" />
  <g
     inkscape:label="Layer 1"
     inkscape:groupmode="layer"
     id="layer1"
     transform="translate(-83.411035,-321.7401)">
    <g
       id="g879"
       transform="translate(0,-20)">
      <path
         style="fill:#e3e5e7;fill-opacity:1;stroke:none;stroke-width:0.1;stroke-linecap:butt;stroke-linejoin:miter;stroke-miterlimit:4;stroke-dasharray:none;stroke-opacity:1"
         d="m 115.27703,405.7401 h 60.73258 c 3.22208,-3.04467 7.19141,-6.30374 8.34175,-10.31745 -0.20469,-1.70655 -6.68024,-7.3029 -10.07147,-7.63682 -26.45799,-1.06029 -59.34455,3.85345 -65.07838,11.82423 -0.51926,1.93112 3.58065,4.66128 6.07552,6.13004 z"
         id="path841"
         sodipodi:nodetypes="cccccc" />
      <path
         id="path841-3"
         style="fill:#000000;fill-opacity:0.196078;stroke:none;stroke-width:0.1;stroke-linecap:butt;stroke-linejoin:miter;stroke-miterlimit:4;stroke-dasharray:none;stroke-opacity:1"
         d="m 100.93945,73.681641 c -1.114987,2.6244 -19.305851,4.8543 -28.958981,7.28125 -16.2831,-0.10661 -44.988943,-0.48136 -46.189453,-3.09375 -0.51926,1.93112 3.579348,4.662099 6.074218,6.130859 h 60.732422 c 3.22208,-3.04467 7.191457,-6.304649 8.341794,-10.318359 z"
         transform="translate(83.411035,321.7401)" />
      <path
         id="path841-3-6"
         style="fill:#000000;fill-opacity:0.196078;stroke:none;stroke-width:0.1;stroke-linecap:butt;stroke-linejoin:miter;stroke-miterlimit:4;stroke-dasharray:none;stroke-opacity:1"
         d="m 100.93945,73.681641 c -1.114977,2.6244 -19.305851,4.8543 -28.958981,7.28125 V 84 h 20.617187 c 3.22208,-3.04467 7.191467,-6.304649 8.341794,-10.318359 z"
         transform="translate(83.411035,321.7401)" />
    </g>
  </g>
</svg>
