<?xml version="1.0" encoding="UTF-8" standalone="no"?>
<svg
   width="1920px"
   height="1080px"
   viewBox="0 0 1920 1080"
   version="1.1"
   id="SVGRoot"
   sodipodi:docname="tree_simple.svg"
   inkscape:version="1.1-dev (3cce3c2d6a, 2020-09-19)"
   xmlns:inkscape="http://www.inkscape.org/namespaces/inkscape"
   xmlns:sodipodi="http://sodipodi.sourceforge.net/DTD/sodipodi-0.dtd"
   xmlns="http://www.w3.org/2000/svg"
   xmlns:svg="http://www.w3.org/2000/svg">
  <defs
     id="defs823" />
  <sodipodi:namedview
     id="base"
     pagecolor="#ffffff"
     bordercolor="#666666"
     borderopacity="1.0"
     inkscape:pageopacity="0.0"
     inkscape:pageshadow="2"
     inkscape:zoom="1.4"
     inkscape:cx="1062.5"
     inkscape:cy="621.78571"
     inkscape:document-units="px"
     inkscape:current-layer="layer1"
     showgrid="false"
     inkscape:window-width="3840"
     inkscape:window-height="2105"
     inkscape:window-x="0"
     inkscape:window-y="27"
     inkscape:window-maximized="1" />
  <g
     inkscape:label="Layer 1"
     inkscape:groupmode="layer"
     id="layer1">
    <g
       id="g968">
      <path
         id="path939"
         style="fill:#8fb45b;fill-opacity:1;fill-rule:evenodd;stroke:none;stroke-width:3.55681;stroke-miterlimit:4;stroke-dasharray:none"
         d="M 1146.8322,8.2244186 A 231.41868,229.47095 0 0 0 965.27206,95.498267 79.398785,78.327277 0 0 0 890.0448,41.059722 a 79.398785,78.327277 0 0 0 -76.04179,57.10697 231.41868,229.47095 0 0 0 -8.42407,-0.162835 231.41868,229.47095 0 0 0 -231.42202,229.475023 231.41868,229.47095 0 0 0 8.33099,59.75987 96.466965,92.095393 0 0 0 -20.83526,56.82769 96.466965,92.095393 0 0 0 96.47365,92.09872 96.466965,92.095393 0 0 0 37.10948,-7.38464 231.41868,229.47095 0 0 0 110.34316,28.1656 231.41868,229.47095 0 0 0 142.54241,-48.83798 163.17992,166.4917 0 0 0 134.63035,73.03205 A 163.17992,166.4917 0 0 0 1242.949,446.19961 231.41868,229.47095 0 0 0 1378.2542,237.69948 231.41868,229.47095 0 0 0 1146.8322,8.224498 Z" />
      <path
         id="path1007"
         style="fill:#000000;fill-opacity:0.19607843;fill-rule:evenodd;stroke:none;stroke-width:3.97158;stroke-miterlimit:4;stroke-dasharray:none"
         d="m 1374.174,194.84214 c -13.2766,93.84272 -124.9075,165.3104 -258.2457,165.33244 -62.6379,-0.0496 -123.13817,-16.11702 -170.34348,-45.23874 -31.61205,72.25306 -102.33467,118.91307 -180.47408,119.06979 -86.13746,-0.1672 -162.2615,-52.37261 -188.20787,-135.42153 -1.72561,10.9886 -2.64336,17.7742 -2.74595,28.89478 0.1128,20.19671 2.91387,40.29028 8.33099,59.75987 -13.41798,16.17902 -20.75535,36.19156 -20.83526,56.82769 -0.002,50.8667 43.19246,92.10225 96.47369,92.09872 12.75965,-0.0941 25.37295,-2.60425 37.10944,-7.38464 33.83892,18.36061 71.76964,28.04264 110.34316,28.16564 51.6808,-0.0401 101.86078,-17.23291 142.54241,-48.83802 30.28472,45.55456 80.68015,72.89221 134.63035,73.03205 78.1886,-0.0119 145.3801,-56.61065 160.1973,-134.94058 82.3441,-37.27874 135.2091,-118.74162 135.3052,-208.50013 0,-14.381 -1.3688,-28.72988 -4.0802,-42.85734 z" />
      <path
         id="path1023"
         style="fill:#000000;fill-opacity:0.19607843;fill-rule:evenodd;stroke:none;stroke-width:3.97158;stroke-miterlimit:4;stroke-dasharray:none"
         d="m 787.04493,250.57435 a 23.675439,26.45973 0 0 1 -23.67545,26.45973 23.675439,26.45973 0 0 1 -23.67542,-26.45973 23.675439,26.45973 0 0 1 23.67542,-26.45973 23.675439,26.45973 0 0 1 23.67545,26.45973 z" />
      <path
         id="path1025"
         style="fill:#000000;fill-opacity:0.19607843;fill-rule:evenodd;stroke:none;stroke-width:3.97158;stroke-miterlimit:4;stroke-dasharray:none"
         d="m 991.764,165.87384 a 16.259507,16.818944 0 0 1 -16.25953,16.81896 16.259507,16.818944 0 0 1 -16.25948,-16.81896 16.259507,16.818944 0 0 1 16.25948,-16.81896 16.259507,16.818944 0 0 1 16.25953,16.81896 z" />
      <path
         id="path1027"
         style="fill:#000000;fill-opacity:0.19607843;fill-rule:evenodd;stroke:none;stroke-width:3.97158;stroke-miterlimit:4;stroke-dasharray:none"
         d="m 1107.6746,286.15783 a 14.346708,15.01328 0 0 1 -14.3467,15.01328 14.346708,15.01328 0 0 1 -14.3467,-15.01328 14.346708,15.01328 0 0 1 14.3467,-15.01329 14.346708,15.01328 0 0 1 14.3467,15.01329 z" />
      <path
         id="path1029"
         style="fill:#000000;fill-opacity:0.19607843;fill-rule:evenodd;stroke:none;stroke-width:3.97158;stroke-miterlimit:4;stroke-dasharray:none"
         d="m 1206.337,109.57966 a 20.95188,20.854353 0 0 1 -20.9519,20.85436 20.95188,20.854353 0 0 1 -20.9519,-20.85436 20.95188,20.854353 0 0 1 20.9519,-20.854324 20.95188,20.854353 0 0 1 20.9519,20.854324 z" />
      <path
         id="rect1039"
         style="fill:#000000;fill-opacity:0.102478;fill-rule:evenodd;stroke:none;stroke-width:3.97158;stroke-miterlimit:4;stroke-dasharray:none"
         d="m 941.28086,435.81646 c -16.81697,25.04172 -41.41113,43.87427 -70.92214,58.7825 7.33042,14.45194 20.95262,27.18657 33.33961,40.63914 17.38384,-8.16497 31.50245,-16.60358 44.42421,-27.12648 6.52932,8.759 13.19875,17.47689 21.06553,25.84362 12.68078,-10.00366 23.76462,-18.19897 42.32453,-25.85915 -32.69075,-24.37294 -46.87588,-48.18792 -70.23174,-72.27963 z"
         sodipodi:nodetypes="ccccccc" />
      <path
         id="path902-9"
         style="fill:#87602f;fill-opacity:0.999991;stroke:none;stroke-width:3.97158px;stroke-linecap:butt;stroke-linejoin:miter;stroke-opacity:1"
         d="m 935.39335,459.12119 c -13.59921,11.66262 -27.62773,22.82414 -44.49408,30.72544 3.94199,109.60544 4.28153,219.77373 -0.38008,330.71922 6.49262,51.85507 6.03172,102.44035 8.2224,153.65819 l -2.73046,96.47366 H 1012.459 c -9.9108,-28.403 -21.89578,-75.40146 -31.3925,-174.70288 4.1524,-113.89899 -5.96543,-228.75077 -1.82288,-338.73998 2.09358,-24.33025 6.58301,-38.0567 10.01426,-56.4631 -21.32774,-13.98337 -40.17057,-27.89688 -53.86453,-41.67055 z" />
      <path
         id="path902-3-1"
         style="fill:#000000;fill-opacity:0.19607843;stroke:none;stroke-width:3.97158px;stroke-linecap:butt;stroke-linejoin:miter;stroke-opacity:1"
         d="m 935.39335,459.12119 c -13.59921,11.66262 -27.62777,22.82414 -44.49412,30.72544 0.53609,14.90561 0.99695,29.8231 1.39625,44.75008 14.75672,-4.68861 31.11474,-7.24575 42.00409,-16.58444 14.81057,11.42683 6.18347,4.40436 27.49079,18.43059 -3.43128,18.4064 -0.9394,47.18922 -3.03297,71.51943 -4.14256,109.98921 11.28881,222.52941 7.13641,336.4284 5.56243,58.16301 6.91448,97.61581 9.05242,126.30701 h 37.51278 c -9.9108,-28.403 -21.89578,-75.40146 -31.3925,-174.70288 4.1524,-113.89899 -5.96547,-228.75073 -1.82292,-338.73994 2.09358,-24.33025 6.58305,-38.05674 10.0143,-56.46314 -21.32774,-13.98337 -40.17057,-27.89688 -53.86453,-41.67055 z" />
    </g>
  </g>
</svg>
