<?xml version="1.0" encoding="UTF-8" standalone="no"?>
<svg
   width="384"
   height="384"
   viewBox="0 0 384 384"
   version="1.1"
   id="SVGRoot"
   sodipodi:docname="tree_curved.svg"
   inkscape:version="1.1-dev (cef4a25b16, 2020-10-10)"
   xmlns:inkscape="http://www.inkscape.org/namespaces/inkscape"
   xmlns:sodipodi="http://sodipodi.sourceforge.net/DTD/sodipodi-0.dtd"
   xmlns="http://www.w3.org/2000/svg"
   xmlns:svg="http://www.w3.org/2000/svg">
  <defs
     id="defs823" />
  <sodipodi:namedview
     id="base"
     pagecolor="#ffffff"
     bordercolor="#666666"
     borderopacity="1.0"
     inkscape:pageopacity="0.0"
     inkscape:pageshadow="2"
     inkscape:zoom="2"
     inkscape:cx="175.25"
     inkscape:cy="318.75"
     inkscape:document-units="px"
     inkscape:current-layer="g1584"
     showgrid="true"
     inkscape:window-width="1920"
     inkscape:window-height="2105"
     inkscape:window-x="1920"
     inkscape:window-y="27"
     inkscape:window-maximized="0"
     inkscape:snap-page="true" />
  <g
     inkscape:label="Layer 1"
     inkscape:groupmode="layer"
     id="layer1"
     transform="translate(-482.10087,-12.570491)">
    <g
       id="g1584"
       transform="matrix(3.2525618,0,0,3.2525618,-2980.6244,-1363.9108)">
      <g
         id="g1561" />
      <g
         id="g63"
         transform="matrix(0.33231066,0,0,0.33231066,718.64442,293.23193)">
        <g
           id="g1345"
           transform="translate(-74.209259,4.3738139)">
          <path
             id="path1204"
             style="fill:#87602f;fill-opacity:0.996078;stroke:none;stroke-width:1px;stroke-linecap:butt;stroke-linejoin:miter;stroke-opacity:1"
             d="m 1349.7165,517.14085 -6.0058,0.45313 c -2.5239,15.72348 -5.9191,30.93599 -11.6895,43.45703 -3.357,-5.68295 -7.2496,-11.75741 -11.7656,-18.27149 -4.3861,1.63625 -9.0767,2.19823 -13.8555,2.44727 -1.2578,2.28666 -1.6584,4.7727 -1.7773,7.32422 29.6555,40.64809 23.865,79.56247 16.1953,95.58594 -2.2348,6.4717 -5.1779,10.63509 -7.7676,15.94921 -1.1611,-1.01917 -2.2585,-1.8027 -3.7051,-3.86914 l -4.3125,3.00196 c 2.1834,2.44895 2.3847,5.88502 3.1211,8.6289 -5.0894,8.87074 -10.6429,17.77207 -14.8633,26.58594 C 1266.1644,739.33343 1247.277,739.26199 1227,742 h 101 c -1.3151,-10.12903 -1.4385,-23.0805 6.2302,-55.64821 l 13.8711,-36.44141 c 0.2732,-3.21764 0.8062,-6.45441 1.3769,-9.80468 8.4453,-23.22811 17.9504,-51.46341 34.2286,-68.67188 -2.5311,-2.14038 -4.5931,-4.77194 -6.6973,-7.35937 -10.5843,9.33103 -20.559,18.85005 -29.9844,28.81836 -1.8885,-5.71676 -4.4689,-11.97854 -7.9258,-18.89454 4.7703,-18.81156 8.3931,-37.75806 10.6172,-56.85742 z"
             sodipodi:nodetypes="cccccccccccccccccccccc" />
          <path
             id="path1204-2"
             style="fill:#000000;fill-opacity:0.196078;stroke:none;stroke-width:1px;stroke-linecap:butt;stroke-linejoin:miter;stroke-opacity:1"
             d="m 1349.7165,517.14085 -2.7558,0.20703 c -2.1452,17.73064 -5.4853,35.33033 -9.8282,52.8125 -4.331,-8.18592 -9.853,-17.25212 -16.875,-27.38086 -2.9139,1.08704 -5.9646,1.69269 -9.0839,2.05469 42.8215,62.20192 29.0534,84.26165 27.1933,106.16992 l -13.8711,36.44141 C 1317.0974,718.86522 1296.8247,731.99476 1298,742 h 30 c -1.3151,-10.12903 -1.4365,-23.08045 6.2322,-55.64816 l 13.8691,-36.44141 c 0.2732,-3.21764 0.8061,-6.45441 1.3769,-9.80468 8.4451,-23.22803 17.9504,-51.46341 34.2286,-68.67188 -1.3425,-1.13527 -2.5484,-2.41422 -3.7032,-3.74609 -12.7237,14.40063 -21.1962,35.5616 -28.3828,55.18945 0.483,-12.20039 -1.7488,-27.36447 -12.5176,-48.88672 4.7693,-18.80914 8.3895,-37.75255 10.6133,-56.84961 z"
             sodipodi:nodetypes="cccccccccccccccccc" />
          <path
             style="fill:#000000;fill-opacity:0.196078;stroke:none;stroke-width:1px;stroke-linecap:butt;stroke-linejoin:miter;stroke-opacity:1"
             d="m 1278,742 c 9.0857,-15.17601 20.1818,-28.23108 30.5536,-41.91001 C 1301.298,714.07191 1291.7723,726.9198 1287,742 Z"
             id="path1315"
             sodipodi:nodetypes="cccc" />
        </g>
        <g
           id="g1484"
           transform="translate(-303.83945,10.290289)">
          <path
             id="path1347"
             style="fill:#8fb45b;fill-opacity:1;fill-rule:evenodd;stroke:none;stroke-width:0.901877;stroke-miterlimit:4;stroke-dasharray:none"
             d="m 1533.2472,412.9275 a 26.379367,27.46269 88.068128 0 0 -26.3828,16.11328 41.250203,42.385091 87.132229 0 0 -25.2266,-9.4082 41.250203,42.385091 87.132229 0 0 -42.9219,31.62109 53.970634,55.758301 0 0 0 -16.291,-2.67187 53.970634,55.758301 0 0 0 -53.9707,55.75781 53.970634,55.758301 0 0 0 53.9707,55.75781 53.970634,55.758301 0 0 0 20.0156,-3.98633 53.970634,55.758301 0 0 0 44.0411,23.68165 53.970634,55.758301 0 0 0 51.625,-39.78907 47.771082,48.353171 83.528712 0 0 38.4843,-28.57226 41.250203,42.385091 87.132229 0 0 6.7461,0.85937 41.250203,42.385091 87.132229 0 0 44.166,-39.55664 41.250203,42.385091 87.132229 0 0 -40.5175,-42.88281 41.250203,42.385091 87.132229 0 0 -27.5547,8.60352 26.379367,27.46269 88.068128 0 0 -26.1836,-25.52735 z" />
          <path
             id="path1347-8"
             style="fill:#000000;fill-opacity:0.196078;fill-rule:evenodd;stroke:none;stroke-width:0.901877;stroke-miterlimit:4;stroke-dasharray:none"
             d="m 1622.5011,451.51539 c -1.1721,22.61512 -20.8656,40.16208 -44.1445,39.24804 -2.2692,-0.1099 -4.5252,-0.39728 -6.7461,-0.85937 -6.8068,15.58495 -23.1737,19.56234 -40.2051,21.67578 -6.8227,23.58036 -26.0821,46.64685 -49.9043,46.68555 -17.5321,-0.0351 -33.9551,-8.8661 -44.041,-23.68164 -6.3662,2.63021 -13.1592,3.98333 -20.0156,3.98633 -13.8354,1e-5 -28.7865,-0.83132 -40.8418,-4.79688 a 53.970634,55.758301 0 0 0 45.8222,26.32422 53.970634,55.758301 0 0 0 20.0157,-3.98633 53.970634,55.758301 0 0 0 44.041,23.68164 53.970634,55.758301 0 0 0 51.625,-39.78906 47.771082,48.353171 83.528712 0 0 38.4843,-28.57227 41.250203,42.385091 87.132229 0 0 6.7461,0.85938 41.250203,42.385091 87.132229 0 0 44.1661,-39.55664 41.250203,42.385091 87.132229 0 0 -5.002,-21.21875 z" />
          <ellipse
             style="fill:#000000;fill-opacity:0.196078;fill-rule:evenodd;stroke:none;stroke-width:1;stroke-miterlimit:4;stroke-dasharray:none"
             id="path1441"
             cx="1497.8184"
             cy="525.52496"
             rx="4.0973206"
             ry="4.2755814" />
          <ellipse
             style="fill:#000000;fill-opacity:0.196078;fill-rule:evenodd;stroke:none;stroke-width:1;stroke-miterlimit:4;stroke-dasharray:none"
             id="path1443"
             cx="1393.1621"
             cy="491.22009"
             rx="6.043335"
             ry="6.204422" />
          <ellipse
             style="fill:#000000;fill-opacity:0.196078;fill-rule:evenodd;stroke:none;stroke-width:1;stroke-miterlimit:4;stroke-dasharray:none"
             id="path1445"
             cx="1435.0331"
             cy="503.17035"
             rx="3.6871033"
             ry="4.3511276" />
          <ellipse
             style="fill:#000000;fill-opacity:0.196078;fill-rule:evenodd;stroke:none;stroke-width:1;stroke-miterlimit:4;stroke-dasharray:none"
             id="path1447"
             cx="1486.5261"
             cy="452.5867"
             rx="3.5864258"
             ry="3.6086807" />
          <ellipse
             style="fill:#000000;fill-opacity:0.196078;fill-rule:evenodd;stroke:none;stroke-width:1;stroke-miterlimit:4;stroke-dasharray:none"
             id="path1449"
             cx="1548.0647"
             cy="479.47183"
             rx="5.3719788"
             ry="5.6584473" />
          <ellipse
             style="fill:#000000;fill-opacity:0.196078;fill-rule:evenodd;stroke:none;stroke-width:1;stroke-miterlimit:4;stroke-dasharray:none"
             id="path1451"
             cx="1540.2377"
             cy="438.77765"
             rx="5.5036011"
             ry="5.2415619" />
          <ellipse
             style="fill:#000000;fill-opacity:0.196078;fill-rule:evenodd;stroke:none;stroke-width:1;stroke-miterlimit:4;stroke-dasharray:none"
             id="path1453"
             cx="1606.677"
             cy="450.42932"
             rx="4.9184875"
             ry="5.0994644" />
          <path
             id="path1455"
             style="fill:#000000;fill-opacity:0.0746678;fill-rule:evenodd;stroke:none;stroke-width:1;stroke-miterlimit:4;stroke-dasharray:none"
             d="m 1432.9996,476.32788 c 0.1715,1.22189 0.2596,2.45566 0.2636,3.69141 -0.038,3.72651 -0.8401,7.398 -2.3496,10.75195 3.4032,-3.50079 10.8466,-4.93108 15.8599,-5.57798 -4.4186,-1.31163 -11.109,-4.98259 -13.7739,-8.86538 z"
             sodipodi:nodetypes="ccccc" />
        </g>
        <g
           id="g1544"
           transform="translate(-138.22671,1.0387681)">
          <path
             id="path1486"
             style="fill:#8fb45b;fill-opacity:1;fill-rule:evenodd;stroke:none;stroke-width:1.15248;stroke-miterlimit:4;stroke-dasharray:none"
             d="m 1469.0707,520.15015 a 32.89048,32.237514 0 0 0 -32.8906,32.23828 32.89048,32.237514 0 0 0 32.8906,32.23633 32.89048,32.237514 0 0 0 22.2129,-8.53516 16.59923,16.744003 0 0 0 5.6738,1.06641 16.59923,16.744003 0 0 0 16.5996,-16.74219 16.59923,16.744003 0 0 0 -10.4101,-15.52734 13.509576,13.342427 0 0 0 1.3476,-5.80469 13.509576,13.342427 0 0 0 -13.5078,-13.34375 13.509576,13.342427 0 0 0 -3.0254,0.3418 32.89048,32.237514 0 0 0 -18.8906,-5.92969 z" />
          <path
             id="path1486-0"
             style="fill:#000000;fill-opacity:0.196078;fill-rule:evenodd;stroke:none;stroke-width:1.15248;stroke-miterlimit:4;stroke-dasharray:none"
             d="m 1504.7543,545.73218 a 29.986395,26.786339 0 0 1 -16.5117,4.43359 29.986395,26.786339 0 0 1 -5.25,-0.44726 38.996803,34.787937 0 0 1 -32.6191,15.73242 38.996803,34.787937 0 0 1 -12.0137,-1.75195 32.89048,32.237514 0 0 0 30.7109,20.92578 32.89048,32.237514 0 0 0 22.2129,-8.53516 16.59923,16.744003 0 0 0 5.6739,1.06641 16.59923,16.744003 0 0 0 16.5996,-16.74219 16.59923,16.744003 0 0 0 -8.8028,-14.68164 z" />
          <ellipse
             style="fill:#000000;fill-opacity:0.196078;fill-rule:evenodd;stroke:none;stroke-width:1;stroke-miterlimit:4;stroke-dasharray:none"
             id="path1536"
             cx="1456.8082"
             cy="539.88068"
             rx="4.1288319"
             ry="4.4379649" />
          <ellipse
             style="fill:#000000;fill-opacity:0.196078;fill-rule:evenodd;stroke:none;stroke-width:1;stroke-miterlimit:4;stroke-dasharray:none"
             id="path1538"
             cx="1486.5719"
             cy="539.65228"
             rx="2.0768025"
             ry="2.3454957" />
        </g>
      </g>
    </g>
  </g>
</svg>
