<?xml version="1.0" encoding="UTF-8" standalone="no"?>
<svg
   width="844.54962"
   height="1050.5494"
   viewBox="0 0 844.54962 1050.5494"
   version="1.1"
   id="SVGRoot"
   sodipodi:docname="tree_forked.svg"
   inkscape:version="1.1-dev (cef4a25b16, 2020-10-10)"
   xmlns:inkscape="http://www.inkscape.org/namespaces/inkscape"
   xmlns:sodipodi="http://sodipodi.sourceforge.net/DTD/sodipodi-0.dtd"
   xmlns="http://www.w3.org/2000/svg"
   xmlns:svg="http://www.w3.org/2000/svg">
  <defs
     id="defs823" />
  <sodipodi:namedview
     id="base"
     pagecolor="#ffffff"
     bordercolor="#666666"
     borderopacity="1.0"
     inkscape:pageopacity="0.0"
     inkscape:pageshadow="2"
     inkscape:zoom="0.1767767"
     inkscape:cx="-492.14632"
     inkscape:cy="1040.8612"
     inkscape:document-units="px"
     inkscape:current-layer="layer1"
     showgrid="false"
     inkscape:window-width="1920"
     inkscape:window-height="1052"
     inkscape:window-x="0"
     inkscape:window-y="0"
     inkscape:window-maximized="1"
     guidetolerance="20" />
  <g
     inkscape:label="Layer 1"
     inkscape:groupmode="layer"
     id="layer1"
     transform="translate(-542.5691,-10.482071)">
    <g
       id="g1616"
       transform="matrix(3.5519673,0,0,3.5519673,-970.02683,-1819.5585)">
      <g
         id="g1598"
         transform="translate(216.39425,-23.568242)">
        <path
           id="path1485-1"
           style="fill:#8fb45b;fill-opacity:1;fill-rule:evenodd;stroke:none;stroke-width:1.0517"
           d="m 406.375,538.78711 a 40.847549,41.211514 0 0 0 -30.6582,14.10937 73.153595,72.404839 0 0 0 -17.97657,-2.22851 73.153595,72.404839 0 0 0 -32.24218,7.5 68.802086,70.074799 0 0 0 -47.24219,-19.14063 68.802086,70.074799 0 0 0 -68.80274,70.07422 68.802086,70.074799 0 0 0 68.80274,70.07422 68.802086,70.074799 0 0 0 27.06641,-5.66211 73.153595,72.404839 0 0 0 52.41796,21.96289 73.153595,72.404839 0 0 0 73.1543,-72.40429 73.153595,72.404839 0 0 0 -0.66211,-9.69922 40.847549,41.211514 0 0 0 16.99024,-33.375 40.847549,41.211514 0 0 0 -40.84766,-41.21094 z" />
        <path
           id="path1485-1-0"
           style="fill:#000000;fill-opacity:0.196078;fill-rule:evenodd;stroke:none;stroke-width:1.0517"
           d="m 445.47851,591.68555 a 65.957489,59.178009 0 0 1 -43.96485,15.07812 65.957489,59.178009 0 0 1 -20.8457,-3.05664 58.345779,65.965454 0 0 1 -53.10351,38.69922 58.345779,65.965454 0 0 1 -36.48046,-14.59961 78.720261,82.349297 0 0 1 -45.7461,15.33398 78.720261,82.349297 0 0 1 -30.23047,-6.32226 68.802086,70.074799 0 0 0 63.14844,42.35742 68.802086,70.074799 0 0 0 27.06641,-5.66211 73.153595,72.404839 0 0 0 52.41796,21.96289 73.153595,72.404839 0 0 0 73.15429,-72.4043 73.153595,72.404839 0 0 0 -0.66211,-9.69921 40.847549,41.211514 0 0 0 15.2461,-21.6875 z" />
        <ellipse
           style="fill:#000000;fill-opacity:0.196078;fill-rule:evenodd;stroke:none"
           id="path1581"
           cx="258.67163"
           cy="583.22437"
           rx="7.5506115"
           ry="7.5581694" />
        <ellipse
           style="fill:#000000;fill-opacity:0.196078;fill-rule:evenodd;stroke:none"
           id="path1583"
           cx="241.36638"
           cy="618.78088"
           rx="4.2879138"
           ry="4.1293392" />
        <circle
           style="fill:#000000;fill-opacity:0.196078;fill-rule:evenodd;stroke:none"
           id="path1585"
           cx="310.02408"
           cy="593.95331"
           r="3.2039266" />
        <circle
           style="fill:#000000;fill-opacity:0.196078;fill-rule:evenodd;stroke:none"
           id="path1587"
           cx="350.56171"
           cy="613.13055"
           r="1.9292872" />
        <circle
           style="fill:#000000;fill-opacity:0.196078;fill-rule:evenodd;stroke:none"
           id="path1589"
           cx="400.15475"
           cy="574.10547"
           r="3.7800908" />
      </g>
      <g
         id="g1416">
        <path
           style="fill:#87602f;fill-opacity:1;stroke:none;stroke-width:1px;stroke-linecap:butt;stroke-linejoin:miter;stroke-opacity:1"
           d="m 524.10086,677.84234 c 6.80973,-3.53645 13.4824,-7.2332 21.28346,-9.6103 4.69857,-6.97175 7.49601,-13.12137 14.75613,-21.66266 1.09089,-0.6952 2.43831,-1.31883 4.10155,-1.85434 l -0.85201,6.80616 c -3.13305,7.02872 -7.56495,13.84992 -11.5977,20.73489 -11.83384,5.70953 -19.70038,13.76191 -27.58756,21.21587 z"
           id="path1343"
           sodipodi:nodetypes="cccccccc" />
        <path
           id="path1331"
           style="fill:#87602f;fill-opacity:1;stroke:none;stroke-width:1px;stroke-linecap:butt;stroke-linejoin:miter;stroke-opacity:1"
           d="m 521.63992,641.23816 -15.56836,8.57422 c -0.72792,39.52191 -1.96909,79.10309 0.59961,118.625 0.74887,20.89166 -1.19121,34.19982 -4.88867,42.54687 h 39.04687 c -3.67097,-18.29093 -6.4984,-1.88411 -12.3125,-55.82812 -1.87404,-35.31005 -0.80392,-71.24264 -0.42968,-107.02735 z" />
        <path
           style="fill:#87602f;fill-opacity:1;stroke:none;stroke-width:1px;stroke-linecap:butt;stroke-linejoin:miter;stroke-opacity:1"
           d="m 508.57775,723.1601 c -4.53555,-3.50741 -9.11646,-6.99668 -15.12061,-9.91692 l 2.98348,-5.16748 c 5.20386,1.44943 9.1352,4.18994 13.36851,6.48667 z"
           id="path1345"
           sodipodi:nodetypes="ccccc" />
        <path
           id="path1343-3"
           style="fill:#000000;fill-opacity:0.196078;stroke:none;stroke-width:1px;stroke-linecap:butt;stroke-linejoin:miter;stroke-opacity:1"
           d="m 521.64062,641.23828 -15.56835,8.57422 c -0.0533,2.893 -0.11088,5.78804 -0.16797,8.68164 l 11.16211,-6.14844 6.44726,6.89063 c -0.37424,35.78471 -1.44435,71.71728 0.42969,107.02734 3.73661,34.66885 6.23731,40.28179 8.52344,44.72071 h 8.36328 c -3.67097,-18.29094 -6.4984,-1.88412 -12.3125,-55.82813 -1.13815,-21.44468 -1.18707,-43.12023 -0.96875,-64.85156 6.84553,-6.50536 14.06664,-13.13844 24.24414,-18.04883 4.03275,-6.88497 8.4646,-13.70566 11.59765,-20.73438 l 0.85352,-6.80664 c -1.66324,0.53551 -3.01067,1.15832 -4.10156,1.85352 -2.67893,3.15167 -4.74589,5.97486 -6.5293,8.63672 1.74011,-0.72946 4.58444,-1.69551 5.79102,-2.08399 l -1.24805,3.5 c -2.97327,6.67025 -3.73737,6.45835 -7.56445,12.99219 -9.65812,4.6598 -16.50949,10.95551 -23.00586,17.12891 0.14528,-12.86663 0.36742,-25.74909 0.50195,-38.61328 z" />
      </g>
      <g
         id="g1483"
         transform="translate(50.905333,-31.38967)">
        <circle
           style="fill:#8fb45b;fill-opacity:1;fill-rule:evenodd;stroke:none"
           id="path1418"
           cx="432.95956"
           cy="737.58392"
           r="14.851564" />
        <path
           id="path1418-2"
           style="fill:#000000;fill-opacity:0.196078;fill-rule:evenodd;stroke:none"
           d="m 442.70175,726.38667 a 14.851564,14.851564 0 0 1 1.49609,6.49218 14.851564,14.851564 0 0 1 -14.85156,14.85157 14.851564,14.851564 0 0 1 -9.79101,-3.77149 14.851564,14.851564 0 0 0 13.40429,8.47656 14.851564,14.851564 0 0 0 14.85156,-14.85156 14.851564,14.851564 0 0 0 -5.10937,-11.19726 z" />
      </g>
    </g>
  </g>
</svg>
