<?xml version="1.0" encoding="UTF-8" standalone="no"?>
<svg
   width="192"
   height="128"
   viewBox="0 0 192 128"
   version="1.1"
   id="SVGRoot"
   sodipodi:docname="tree_sideways.svg"
   inkscape:version="1.1-dev (cef4a25b16, 2020-10-10)"
   xmlns:inkscape="http://www.inkscape.org/namespaces/inkscape"
   xmlns:sodipodi="http://sodipodi.sourceforge.net/DTD/sodipodi-0.dtd"
   xmlns="http://www.w3.org/2000/svg"
   xmlns:svg="http://www.w3.org/2000/svg"
   xmlns:rdf="http://www.w3.org/1999/02/22-rdf-syntax-ns#"
   xmlns:cc="http://creativecommons.org/ns#"
   xmlns:dc="http://purl.org/dc/elements/1.1/">
  <defs
     id="defs860" />
  <sodipodi:namedview
     id="base"
     pagecolor="#ffffff"
     bordercolor="#666666"
     borderopacity="1.0"
     inkscape:pageopacity="0.0"
     inkscape:pageshadow="2"
     inkscape:zoom="5.6"
     inkscape:cx="120.98214"
     inkscape:cy="63.125"
     inkscape:document-units="px"
     inkscape:current-layer="layer1"
     inkscape:document-rotation="0"
     showgrid="true"
     inkscape:window-width="1920"
     inkscape:window-height="2105"
     inkscape:window-x="1920"
     inkscape:window-y="27"
     inkscape:window-maximized="0"
     inkscape:snap-page="false" />
  <metadata
     id="metadata863">
    <rdf:RDF>
      <cc:Work
         rdf:about="">
        <dc:format>image/svg+xml</dc:format>
        <dc:type
           rdf:resource="http://purl.org/dc/dcmitype/StillImage" />
      </cc:Work>
    </rdf:RDF>
  </metadata>
  <g
     inkscape:label="Layer 1"
     inkscape:groupmode="layer"
     id="layer1"
     transform="translate(-102.4498,-121.1143)">
    <g
       id="g1514"
       transform="translate(-103.66438,799.77679)" />
    <g
       id="g964">
      <g
         id="g953">
        <path
           id="path920"
           style="fill:#87602f;stroke:none;stroke-width:0.2;stroke-linecap:butt;stroke-linejoin:miter;stroke-miterlimit:4;stroke-dasharray:none;stroke-opacity:1;fill-opacity:0.9975782"
           d="M 97.09375 65.369141 C 82.885647 68.319262 70.322964 76.305678 52.4375 73.304688 L 52.4375 107.21289 C 66.2691 95.882323 81.198372 84.34885 100.20508 75.308594 L 97.09375 65.369141 z "
           transform="translate(102.4498,121.1143)" />
        <path
           id="path920-3"
           style="fill:#000000;fill-opacity:0.196078;stroke:none;stroke-width:0.2;stroke-linecap:butt;stroke-linejoin:miter;stroke-miterlimit:4;stroke-dasharray:none;stroke-opacity:1"
           d="m 201.36191,192.29203 c -16.6602,7.84617 -33.41053,13.97395 -46.47461,23.10547 v 12.92969 c 13.8316,-11.33057 28.76087,-22.86404 47.76758,-31.9043 z" />
      </g>
      <g
         id="g918"
         transform="translate(0,100)">
        <path
           id="path844"
           style="fill:#8fb45b;fill-opacity:1;fill-rule:evenodd;stroke:none;stroke-width:0.0543318;stroke-opacity:0.816227"
           d="m 245.79941,29.63578 a 22.806396,24.016499 0 0 0 -19.61328,11.80079 32.056839,30.549522 0 0 0 -12.81445,-2.64258 32.056839,30.549522 0 0 0 -32.05665,30.54883 32.056839,30.549522 0 0 0 12.4375,24.08203 32.17342,34.168724 0 0 0 -0.78711,7.10742 32.17342,34.168724 0 0 0 32.17383,34.16797 32.17342,34.168724 0 0 0 29.69141,-21.02735 27.853024,28.511499 0 0 0 7.23437,1.05664 27.853024,28.511499 0 0 0 27.85352,-28.51171 27.853024,28.511499 0 0 0 -21.76953,-27.82032 22.806396,24.016499 0 0 0 0.45703,-4.74609 22.806396,24.016499 0 0 0 -22.80664,-24.01563 z" />
        <ellipse
           style="fill:#768f50;fill-opacity:1;fill-rule:evenodd;stroke:none;stroke-width:0.0197909;stroke-opacity:0.816227"
           id="path887-3"
           cx="247.71082"
           cy="47.039082"
           rx="1.9062798"
           ry="1.9977077" />
        <ellipse
           style="fill:#768f50;fill-opacity:1;fill-rule:evenodd;stroke:none;stroke-width:0.0381413;stroke-opacity:0.816227"
           id="path887-3-6"
           cx="201.38258"
           cy="70.541397"
           rx="3.6738091"
           ry="3.8500104" />
        <ellipse
           style="fill:#768f50;fill-opacity:1;fill-rule:evenodd;stroke:none;stroke-width:0.0299971;stroke-opacity:0.816227"
           id="path887-3-6-7"
           cx="273.16415"
           cy="85.617828"
           rx="2.8893547"
           ry="3.0279324" />
        <path
           id="path844-5"
           style="fill:#000000;fill-opacity:0.196078;fill-rule:evenodd;stroke:none;stroke-width:0.0543318;stroke-opacity:0.816227"
           d="m 250.4882,96.856547 c -10.13352,10.387743 -20.04691,9.918653 -33.82551,9.955013 -8.19261,-0.004 -16.28109,-2.04285 -23.67578,-5.96679 0.16178,18.73969 14.50623,33.84397 32.15234,33.85546 12.98594,-0.003 24.69698,-8.29684 29.69141,-21.02734 2.35566,0.67591 4.78805,1.03118 7.23437,1.05664 11.71249,-0.004 22.17115,-7.50835 26.16993,-18.777343 -3.17908,0.623612 -6.42415,0.952244 -9.68164,0.980469 -8.75298,-0.02552 -20.67187,4.032864 -28.06512,-0.07611 z"
           sodipodi:nodetypes="ccccccccc" />
      </g>
    </g>
  </g>
</svg>
