<?xml version="1.0" encoding="UTF-8" standalone="no"?>
<svg
   width="31.364092mm"
   height="33.243752mm"
   viewBox="0 0 31.364092 33.243752"
   version="1.1"
   id="svg6"
   inkscape:version="1.1-dev (cef4a25b16, 2020-10-10)"
   sodipodi:docname="bluestripe.svg"
   inkscape:export-filename="/home/chiller/Videos/TeeworldsIn2020/img/tees/saddo.png"
   inkscape:export-xdpi="96"
   inkscape:export-ydpi="96"
   xmlns:inkscape="http://www.inkscape.org/namespaces/inkscape"
   xmlns:sodipodi="http://sodipodi.sourceforge.net/DTD/sodipodi-0.dtd"
   xmlns="http://www.w3.org/2000/svg"
   xmlns:svg="http://www.w3.org/2000/svg">
  <defs
     id="defs2" />
  <sodipodi:namedview
     id="base"
     pagecolor="#ffffff"
     bordercolor="#666666"
     borderopacity="1.0"
     inkscape:pageopacity="0.0"
     inkscape:pageshadow="2"
     inkscape:zoom="5.6"
     inkscape:cx="135.625"
     inkscape:cy="23.660714"
     inkscape:document-units="mm"
     inkscape:current-layer="layer1"
     showgrid="false"
     inkscape:window-width="3840"
     inkscape:window-height="2105"
     inkscape:window-x="0"
     inkscape:window-y="27"
     inkscape:window-maximized="1"
     inkscape:object-paths="true"
     inkscape:snap-intersection-paths="true"
     inkscape:snap-smooth-nodes="true"
     inkscape:snap-midpoints="true" />
  <g
     inkscape:label="Layer 1"
     inkscape:groupmode="layer"
     id="layer1"
     transform="translate(-108.145,-198.98624)">
    <g
       id="g977">
      <path
         id="path990-2"
         style="fill:#f2d4e6;fill-opacity:0.984314;fill-rule:evenodd;stroke:#000000;stroke-width:0.981;stroke-miterlimit:4;stroke-dasharray:none;stroke-opacity:1"
         d="m 127.13002,227.54573 c 1.02184,3.31105 -2.84462,3.9268 -8.33625,3.99246 -5.31813,0.0636 -9.95256,0.92137 -8.54773,-5.15991 0.56205,-2.43305 2.11532,-3.58802 7.53042,-3.9049 4.71273,-0.27578 8.5132,2.34933 9.35356,5.07235 z"
         sodipodi:nodetypes="sssss" />
      <path
         id="path990-9-7"
         style="fill:#000000;fill-opacity:0.196078;fill-rule:evenodd;stroke:none;stroke-width:0.981001;stroke-miterlimit:4;stroke-dasharray:none;stroke-opacity:1"
         d="m 126.3931,226.09205 a 13.120307,9.2206984 0 0 1 -10.59055,3.79669 13.120307,9.2206984 0 0 1 -5.76863,-0.95242 c 0.42619,3.24761 4.35702,2.6546 8.76017,2.60192 5.49163,-0.0657 9.35778,-0.68146 8.33593,-3.99251 -0.15229,-0.49342 -0.4024,-0.98335 -0.73692,-1.45368 z" />
      <circle
         style="fill:#6c8cc8;fill-opacity:1;fill-rule:evenodd;stroke:none;stroke-width:1.272;stroke-miterlimit:4;stroke-dasharray:none;stroke-opacity:1"
         id="path851"
         cx="123.8399"
         cy="215.29001"
         r="15.046046" />
      <path
         id="path905"
         style="fill:#ffffff;fill-opacity:1;fill-rule:evenodd;stroke-width:0.446"
         d="m 121.28526,200.45408 a 15.046046,15.046046 0 0 0 -4.0194,1.24798 23.921076,39.873097 0 0 1 1.00253,11.39672 23.921076,39.873097 0 0 1 -1.84124,15.27969 15.046046,15.046046 0 0 0 4.05247,1.57148 23.921074,39.873097 0 0 0 2.13527,-16.45739 23.921074,39.873097 0 0 0 -1.32963,-13.03848 z" />
      <path
         id="path905-7"
         style="fill:#ffffff;fill-opacity:1;fill-rule:evenodd;stroke-width:0.446"
         d="m 126.23734,200.43619 a 15.046046,15.046046 0 0 1 4.01939,1.24799 23.921076,39.873097 0 0 0 -1.00252,11.39672 23.921076,39.873097 0 0 0 1.84123,15.27968 15.046046,15.046046 0 0 1 -4.05247,1.57148 23.921074,39.873097 0 0 1 -2.13527,-16.45739 23.921074,39.873097 0 0 1 1.32964,-13.03848 z" />
      <g
         id="g988"
         transform="translate(-205.45457,-177.97199)">
        <ellipse
           style="opacity:1;fill:#000000;fill-opacity:0.98387;fill-rule:evenodd;stroke:none;stroke-width:1.23742;stroke-miterlimit:4;stroke-dasharray:none;stroke-opacity:1"
           id="path972"
           cx="331.85901"
           cy="390.37579"
           rx="2.6068771"
           ry="4.7432222" />
        <ellipse
           style="opacity:1;fill:#000000;fill-opacity:0.98387;fill-rule:evenodd;stroke:none;stroke-width:1.23742;stroke-miterlimit:4;stroke-dasharray:none;stroke-opacity:1"
           id="path972-2"
           cx="338.04468"
           cy="390.38046"
           rx="2.6068771"
           ry="4.7432222" />
      </g>
      <path
         id="path851-5"
         style="fill:#000000;fill-opacity:0.196078;fill-rule:evenodd;stroke:none;stroke-width:1.272;stroke-miterlimit:4;stroke-dasharray:none;stroke-opacity:1"
         d="m 133.56231,203.83175 a 15.046046,15.046046 0 0 1 1.79681,7.12462 15.046046,15.046046 0 0 1 -15.04611,15.04561 15.046046,15.046046 0 0 1 -9.67745,-3.54759 15.046046,15.046046 0 0 0 13.20434,7.88167 15.046046,15.046046 0 0 0 15.04612,-15.04611 15.046046,15.046046 0 0 0 -5.32371,-11.4582 z" />
      <circle
         style="fill:none;fill-opacity:1;fill-rule:evenodd;stroke:#000000;stroke-width:1.272;stroke-miterlimit:4;stroke-dasharray:none;stroke-opacity:1"
         id="path851-53"
         cx="123.82705"
         cy="214.66829"
         r="15.046046" />
      <g
         id="g950">
        <path
           id="path990"
           style="fill:#f2d4e6;fill-opacity:0.984314;fill-rule:evenodd;stroke:#000000;stroke-width:0.981;stroke-miterlimit:4;stroke-dasharray:none;stroke-opacity:1"
           d="m 138.05895,227.66155 c 1.02184,3.31105 -2.84462,3.9268 -8.33625,3.99246 -5.31813,0.0636 -9.95256,0.92137 -8.54773,-5.15991 0.56205,-2.43305 2.11532,-3.58802 7.53042,-3.9049 4.71273,-0.27578 8.5132,2.34933 9.35356,5.07235 z"
           sodipodi:nodetypes="sssss" />
        <path
           id="path990-9"
           style="fill:#000000;fill-opacity:0.196078;fill-rule:evenodd;stroke:none;stroke-width:0.981001;stroke-miterlimit:4;stroke-dasharray:none;stroke-opacity:1"
           d="m 137.32203,226.20787 a 13.120307,9.2206984 0 0 1 -10.59055,3.79669 13.120307,9.2206984 0 0 1 -5.76863,-0.95242 c 0.42619,3.24761 4.35702,2.6546 8.76017,2.60192 5.49163,-0.0657 9.35778,-0.68146 8.33593,-3.99251 -0.15229,-0.49342 -0.4024,-0.98335 -0.73692,-1.45368 z" />
      </g>
    </g>
  </g>
</svg>
