<?xml version="1.0" encoding="UTF-8" standalone="no"?>
<svg
   width="142.26263"
   height="143.73209"
   viewBox="0 0 37.640324 38.029114"
   version="1.1"
   id="svg6"
   inkscape:version="1.2-dev (2933c477aa, 2021-06-11)"
   sodipodi:docname="brownbear.svg"
   xmlns:inkscape="http://www.inkscape.org/namespaces/inkscape"
   xmlns:sodipodi="http://sodipodi.sourceforge.net/DTD/sodipodi-0.dtd"
   xmlns="http://www.w3.org/2000/svg"
   xmlns:svg="http://www.w3.org/2000/svg">
  <defs
     id="defs2" />
  <sodipodi:namedview
     id="base"
     pagecolor="#ffffff"
     bordercolor="#666666"
     borderopacity="1.0"
     inkscape:pageopacity="0.0"
     inkscape:pageshadow="2"
     inkscape:zoom="11.2"
     inkscape:cx="100.53571"
     inkscape:cy="63.214286"
     inkscape:document-units="mm"
     inkscape:current-layer="layer1"
     showgrid="false"
     inkscape:window-width="3840"
     inkscape:window-height="2100"
     inkscape:window-x="1920"
     inkscape:window-y="32"
     inkscape:window-maximized="1"
     inkscape:snap-midpoints="true"
     inkscape:snap-smooth-nodes="true"
     inkscape:pagecheckerboard="0"
     units="px" />
  <g
     inkscape:label="Layer 1"
     inkscape:groupmode="layer"
     id="layer1"
     transform="translate(-105.49924,-194.20088)">
    <g
       id="g1420">
      <path
         id="path990-2"
         style="fill:#87512c;fill-opacity:0.984314;fill-rule:evenodd;stroke:#000000;stroke-width:0.981;stroke-miterlimit:4;stroke-dasharray:none;stroke-opacity:1"
         d="m 127.13002,227.54573 c 1.02184,3.31105 -2.84462,3.9268 -8.33625,3.99246 -5.31813,0.0636 -9.95256,0.92137 -8.54773,-5.15991 0.56205,-2.43305 2.11532,-3.58802 7.53042,-3.9049 4.71273,-0.27578 8.5132,2.34933 9.35356,5.07235 z"
         sodipodi:nodetypes="sssss" />
      <path
         id="path990-9-7"
         style="fill:#000000;fill-opacity:0.196078;fill-rule:evenodd;stroke:none;stroke-width:0.981001;stroke-miterlimit:4;stroke-dasharray:none;stroke-opacity:1"
         d="m 126.3931,226.09205 a 13.120307,9.2206984 0 0 1 -10.59055,3.79669 13.120307,9.2206984 0 0 1 -5.76863,-0.95242 c 0.42619,3.24761 4.35702,2.6546 8.76017,2.60192 5.49163,-0.0657 9.35778,-0.68146 8.33593,-3.99251 -0.15229,-0.49342 -0.4024,-0.98335 -0.73692,-1.45368 z" />
      <g
         id="g1401">
        <g
           id="g1391">
          <g
             id="g1359">
            <path
               style="fill:#000000;stroke:#000000;stroke-width:0.264583px;stroke-linecap:butt;stroke-linejoin:miter;stroke-opacity:1"
               d="m 118.18402,195.13985 2.38819,8.0179 7.02998,0.081 0.5065,-8.69937 -3.75249,3.74008 z"
               id="path1354" />
            <path
               id="path851"
               style="fill:#ce8c64;fill-opacity:1;fill-rule:evenodd;stroke:#000000;stroke-width:4.80756;stroke-miterlimit:4;stroke-dasharray:none;stroke-opacity:1"
               d="M 17.115234,-0.33984375 A 24.759549,24.759549 0 0 0 -7.6445312,24.419922 24.759549,24.759549 0 0 0 4.1640625,45.460938 56.866946,56.866946 0 0 0 2.4042969,59.271484 56.866946,56.866946 0 0 0 59.271484,116.13672 56.866946,56.866946 0 0 0 116.13672,59.271484 56.866946,56.866946 0 0 0 114.97852,47.869141 24.759549,24.759549 0 0 0 129.81055,25.191406 24.759549,24.759549 0 0 0 105.05078,0.43164062 24.759549,24.759549 0 0 0 86.175781,9.1835938 56.866946,56.866946 0 0 0 59.271484,2.4042969 56.866946,56.866946 0 0 0 35.376953,7.7128906 24.759549,24.759549 0 0 0 17.115234,-0.33984375 Z"
               transform="matrix(0.26458333,0,0,0.26458333,108.15786,199.60797)" />
          </g>
          <g
             id="g1383"
             transform="translate(-25.728482,0.37050025)">
            <ellipse
               style="fill:#d9b7a0;fill-opacity:1;fill-rule:evenodd;stroke:none;stroke-width:1.58991;stroke-miterlimit:4;stroke-dasharray:none;stroke-opacity:1"
               id="path1361"
               cx="146.18091"
               cy="-221.85115"
               rx="3.6626997"
               ry="3.8077772"
               transform="scale(1,-1)" />
            <ellipse
               style="fill:#d9b7a0;fill-opacity:1;fill-rule:evenodd;stroke:none;stroke-width:1.58991;stroke-miterlimit:4;stroke-dasharray:none;stroke-opacity:1"
               id="path1361-8"
               cx="152.12158"
               cy="-221.91377"
               rx="3.6626999"
               ry="3.8077772"
               transform="scale(1,-1)" />
          </g>
        </g>
        <path
           id="path851-5"
           style="fill:#000000;fill-opacity:0.196078;fill-rule:evenodd;stroke:none;stroke-width:4.80756;stroke-miterlimit:4;stroke-dasharray:none;stroke-opacity:1"
           d="m 104.95508,9.59375 a 15.3995,15.3995 0 0 0 -10.968752,4.726562 56.866946,56.866946 0 0 1 2.121094,1.833985 56.866946,56.866946 0 0 1 6.701168,26.736328 A 56.866946,56.866946 0 0 1 45.941406,99.757812 56.866946,56.866946 0 0 1 9.3652344,86.349609 56.866946,56.866946 0 0 0 59.271484,116.13672 56.866946,56.866946 0 0 0 116.13867,59.269531 a 56.866946,56.866946 0 0 0 -4.21484,-21.167969 56.866946,56.866946 0 0 1 0.20703,0.455079 15.3995,15.3995 0 0 0 8.22461,-13.5625 A 15.3995,15.3995 0 0 0 104.95508,9.59375 Z m -7.546877,7.685547 A 56.866946,56.866946 0 0 1 99.375,19.134766 56.866946,56.866946 0 0 0 97.408203,17.279297 Z m 4.503907,4.576172 a 56.866946,56.866946 0 0 1 1.44141,1.691406 56.866946,56.866946 0 0 0 -1.44141,-1.691406 z m 3.95117,5.042969 a 56.866946,56.866946 0 0 1 0.97656,1.435546 56.866946,56.866946 0 0 0 -0.97656,-1.435546 z m 3.36524,5.46875 a 56.866946,56.866946 0 0 1 0.58203,1.09375 56.866946,56.866946 0 0 0 -0.58203,-1.09375 z"
           transform="matrix(0.26458333,0,0,0.26458333,108.15786,199.60797)" />
      </g>
      <g
         id="g988"
         transform="translate(-205.45457,-177.97199)">
        <ellipse
           style="opacity:1;fill:#000000;fill-opacity:0.98387;fill-rule:evenodd;stroke:none;stroke-width:1.23742;stroke-miterlimit:4;stroke-dasharray:none;stroke-opacity:1"
           id="path972"
           cx="331.85901"
           cy="390.37579"
           rx="2.6068771"
           ry="4.7432222" />
        <ellipse
           style="opacity:1;fill:#000000;fill-opacity:0.98387;fill-rule:evenodd;stroke:none;stroke-width:1.23742;stroke-miterlimit:4;stroke-dasharray:none;stroke-opacity:1"
           id="path972-2"
           cx="338.04468"
           cy="390.38046"
           rx="2.6068771"
           ry="4.7432222" />
      </g>
      <path
         id="path990"
         style="fill:#87512c;fill-opacity:0.984314;fill-rule:evenodd;stroke:#000000;stroke-width:0.981;stroke-miterlimit:4;stroke-dasharray:none;stroke-opacity:1"
         d="m 138.05895,227.66155 c 1.02184,3.31105 -2.84462,3.9268 -8.33625,3.99246 -5.31813,0.0636 -9.95256,0.92137 -8.54773,-5.15991 0.56205,-2.43305 2.11532,-3.58802 7.53042,-3.9049 4.71273,-0.27578 8.5132,2.34933 9.35356,5.07235 z"
         sodipodi:nodetypes="sssss" />
      <path
         id="path990-9"
         style="fill:#000000;fill-opacity:0.196078;fill-rule:evenodd;stroke:none;stroke-width:0.981001;stroke-miterlimit:4;stroke-dasharray:none;stroke-opacity:1"
         d="m 137.32203,226.20787 a 13.120307,9.2206984 0 0 1 -10.59055,3.79669 13.120307,9.2206984 0 0 1 -5.76863,-0.95242 c 0.42619,3.24761 4.35702,2.6546 8.76017,2.60192 5.49163,-0.0657 9.35778,-0.68146 8.33593,-3.99251 -0.15229,-0.49342 -0.4024,-0.98335 -0.73692,-1.45368 z" />
      <path
         id="path851-3-0"
         style="fill:#000000;fill-opacity:0.196078;fill-rule:evenodd;stroke:none;stroke-width:2.99012;stroke-miterlimit:4;stroke-dasharray:none;stroke-opacity:1"
         d="M 17.103516,8.8046875 A 15.3995,15.3995 0 0 0 1.703125,24.205078 15.3995,15.3995 0 0 0 7.3964844,36.138672 56.866946,56.866946 0 0 1 27.052734,12.513672 15.3995,15.3995 0 0 0 17.103516,8.8046875 Z"
         transform="matrix(0.26458333,0,0,0.26458333,108.15786,199.60797)" />
    </g>
  </g>
</svg>
