<?xml version="1.0" encoding="UTF-8" standalone="no"?>
<svg
   width="45.629444mm"
   height="39.170265mm"
   viewBox="0 0 45.629444 39.170266"
   version="1.1"
   id="svg6"
   inkscape:version="1.1-dev (cef4a25b16, 2020-10-10)"
   sodipodi:docname="greensward.svg"
   inkscape:export-filename="/home/chiller/Videos/TeeworldsIn2020/img/tees/saddo.png"
   inkscape:export-xdpi="96"
   inkscape:export-ydpi="96"
   xmlns:inkscape="http://www.inkscape.org/namespaces/inkscape"
   xmlns:sodipodi="http://sodipodi.sourceforge.net/DTD/sodipodi-0.dtd"
   xmlns="http://www.w3.org/2000/svg"
   xmlns:svg="http://www.w3.org/2000/svg">
  <defs
     id="defs2" />
  <sodipodi:namedview
     id="base"
     pagecolor="#ffffff"
     bordercolor="#666666"
     borderopacity="1.0"
     inkscape:pageopacity="0.0"
     inkscape:pageshadow="2"
     inkscape:zoom="3.959798"
     inkscape:cx="136.7494"
     inkscape:cy="98.616143"
     inkscape:document-units="mm"
     inkscape:current-layer="layer1"
     showgrid="false"
     inkscape:window-width="3840"
     inkscape:window-height="2105"
     inkscape:window-x="0"
     inkscape:window-y="27"
     inkscape:window-maximized="1" />
  <g
     inkscape:label="Layer 1"
     inkscape:groupmode="layer"
     id="layer1"
     transform="translate(-101.24026,-193.05973)">
    <g
       id="g963">
      <path
         id="path990-2"
         style="fill:#f2d4e6;fill-opacity:0.984314;fill-rule:evenodd;stroke:#000000;stroke-width:0.981;stroke-miterlimit:4;stroke-dasharray:none;stroke-opacity:1"
         d="m 127.13002,227.54573 c 1.02184,3.31105 -2.84462,3.9268 -8.33625,3.99246 -5.31813,0.0636 -9.95256,0.92137 -8.54773,-5.15991 0.56205,-2.43305 2.11532,-3.58802 7.53042,-3.9049 4.71273,-0.27578 8.5132,2.34933 9.35356,5.07235 z"
         sodipodi:nodetypes="sssss" />
      <path
         id="path990-9-7"
         style="fill:#000000;fill-opacity:0.196078;fill-rule:evenodd;stroke:none;stroke-width:0.981001;stroke-miterlimit:4;stroke-dasharray:none;stroke-opacity:1"
         d="m 126.3931,226.09205 a 13.120307,9.2206984 0 0 1 -10.59055,3.79669 13.120307,9.2206984 0 0 1 -5.76863,-0.95242 c 0.42619,3.24761 4.35702,2.6546 8.76017,2.60192 5.49163,-0.0657 9.35778,-0.68146 8.33593,-3.99251 -0.15229,-0.49342 -0.4024,-0.98335 -0.73692,-1.45368 z" />
      <g
         id="g947">
        <g
           id="g939">
          <path
             id="path851"
             style="fill:#007a00;fill-opacity:1;fill-rule:evenodd;stroke:#000000;stroke-width:4.80756;stroke-miterlimit:4;stroke-dasharray:none;stroke-opacity:1"
             d="M 70.425781,-18.853516 47.755859,0 42.785156,-10.341797 40.431641,1.8613281 30.341797,-14.306641 16.607422,14.212891 4.5039062,5.2128906 c 0,0 1.7246094,14.6126314 1.7246094,16.0390624 0,1.426469 -19.7572506,-4.447124 -20.4511716,-4.699219 C -14.91654,16.300904 1.8125,43.542969 1.8125,43.542969 l -11.2226562,4.546875 7.2460937,4.330078 -18.9296875,10.40039 c 0,0 16.096378,8.574219 17.4003906,8.574219 1.3040126,0 -6.2207031,8.669922 -6.2207031,8.669922 l 12.1875,-0.257812 -8.6855469,20.570309 16.2128906,-9.406247 2.3730468,0.04102 A 56.866946,56.866946 0 0 0 59.271484,116.13672 56.866946,56.866946 0 0 0 104.88281,93.101562 l 2.07031,0.05273 7.16797,6.169922 -0.13867,-14.765625 11.30274,4.15625 -4.98828,-22.921875 10.11132,0.238281 -9.44531,-12.980469 19.58594,-3.923828 -28.24414,-21.044922 6.94726,-2.738281 -10.83203,-4.298828 11.58789,-4.666016 L 97.730469,9.6582031 106.52148,-3.6347656 67.441406,0.73242188 Z"
             transform="matrix(0.26458333,0,0,0.26458333,108.15786,199.60797)" />
          <g
             id="g933"
             transform="translate(40.432297,0.78415402)">
            <path
               id="path902"
               style="fill:#009800;fill-opacity:1;fill-rule:evenodd;stroke:none;stroke-width:0.364382"
               d="m 84.657411,214.50869 a 12.57365,15.056123 0 0 0 -9.467639,5.18159 26.336287,15.056124 0 0 1 10.041247,-1.15238 26.336287,15.056124 0 0 1 8.692493,0.85111 12.57365,15.056123 0 0 0 -9.266101,-4.88032 z" />
            <path
               id="path902-7"
               style="fill:#009800;fill-opacity:1;fill-rule:evenodd;stroke:none;stroke-width:0.291032"
               d="m 84.800338,212.98222 c -2.411464,-0.0317 -4.400933,-0.1763 -5.870597,-3.05127 2.030466,0.75607 4.206793,1.14759 6.40555,1.15238 1.888624,-0.002 3.116893,-0.53298 4.898755,-1.09398 -1.478731,2.87773 -3.089097,3.02373 -5.433708,2.99287 z"
               sodipodi:nodetypes="scccs" />
          </g>
        </g>
        <path
           id="path851-3"
           style="fill:#000000;fill-opacity:0.196078;fill-rule:evenodd;stroke:none;stroke-width:1.272;stroke-miterlimit:4;stroke-dasharray:none;stroke-opacity:1"
           d="m 136.34171,198.64629 -0.34675,0.0387 a 19.902843,19.411276 0 0 1 0.13591,0.28009 z m 1.23713,4.59196 a 19.902843,19.411276 0 0 1 0.25631,1.53893 l 2.07481,-0.83561 z m 0.34261,2.36575 a 19.902843,19.411276 0 0 1 0.0631,1.38958 l 1.72548,-0.68006 z m 0.0651,1.5198 a 19.902843,19.411276 0 0 1 5.1e-4,0.0222 19.902843,19.411276 0 0 1 -19.90317,19.41121 19.902843,19.411276 0 0 1 -4.81366,-0.60048 15.046046,15.046046 0 0 0 10.56989,4.37906 15.046046,15.046046 0 0 0 12.068,-6.09471 l 0.54777,0.014 1.89653,1.63246 -0.0367,-3.90674 2.99051,1.09967 -1.31982,-6.06474 2.67529,0.063 -2.49907,-3.43441 5.18211,-1.03818 z m -30.43794,16.46722 -1.08727,2.57503 2.8174,-1.63452 a 19.902843,19.411276 0 0 1 -1.73013,-0.94051 z" />
      </g>
      <g
         id="g988"
         transform="translate(-205.45457,-177.97199)">
        <ellipse
           style="opacity:1;fill:#000000;fill-opacity:0.98387;fill-rule:evenodd;stroke:none;stroke-width:1.23742;stroke-miterlimit:4;stroke-dasharray:none;stroke-opacity:1"
           id="path972"
           cx="331.85901"
           cy="390.37579"
           rx="2.6068771"
           ry="4.7432222" />
        <ellipse
           style="opacity:1;fill:#000000;fill-opacity:0.98387;fill-rule:evenodd;stroke:none;stroke-width:1.23742;stroke-miterlimit:4;stroke-dasharray:none;stroke-opacity:1"
           id="path972-2"
           cx="338.04468"
           cy="390.38046"
           rx="2.6068771"
           ry="4.7432222" />
      </g>
      <path
         id="path990"
         style="fill:#f2d4e6;fill-opacity:0.984314;fill-rule:evenodd;stroke:#000000;stroke-width:0.981;stroke-miterlimit:4;stroke-dasharray:none;stroke-opacity:1"
         d="m 138.05895,227.66155 c 1.02184,3.31105 -2.84462,3.9268 -8.33625,3.99246 -5.31813,0.0636 -9.95256,0.92137 -8.54773,-5.15991 0.56205,-2.43305 2.11532,-3.58802 7.53042,-3.9049 4.71273,-0.27578 8.5132,2.34933 9.35356,5.07235 z"
         sodipodi:nodetypes="sssss" />
      <path
         id="path990-9"
         style="fill:#000000;fill-opacity:0.196078;fill-rule:evenodd;stroke:none;stroke-width:0.981001;stroke-miterlimit:4;stroke-dasharray:none;stroke-opacity:1"
         d="m 137.32203,226.20787 a 13.120307,9.2206984 0 0 1 -10.59055,3.79669 13.120307,9.2206984 0 0 1 -5.76863,-0.95242 c 0.42619,3.24761 4.35702,2.6546 8.76017,2.60192 5.49163,-0.0657 9.35778,-0.68146 8.33593,-3.99251 -0.15229,-0.49342 -0.4024,-0.98335 -0.73692,-1.45368 z" />
    </g>
  </g>
</svg>
