<?xml version="1.0" encoding="UTF-8" standalone="no"?>
<svg
   width="45.629444mm"
   height="39.170265mm"
   viewBox="0 0 45.629444 39.170266"
   version="1.1"
   id="svg6"
   inkscape:version="1.1-dev (cef4a25b16, 2020-10-10)"
   sodipodi:docname="greensward_red.svg"
   inkscape:export-filename="/home/chiller/Videos/TeeworldsIn2020/img/tees/saddo.png"
   inkscape:export-xdpi="96"
   inkscape:export-ydpi="96"
   xmlns:inkscape="http://www.inkscape.org/namespaces/inkscape"
   xmlns:sodipodi="http://sodipodi.sourceforge.net/DTD/sodipodi-0.dtd"
   xmlns="http://www.w3.org/2000/svg"
   xmlns:svg="http://www.w3.org/2000/svg">
  <defs
     id="defs2" />
  <sodipodi:namedview
     id="base"
     pagecolor="#ffffff"
     bordercolor="#666666"
     borderopacity="1.0"
     inkscape:pageopacity="0.0"
     inkscape:pageshadow="2"
     inkscape:zoom="5.6"
     inkscape:cx="155.80357"
     inkscape:cy="115.44643"
     inkscape:document-units="mm"
     inkscape:current-layer="layer1"
     showgrid="false"
     inkscape:window-width="3840"
     inkscape:window-height="2105"
     inkscape:window-x="0"
     inkscape:window-y="27"
     inkscape:window-maximized="1" />
  <g
     inkscape:label="Layer 1"
     inkscape:groupmode="layer"
     id="layer1"
     transform="translate(-101.24026,-193.05973)">
    <path
       id="path990-2"
       style="fill:#f2d4e6;fill-opacity:0.984314;fill-rule:evenodd;stroke:#000000;stroke-width:0.981;stroke-miterlimit:4;stroke-dasharray:none;stroke-opacity:1"
       d="m 127.13002,227.54573 c 1.02184,3.31105 -2.84462,3.9268 -8.33625,3.99246 -5.31813,0.0636 -9.95256,0.92137 -8.54773,-5.15991 0.56205,-2.43305 2.11532,-3.58802 7.53042,-3.9049 4.71273,-0.27578 8.5132,2.34933 9.35356,5.07235 z"
       sodipodi:nodetypes="sssss" />
    <path
       id="path990-9-7"
       style="fill:#000000;fill-opacity:0.196078;fill-rule:evenodd;stroke:none;stroke-width:0.981001;stroke-miterlimit:4;stroke-dasharray:none;stroke-opacity:1"
       d="m 126.3931,226.09205 a 13.120307,9.2206984 0 0 1 -10.59055,3.79669 13.120307,9.2206984 0 0 1 -5.76863,-0.95242 c 0.42619,3.24761 4.35702,2.6546 8.76017,2.60192 5.49163,-0.0657 9.35778,-0.68146 8.33593,-3.99251 -0.15229,-0.49342 -0.4024,-0.98335 -0.73692,-1.45368 z" />
    <g
       id="g1045">
      <path
         id="path851"
         style="fill:#943f36;fill-opacity:1;fill-rule:evenodd;stroke:#000000;stroke-width:1.272;stroke-miterlimit:4;stroke-dasharray:none;stroke-opacity:1"
         d="m 126.79135,194.61964 -5.99809,4.98833 -1.31516,-2.73627 -0.6227,3.22875 -2.66961,-4.27778 -3.63388,7.54579 -3.20239,-2.38125 c 0,0 0.4563,3.86626 0.4563,4.24367 0,0.37742 -5.22744,-1.17663 -5.41104,-1.24333 -0.18359,-0.0666 4.24264,7.14116 4.24264,7.14116 l -2.96933,1.20303 1.9172,1.14567 -5.00848,2.75177 c 0,0 4.25883,2.26859 4.60385,2.26859 0.34502,0 -1.6459,2.29392 -1.6459,2.29392 l 3.22461,-0.0682 -2.29805,5.44256 4.28966,-2.48874 0.62787,0.0109 a 15.046046,15.046046 0 0 0 12.46126,6.64766 15.046046,15.046046 0 0 0 12.06799,-6.09472 l 0.54777,0.0139 1.89653,1.63246 -0.0367,-3.90674 2.99051,1.09968 -1.31981,-6.06475 2.67529,0.0631 -2.49908,-3.43442 5.18212,-1.03818 -7.47293,-5.56813 1.83813,-0.72451 -2.86598,-1.1374 3.06597,-1.23455 -5.89422,-1.77818 2.32596,-3.5171 -10.33994,1.15549 z" />
      <g
         id="g1037">
        <g
           id="g1031">
          <path
             id="path902"
             style="fill:#a3463b;fill-opacity:1;fill-rule:evenodd;stroke:none;stroke-width:0.364382"
             d="m 125.08971,215.29284 a 12.57365,15.056123 0 0 0 -9.46764,5.18159 26.336287,15.056124 0 0 1 10.04125,-1.15238 26.336287,15.056124 0 0 1 8.69249,0.85111 12.57365,15.056123 0 0 0 -9.2661,-4.88032 z" />
          <path
             id="path902-7"
             style="fill:#a4463c;fill-opacity:1;fill-rule:evenodd;stroke:none;stroke-width:0.291032"
             d="m 125.23263,213.76637 c -2.41146,-0.0317 -4.40093,-0.1763 -5.87059,-3.05127 2.03046,0.75607 4.20679,1.14759 6.40555,1.15238 1.88862,-0.002 3.11689,-0.53298 4.89875,-1.09398 -1.47873,2.87773 -3.08909,3.02373 -5.43371,2.99287 z"
             sodipodi:nodetypes="scccs" />
        </g>
        <path
           id="path851-3"
           style="fill:#000000;fill-opacity:0.196078;fill-rule:evenodd;stroke:none;stroke-width:1.272;stroke-miterlimit:4;stroke-dasharray:none;stroke-opacity:1"
           d="m 136.34171,198.64629 -0.34675,0.0387 a 19.902843,19.411276 0 0 1 0.13591,0.28009 z m 1.23713,4.59196 a 19.902843,19.411276 0 0 1 0.25631,1.53893 l 2.07481,-0.83561 z m 0.34261,2.36575 a 19.902843,19.411276 0 0 1 0.0631,1.38958 l 1.72548,-0.68006 z m 0.0651,1.5198 a 19.902843,19.411276 0 0 1 5.1e-4,0.0222 19.902843,19.411276 0 0 1 -19.90317,19.41121 19.902843,19.411276 0 0 1 -4.81366,-0.60048 15.046046,15.046046 0 0 0 10.56989,4.37906 15.046046,15.046046 0 0 0 12.068,-6.09471 l 0.54777,0.014 1.89653,1.63246 -0.0367,-3.90674 2.99051,1.09967 -1.31982,-6.06474 2.67529,0.063 -2.49907,-3.43441 5.18211,-1.03818 z m -30.43794,16.46722 -1.08727,2.57503 2.8174,-1.63452 a 19.902843,19.411276 0 0 1 -1.73013,-0.94051 z" />
      </g>
    </g>
    <g
       id="g988"
       transform="translate(-205.45457,-177.97199)">
      <ellipse
         style="opacity:1;fill:#000000;fill-opacity:0.98387;fill-rule:evenodd;stroke:none;stroke-width:1.23742;stroke-miterlimit:4;stroke-dasharray:none;stroke-opacity:1"
         id="path972"
         cx="331.85901"
         cy="390.37579"
         rx="2.6068771"
         ry="4.7432222" />
      <ellipse
         style="opacity:1;fill:#000000;fill-opacity:0.98387;fill-rule:evenodd;stroke:none;stroke-width:1.23742;stroke-miterlimit:4;stroke-dasharray:none;stroke-opacity:1"
         id="path972-2"
         cx="338.04468"
         cy="390.38046"
         rx="2.6068771"
         ry="4.7432222" />
    </g>
    <path
       id="path990"
       style="fill:#f2d4e6;fill-opacity:0.984314;fill-rule:evenodd;stroke:#000000;stroke-width:0.981;stroke-miterlimit:4;stroke-dasharray:none;stroke-opacity:1"
       d="m 138.05895,227.66155 c 1.02184,3.31105 -2.84462,3.9268 -8.33625,3.99246 -5.31813,0.0636 -9.95256,0.92137 -8.54773,-5.15991 0.56205,-2.43305 2.11532,-3.58802 7.53042,-3.9049 4.71273,-0.27578 8.5132,2.34933 9.35356,5.07235 z"
       sodipodi:nodetypes="sssss" />
    <path
       id="path990-9"
       style="fill:#000000;fill-opacity:0.196078;fill-rule:evenodd;stroke:none;stroke-width:0.981001;stroke-miterlimit:4;stroke-dasharray:none;stroke-opacity:1"
       d="m 137.32203,226.20787 a 13.120307,9.2206984 0 0 1 -10.59055,3.79669 13.120307,9.2206984 0 0 1 -5.76863,-0.95242 c 0.42619,3.24761 4.35702,2.6546 8.76017,2.60192 5.49163,-0.0657 9.35778,-0.68146 8.33593,-3.99251 -0.15229,-0.49342 -0.4024,-0.98335 -0.73692,-1.45368 z" />
  </g>
</svg>
