<?xml version="1.0" encoding="UTF-8" standalone="no"?>
<svg
   xmlns:dc="http://purl.org/dc/elements/1.1/"
   xmlns:cc="http://creativecommons.org/ns#"
   xmlns:rdf="http://www.w3.org/1999/02/22-rdf-syntax-ns#"
   xmlns:svg="http://www.w3.org/2000/svg"
   xmlns="http://www.w3.org/2000/svg"
   xmlns:xlink="http://www.w3.org/1999/xlink"
   xmlns:sodipodi="http://sodipodi.sourceforge.net/DTD/sodipodi-0.dtd"
   xmlns:inkscape="http://www.inkscape.org/namespaces/inkscape"
   width="256"
   height="256"
   viewBox="0 0 67.733332 67.733335"
   version="1.1"
   id="svg8"
   inkscape:version="1.0.1 (3bc2e813f5, 2020-09-07)"
   sodipodi:docname="teeworldsdb.svg"
   inkscape:export-filename="C:\Users\Maxime\Desktop\teeworldsdb.png"
   inkscape:export-xdpi="96"
   inkscape:export-ydpi="96">
  <defs
     id="defs2">
    <linearGradient
       inkscape:collect="always"
       id="linearGradient986">
      <stop
         style="stop-color:#ffd04b;stop-opacity:1"
         offset="0"
         id="stop982" />
      <stop
         style="stop-color:#ffa710;stop-opacity:1"
         offset="1"
         id="stop984" />
    </linearGradient>
    <linearGradient
       inkscape:collect="always"
       xlink:href="#linearGradient986"
       id="linearGradient988"
       x1="104.80985"
       y1="1.6746011"
       x2="104.80985"
       y2="17.31472"
       gradientUnits="userSpaceOnUse"
       gradientTransform="translate(56.56792,-44.623121)" />
    <linearGradient
       inkscape:collect="always"
       xlink:href="#linearGradient986"
       id="linearGradient996"
       x1="81.913902"
       y1="1.5037521"
       x2="81.913902"
       y2="17.05616"
       gradientUnits="userSpaceOnUse" />
    <linearGradient
       inkscape:collect="always"
       xlink:href="#linearGradient986"
       id="linearGradient1011"
       gradientUnits="userSpaceOnUse"
       x1="81.913902"
       y1="1.5037521"
       x2="81.913902"
       y2="17.05616"
       gradientTransform="scale(0.99950413,1.0004961)" />
    <linearGradient
       inkscape:collect="always"
       xlink:href="#linearGradient986"
       id="linearGradient1016"
       gradientUnits="userSpaceOnUse"
       x1="104.80985"
       y1="1.6746011"
       x2="104.80985"
       y2="17.31472"
       gradientTransform="translate(56.56792,-44.623121)" />
    <filter
       inkscape:collect="always"
       style="color-interpolation-filters:sRGB"
       id="filter1492"
       x="-0.042783448"
       width="1.0855669"
       y="-0.037223569"
       height="1.0744471">
      <feGaussianBlur
         inkscape:collect="always"
         stdDeviation="0.26413098"
         id="feGaussianBlur1494" />
    </filter>
    <filter
       inkscape:collect="always"
       style="color-interpolation-filters:sRGB"
       id="filter1496"
       x="-0.027386011"
       width="1.054772"
       y="-0.038183921"
       height="1.0763678">
      <feGaussianBlur
         inkscape:collect="always"
         stdDeviation="0.26413098"
         id="feGaussianBlur1498" />
    </filter>
  </defs>
  <sodipodi:namedview
     id="base"
     pagecolor="#ffffff"
     bordercolor="#666666"
     borderopacity="1.0"
     inkscape:pageopacity="0.0"
     inkscape:pageshadow="2"
     inkscape:zoom="1.979899"
     inkscape:cx="158.05172"
     inkscape:cy="98.587918"
     inkscape:document-units="px"
     inkscape:current-layer="layer1"
     inkscape:document-rotation="0"
     showgrid="true"
     units="px"
     inkscape:window-width="1920"
     inkscape:window-height="1017"
     inkscape:window-x="-8"
     inkscape:window-y="-8"
     inkscape:window-maximized="1">
    <inkscape:grid
       type="xygrid"
       id="grid865"
       spacingx="1.0583333"
       spacingy="1.0583333"
       enabled="false" />
  </sodipodi:namedview>
  <metadata
     id="metadata5">
    <rdf:RDF>
      <cc:Work
         rdf:about="">
        <dc:format>image/svg+xml</dc:format>
        <dc:type
           rdf:resource="http://purl.org/dc/dcmitype/StillImage" />
        <dc:title></dc:title>
      </cc:Work>
    </rdf:RDF>
  </metadata>
  <g
     inkscape:label="Layer 1"
     inkscape:groupmode="layer"
     id="layer1">
    <path
       id="path1088"
       style="fill:#878a87;fill-opacity:1;stroke:#2e2e2e;stroke-width:3.175;stroke-miterlimit:4;stroke-dasharray:none;stroke-opacity:1"
       d="M 30.787062,4.3026914 A 25.4,3.175 0 0 0 5.5172875,7.4776913 v 8.4666667 a 25.4,3.175 0 0 0 6.4693725,2.116667 25.4,3.175 0 0 0 -6.4693725,2.116666 v 8.466667 a 25.4,3.175 0 0 0 6.4693725,2.116666 25.4,3.175 0 0 0 -6.4693725,2.116667 v 8.466667 a 25.4,3.175 0 0 0 6.4693725,2.116666 25.4,3.175 0 0 0 -6.4693725,2.116667 v 8.466666 a 25.4,3.175 0 0 0 25.3999995,3.175 25.4,3.175 0 0 0 3.168282,-0.02479 31.749997,47.624999 0 0 1 -0.0021,0.0016 25.399999,3.175 0 0 0 22.35269,-3.151796 v -8.466666 a 25.399999,3.175 0 0 0 -6.468856,-2.116667 25.399999,3.175 0 0 0 6.468856,-2.116666 v -8.466667 a 25.399999,3.175 0 0 0 -6.468856,-2.116667 25.399999,3.175 0 0 0 6.468856,-2.116666 v -8.466667 a 25.399999,3.175 0 0 0 -6.468856,-2.116666 25.399999,3.175 0 0 0 6.468856,-2.116667 V 7.4776913 A 25.399999,3.175 0 0 0 49.157,5.253021 31.749997,47.624999 0 0 1 49.1591,5.268007 25.4,3.175 0 0 0 30.91727,4.3026914 a 25.4,3.175 0 0 0 -0.130225,0 z M 49.935764,18.048622 a 31.749997,47.624999 0 0 1 -5.29e-4,0.0248 25.4,3.175 0 0 0 -0.0868,-0.0124 25.4,3.175 0 0 0 0.08733,-0.0124 z" />
    <path
       id="path955"
       style="fill:#878a87;fill-opacity:1;stroke:none;stroke-width:0.517049"
       d="m 5.5172875,45.57769 v 8.466667 a 25.4,3.175 0 0 0 25.3999995,3.175 25.4,3.175 0 0 0 25.4,-3.175 V 45.57769 Z" />
    <ellipse
       style="fill:#a8b0b3;fill-opacity:1;stroke:none;stroke-width:0.517049"
       id="ellipse957"
       cx="30.917286"
       cy="45.57769"
       rx="25.4"
       ry="3.175" />
    <ellipse
       style="fill:#d6d6d6;fill-opacity:1;stroke:none;stroke-width:0.404889"
       id="ellipse959"
       cx="30.917286"
       cy="45.55407"
       rx="23.415625"
       ry="2.1119418" />
    <path
       id="path923"
       style="fill:#878a87;fill-opacity:1;stroke:none;stroke-width:0.517049"
       d="m 5.5172875,32.87769 v 8.466667 a 25.4,3.175 0 0 0 25.3999995,3.175 25.4,3.175 0 0 0 25.4,-3.175 V 32.87769 Z" />
    <ellipse
       style="fill:#a8b0b3;fill-opacity:1;stroke:none;stroke-width:0.517049"
       id="ellipse925"
       cx="30.917286"
       cy="32.877689"
       rx="25.4"
       ry="3.175" />
    <ellipse
       style="fill:#d6d6d6;fill-opacity:1;stroke:none;stroke-width:0.404889"
       id="ellipse927"
       cx="30.917286"
       cy="32.854069"
       rx="23.415625"
       ry="2.1119418" />
    <path
       id="path915"
       style="fill:#878a87;fill-opacity:1;stroke:none;stroke-width:0.517049"
       d="m 5.5172875,20.17769 v 8.466667 a 25.4,3.175 0 0 0 25.3999995,3.175 25.4,3.175 0 0 0 25.4,-3.175 V 20.17769 Z" />
    <ellipse
       style="fill:#a8b0b3;fill-opacity:1;stroke:none;stroke-width:0.517049"
       id="ellipse917"
       cx="30.917286"
       cy="20.177691"
       rx="25.4"
       ry="3.175" />
    <ellipse
       style="fill:#d6d6d6;fill-opacity:1;stroke:none;stroke-width:0.404889"
       id="ellipse919"
       cx="30.917286"
       cy="20.154068"
       rx="23.415625"
       ry="2.1119418" />
    <path
       id="path861-3"
       style="fill:#878a87;fill-opacity:1;stroke:none;stroke-width:0.517049"
       d="m 5.5172875,7.4776913 v 8.4666667 a 25.4,3.175 0 0 0 25.3999995,3.175 25.4,3.175 0 0 0 25.4,-3.175 V 7.4776913 Z" />
    <ellipse
       style="fill:#a8b0b3;fill-opacity:1;stroke:none;stroke-width:0.517049"
       id="path861"
       cx="30.917286"
       cy="7.4776912"
       rx="25.4"
       ry="3.175" />
    <ellipse
       style="fill:#d6d6d6;fill-opacity:1;stroke:none;stroke-width:0.404889"
       id="ellipse903"
       cx="30.917286"
       cy="7.4540677"
       rx="23.415625"
       ry="2.1119418" />
    <path
       id="path963"
       style="fill:#000000;fill-opacity:0.151515;stroke:none;stroke-width:0.517049"
       d="m 49.157,5.253021 a 31.749997,47.624999 0 0 1 0.130742,0.8909015 23.415624,2.1119417 0 0 1 5.04517,1.3099976 23.415624,2.1119417 0 0 1 -4.732528,1.2733073 31.749997,47.624999 0 0 1 0.366903,7.2171306 31.749997,47.624999 0 0 1 -0.06201,2.973462 23.415624,2.1119417 0 0 1 4.427638,1.2361 23.415624,2.1119417 0 0 1 -4.575432,1.254187 31.749997,47.624999 0 0 1 -1.516187,10.02471 23.415624,2.1119417 0 0 1 6.091619,1.421104 23.415624,2.1119417 0 0 1 -6.831624,1.490863 31.749997,47.624999 0 0 1 -3.532084,9.455754 23.415624,2.1119417 0 0 1 10.363708,1.753383 23.415624,2.1119417 0 0 1 -12.284004,1.857766 31.749997,47.624999 0 0 1 -7.965405,9.784416 25.399999,3.175 0 0 0 22.35264,-3.151746 V 45.577691 A 25.399999,3.175 0 0 0 49.96729,43.461024 25.399999,3.175 0 0 0 56.436146,41.344358 V 32.877691 A 25.399999,3.175 0 0 0 49.96729,30.761024 25.399999,3.175 0 0 0 56.436146,28.644358 V 20.177691 A 25.399999,3.175 0 0 0 49.96729,18.061025 25.399999,3.175 0 0 0 56.436146,15.944358 V 7.4776913 A 25.399999,3.175 0 0 0 49.157,5.253021 Z" />
    <g
       aria-label="TW"
       transform="matrix(0.99950412,0,0,1.0004961,-56.84568,44.496076)"
       id="g1032"
       style="font-size:25.449px;line-height:1.25;font-family:'Know Your Product';-inkscape-font-specification:'Know Your Product';fill:#633d05;fill-opacity:1;stroke:#1d1d1d;stroke-width:3.175;stroke-linejoin:round;stroke-miterlimit:4;stroke-dasharray:none;stroke-opacity:1">
      <path
         d="M 95.21345,-7.729046e-6 Q 93.821708,1.4414395 93.970823,3.1065596 l 0.472199,0.7704287 0.621313,2.0254819 0.459772,0.7704287 0.310657,0.7828549 0.310656,0.459772 0.161542,0.6213134 q 0.497051,0.6958711 0.608887,1.3917422 l 0.310657,0.4721986 0.310657,1.081085 q 0.894691,1.093512 1.242627,2.025482 l 0.161541,0.770429 v 1.86394 l 0.149115,0.93197 q 0.584035,0.546756 0.782855,1.093512 0.733149,0.149115 1.242629,0.149115 h 0.45977 l 0.4722,0.161542 q 1.2799,0 2.1746,0.149115 0.84498,-1.205348 0.93197,-2.323712 -0.78286,-1.130791 -1.09352,-2.025482 l -0.45977,-0.770429 -0.16154,-1.093512 Q 102.85561,11.33275 102.81833,10.40078 101.88636,8.8102172 101.5757,7.4557538 L 101.26504,6.9835556 101.11593,6.3622421 V 5.9024702 L 100.80527,5.2811567 100.64373,4.8089585 100.49461,4.187645 99.090446,0.310649 98.77979,0.1491075 Q 96.804013,0.54674812 95.21345,-7.729046e-6 Z M 103.7503,0.1491075 q -1.35447,1.7893828 -1.24263,3.7278808 l 0.31066,0.3106567 0.16154,0.4721982 q 0.65859,1.0438067 0.77043,2.0130557 l 0.31065,0.1615415 q 1.31719,3.0195834 1.71483,5.1196226 l 0.31066,1.242627 q 1.08108,1.627841 1.08108,3.255683 0.77043,0.857412 1.08109,1.714825 3.10656,0.497051 5.4427,-0.161542 0.14912,-0.733149 0.14912,-1.242627 -0.38522,-1.205348 -0.77043,-1.86394 -0.65859,-1.118364 -0.93197,-2.013056 l -0.16154,-0.621313 -0.45977,-0.621313 q -0.34794,-1.093512 -0.4722,-1.8639408 -0.49705,-0.6213135 -0.77043,-1.242627 L 110.11255,8.0770673 V 7.604869 L 109.80189,7.1450971 V 6.6728989 q -0.96925,-1.7893828 -1.39174,-3.1065674 0.11183,-0.8946913 0,-1.5532836 -0.62132,-0.6585923 -0.77043,-1.39174217 l -0.4722,-0.1615415 Q 105.2663,0.62130573 103.7503,0.1491075 Z m 9.77947,0.47219823 -0.31066,0.45977197 q -0.18639,1.5905625 -0.62131,2.6467953 -0.18639,1.2799058 -0.77043,2.3237124 v 0.4721982 l 0.31066,0.459772 0.31066,1.0935117 q 0.38521,0.6213134 0.45977,1.2302006 l 0.31065,0.3106568 v 0.4721983 q 1.05624,1.553284 1.40417,3.106567 l 0.62132,0.459772 0.77042,-2.79591 0.16155,-0.621314 0.31065,-0.6213133 0.14912,-0.7704287 0.31066,-0.6213135 0.16154,-0.7704287 0.14911,-0.4721982 q 0.27338,-0.8077075 0.31066,-1.3917422 1.31718,-2.2988598 1.55328,-4.3491942 L 118.35116,0.310649 q -2.41069,0.38521435 -4.34919,0 z"
         style="font-size:25.449px;fill:#633d05;fill-opacity:1;stroke:#1d1d1d;stroke-width:3.175;stroke-linejoin:round;stroke-miterlimit:4;stroke-dasharray:none;stroke-opacity:1"
         id="path1030" />
    </g>
    <path
       d="m 23.173476,44.64525 q -1.639451,0.671351 -3.191965,0.323243 -1.068129,1.628649 -0.794887,3.344325 l 0.484385,1.740541 0.471964,0.161621 q 1.838176,-0.435135 3.663933,-0.161621 0.67069,-3.854055 -0.63343,-5.408109 z m 1.88786,0.447568 -0.2484,1.392432 q 0.38502,1.827568 0.42228,3.095676 l -0.16146,0.472433 q 0,1.317838 -0.16146,2.237838 -0.14904,1.740541 -0.14904,2.85946 l -0.16146,0.484865 q 0,0.832973 0,1.268108 0.16146,2.312433 -0.32293,3.978379 l 0.48439,2.076217 0.47196,0.310811 0.32292,0.161621 q 1.50284,-0.634055 2.85663,-0.323243 0.91909,-0.111892 1.44073,-0.634055 v -0.957297 l 0.14904,-0.634054 -0.14904,-0.310811 v -0.484864 l -0.16146,-0.323244 v -0.472433 -0.472432 -2.076217 l 0.16146,-0.31081 q -0.36018,-1.840001 -0.16146,-3.195136 l 0.16146,-0.472433 v -1.591351 -0.472433 q 0.47197,-3.394054 0.14904,-5.582162 l -0.47196,-0.310811 q -1.87544,0.310811 -3.50247,-0.161622 z m 6.8559,-0.285946 q -0.32292,0.435135 -0.63343,0.634054 0,0.832973 0.16147,1.268108 -0.24841,1.516757 -0.16147,2.548649 l 0.31051,0.795676 q 1.55251,-0.236216 2.70758,0.161621 2.11142,-2.101081 0.95635,-5.097297 -0.91909,-0.14919 -1.75124,0 h -0.47196 z"
       style="font-size:25.449px;line-height:1.25;font-family:'Know Your Product';-inkscape-font-specification:'Know Your Product';fill:#633d05;fill-opacity:1;stroke:#1d1d1d;stroke-width:3.175;stroke-linejoin:round;stroke-miterlimit:4;stroke-dasharray:none;stroke-opacity:1"
       id="path1034" />
    <g
       aria-label="TW"
       transform="matrix(0.99950412,0,0,1.0004961,-56.84568,44.496076)"
       id="g1026"
       style="font-size:25.449px;line-height:1.25;font-family:'Know Your Product';-inkscape-font-specification:'Know Your Product';fill:#633d05;fill-opacity:1;stroke:#633d05;stroke-width:1.05833;stroke-linejoin:round;stroke-miterlimit:4;stroke-dasharray:none;stroke-opacity:1">
      <path
         d="M 95.21345,-7.729046e-6 Q 93.821708,1.4414395 93.970823,3.1065596 l 0.472199,0.7704287 0.621313,2.0254819 0.459772,0.7704287 0.310657,0.7828549 0.310656,0.459772 0.161542,0.6213134 q 0.497051,0.6958711 0.608887,1.3917422 l 0.310657,0.4721986 0.310657,1.081085 q 0.894691,1.093512 1.242627,2.025482 l 0.161541,0.770429 v 1.86394 l 0.149115,0.93197 q 0.584035,0.546756 0.782855,1.093512 0.733149,0.149115 1.242629,0.149115 h 0.45977 l 0.4722,0.161542 q 1.2799,0 2.1746,0.149115 0.84498,-1.205348 0.93197,-2.323712 -0.78286,-1.130791 -1.09352,-2.025482 l -0.45977,-0.770429 -0.16154,-1.093512 Q 102.85561,11.33275 102.81833,10.40078 101.88636,8.8102172 101.5757,7.4557538 L 101.26504,6.9835556 101.11593,6.3622421 V 5.9024702 L 100.80527,5.2811567 100.64373,4.8089585 100.49461,4.187645 99.090446,0.310649 98.77979,0.1491075 Q 96.804013,0.54674812 95.21345,-7.729046e-6 Z M 103.7503,0.1491075 q -1.35447,1.7893828 -1.24263,3.7278808 l 0.31066,0.3106567 0.16154,0.4721982 q 0.65859,1.0438067 0.77043,2.0130557 l 0.31065,0.1615415 q 1.31719,3.0195834 1.71483,5.1196226 l 0.31066,1.242627 q 1.08108,1.627841 1.08108,3.255683 0.77043,0.857412 1.08109,1.714825 3.10656,0.497051 5.4427,-0.161542 0.14912,-0.733149 0.14912,-1.242627 -0.38522,-1.205348 -0.77043,-1.86394 -0.65859,-1.118364 -0.93197,-2.013056 l -0.16154,-0.621313 -0.45977,-0.621313 q -0.34794,-1.093512 -0.4722,-1.8639408 -0.49705,-0.6213135 -0.77043,-1.242627 L 110.11255,8.0770673 V 7.604869 L 109.80189,7.1450971 V 6.6728989 q -0.96925,-1.7893828 -1.39174,-3.1065674 0.11183,-0.8946913 0,-1.5532836 -0.62132,-0.6585923 -0.77043,-1.39174217 l -0.4722,-0.1615415 Q 105.2663,0.62130573 103.7503,0.1491075 Z m 9.77947,0.47219823 -0.31066,0.45977197 q -0.18639,1.5905625 -0.62131,2.6467953 -0.18639,1.2799058 -0.77043,2.3237124 v 0.4721982 l 0.31066,0.459772 0.31066,1.0935117 q 0.38521,0.6213134 0.45977,1.2302006 l 0.31065,0.3106568 v 0.4721983 q 1.05624,1.553284 1.40417,3.106567 l 0.62132,0.459772 0.77042,-2.79591 0.16155,-0.621314 0.31065,-0.6213133 0.14912,-0.7704287 0.31066,-0.6213135 0.16154,-0.7704287 0.14911,-0.4721982 q 0.27338,-0.8077075 0.31066,-1.3917422 1.31718,-2.2988598 1.55328,-4.3491942 L 118.35116,0.310649 q -2.41069,0.38521435 -4.34919,0 z"
         style="font-size:25.449px;fill:#633d05;fill-opacity:1;stroke:#633d05;stroke-width:1.05833;stroke-linejoin:round;stroke-miterlimit:4;stroke-dasharray:none;stroke-opacity:1"
         id="path1024" />
    </g>
    <path
       d="m 23.173476,44.64525 q -1.639451,0.671351 -3.191965,0.323243 -1.068129,1.628649 -0.794887,3.344325 l 0.484385,1.740541 0.471964,0.161621 q 1.838176,-0.435135 3.663933,-0.161621 0.67069,-3.854055 -0.63343,-5.408109 z m 1.88786,0.447568 -0.2484,1.392432 q 0.38502,1.827568 0.42228,3.095676 l -0.16146,0.472433 q 0,1.317838 -0.16146,2.237838 -0.14904,1.740541 -0.14904,2.85946 l -0.16146,0.484865 q 0,0.832973 0,1.268108 0.16146,2.312433 -0.32293,3.978379 l 0.48439,2.076217 0.47196,0.310811 0.32292,0.161621 q 1.50284,-0.634055 2.85663,-0.323243 0.91909,-0.111892 1.44073,-0.634055 v -0.957297 l 0.14904,-0.634054 -0.14904,-0.310811 v -0.484864 l -0.16146,-0.323244 v -0.472433 -0.472432 -2.076217 l 0.16146,-0.31081 q -0.36018,-1.840001 -0.16146,-3.195136 l 0.16146,-0.472433 v -1.591351 -0.472433 q 0.47197,-3.394054 0.14904,-5.582162 l -0.47196,-0.310811 q -1.87544,0.310811 -3.50247,-0.161622 z m 6.8559,-0.285946 q -0.32292,0.435135 -0.63343,0.634054 0,0.832973 0.16147,1.268108 -0.24841,1.516757 -0.16147,2.548649 l 0.31051,0.795676 q 1.55251,-0.236216 2.70758,0.161621 2.11142,-2.101081 0.95635,-5.097297 -0.91909,-0.14919 -1.75124,0 h -0.47196 z"
       style="font-size:25.449px;line-height:1.25;font-family:'Know Your Product';-inkscape-font-specification:'Know Your Product';fill:#633d05;fill-opacity:1;stroke:#633d05;stroke-width:1.05833;stroke-linejoin:round;stroke-miterlimit:4;stroke-dasharray:none;stroke-opacity:1"
       id="path1028" />
    <g
       aria-label="TW"
       transform="matrix(0.99950412,0,0,1.0004961,-56.84568,44.496076)"
       id="g958"
       style="font-size:25.449px;line-height:1.25;font-family:'Know Your Product';-inkscape-font-specification:'Know Your Product';fill:#c27218;fill-opacity:1;stroke-width:0.265093">
      <path
         d="M 95.21345,-7.729046e-6 Q 93.821708,1.4414395 93.970823,3.1065596 l 0.472199,0.7704287 0.621313,2.0254819 0.459772,0.7704287 0.310657,0.7828549 0.310656,0.459772 0.161542,0.6213134 q 0.497051,0.6958711 0.608887,1.3917422 l 0.310657,0.4721986 0.310657,1.081085 q 0.894691,1.093512 1.242627,2.025482 l 0.161541,0.770429 v 1.86394 l 0.149115,0.93197 q 0.584035,0.546756 0.782855,1.093512 0.733149,0.149115 1.242629,0.149115 h 0.45977 l 0.4722,0.161542 q 1.2799,0 2.1746,0.149115 0.84498,-1.205348 0.93197,-2.323712 -0.78286,-1.130791 -1.09352,-2.025482 l -0.45977,-0.770429 -0.16154,-1.093512 Q 102.85561,11.33275 102.81833,10.40078 101.88636,8.8102172 101.5757,7.4557538 L 101.26504,6.9835556 101.11593,6.3622421 V 5.9024702 L 100.80527,5.2811567 100.64373,4.8089585 100.49461,4.187645 99.090446,0.310649 98.77979,0.1491075 Q 96.804013,0.54674812 95.21345,-7.729046e-6 Z M 103.7503,0.1491075 q -1.35447,1.7893828 -1.24263,3.7278808 l 0.31066,0.3106567 0.16154,0.4721982 q 0.65859,1.0438067 0.77043,2.0130557 l 0.31065,0.1615415 q 1.31719,3.0195834 1.71483,5.1196226 l 0.31066,1.242627 q 1.08108,1.627841 1.08108,3.255683 0.77043,0.857412 1.08109,1.714825 3.10656,0.497051 5.4427,-0.161542 0.14912,-0.733149 0.14912,-1.242627 -0.38522,-1.205348 -0.77043,-1.86394 -0.65859,-1.118364 -0.93197,-2.013056 l -0.16154,-0.621313 -0.45977,-0.621313 q -0.34794,-1.093512 -0.4722,-1.8639408 -0.49705,-0.6213135 -0.77043,-1.242627 L 110.11255,8.0770673 V 7.604869 L 109.80189,7.1450971 V 6.6728989 q -0.96925,-1.7893828 -1.39174,-3.1065674 0.11183,-0.8946913 0,-1.5532836 -0.62132,-0.6585923 -0.77043,-1.39174217 l -0.4722,-0.1615415 Q 105.2663,0.62130573 103.7503,0.1491075 Z m 9.77947,0.47219823 -0.31066,0.45977197 q -0.18639,1.5905625 -0.62131,2.6467953 -0.18639,1.2799058 -0.77043,2.3237124 v 0.4721982 l 0.31066,0.459772 0.31066,1.0935117 q 0.38521,0.6213134 0.45977,1.2302006 l 0.31065,0.3106568 v 0.4721983 q 1.05624,1.553284 1.40417,3.106567 l 0.62132,0.459772 0.77042,-2.79591 0.16155,-0.621314 0.31065,-0.6213133 0.14912,-0.7704287 0.31066,-0.6213135 0.16154,-0.7704287 0.14911,-0.4721982 q 0.27338,-0.8077075 0.31066,-1.3917422 1.31718,-2.2988598 1.55328,-4.3491942 L 118.35116,0.310649 q -2.41069,0.38521435 -4.34919,0 z"
         style="font-size:25.449px;fill:#c27218;fill-opacity:1;stroke-width:0.265093"
         id="path956" />
    </g>
    <g
       aria-label="TW"
       transform="matrix(0.99950412,0,0,1.0004961,-56.84568,44.496076)"
       id="text849"
       style="font-size:25.449px;line-height:1.25;font-family:'Know Your Product';-inkscape-font-specification:'Know Your Product';fill:#fdef78;fill-opacity:1;stroke-width:0.265093">
      <path
         id="path853"
         style="font-size:25.449px;fill:#fdef78;fill-opacity:1;stroke-width:0.265093"
         d="M 95.513672,0.73046875 C 94.896921,1.4574292 94.612837,2.1683012 94.654297,2.9375 l 0.361328,0.5878906 c 0.02919,0.048348 0.05216,0.1001912 0.06836,0.1542969 l 0.597657,1.9492187 0.417968,0.7011719 c 0.01814,0.030607 0.03381,0.062609 0.04687,0.095703 l 0.283204,0.7148438 0.271484,0.4003906 c 0.04192,0.06271 0.07295,0.1320426 0.0918,0.2050782 0.509817,1.5190888 0.486692,1.512813 0.994141,2.2851563 0.0371,0.05661 0.06541,0.118509 0.08398,0.183594 l 0.292968,1.019531 c 0.55331,0.701936 0.997714,1.378989 1.244141,2.039063 0.01147,0.03118 0.02061,0.06317 0.02734,0.0957 l 0.162109,0.769531 c 0.0094,0.04562 0.01394,0.0921 0.01367,0.138672 v 1.8125 l 0.121094,0.753906 c 0.204008,0.218253 0.351909,0.454601 0.488279,0.693359 0.34316,0.05941 0.67267,0.109375 0.89453,0.109375 h 0.46094 c 0.0737,-2.74e-4 0.14696,0.0116 0.2168,0.03516 l 0.39844,0.136718 c 0.60883,0.0044 1.11634,0.05208 1.60937,0.109375 0.33756,-0.554407 0.57847,-1.082423 0.63477,-1.554687 -0.43088,-0.659699 -0.80565,-1.292753 -1.00782,-1.875 l 0.0567,0.123047 -0.45899,-0.769532 c -0.0452,-0.07547 -0.075,-0.159092 -0.0879,-0.246093 l -0.16211,-1.09375 c -0.5754,-0.794276 -0.64318,-1.880107 -0.64318,-1.880107 -0.57843,-1.0059001 -1.06149,-2.199051 -1.12052,-2.8152058 l -0.30664,-0.4628906 c -0.0425,-0.0645 -0.0736,-0.1358622 -0.0918,-0.2109375 l -0.15039,-0.6230469 c -0.0121,-0.051849 -0.018,-0.104957 -0.0176,-0.1582031 V 6.0605469 l -0.24023,-0.4785157 c -0.0137,-0.027798 -0.0255,-0.056512 -0.0352,-0.085937 l -0.16015,-0.4726563 c -0.007,-0.018612 -0.01256,-0.037511 -0.01758,-0.056641 L 99.851562,4.3808594 98.566406,0.8359375 C 97.483594,1.012657 96.46451,0.97055794 95.513672,0.73046875 Z m 8.583988,0.1640625 C 103.49389,1.7986322 103.19521,2.6961467 103.20508,3.625 l 0.0879,0.087891 c 0.0724,0.07257 0.12717,0.1607655 0.16015,0.2578125 l 0.16211,0.4726563 -0.0683,-0.140625 c 0.39311,0.62306 0.57655,1.2512403 0.71093,1.8789062 l 0.10938,0.056641 c 0.13762,0.070525 0.24663,0.1864426 0.30859,0.328125 0.89099,2.0425668 1.47847,3.786401 1.75781,5.261719 l -0.008,-0.03711 0.29883,1.195312 c 0.6638,1.047103 1.02672,2.132585 1.07422,3.230469 0.35574,0.423605 0.60796,0.862724 0.82031,1.308594 1.70359,0.24516 3.18438,0.193906 4.4707,-0.103516 0.0267,-0.195301 0.0646,-0.411092 0.0684,-0.558594 -0.23241,-0.706459 -0.46392,-1.279189 -0.66601,-1.625 v -0.002 c -0.45752,-0.777139 -0.79086,-1.489051 -0.99414,-2.154297 -0.003,-0.0084 -0.006,-0.01688 -0.008,-0.02539 l -0.13085,-0.496094 -0.38086,-0.519531 c -0.0437,-0.0592 -0.0773,-0.125186 -0.0996,-0.195313 -0.22081,-0.693947 -0.36466,-1.280576 -0.45899,-1.8125 -0.30388,-0.4007318 -0.57466,-0.8058699 -0.75976,-1.2265626 -0.007,-0.016015 -0.0136,-0.032303 -0.0195,-0.048828 L 109.48047,8.296875 c -0.0246,-0.07097 -0.0372,-0.1455767 -0.0371,-0.2207031 V 7.8105469 L 109.2461,7.5195312 c -0.0742,-0.1109396 -0.11368,-0.2415115 -0.11328,-0.375 V 6.8144531 c -0.60402,-1.1340217 -1.07774,-2.158856 -1.36133,-3.0429687 -0.0301,-0.093204 -0.0394,-0.1918709 -0.0273,-0.2890625 0.067,-0.535693 0.0617,-0.9746461 0.006,-1.3242188 -0.23986,-0.302936 -0.40358,-0.6317685 -0.53125,-0.9726562 l -0.16992,-0.058594 c -1.05945,0.074562 -2.03717,-0.016072 -2.95117,-0.23242185 z m 10.08007,0.10351563 -0.16796,0.10937502 -0.17383,0.2597656 c -0.12731,0.9671393 -0.31657,1.821317 -0.59961,2.53125 -0.12498,0.8034592 -0.38813,1.539876 -0.73828,2.2265625 v 0.1933594 l 0.19726,0.2910156 c 0.0392,0.058774 0.0689,0.1233725 0.0879,0.1914062 l 0.31055,1.0917969 -0.0742,-0.1699219 c 0.2354,0.3796763 0.34526,0.7811396 0.4375,1.1835938 l 0.23633,0.2363281 c 0.12546,0.1260474 0.19571,0.2967672 0.19531,0.4746094 v 0.2988281 c 0.47619,0.7304664 0.82,1.4713674 1.08008,2.2187504 l 0.39844,-1.445313 0.1582,-0.617187 c 0.012,-0.04661 0.029,-0.091796 0.0508,-0.134766 L 115.8457,9.3984375 115.97852,8.71875 c 0.0117,-0.059684 0.0314,-0.1175052 0.0586,-0.171875 l 0.27148,-0.5429688 0.14453,-0.6875 c 0.005,-0.021105 0.0107,-0.041963 0.0176,-0.0625 l 0.14844,-0.4707031 c 0.001,-0.00457 0.003,-0.00913 0.004,-0.013672 0.16939,-0.5004667 0.25591,-0.9155389 0.27539,-1.2207031 0.007,-0.1024549 0.0367,-0.202018 0.0879,-0.2910156 0.78977,-1.3783815 1.23262,-2.6523837 1.4082,-3.8398437 l -0.33984,-0.4121094 c -1.39248,0.1883176 -2.68695,0.1921514 -3.87696,-0.007813 z"
         sodipodi:nodetypes="ccccccccccccccccccccsccccccccccsccccccccccccccccccccccccccccccccccccccccccccccccccccccccccccccccccccccccccccccccccsc" />
    </g>
    <g
       aria-label="TW"
       transform="matrix(0.99950412,0,0,1.0004961,-56.84568,44.496076)"
       id="g974"
       style="font-size:25.449px;line-height:1.25;font-family:'Know Your Product';-inkscape-font-specification:'Know Your Product';fill:url(#linearGradient988);fill-opacity:1;stroke-width:0.265093;filter:url(#filter1496)">
      <path
         id="path972"
         style="font-size:25.449px;fill:url(#linearGradient1016);fill-opacity:1;stroke-width:0.265093"
         d="m 95.652344,1.0332031 c -0.497635,0.6242244 -0.729479,1.2078781 -0.708985,1.8359375 l 0.3125,0.5078125 0.09766,0.2207033 0.58789,1.9160157 0.400391,0.671875 0.0664,0.1367186 0.271485,0.6855469 0.255859,0.375 c 0,0 0.01728,0.1699058 0.130859,0.2929682 l 0.134766,0.5136719 c 0.268562,0.414383 0.460478,0.8514736 0.572266,1.3066407 l 0.25,0.3808593 c 0,0 0.04165,0.1695373 0.11914,0.2597653 l 0.28125,0.978515 c 0.542782,0.694276 0.99165,1.371814 1.248047,2.058594 l -0.02734,0.0098 c 0.03269,0.0359 0.05557,0.07963 0.06641,0.126953 l 0.162109,0.769531 -0.05273,0.01172 c 0.04584,0.05101 0.07153,0.116969 0.07227,0.185546 v 1.789063 l 0.109369,0.671875 c 0.15192,0.176444 0.2708,0.356703 0.37696,0.535156 0.29086,0.0479 0.58003,0.0918 0.73632,0.0918 h 0.46094 l 0.30862,0.04883 0.37109,0.126954 c 0.51742,0.0066 0.95672,0.04733 1.38086,0.09375 0.25894,-0.447951 0.43826,-0.864544 0.49609,-1.214844 -0.36489,-0.564234 -0.67591,-1.114293 -0.88672,-1.648438 -0.001,-0.002 -0.003,-0.0039 -0.004,-0.0059 l -0.45899,-0.769531 c -0.032,-0.05621 -0.0437,-0.121721 -0.0332,-0.185547 -0.0485,-0.04258 -0.0809,-0.100489 -0.0918,-0.164063 l -0.14648,-0.990234 c -0.32454,-0.64563 -0.52503,-1.288176 -0.59375,-1.927734 -0.5528,-0.9725835 -0.92843,-1.8970928 -1.16211,-2.7871103 l -0.28516,-0.4316406 -0.13217,-0.3007813 -0.15039,-0.6230469 -0.0254,-0.2246093 V 6.1269496 L 99.951737,5.7089809 99.902347,5.5859365 99.742188,5.1132812 99.718716,5.0332 99.580044,4.4628875 98.373013,1.1308563 c -0.953302,0.1285646 -1.861996,0.093056 -2.720703,-0.097656 z m 8.603516,0.171875 c -0.51083,0.8128297 -0.77819,1.6013758 -0.76953,2.4160157 0,0 0.1818,0.1150939 0.23497,0.2578106 l 0.16211,0.4726563 c 7.4e-4,0.00131 0.001,0.00259 0.002,0.00391 0.30932,0.5490106 0.49051,1.0986199 0.61132,1.6328124 0.26358,-0.0076 0.43741,0.4648437 0.43741,0.4648437 0.87998,2.017324 1.46279,3.7443702 1.75391,5.2324222 0.005,0.01209 0.009,0.02449 0.0117,0.03711 l 0.29492,1.177735 c 0.64228,1.032921 1.00323,2.112662 1.06836,3.208984 0.30384,0.374929 0.52482,0.760194 0.7168,1.144531 1.54412,0.209983 2.88408,0.163159 4.05859,-0.08398 0.0139,-0.09871 0.029,-0.20405 0.0332,-0.267578 -0.22216,-0.666984 -0.44767,-1.221389 -0.62304,-1.521485 -0.008,-0.01312 -0.0141,-0.02684 -0.0195,-0.04101 -1e-5,-0.0013 -1e-5,-0.0026 0,-0.0039 -0.45226,-0.773575 -0.79191,-1.490881 -1,-2.171876 -0.003,-0.01154 -0.006,-0.02328 -0.008,-0.03516 h -0.004 l -0.11719,-0.445312 -0.34766,-0.476563 c -0.031,-0.04292 -0.0492,-0.09368 -0.0527,-0.146484 -0.0415,-0.0336 -0.0727,-0.0783 -0.0898,-0.128906 -0.21667,-0.680911 -0.3544,-1.258095 -0.45118,-1.789063 -0.2933,-0.3912472 -0.56617,-0.7915434 -0.75586,-1.2226563 -0.01,-0.023116 -0.0162,-0.047418 -0.0195,-0.072266 l -0.008,0.00195 -0.16016,-0.4609375 -0.0529,-0.3125103 V 7.8964844 l -0.15039,-0.21875 -0.16075,-0.5332052 V 6.8808594 C 108.2607,5.7661287 107.78813,4.7495989 107.50195,3.8574219 l -0.0373,-0.4101534 c 0.0632,-0.5052954 0.0537,-0.9069 0.006,-1.2207031 -0.1889,-0.2590666 -0.32899,-0.5309808 -0.4414,-0.8066406 l -0.0332,-0.011719 c -0.97648,0.061947 -1.88349,-0.020486 -2.74023,-0.203125 z m 9.99805,0.080078 -0.041,0.027344 -0.10937,0.1640625 c -0.12578,0.9264866 -0.31198,1.7542604 -0.5879,2.4648437 -9.4e-4,0.00607 -0.003,0.011515 -0.004,0.017578 -0.12724,0.8040713 -0.3902,1.5417345 -0.73242,2.2265625 v 0.046875 l 0.15039,0.21875 0.125,0.2714846 0.29883,1.0546876 c 0.16952,0.3298082 0.27983,0.6620066 0.35546,0.9824218 l 0.1836,0.1835938 c 0.23924,0.2485391 0.22117,0.2497687 0.27776,0.6738275 v 0.2246094 c 0.30065,0.4708465 0.53877,0.9464275 0.7461,1.4238285 l 0.17773,-0.648437 0.1582,-0.615235 0.0723,-0.1914085 0.25195,-0.5039063 0.125,-0.6425781 c 0.009,-0.04294 0.0289,-0.08307 0.0566,-0.1171875 -9e-4,-0.043865 0.008,-0.087334 0.0273,-0.1269531 l 0.2539,-0.5097657 0.13867,-0.6523437 0.0117,0.00195 c -9.7e-4,-0.030383 0.003,-0.060722 0.0117,-0.089844 l 0.14844,-0.4707031 c 0.002,-0.00661 0.005,-0.013123 0.008,-0.019531 h -0.002 c 0.16356,-0.4832319 0.26172,-1.1484375 0.26172,-1.1484375 l 0.12622,-0.41406 c 0.7511,-1.3108988 1.16551,-2.5105346 1.3457,-3.6289063 l -0.1582,-0.1914062 c -1.30674,0.1639416 -2.53405,0.1665502 -3.67578,-0.011719 z"
         sodipodi:nodetypes="ccccccccccccccccccccccccscccccccccccccccccccccccccccccccccccccccccccccccccccccccccccccccccccccccccccccccccccccccccccccccccccccc" />
    </g>
    <path
       d="m 23.173476,44.64525 q -1.639451,0.671351 -3.191965,0.323243 -1.068129,1.628649 -0.794887,3.344325 l 0.484385,1.740541 0.471964,0.161621 q 1.838176,-0.435135 3.663933,-0.161621 0.67069,-3.854055 -0.63343,-5.408109 z m 1.88786,0.447568 -0.2484,1.392432 q 0.38502,1.827568 0.42228,3.095676 l -0.16146,0.472433 q 0,1.317838 -0.16146,2.237838 -0.14904,1.740541 -0.14904,2.85946 l -0.16146,0.484865 q 0,0.832973 0,1.268108 0.16146,2.312433 -0.32293,3.978379 l 0.48439,2.076217 0.47196,0.310811 0.32292,0.161621 q 1.50284,-0.634055 2.85663,-0.323243 0.91909,-0.111892 1.44073,-0.634055 v -0.957297 l 0.14904,-0.634054 -0.14904,-0.310811 v -0.484864 l -0.16146,-0.323244 v -0.472433 -0.472432 -2.076217 l 0.16146,-0.31081 q -0.36018,-1.840001 -0.16146,-3.195136 l 0.16146,-0.472433 v -1.591351 -0.472433 q 0.47197,-3.394054 0.14904,-5.582162 l -0.47196,-0.310811 q -1.87544,0.310811 -3.50247,-0.161622 z m 6.8559,-0.285946 q -0.32292,0.435135 -0.63343,0.634054 0,0.832973 0.16147,1.268108 -0.24841,1.516757 -0.16147,2.548649 l 0.31051,0.795676 q 1.55251,-0.236216 2.70758,0.161621 2.11142,-2.101081 0.95635,-5.097297 -0.91909,-0.14919 -1.75124,0 h -0.47196 z"
       style="font-size:25.449px;line-height:1.25;font-family:'Know Your Product';-inkscape-font-specification:'Know Your Product';fill:#c27218;fill-opacity:1;stroke-width:0.265093"
       id="path960" />
    <path
       id="path851"
       style="font-size:25.449px;line-height:1.25;font-family:'Know Your Product';-inkscape-font-specification:'Know Your Product';fill:#fdef78;fill-opacity:1;stroke-width:0.265093"
       d="m 26.122646,45.260797 -0.52904,0.244262 -0.17569,1.000496 c 0.24017,1.171391 0.38867,2.200925 0.41386,3.058157 a 0.59793125,0.59852467 0 0 1 -0.0312,0.209088 l -0.13861,0.408406 c -0.006,0.841303 -0.0504,1.588958 -0.16007,2.213988 l 0.006,-0.05276 c -0.0985,1.149276 -0.14646,2.088323 -0.14646,2.808033 a 0.59793125,0.59852467 0 0 1 -0.0312,0.189547 l -0.1308,0.392773 v 1.170502 c 0.10097,1.49661 -0.006,2.807517 -0.31235,3.955086 l 0.40605,1.733282 0.24012,0.158281 0.0956,0.04689 c 0.92173,-0.337089 1.83616,-0.444287 2.71545,-0.283344 0.43151,-0.05284 0.68528,-0.211141 0.91361,-0.390819 v -0.605769 a 0.59793125,0.59852467 0 0 1 0.0156,-0.138741 l 0.10151,-0.427946 -0.0586,-0.1192 a 0.59793125,0.59852467 0 0 1 -0.0586,-0.259894 v -0.343917 l -0.0996,-0.197363 a 0.59793125,0.59852467 0 0 1 -0.0625,-0.267711 V 59.291192 58.818302 56.7411 a 0.59793125,0.59852467 0 0 1 0.0683,-0.277482 l 0.0918,-0.173914 c -0.20453,-1.157924 -0.28894,-2.221539 -0.15422,-3.140229 a 0.59793125,0.59852467 0 0 1 0.0254,-0.10943 l 0.13079,-0.375186 v -1.492927 -0.472891 a 0.59793125,0.59852467 0 0 1 0.006,-0.08207 c 0.2937,-2.112102 0.32994,-3.820123 0.16203,-5.164671 l -0.0586,-0.03908 c -1.1351,0.157034 -2.21995,0.107397 -3.24452,-0.15242 z m -3.293293,0.08403 c -0.831467,0.258781 -1.660643,0.341529 -2.477286,0.236446 -0.504402,0.876853 -0.71441,1.730628 -0.575886,2.622394 l 0.386527,1.385452 0.0449,0.01563 c 1.012935,-0.219474 2.026288,-0.261684 3.037558,-0.175868 0.26459,-1.945018 0.0866,-3.295702 -0.415811,-4.084056 z m 9.253223,0.128971 c -0.0573,0.06163 -0.11589,0.121276 -0.17569,0.175868 0.0173,0.366291 0.0478,0.710517 0.0996,0.850031 a 0.59793125,0.59852467 0 0 1 0.0293,0.306793 c -0.15656,0.955911 -0.19831,1.733111 -0.15227,2.342958 l 0.11127,0.287252 c 0.74012,-0.06869 1.42911,-0.02883 2.06343,0.127016 1.00058,-1.1077 1.23788,-2.315646 0.74377,-3.855427 -0.4106,-0.0365 -0.81829,-0.06839 -1.18886,-0.002 a 0.59793125,0.59852467 0 0 1 -0.10542,0.0098 h -0.47242 a 0.59793125,0.59852467 0 0 1 -0.16008,-0.0215 z" />
    <path
       id="path976"
       style="font-size:25.449px;line-height:1.25;font-family:'Know Your Product';-inkscape-font-specification:'Know Your Product';fill:url(#linearGradient1011);fill-opacity:1;stroke-width:0.265093;filter:url(#filter1492)"
       d="m 26.159736,45.510922 -0.34749,0.16219 -0.14641,0.834398 c 0.23539,1.157299 0.38451,2.182214 0.40995,3.048386 l -0.045,0.295068 -0.12884,0.377141 c -0.007,0.785296 -0.0533,1.483556 -0.15227,2.094788 10e-4,0.01365 10e-4,0.02738 0,0.04104 -0.0979,1.144737 -0.14433,2.07768 -0.14433,2.786537 l -0.0449,0.265757 -0.11713,0.355645 v 1.13142 c 0.0987,1.483445 -0.008,2.790644 -0.30844,3.949224 l 0.37286,1.588678 0.14641,0.09575 0.008,0.0039 c 0.89246,-0.308284 1.78689,-0.415051 2.65493,-0.269665 0.32904,-0.04063 0.51478,-0.146205 0.69692,-0.279436 v -0.474845 c 0,0 0.0156,-0.130272 0.0234,-0.195407 l 0.08,-0.341967 -0.0195,-0.04104 c 0,0 -0.0678,-0.0719 -0.0842,-0.367362 v -0.285299 l -0.0722,-0.146556 c 0,0 -0.11217,-0.112172 -0.09,-0.377127 v -0.470937 -0.47289 -2.077202 l 0.0977,-0.390806 0.0547,-0.105521 c -0.19517,-1.136906 -0.27924,-2.195582 -0.14215,-3.130479 0.008,-0.05388 0.0344,-0.103416 0.0742,-0.140695 l -0.039,-0.01368 0.11713,-0.336104 v -1.451891 -0.472891 h 0.0234 c -0.0144,-0.03661 -0.0198,-0.07616 -0.0156,-0.115292 0.27974,-2.011765 0.31181,-3.627676 0.16983,-4.918454 -1.0519,0.122722 -2.06756,0.07745 -3.0317,-0.154373 z m -3.470937,0.109429 c -0.727007,0.200895 -1.455361,0.273201 -2.176655,0.205179 -0.431311,0.79333 -0.616227,1.546092 -0.495848,2.333189 l 0.329915,1.182227 c 0.894445,-0.174909 1.787685,-0.215703 2.676406,-0.158282 0.202709,-1.685475 0.04465,-2.865647 -0.333818,-3.562313 z m 9.469907,0.127016 c 0.008,0.137017 0.0153,0.274883 0.0273,0.384957 0.0154,0.141364 0.0402,0.2603 0.0488,0.283343 0.0251,0.07376 0.0135,0.155091 -0.0312,0.218859 0.0567,0.05455 0.0836,0.133148 0.0722,0.211042 -0.15201,0.928229 -0.1913,1.677114 -0.15031,2.256978 l 0.0351,0.08794 c 0.62843,-0.04304 1.22571,-0.0079 1.78622,0.111384 0.84489,-0.983234 1.05013,-2.003287 0.65983,-3.351271 -0.34587,-0.03407 -0.9507,-0.0039 -0.9507,-0.0039 l -0.14836,0.01368 h -0.47243 l -0.2245,-0.03126 z"
       sodipodi:nodetypes="ccccccccccccccccccccccccccccccccccccccccccccccccscccccccccccc" />
  </g>
</svg>
