<?xml version="1.0" encoding="UTF-8" standalone="no"?>
<svg
   width="128"
   height="256"
   viewBox="0 0 128 256"
   version="1.1"
   id="SVGRoot"
   sodipodi:docname="flag_red.svg"
   inkscape:version="1.2-dev (3e483ec7f7, 2021-12-19)"
   xmlns:inkscape="http://www.inkscape.org/namespaces/inkscape"
   xmlns:sodipodi="http://sodipodi.sourceforge.net/DTD/sodipodi-0.dtd"
   xmlns="http://www.w3.org/2000/svg"
   xmlns:svg="http://www.w3.org/2000/svg">
  <defs
     id="defs823" />
  <sodipodi:namedview
     id="base"
     pagecolor="#8e8e8e"
     bordercolor="#666666"
     borderopacity="1.0"
     inkscape:pageopacity="0"
     inkscape:pageshadow="2"
     inkscape:zoom="4"
     inkscape:cx="121.25"
     inkscape:cy="103"
     inkscape:document-units="px"
     inkscape:current-layer="g970"
     showgrid="true"
     inkscape:window-width="3840"
     inkscape:window-height="2100"
     inkscape:window-x="1920"
     inkscape:window-y="32"
     inkscape:window-maximized="1"
     inkscape:pagecheckerboard="true"
     inkscape:blackoutopacity="0.0"
     inkscape:deskcolor="#aaaaaa"
     inkscape:deskopacity="0">
    <inkscape:grid
       type="xygrid"
       id="grid535"
       spacingx="64"
       spacingy="64"
       originx="-192"
       originy="0" />
  </sodipodi:namedview>
  <g
     inkscape:label="Layer 1"
     inkscape:groupmode="layer"
     id="layer1"
     transform="translate(-192)">
    <g
       id="g976"
       transform="matrix(0.90391899,0,0,0.90391899,-21.892025,52.923194)">
      <g
         id="g970">
        <g
           id="g63365"
           style="stroke:#843636;stroke-opacity:1;fill:none;fill-opacity:1">
          <g
             id="g63355"
             style="stroke:#843636;stroke-opacity:1;fill:none;fill-opacity:1" />
        </g>
        <g
           id="g53537">
          <path
             style="fill:#86632b;fill-opacity:1;stroke:none;stroke-width:1.10629px;stroke-linecap:butt;stroke-linejoin:miter;stroke-opacity:1"
             d="m 256.08333,217.31149 17.17394,-0.0245 c -0.96715,-85.82567 0.22703,-172.05539 12.80343,-260.412938 -6.22964,-4.863423 -12.73653,-6.185391 -19.65018,-2.311735 -12.85684,92.433335 -9.74082,176.637523 -10.32719,262.749173 z"
             id="path3575"
             sodipodi:nodetypes="ccccc" />
          <path
             id="path3683"
             style="fill:#6c5023;fill-opacity:1;stroke:none;stroke-width:1.10629px;stroke-linecap:butt;stroke-linejoin:miter;stroke-opacity:1"
             d="M 278.27982,-47.161555 C 266.22663,37.69302 265.1134,125.45452 265.21173,213.47003 l -9.12045,0.22687 c -0.007,1.20683 -4.2e-4,2.40737 -0.009,3.61491 l 17.17564,-0.0238 c -0.96715,-85.82566 0.22593,-172.055796 12.80233,-260.413342 -2.54343,-1.985631 -5.13612,-3.343849 -7.78079,-4.036243 z" />
          <path
             id="path6443"
             style="fill:#d30912;fill-opacity:1;stroke:#000000;stroke-width:1.32755;stroke-linecap:butt;stroke-linejoin:miter;stroke-miterlimit:4;stroke-dasharray:none;stroke-opacity:1"
             d="m 306.54433,-35.519542 c -5.35647,-0.0388 -11.02225,0.03687 -17.11298,0.270092 -0.0351,0.70907 -0.0808,1.419186 -0.11668,2.128319 -13.885,-1.806384 -18.4607,-1.319786 -25.59385,-1.462815 l 0.18151,9.714643 c 11.44461,0.442817 19.94079,0.997328 24.86784,1.683209 -0.67107,12.12514 -1.44632,24.2622944 -2.26013,36.412622 -8.80284,-1.631531 -16.91627,-1.467602 -25.33456,-2.095907 l -0.20527,10.051715 24.93699,0.948561 c -0.80988,11.816622 -1.63069,23.683554 -2.45675,35.533209 l -25.43179,-3.213006 -1.21649,11.320066 26.02599,0.87077 c -0.90203,13.117197 -1.76984,26.252347 -2.54966,39.416044 l -25.49446,-0.85349 -0.0583,10.67616 c 8.15481,-0.76216 16.49623,-1.12887 25.05582,-1.03715 -0.4734,8.49952 -0.91635,17.00843 -1.27915,25.53984 19.97861,1.34942 40.40703,1.91963 60.81591,2.52157 2.49298,-59.272237 4.08022,-119.102762 10.19649,-176.134077 -13.61733,-1.02484 -26.90102,-2.173977 -42.97045,-2.290375 z" />
          <path
             id="path14212"
             style="fill:#eb0a14;fill-opacity:0.991341;stroke:none;stroke-width:1.10629px;stroke-linecap:butt;stroke-linejoin:miter;stroke-opacity:1"
             d="m 306.54433,-35.519538 c -5.35647,-0.0388 -11.02225,0.0369 -17.11298,0.27009 -0.0351,0.70907 -0.0808,1.419179 -0.11668,2.128319 -13.885,-1.806389 -18.4607,-1.319789 -25.59385,-1.462819 l -0.22949,10.186615 c 11.44461,0.44281 20.38525,0.882617 25.3123,1.568497 -0.67106,12.125139 -1.47978,23.9050414 -2.29359,36.055368 -8.80284,-1.63154 -17.81094,-2.164866 -26.22923,-2.793163 l -0.0261,10.495083 25.65253,1.20244 c -0.80988,11.816627 -1.63069,23.683557 -2.45675,35.533214 l -26.23434,-3.306308 -0.763,12.48944 26.37505,-0.205302 c -0.90203,13.117197 -1.76984,25.831074 -2.54966,38.994774 -7.37387,-1.55348 -16.95899,-0.52264 -25.75931,-0.48296 l -0.0405,11.01488 c 8.15481,-0.49403 16.62141,-0.39114 25.181,-0.75622 -0.4734,8.49952 -0.79449,16.43952 -1.15729,24.97093 6.30159,0.42563 12.65751,0.75624 19.03387,1.05227 -0.32638,-2.90335 -0.29599,-5.63167 0.36732,-7.85209 2.19895,-7.36096 12.6031,-12.06772 11.24228,-19.52868 -1.8772,-10.29218 -29.55683,-7.88235 -22.19286,-24.911067 5.47051,-12.650187 29.45609,2.01411 32.95114,-8.79848 4.97023,-15.376327 -18.05809,-22.720727 -17.75688,-26.650454 0.63439,-8.27662 22.08573,-6.73618 20.4189,-17.51055 -0.77059,-4.980897 -6.17627,-9.793737 -11.20342,-10.155437 -6.12019,-0.44034 -7.80566,13.300697 -12.89956,11.763017 -6.61348,-1.99639 -4.47495,-14.068567 -2.23203,-20.602557 1.88451,-5.48989 6.75423,-12.3634866 12.11089,-12.5106366 10.1968,-0.28009 25.58153,3.65396 27.88854,-5.67838997 3.61566,-14.62613643 -19.69695,-5.66083003 -23.88038,-9.68223743 -6.15514,-5.916729 6.9968,-16.163209 19.34933,-23.843656 -7.88028,-0.51822 -16.0546,-0.92801 -25.15522,-0.99393 z"
             sodipodi:nodetypes="scccccccccccccccccccssssscssscsccs" />
          <path
             id="path21815"
             style="fill:none;fill-opacity:1;stroke:#000000;stroke-width:1.32755;stroke-linecap:butt;stroke-linejoin:miter;stroke-miterlimit:4;stroke-dasharray:none;stroke-opacity:1"
             d="m 306.54433,-35.519542 c -5.35647,-0.0388 -11.02225,0.03687 -17.11298,0.270092 -0.0351,0.70907 -0.0808,1.419186 -0.11668,2.128319 -13.885,-1.806384 -18.4607,-1.319786 -25.59385,-1.462815 l 0.18151,9.714643 c 11.44461,0.442817 19.94079,0.997328 24.86784,1.683209 -0.67107,12.12514 -1.44632,24.2622944 -2.26013,36.412622 -8.80284,-1.631531 -16.91627,-1.467602 -25.33456,-2.095907 l -0.20527,10.051715 24.93699,0.948561 c -0.80988,11.816622 -1.63069,23.683554 -2.45675,35.533209 l -25.43179,-3.213006 -1.20014,11.698084 26.00964,0.492752 c -0.90203,13.117197 -1.76984,26.252347 -2.54966,39.416044 -8.57614,-1.26034 -17.00923,-0.73077 -25.49446,-0.85349 l -0.0583,10.67616 c 8.15481,-0.76216 16.49623,-1.12887 25.05582,-1.03715 -0.4734,8.49952 -0.91635,17.00843 -1.27915,25.53984 19.97861,1.34942 40.40703,1.91963 60.81591,2.52157 2.49298,-59.272237 4.08022,-119.102762 10.19649,-176.134077 -13.61733,-1.02484 -26.90102,-2.173977 -42.97045,-2.290375 z"
             sodipodi:nodetypes="sccccccccccccccccccccss" />
          <path
             id="path23537"
             style="fill:#b9853d;fill-opacity:1;stroke:#000000;stroke-width:0.995664;stroke-miterlimit:4;stroke-dasharray:none;stop-color:#000000"
             d="m 274.02318,-47.690934 c -2.34262,0.07408 -4.73144,0.755527 -7.1693,2.04621 a 15.744378,8.6366432 0 0 0 10.32397,2.139124 15.744378,8.6366432 0 0 0 7.04614,-0.913989 c -3.31383,-2.190888 -6.70681,-3.381834 -10.20081,-3.271345 z" />
          <path
             id="path28638"
             style="fill:none;fill-opacity:1;stroke:#000000;stroke-width:3.42951;stroke-linecap:butt;stroke-linejoin:miter;stroke-miterlimit:4;stroke-dasharray:none;stroke-opacity:1"
             d="m 274.67784,-47.697416 c -0.21759,-0.0032 -0.43632,-4.24e-4 -0.6547,0.0065 -0.78178,0.02472 -1.5695,0.118657 -2.36168,0.278734 -0.0907,0.01774 -0.18137,0.03669 -0.27224,0.05618 -0.67765,0.149982 -1.35868,0.351852 -2.04406,0.600682 -0.25636,0.09138 -0.51391,0.192621 -0.77138,0.298182 -0.56226,0.23348 -1.12648,0.499959 -1.69402,0.79947 -0.009,0.0045 -0.0173,0.0084 -0.0259,0.01296 -0.14822,0.07847 -0.29436,0.124175 -0.44295,0.207431 -0.50639,3.640668 -0.8248,5.984122 -1.28284,9.599876 -0.43581,-0.0048 -1.24057,0.20147 -1.69401,0.19242 l -0.77384,11.194513 2.08786,0.877497 c -1.35294,11.723656 -4.30232,33.779141 -4.30232,33.779141 l -0.7788,0.03664 0.0671,11.326582 0.65361,0.283083 c -0.7473,10.538629 -2.20723,20.796453 -2.6606,31.482345 l -1.5638,-0.08014 -0.72803,13.883601 1.93304,0.183208 c -0.43285,12.838451 -0.65805,24.011626 -0.81831,36.709641 -0.63241,0.0116 -1.4499,0.10282 -2.07545,0.10562 l -0.12503,12.67739 c 0.59462,-0.036 1.29016,0.058 1.88801,0.028 -0.27031,32.64328 0.0379,64.25595 -0.14608,96.85487 -0.007,1.20684 -6e-5,2.40737 -0.009,3.61491 l 17.17564,-0.0238 c -0.2418,-21.45712 -0.34955,-42.9394 -0.17718,-64.47401 0.12481,-13.46392 0.24991,-24.97202 0.55262,-36.902 1.98906,-0.0478 4.02477,0.0466 6.02681,-0.0388 -0.47341,8.49952 -0.79536,15.97871 -1.15816,24.51011 3.96472,0.26779 7.95605,0.4903 11.95532,0.69792 16.142,0.85931 32.50201,1.34117 48.86059,1.82366 2.49298,-59.272232 4.08022,-119.102761 10.19649,-176.134074 -9.26236,-0.697085 -18.43294,-1.427528 -28.36822,-1.875514 -0.69592,-0.03196 -1.36344,-0.07489 -2.06782,-0.103715 -0.74268,-0.02977 -1.50728,-0.05178 -2.26013,-0.07779 -3.31842,-0.117187 -6.70961,-0.207538 -10.27427,-0.233359 -5.35647,-0.0388 -11.02225,0.03687 -17.11298,0.270092 -0.0351,0.70907 -0.65405,0.406062 -0.68993,1.115196 -1.77798,-0.231309 -2.18461,-0.616157 -3.68223,-0.778406 0.42281,-3.168396 0.54967,-5.038844 1.00141,-8.212652 -0.69408,-0.54187 -1.39226,-1.028137 -2.09373,-1.475778 -0.26272,-0.169218 -0.52711,-0.317088 -0.79084,-0.4732 -0.2801,-0.166293 -0.56141,-0.328162 -0.84268,-0.479682 -0.082,-0.0433 -0.16428,-0.08547 -0.24632,-0.127484 -0.12141,-0.06343 -0.24138,-0.129526 -0.36301,-0.190144 -0.006,-0.0032 -0.0131,-0.0055 -0.0195,-0.0086 -0.24072,-0.118862 -0.48223,-0.231688 -0.72383,-0.339235 -0.60546,-0.271894 -1.21251,-0.509538 -1.82366,-0.70872 -0.14815,-0.04764 -0.29662,-0.09288 -0.44511,-0.136126 -0.71128,-0.210248 -1.42619,-0.371555 -2.14561,-0.477521 -0.0562,-0.0081 -0.11232,-0.01416 -0.16854,-0.02161 -0.57103,-0.07739 -1.14355,-0.12552 -1.71994,-0.133965 z m 8.77041,24.976561 c 2.04648,0.161901 3.81969,0.234788 5.24127,0.431217 -0.66659,12.008735 -1.90211,22.45076017 -2.7081,34.48421 l -6.31965,-0.934911 c 0.56648,-5.2882514 1.36318,-13.9174003 2.19834,-21.347413 0.52821,-4.628959 1.09753,-8.677433 1.58814,-12.633103 z m -5.00912,45.8732 7.02639,-0.132557 c -0.80987,11.816622 -1.60161,21.711042 -2.42767,33.560702 -2.43295,-0.302788 -4.40884,-0.178684 -6.71657,-0.841082 0.34188,-5.900406 0.62628,-11.444097 1.0013,-16.599287 4e-5,-7.15e-4 -6e-5,-0.0014 0,-0.0022 0.29274,-6.171104 0.92271,-10.61685 1.11655,-15.985576 z m 4.29687,44.525714 c -0.90203,13.117193 -1.89065,24.182824 -2.67048,37.346531 -1.95836,-0.41258 -3.93393,-0.72911 -6.1481,-0.8441 0.449,-13.813313 1.02973,-24.266636 1.69157,-36.499766 z"
             sodipodi:nodetypes="ccccccccccccccccccccccccccccccccccccccsccccccccccccccccccccccccccccccccccc" />
        </g>
      </g>
    </g>
  </g>
</svg>
