<?xml version="1.0" encoding="UTF-8" standalone="no"?>
<svg
   width="192"
   height="128"
   viewBox="0 0 192 128"
   version="1.1"
   id="SVGRoot"
   sodipodi:docname="106_107_108_122_123_125_gold.svg"
   inkscape:version="1.3 (0e150ed6c4, 2023-07-21)"
   xml:space="preserve"
   xmlns:inkscape="http://www.inkscape.org/namespaces/inkscape"
   xmlns:sodipodi="http://sodipodi.sourceforge.net/DTD/sodipodi-0.dtd"
   xmlns="http://www.w3.org/2000/svg"
   xmlns:svg="http://www.w3.org/2000/svg"><defs
     id="defs823"><filter
       inkscape:collect="always"
       style="color-interpolation-filters:sRGB"
       id="filter1"
       x="-0.19103031"
       y="-0.18964253"
       width="1.3820606"
       height="1.3792851"><feGaussianBlur
         inkscape:collect="always"
         stdDeviation="0.91529649"
         id="feGaussianBlur1" /></filter></defs><sodipodi:namedview
     id="base"
     pagecolor="#8e8e8e"
     bordercolor="#666666"
     borderopacity="1.0"
     inkscape:pageopacity="0"
     inkscape:pageshadow="2"
     inkscape:zoom="8.0000005"
     inkscape:cx="118.43749"
     inkscape:cy="70.749996"
     inkscape:document-units="px"
     inkscape:current-layer="g976"
     showgrid="true"
     inkscape:window-width="3840"
     inkscape:window-height="2092"
     inkscape:window-x="1920"
     inkscape:window-y="32"
     inkscape:window-maximized="1"
     inkscape:pagecheckerboard="true"
     inkscape:blackoutopacity="0.0"
     inkscape:deskcolor="#aaaaaa"
     inkscape:deskopacity="0"
     inkscape:showpageshadow="2"
     showguides="true"><inkscape:grid
       type="xygrid"
       id="grid535"
       spacingx="64"
       spacingy="64"
       originx="-192"
       originy="0"
       units="px"
       visible="true" /><sodipodi:guide
       position="32,0.0"
       orientation="1,0"
       id="guide2"
       inkscape:locked="false" /><sodipodi:guide
       position="0.0,32.0"
       orientation="0,-1"
       id="guide1"
       inkscape:locked="false" /></sodipodi:namedview><g
     inkscape:label="Layer 1"
     inkscape:groupmode="layer"
     id="layer1"
     transform="translate(-192)"><g
       id="g976"
       transform="matrix(0.90391899,0,0,0.90391899,-21.892025,52.923194)"><g
         id="g63365"
         style="fill:none;fill-opacity:1;stroke:#843636;stroke-opacity:1"><g
           id="g63355"
           style="fill:none;fill-opacity:1;stroke:#843636;stroke-opacity:1" /></g><g
         id="g2323" /><rect
         style="fill:#574e38;fill-opacity:1;stroke:none;stroke-width:0.270986;stroke-dasharray:none;stroke-opacity:1"
         id="rect344"
         width="212.40842"
         height="141.60556"
         x="236.62743"
         y="-58.548553"
         ry="7.1685643" /><rect
         style="fill:#ffffff;fill-opacity:1;stroke:none;stroke-width:0.208397;stroke-dasharray:none;stroke-opacity:1"
         id="rect2-3"
         width="202.3058"
         height="132.45624"
         x="242.03587"
         y="-54.537964"
         ry="7.0584426" /><rect
         style="fill:#9d8d66;fill-opacity:1;stroke:none;stroke-width:0.221259;stroke-dasharray:none;stroke-opacity:1"
         id="rect3-6"
         width="192.79939"
         height="124.79408"
         x="246.4825"
         y="-50.317352"
         ry="7.0584426" /><rect
         style="mix-blend-mode:normal;fill:#0a0a0b;fill-opacity:1;stroke-width:0.0452843;filter:url(#filter1)"
         id="rect3-3"
         width="11.499283"
         height="11.583433"
         x="254.41432"
         y="-45.197151"
         ry="0" /><rect
         style="fill:#d6d7d9;fill-opacity:1;stroke-width:0.0452843"
         id="rect1-7"
         width="11.499282"
         height="11.583432"
         x="254.41432"
         y="-45.197147"
         ry="0" /><rect
         style="fill:#7d7e86;fill-opacity:1;stroke-width:0.0401022"
         id="rect2-6"
         width="10.044815"
         height="10.399343"
         x="255.14157"
         y="-44.605103"
         ry="0" /><path
         id="path2"
         style="fill:#626369;fill-opacity:1;stroke-width:0.0431455"
         d="m 265.18684,-41.334998 c -0.44811,0.311442 -0.88625,0.583316 -1.26836,0.756256 -1.46592,0.663478 -3.50521,-0.06354 -4.72552,0.985292 -1.20089,1.032157 -0.34022,3.575219 -1.65943,4.451104 -0.5643,0.374656 -1.48481,0.418308 -2.39193,0.334914 v 0.600682 h 10.04524 z" /><path
         id="rect12"
         style="fill:#7b6e4f;fill-opacity:0.99607843;stroke:none;stroke-width:0.221259;stroke-dasharray:none;stroke-opacity:1"
         d="m 424.14597,-50.315713 c -0.2007,0.628602 -0.42579,1.24167 -0.69575,1.823657 -3.11236,6.709606 -14.22521,11.306273 -16.79752,18.240884 -3.19895,8.623967 8.97554,19.075275 4.38844,27.0480193 -6.89989,11.992624 -28.67047,3.15296004 -38.55606,12.8649867 -9.48024,9.313797 1.45705,33.817135 -7.28815,39.009822 -14.04367,8.3388 -20.32935,-16.286234 -60.94987,-14.129014 -30.22931,1.605376 -35.97821,24.109784 -46.8684,27.201434 -2.80824,0.79723 -6.67849,1.24771 -10.89656,1.49522 v 4.17885 c 0,3.91038 3.14873,7.059115 7.0591,7.059115 h 178.68158 c 3.91038,0 7.05911,-3.148735 7.05911,-7.059115 V -43.258768 c 0,-3.910373 -3.14873,-7.056945 -7.05911,-7.056945 z m 2.12616,45.4963343 a 3.7280667,3.7280667 0 0 1 3.72942,3.72942 3.7280667,3.7280667 0 0 1 -3.72942,3.72726 3.7280667,3.7280667 0 0 1 -3.72726,-3.72726 3.7280667,3.7280667 0 0 1 3.72726,-3.72942 z M 381.51909,48.29785 a 1.8154824,1.8154824 0 0 1 1.81501,1.815013 1.8154824,1.8154824 0 0 1 -1.81501,1.815013 1.8154824,1.8154824 0 0 1 -1.81718,-1.815013 1.8154824,1.8154824 0 0 1 1.81718,-1.815013 z m -75.24743,10.339096 a 4.7955384,4.7955384 0 0 1 4.79466,4.79466 4.7955384,4.7955384 0 0 1 -4.79466,4.79682 4.7955384,4.7955384 0 0 1 -4.79682,-4.79682 4.7955384,4.7955384 0 0 1 4.79682,-4.79466 z" /><rect
         style="mix-blend-mode:normal;fill:#0a0a0b;fill-opacity:1;stroke-width:0.0452843;filter:url(#filter1)"
         id="rect5"
         width="11.499283"
         height="11.583433"
         x="421.24631"
         y="-44.429111"
         ry="0" /><rect
         style="fill:#d6d7d9;fill-opacity:1;stroke-width:0.0452843"
         id="rect7"
         width="11.499282"
         height="11.583432"
         x="421.24631"
         y="-44.429108"
         ry="0" /><rect
         style="fill:#9d8d66;fill-opacity:1;stroke-width:0.0401022"
         id="rect8"
         width="10.044815"
         height="10.399343"
         x="421.97354"
         y="-43.837063"
         ry="0" /><path
         id="path8"
         style="fill:#7b6e4f;fill-opacity:0.99607843;stroke-width:0.0431455"
         d="m 432.01882,-40.566958 c -0.44811,0.311442 -0.88625,0.583316 -1.26836,0.756256 -1.46592,0.663478 -3.50521,-0.06354 -4.72552,0.985292 -1.20089,1.032157 -0.34022,3.575219 -1.65943,4.451104 -0.5643,0.374656 -1.48481,0.418308 -2.39193,0.334914 v 0.600682 h 10.04524 z" /><rect
         style="mix-blend-mode:normal;fill:#0a0a0b;fill-opacity:1;stroke-width:0.0452843;filter:url(#filter1)"
         id="rect12-5"
         width="11.499283"
         height="11.583433"
         x="253.99944"
         y="57.024441"
         ry="0" /><rect
         style="fill:#d6d7d9;fill-opacity:1;stroke-width:0.0452843"
         id="rect13-6"
         width="11.499282"
         height="11.583432"
         x="253.99944"
         y="57.024441"
         ry="0" /><rect
         style="fill:#9d8d66;fill-opacity:1;stroke-width:0.0401022"
         id="rect14-2"
         width="10.044815"
         height="10.399343"
         x="254.72668"
         y="57.616486"
         ry="0" /><path
         id="path14"
         style="fill:#7b6e4f;fill-opacity:0.99607843;stroke-width:0.0431455"
         d="m 264.77196,60.886591 c -0.44811,0.311442 -0.88626,0.583316 -1.26836,0.756256 -1.46593,0.663478 -3.50521,-0.06354 -4.72552,0.985292 -1.2009,1.032157 -0.34022,3.575219 -1.65943,4.451104 -0.5643,0.374656 -1.48481,0.418308 -2.39193,0.334914 v 0.600682 h 10.04524 z" /><path
         id="path15"
         style="fill:#6f6447;fill-opacity:1;stroke:none;stroke-width:0.232322;stroke-opacity:1"
         d="m 439.27972,-0.348823 c -2.33059,2.403474 -4.37335,4.681386 -5.62438,6.4541 -6.25966,8.870005 2.92117,25.301995 -5.94417,31.568268 -6.66703,4.712448 -15.83308,-6.504561 -26.92485,-2.84136 -6.72918,2.222393 -0.11872,23.460226 -21.36963,31.438626 -3.88252,1.45765 -7.21014,2.84307 -10.2505,3.16331 -25.96748,2.73517 -21.61243,-9.94349 -40.4964,-6.08246 -4.47321,0.9146 -8.24808,5.3419 -11.39137,11.1256 h 114.94436 c 3.91037,0 7.05694,-3.14873 7.05694,-7.05911 z" /><rect
         style="fill:#574e38;fill-opacity:1;stroke-width:0.221259"
         id="rect1-3"
         width="35.401402"
         height="35.401402"
         x="236.62743"
         y="-23.147152"
         ry="6.705132" /><rect
         style="fill:#ffffff;fill-opacity:1;stroke-width:0.221259"
         id="rect3-67"
         width="27.374458"
         height="27.158798"
         x="241.13106"
         y="-18.838669"
         ry="1.7709141" /><path
         id="rect4"
         style="fill:#9d8d66;fill-opacity:1;stroke-width:0.241671"
         d="m 246.89738,-15.68399 c -1.74865,0 -3.15682,1.40817 -3.15682,3.156827 v 7.7959146 1.0177039 7.0569446 c 0,1.1519499 0.92883,2.0786224 2.08078,2.0786224 h 17.42413 c 1.15195,0 2.08078,-0.9266725 2.08078,-2.0786224 V -13.605367 c 0,-1.15195 -0.92883,-2.078623 -2.08078,-2.078623 h -5.41479 -2.48052 z" /><rect
         style="fill:#574e38;fill-opacity:1;stroke-width:0.221259"
         id="rect6"
         width="35.401402"
         height="35.401402"
         x="236.62743"
         y="-58.548553"
         ry="6.705132" /><rect
         style="fill:#ffffff;fill-opacity:1;stroke-width:0.221259"
         id="rect7-3"
         width="27.374458"
         height="27.158798"
         x="241.13106"
         y="-54.24007"
         ry="1.7709141" /><path
         id="path7"
         style="fill:#9d8d66;fill-opacity:1;stroke-width:0.241671"
         d="m 246.89738,-51.085391 c -1.74865,0 -3.15682,1.40817 -3.15682,3.156827 v 7.795915 1.017703 7.056945 c 0,1.15195 0.92883,2.078622 2.08078,2.078622 h 17.42413 c 1.15195,0 2.08078,-0.926672 2.08078,-2.078622 v -16.948767 c 0,-1.15195 -0.92883,-2.078623 -2.08078,-2.078623 h -5.41479 -2.48052 z" /><rect
         style="fill:#574e38;fill-opacity:1;stroke-width:0.221259"
         id="rect8-5"
         width="35.401402"
         height="35.401402"
         x="272.02884"
         y="-58.548553"
         ry="6.705132" /><rect
         style="fill:#ffffff;fill-opacity:1;stroke-width:0.221259"
         id="rect9"
         width="27.374458"
         height="27.158798"
         x="276.53247"
         y="-54.24007"
         ry="1.7709141" /><path
         id="path9"
         style="fill:#9d8d66;fill-opacity:1;stroke-width:0.241671"
         d="m 282.29878,-51.085391 c -1.74865,0 -3.15682,1.40817 -3.15682,3.156827 v 7.795915 1.017703 7.056945 c 0,1.15195 0.92883,2.078622 2.08078,2.078622 h 17.42413 c 1.15195,0 2.08078,-0.926672 2.08078,-2.078622 v -16.948767 c 0,-1.15195 -0.92883,-2.078623 -2.08078,-2.078623 h -5.41479 -2.48052 z" /><rect
         style="fill:#574e38;fill-opacity:1;stroke-width:0.221259"
         id="rect10"
         width="35.401402"
         height="35.401402"
         x="272.02884"
         y="-23.147152"
         ry="6.705132" /><rect
         style="fill:#ffffff;fill-opacity:1;stroke-width:0.221259"
         id="rect11"
         width="27.374458"
         height="27.158798"
         x="276.53247"
         y="-18.838669"
         ry="1.7709141" /><path
         id="path11"
         style="fill:#9d8d66;fill-opacity:1;stroke-width:0.241671"
         d="m 282.29878,-15.68399 c -1.74865,0 -3.15682,1.40817 -3.15682,3.156827 v 7.7959146 1.0177039 7.0569446 c 0,1.1519499 0.92883,2.0786224 2.08078,2.0786224 h 17.42413 c 1.15195,0 2.08078,-0.9266725 2.08078,-2.0786224 V -13.605367 c 0,-1.15195 -0.92883,-2.078623 -2.08078,-2.078623 h -5.41479 -2.48052 z" /><circle
         style="fill:#7b6e4f;fill-opacity:0.99607843;stroke:none;stroke-width:0.232322;stroke-opacity:1"
         id="path13"
         cx="277.70621"
         cy="24.255993"
         r="6.1466618" /><circle
         style="fill:#7b6e4f;fill-opacity:0.99607843;stroke:none;stroke-width:0.180669;stroke-opacity:1"
         id="circle13"
         cx="364.94958"
         cy="-22.195438"
         r="4.7800584" /><circle
         style="fill:#7b6e4f;fill-opacity:0.99607843;stroke:none;stroke-width:0.0513429;stroke-opacity:1"
         id="circle14"
         cx="394.974"
         cy="-5.2752414"
         r="1.3584068" /><rect
         style="fill:#574e38;fill-opacity:1;stroke-width:0.221259"
         id="rect17"
         width="35.401402"
         height="35.401402"
         x="307.43024"
         y="-58.548553"
         ry="6.705132" /><rect
         style="fill:#ffffff;fill-opacity:1;stroke-width:0.221259"
         id="rect18"
         width="27.374458"
         height="27.158798"
         x="311.93387"
         y="-54.24007"
         ry="1.7709141" /><path
         id="path18"
         style="fill:#9d8d66;fill-opacity:1;stroke-width:0.241671"
         d="m 317.7002,-51.085391 c -1.74865,0 -3.15682,1.40817 -3.15682,3.156827 v 7.795915 1.017703 7.056945 c 0,1.15195 0.92883,2.078622 2.08078,2.078622 h 17.42413 c 1.15195,0 2.08078,-0.926672 2.08078,-2.078622 v -16.948767 c 0,-1.15195 -0.92883,-2.078623 -2.08078,-2.078623 h -5.41479 -2.48052 z" /><rect
         style="fill:#574e38;fill-opacity:1;stroke-width:0.221259"
         id="rect27"
         width="35.401402"
         height="35.401402"
         x="307.43024"
         y="12.254201"
         ry="6.705132" /><rect
         style="fill:#ffffff;fill-opacity:1;stroke-width:0.221259"
         id="rect28"
         width="27.374458"
         height="27.158798"
         x="311.93387"
         y="16.562685"
         ry="1.7709141" /><path
         id="path28"
         style="fill:#9d8d66;fill-opacity:1;stroke-width:0.241671"
         d="m 317.7002,19.717365 c -1.74865,0 -3.15682,1.40817 -3.15682,3.156827 v 7.795915 1.017703 7.056945 c 0,1.15195 0.92883,2.078622 2.08078,2.078622 h 17.42413 c 1.15195,0 2.08078,-0.926672 2.08078,-2.078622 V 21.795988 c 0,-1.15195 -0.92883,-2.078623 -2.08078,-2.078623 h -5.41479 -2.48052 z" /><ellipse
         style="fill:#574e38;fill-opacity:1;stroke:none;stroke-width:0.232322;stroke-opacity:1"
         id="path29"
         cx="242.45247"
         cy="-23.358196"
         rx="2.512794"
         ry="1.921754" /><ellipse
         style="fill:#574e38;fill-opacity:1;stroke:none;stroke-width:0.232322;stroke-opacity:1"
         id="path30"
         cx="272.12521"
         cy="-53.743324"
         rx="1.8753933"
         ry="2.6579328" /><ellipse
         style="fill:#574e38;fill-opacity:1;stroke:none;stroke-width:0.232322;stroke-opacity:1"
         id="path31"
         cx="307.72983"
         cy="-53.743324"
         rx="1.5904998"
         ry="2.657933" /></g></g></svg>
