<?xml version="1.0" encoding="UTF-8" standalone="no"?>
<svg
   width="128"
   height="128"
   viewBox="0 0 128 128"
   version="1.1"
   id="SVGRoot"
   sodipodi:docname="10_11_26_27_gold.svg"
   inkscape:version="1.3 (0e150ed6c4, 2023-07-21)"
   xml:space="preserve"
   xmlns:inkscape="http://www.inkscape.org/namespaces/inkscape"
   xmlns:sodipodi="http://sodipodi.sourceforge.net/DTD/sodipodi-0.dtd"
   xmlns="http://www.w3.org/2000/svg"
   xmlns:svg="http://www.w3.org/2000/svg"><defs
     id="defs823" /><sodipodi:namedview
     id="base"
     pagecolor="#8e8e8e"
     bordercolor="#666666"
     borderopacity="1.0"
     inkscape:pageopacity="0"
     inkscape:pageshadow="2"
     inkscape:zoom="8"
     inkscape:cx="70.4375"
     inkscape:cy="54"
     inkscape:document-units="px"
     inkscape:current-layer="g976"
     showgrid="true"
     inkscape:window-width="3840"
     inkscape:window-height="2092"
     inkscape:window-x="1920"
     inkscape:window-y="32"
     inkscape:window-maximized="1"
     inkscape:pagecheckerboard="true"
     inkscape:blackoutopacity="0.0"
     inkscape:deskcolor="#aaaaaa"
     inkscape:deskopacity="0"
     inkscape:showpageshadow="2"
     showguides="true"><inkscape:grid
       type="xygrid"
       id="grid535"
       spacingx="64"
       spacingy="64"
       originx="-192"
       originy="0"
       units="px"
       visible="true" /></sodipodi:namedview><g
     inkscape:label="Layer 1"
     inkscape:groupmode="layer"
     id="layer1"
     transform="translate(-192)"><g
       id="g976"
       transform="matrix(0.90391899,0,0,0.90391899,-21.892025,52.923194)"><g
         id="g63365"
         style="fill:none;fill-opacity:1;stroke:#843636;stroke-opacity:1"><g
           id="g63355"
           style="fill:none;fill-opacity:1;stroke:#843636;stroke-opacity:1" /></g><g
         id="g2323" /><rect
         style="fill:#574e38;fill-opacity:1;stroke:none;stroke-width:0.221259;stroke-dasharray:none;stroke-opacity:1"
         id="rect344"
         width="141.60562"
         height="141.60556"
         x="236.62741"
         y="-58.548538"
         ry="10.610566" /><rect
         style="fill:#ffffff;fill-opacity:1;stroke:none;stroke-width:0.208397;stroke-dasharray:none;stroke-opacity:1"
         id="rect2"
         width="133.16328"
         height="133.5843"
         x="242.03586"
         y="-54.537949"
         ry="7.0584426" /><rect
         style="fill:#9d8d66;fill-opacity:1;stroke:none;stroke-width:0.221259;stroke-dasharray:none;stroke-opacity:1"
         id="rect3"
         width="125.06808"
         height="124.79301"
         x="246.48248"
         y="-50.317337"
         ry="7.0584426" /><path
         id="rect4"
         style="fill:#7b6e4f;fill-opacity:1;stroke:none;stroke-width:0.221259;stroke-dasharray:none;stroke-opacity:1"
         d="m 354.10849,-50.318382 c -0.12959,1.379504 -0.33647,2.693446 -0.7044,3.852582 -2.30261,7.254184 -13.84374,9.125525 -15.74524,16.495014 -1.7584,6.814794 8.84864,12.932353 5.57252,19.161355 -5.88103,11.18184106 -30.81264,-0.596994 -36.30243,10.78204304 -5.28775,10.96028896 17.86819,25.98289796 12.15195,36.72592996 -2.23453,4.199523 -10.32288,3.514605 -15.07974,3.476615 -9.93015,-0.0793 -17.92387,-11.115652 -27.04586,-7.19091 -8.5232,3.667119 -5.79211,18.748395 -12.96654,24.632324 -4.32,3.542956 -10.61779,5.703452 -17.50623,7.007247 v 2.793824 c 0,3.910371 3.14874,7.059106 7.0591,7.059106 h 110.95133 c 3.91038,0 7.05695,-3.148735 7.05695,-7.059106 V -43.259276 c 0,-3.910371 -3.14657,-7.059106 -7.05695,-7.059106 z m -19.40552,61.557041 a 5.6684127,5.6684127 0 0 1 5.66975,5.667595 5.6684127,5.6684127 0 0 1 -5.66975,5.669756 5.6684127,5.6684127 0 0 1 -5.6676,-5.669756 5.6684127,5.6684127 0 0 1 5.6676,-5.667595 z" /><ellipse
         style="fill:#7b6e4f;fill-opacity:1;stroke:none;stroke-width:0.240708;stroke-dasharray:none;stroke-opacity:1"
         id="path4"
         cx="298.52859"
         cy="24.631512"
         rx="5.6808634"
         ry="5.8442764" /><ellipse
         style="fill:#7b6e4f;fill-opacity:1;stroke:none;stroke-width:0.240708;stroke-dasharray:none;stroke-opacity:1"
         id="ellipse4"
         cx="292.72739"
         cy="-15.173819"
         rx="5.6808634"
         ry="5.8442764" /><ellipse
         style="fill:#7b6e4f;fill-opacity:1;stroke:none;stroke-width:0.0596588;stroke-dasharray:none;stroke-opacity:1"
         id="ellipse5"
         cx="321.12869"
         cy="-39.117939"
         rx="1.3949744"
         ry="1.461996" /><ellipse
         style="fill:#7b6e4f;fill-opacity:1;stroke:none;stroke-width:0.0438807;stroke-dasharray:none;stroke-opacity:1"
         id="ellipse6"
         cx="258.83716"
         cy="18.999056"
         rx="1.0281421"
         ry="1.073141" /><path
         id="rect6"
         style="fill:#6f6447;fill-opacity:1;stroke:none;stroke-width:0.221259;stroke-dasharray:none;stroke-opacity:1"
         d="M 371.5499 -1.323826 C 368.40604 2.3101965 365.65461 5.9539213 364.11483 9.0692859 C 359.80311 17.792959 365.70509 29.829824 360.47184 38.033873 C 357.10427 43.313121 348.5132 43.539568 344.18641 48.066143 C 339.5651 52.900845 340.46526 62.134063 334.67272 65.477307 C 327.15627 69.815525 314.4486 61.466611 306.85332 65.66529 C 303.66031 67.430386 299.97725 70.893715 296.64603 74.476748 L 364.49295 74.476748 C 368.40333 74.476748 371.5499 71.328016 371.5499 67.417642 L 371.5499 -1.323826 z " /></g></g></svg>
