<?xml version="1.0" encoding="UTF-8" standalone="no"?>
<svg
   width="128"
   height="128"
   viewBox="0 0 128 128"
   version="1.1"
   id="SVGRoot"
   sodipodi:docname="12_13_28_29_gold.svg"
   inkscape:version="1.3 (0e150ed6c4, 2023-07-21)"
   xml:space="preserve"
   xmlns:inkscape="http://www.inkscape.org/namespaces/inkscape"
   xmlns:sodipodi="http://sodipodi.sourceforge.net/DTD/sodipodi-0.dtd"
   xmlns="http://www.w3.org/2000/svg"
   xmlns:svg="http://www.w3.org/2000/svg"><defs
     id="defs823"><filter
       inkscape:collect="always"
       style="color-interpolation-filters:sRGB"
       id="filter1"
       x="-0.19103031"
       y="-0.18964253"
       width="1.3820606"
       height="1.3792851"><feGaussianBlur
         inkscape:collect="always"
         stdDeviation="0.91529649"
         id="feGaussianBlur1" /></filter></defs><sodipodi:namedview
     id="base"
     pagecolor="#8e8e8e"
     bordercolor="#666666"
     borderopacity="1.0"
     inkscape:pageopacity="0"
     inkscape:pageshadow="2"
     inkscape:zoom="8"
     inkscape:cx="75.1875"
     inkscape:cy="64.625"
     inkscape:document-units="px"
     inkscape:current-layer="g976"
     showgrid="true"
     inkscape:window-width="3840"
     inkscape:window-height="2092"
     inkscape:window-x="1920"
     inkscape:window-y="32"
     inkscape:window-maximized="1"
     inkscape:pagecheckerboard="true"
     inkscape:blackoutopacity="0.0"
     inkscape:deskcolor="#aaaaaa"
     inkscape:deskopacity="0"
     inkscape:showpageshadow="2"
     showguides="true"><inkscape:grid
       type="xygrid"
       id="grid535"
       spacingx="64"
       spacingy="64"
       originx="-192"
       originy="0"
       units="px"
       visible="true" /></sodipodi:namedview><g
     inkscape:label="Layer 1"
     inkscape:groupmode="layer"
     id="layer1"
     transform="translate(-192)"><g
       id="g976"
       transform="matrix(0.90391899,0,0,0.90391899,-21.892025,52.923194)"><g
         id="g63365"
         style="fill:none;fill-opacity:1;stroke:#843636;stroke-opacity:1"><g
           id="g63355"
           style="fill:none;fill-opacity:1;stroke:#843636;stroke-opacity:1" /></g><g
         id="g2323" /><rect
         style="fill:#574e38;fill-opacity:1;stroke:none;stroke-width:0.221259;stroke-dasharray:none;stroke-opacity:1"
         id="rect344"
         width="141.60562"
         height="141.60556"
         x="236.62743"
         y="-58.548538"
         ry="10.610566" /><rect
         style="fill:#ffffff;fill-opacity:1;stroke:none;stroke-width:0.208397;stroke-dasharray:none;stroke-opacity:1"
         id="rect2"
         width="133.16328"
         height="133.5843"
         x="242.03587"
         y="-54.537949"
         ry="7.0584426" /><rect
         style="fill:#9d8d66;fill-opacity:1;stroke:none;stroke-width:0.221259;stroke-dasharray:none;stroke-opacity:1"
         id="rect3"
         width="125.06808"
         height="124.79301"
         x="246.4825"
         y="-50.317337"
         ry="7.0584426" /><path
         id="rect4"
         style="fill:#7b6e4f;fill-opacity:1;stroke:none;stroke-width:0.221259;stroke-dasharray:none;stroke-opacity:1"
         d="m 354.10849,-50.318379 c -0.12959,1.3795 -0.33647,2.69345 -0.7044,3.85258 -2.30261,7.25417 -13.84376,9.12554 -15.74524,16.495017 -1.7584,6.81478 8.84864,12.93236 5.57252,19.161347 -5.88101,11.18181957 -30.81264,-0.59697 -36.30243,10.78204957 -5.28773,10.96026743 17.86817,25.98291643 12.15195,36.72592343 -2.23453,4.19952 -10.32288,3.51461 -15.07974,3.47662 -9.93013,-0.0793 -17.92387,-11.115647 -27.04586,-7.190909 -8.52318,3.667109 -5.79211,18.748399 -12.96654,24.632322 -4.31998,3.542948 -10.61781,5.703456 -17.50623,7.007247 v 2.793824 c 0,3.910365 3.14876,7.059106 7.0591,7.059106 h 110.95133 c 3.91038,0 7.05695,-3.148741 7.05695,-7.059106 V -43.259279 c 0,-3.91036 -3.14657,-7.0591 -7.05695,-7.0591 z m -13.0681,50.88303357 a 5.6808634,5.8442764 0 0 1 5.68056,5.84477003 5.6808634,5.8442764 0 0 1 -5.68056,5.8447764 5.6808634,5.8442764 0 0 1 -5.68272,-5.8447764 5.6808634,5.8442764 0 0 1 5.68272,-5.84477003 z" /><ellipse
         style="fill:#7b6e4f;fill-opacity:1;stroke:none;stroke-width:0.240708;stroke-dasharray:none;stroke-opacity:1"
         id="path4"
         cx="322.52368"
         cy="-19.114605"
         rx="5.6808634"
         ry="5.8442764" /><ellipse
         style="fill:#7b6e4f;fill-opacity:1;stroke:none;stroke-width:0.240708;stroke-dasharray:none;stroke-opacity:1"
         id="ellipse4"
         cx="280.06482"
         cy="6.4099255"
         rx="5.6808634"
         ry="5.8442764" /><ellipse
         style="fill:#7b6e4f;fill-opacity:1;stroke:none;stroke-width:0.0596588;stroke-dasharray:none;stroke-opacity:1"
         id="ellipse5"
         cx="302.83563"
         cy="-43.757431"
         rx="1.3949744"
         ry="1.461996" /><ellipse
         style="fill:#626369;fill-opacity:1;stroke:none;stroke-width:0.0438807;stroke-dasharray:none;stroke-opacity:1"
         id="ellipse6"
         cx="259.74908"
         cy="28.27751"
         rx="1.0281421"
         ry="1.073141" /><path
         id="rect6"
         style="fill:#6f6447;fill-opacity:1;stroke:none;stroke-width:0.221259;stroke-dasharray:none;stroke-opacity:1"
         d="m 371.5499,-1.3238254 c -3.14386,3.63402 -5.89529,7.27775 -7.43507,10.39311 -4.31172,8.7236764 1.59026,20.7605364 -3.64299,28.9645934 -3.36757,5.27924 -11.95864,5.50569 -16.28543,10.03227 -4.62131,4.8347 -3.72115,14.067915 -9.51369,17.411159 -7.51645,4.338218 -20.22412,-4.010696 -27.8194,0.187983 -3.19301,1.765096 -6.87607,5.228425 -10.20729,8.811458 h 67.84692 c 3.91038,0 7.05695,-3.148732 7.05695,-7.059106 z" /><rect
         style="mix-blend-mode:normal;fill:#0a0a0b;fill-opacity:1;stroke-width:0.0452843;filter:url(#filter1)"
         id="rect3-3"
         width="11.499283"
         height="11.583433"
         x="253.99944"
         y="-44.429092"
         ry="0" /><rect
         style="fill:#d6d7d9;fill-opacity:1;stroke-width:0.0452843"
         id="rect1"
         width="11.499282"
         height="11.583432"
         x="253.99944"
         y="-44.429092"
         ry="0" /><rect
         style="fill:#9d8d66;fill-opacity:1;stroke-width:0.0401022"
         id="rect2-6"
         width="10.044815"
         height="10.399343"
         x="254.7267"
         y="-43.837048"
         ry="0" /><path
         id="path2"
         style="fill:#7b6e4f;fill-opacity:1;stroke-width:0.0431455"
         d="m 264.77196,-40.566942 c -0.44811,0.311442 -0.88625,0.583316 -1.26836,0.756256 -1.46592,0.663478 -3.50521,-0.06354 -4.72552,0.985292 -1.20089,1.032157 -0.34022,3.575219 -1.65943,4.451104 -0.5643,0.374656 -1.48481,0.418308 -2.39193,0.334914 v 0.600682 h 10.04524 z" /><rect
         style="mix-blend-mode:normal;fill:#0a0a0b;fill-opacity:1;stroke-width:0.0452843;filter:url(#filter1)"
         id="rect5"
         width="11.499283"
         height="11.583433"
         x="353.30484"
         y="-44.429092"
         ry="0" /><rect
         style="fill:#d6d7d9;fill-opacity:1;stroke-width:0.0452843"
         id="rect7"
         width="11.499282"
         height="11.583432"
         x="353.30484"
         y="-44.429092"
         ry="0" /><rect
         style="fill:#9d8d66;fill-opacity:1;stroke-width:0.0401022"
         id="rect8"
         width="10.044815"
         height="10.399343"
         x="354.0321"
         y="-43.837048"
         ry="0" /><path
         id="path8"
         style="fill:#7b6e4f;fill-opacity:1;stroke-width:0.0431455"
         d="m 364.07737,-40.566942 c -0.44811,0.311442 -0.88625,0.583316 -1.26836,0.756256 -1.46592,0.663478 -3.50521,-0.06354 -4.72552,0.985292 -1.20089,1.032157 -0.34022,3.575219 -1.65943,4.451104 -0.5643,0.374656 -1.48481,0.418308 -2.39193,0.334914 v 0.600682 h 10.04524 z" /><rect
         style="mix-blend-mode:normal;fill:#0a0a0b;fill-opacity:1;stroke-width:0.0452843;filter:url(#filter1)"
         id="rect9"
         width="11.499283"
         height="11.583433"
         x="353.30511"
         y="57.024456"
         ry="0" /><rect
         style="fill:#d6d7d9;fill-opacity:1;stroke-width:0.0452843"
         id="rect10"
         width="11.499282"
         height="11.583432"
         x="353.30511"
         y="57.02446"
         ry="0" /><rect
         style="fill:#9d8d66;fill-opacity:1;stroke-width:0.0401022"
         id="rect11"
         width="10.044815"
         height="10.399343"
         x="354.03235"
         y="57.616501"
         ry="0" /><path
         id="path11"
         style="fill:#7b6e4f;fill-opacity:1;stroke-width:0.0431455"
         d="m 364.07762,60.886608 c -0.44811,0.311442 -0.88625,0.583316 -1.26836,0.756256 -1.46592,0.663478 -3.50521,-0.06354 -4.72552,0.985292 -1.20089,1.032157 -0.34022,3.575219 -1.65943,4.451104 -0.5643,0.374656 -1.48481,0.418308 -2.39193,0.334914 v 0.600682 h 10.04524 z" /><rect
         style="mix-blend-mode:normal;fill:#0a0a0b;fill-opacity:1;stroke-width:0.0452843;filter:url(#filter1)"
         id="rect12"
         width="11.499283"
         height="11.583433"
         x="253.99944"
         y="57.024456"
         ry="0" /><rect
         style="fill:#d6d7d9;fill-opacity:1;stroke-width:0.0452843"
         id="rect13"
         width="11.499282"
         height="11.583432"
         x="253.99944"
         y="57.02446"
         ry="0" /><rect
         style="fill:#9d8d66;fill-opacity:1;stroke-width:0.0401022"
         id="rect14"
         width="10.044815"
         height="10.399343"
         x="254.7267"
         y="57.616501"
         ry="0" /><path
         id="path14"
         style="fill:#7b6e4f;fill-opacity:1;stroke-width:0.0431455"
         d="m 264.77196,60.886608 c -0.44811,0.311442 -0.88625,0.583316 -1.26836,0.756256 -1.46592,0.663478 -3.50521,-0.06354 -4.72552,0.985292 -1.20089,1.032157 -0.34022,3.575219 -1.65943,4.451104 -0.5643,0.374656 -1.48481,0.418308 -2.39193,0.334914 v 0.600682 h 10.04524 z" /></g></g></svg>
