<?xml version="1.0" encoding="UTF-8" standalone="no"?>
<svg
   width="64"
   height="64"
   viewBox="0 0 64 64"
   version="1.1"
   id="SVGRoot"
   sodipodi:docname="162_bronze.svg"
   inkscape:version="1.3 (0e150ed6c4, 2023-07-21)"
   xml:space="preserve"
   xmlns:inkscape="http://www.inkscape.org/namespaces/inkscape"
   xmlns:sodipodi="http://sodipodi.sourceforge.net/DTD/sodipodi-0.dtd"
   xmlns="http://www.w3.org/2000/svg"
   xmlns:svg="http://www.w3.org/2000/svg"><defs
     id="defs823" /><sodipodi:namedview
     id="base"
     pagecolor="#8e8e8e"
     bordercolor="#666666"
     borderopacity="1.0"
     inkscape:pageopacity="0"
     inkscape:pageshadow="2"
     inkscape:zoom="16"
     inkscape:cx="25.46875"
     inkscape:cy="46.3125"
     inkscape:document-units="px"
     inkscape:current-layer="g976"
     showgrid="true"
     inkscape:window-width="3840"
     inkscape:window-height="2092"
     inkscape:window-x="1920"
     inkscape:window-y="32"
     inkscape:window-maximized="1"
     inkscape:pagecheckerboard="true"
     inkscape:blackoutopacity="0.0"
     inkscape:deskcolor="#aaaaaa"
     inkscape:deskopacity="0"
     inkscape:showpageshadow="2"
     showguides="true"><inkscape:grid
       type="xygrid"
       id="grid535"
       spacingx="64"
       spacingy="64"
       originx="-192"
       originy="0"
       units="px"
       visible="true" /><sodipodi:guide
       position="32,0.0"
       orientation="1,0"
       id="guide2"
       inkscape:locked="false" /><sodipodi:guide
       position="0.0,32.0"
       orientation="0,-1"
       id="guide1"
       inkscape:locked="false" /></sodipodi:namedview><g
     inkscape:label="Layer 1"
     inkscape:groupmode="layer"
     id="layer1"
     transform="translate(-192)"><g
       id="g976"
       transform="matrix(0.90391899,0,0,0.90391899,-21.892025,52.923194)"><g
         id="g63365"
         style="fill:none;fill-opacity:1;stroke:#843636;stroke-opacity:1"><g
           id="g63355"
           style="fill:none;fill-opacity:1;stroke:#843636;stroke-opacity:1" /></g><g
         id="g2323" /><rect
         style="fill:#5d4131;fill-opacity:1;stroke-width:0.221259"
         id="rect1"
         width="35.401402"
         height="35.401402"
         x="236.62743"
         y="-23.147202"
         ry="6.705132" /><rect
         style="fill:#ffffff;fill-opacity:1;stroke-width:0.221259"
         id="rect3"
         width="27.374458"
         height="27.158798"
         x="241.13106"
         y="-18.838718"
         ry="1.7709141" /><path
         id="rect4"
         style="fill:#a8765a;fill-opacity:1;stroke-width:0.241671"
         d="m 246.89738,-15.684039 c -1.74865,0 -3.15682,1.40817 -3.15682,3.156827 v 7.7959145 1.0177039 7.0569446 c 0,1.1519499 0.92883,2.0786224 2.08078,2.0786224 h 17.42413 c 1.15195,0 2.08078,-0.9266725 2.08078,-2.0786224 v -16.948767 c 0,-1.15195 -0.92883,-2.078623 -2.08078,-2.078623 h -5.41479 -2.48052 z" /><rect
         style="fill:#5d4131;fill-opacity:1;stroke-width:0.221259"
         id="rect6"
         width="35.401402"
         height="35.401402"
         x="236.62743"
         y="-58.548603"
         ry="6.705132" /><rect
         style="fill:#ffffff;fill-opacity:1;stroke-width:0.221259"
         id="rect7"
         width="27.374458"
         height="27.158798"
         x="241.13106"
         y="-54.24012"
         ry="1.7709141" /><path
         id="path7"
         style="fill:#a8765a;fill-opacity:1;stroke-width:0.241671"
         d="m 246.89738,-51.08544 c -1.74865,0 -3.15682,1.40817 -3.15682,3.156827 v 7.795914 1.017704 7.056945 c 0,1.15195 0.92883,2.078622 2.08078,2.078622 h 17.42413 c 1.15195,0 2.08078,-0.926672 2.08078,-2.078622 v -16.948767 c 0,-1.15195 -0.92883,-2.078623 -2.08078,-2.078623 h -5.41479 -2.48052 z" /><rect
         style="fill:#5d4131;fill-opacity:1;stroke-width:0.221259"
         id="rect8"
         width="35.401402"
         height="35.401402"
         x="272.02884"
         y="-58.548603"
         ry="6.705132" /><rect
         style="fill:#ffffff;fill-opacity:1;stroke-width:0.221259"
         id="rect9"
         width="27.374458"
         height="27.158798"
         x="276.53247"
         y="-54.24012"
         ry="1.7709141" /><path
         id="path9"
         style="fill:#a8765a;fill-opacity:1;stroke-width:0.241671"
         d="m 282.29878,-51.08544 c -1.74865,0 -3.15682,1.40817 -3.15682,3.156827 v 7.795914 1.017704 7.056945 c 0,1.15195 0.92883,2.078622 2.08078,2.078622 h 17.42413 c 1.15195,0 2.08078,-0.926672 2.08078,-2.078622 v -16.948767 c 0,-1.15195 -0.92883,-2.078623 -2.08078,-2.078623 h -5.41479 -2.48052 z" /><rect
         style="fill:#5d4131;fill-opacity:1;stroke-width:0.221259"
         id="rect10"
         width="35.401402"
         height="35.401402"
         x="272.02884"
         y="-23.147202"
         ry="6.705132" /><rect
         style="fill:#ffffff;fill-opacity:1;stroke-width:0.221259"
         id="rect11"
         width="27.374458"
         height="27.158798"
         x="276.53247"
         y="-18.838718"
         ry="1.7709141" /><path
         id="path11"
         style="fill:#a8765a;fill-opacity:1;stroke-width:0.241671"
         d="m 282.29878,-15.684039 c -1.74865,0 -3.15682,1.40817 -3.15682,3.156827 v 7.7959145 1.0177039 7.0569446 c 0,1.1519499 0.92883,2.0786224 2.08078,2.0786224 h 17.42413 c 1.15195,0 2.08078,-0.9266725 2.08078,-2.0786224 v -16.948767 c 0,-1.15195 -0.92883,-2.078623 -2.08078,-2.078623 h -5.41479 -2.48052 z" /></g></g></svg>
