<?xml version="1.0" encoding="UTF-8" standalone="no"?>
<svg
   width="64"
   height="64"
   viewBox="0 0 64 64"
   version="1.1"
   id="SVGRoot"
   sodipodi:docname="18_silver.svg"
   inkscape:version="1.3 (0e150ed6c4, 2023-07-21)"
   xml:space="preserve"
   xmlns:inkscape="http://www.inkscape.org/namespaces/inkscape"
   xmlns:sodipodi="http://sodipodi.sourceforge.net/DTD/sodipodi-0.dtd"
   xmlns="http://www.w3.org/2000/svg"
   xmlns:svg="http://www.w3.org/2000/svg"><defs
     id="defs823"><filter
       inkscape:collect="always"
       style="color-interpolation-filters:sRGB"
       id="filter1"
       x="-0.19103031"
       y="-0.18964253"
       width="1.3820606"
       height="1.3792851"><feGaussianBlur
         inkscape:collect="always"
         stdDeviation="0.91529649"
         id="feGaussianBlur1" /></filter></defs><sodipodi:namedview
     id="base"
     pagecolor="#8e8e8e"
     bordercolor="#666666"
     borderopacity="1.0"
     inkscape:pageopacity="0"
     inkscape:pageshadow="2"
     inkscape:zoom="7.9999996"
     inkscape:cx="7.8125004"
     inkscape:cy="34.625002"
     inkscape:document-units="px"
     inkscape:current-layer="layer1"
     showgrid="true"
     inkscape:window-width="3840"
     inkscape:window-height="2092"
     inkscape:window-x="1920"
     inkscape:window-y="32"
     inkscape:window-maximized="1"
     inkscape:pagecheckerboard="true"
     inkscape:blackoutopacity="0.0"
     inkscape:deskcolor="#aaaaaa"
     inkscape:deskopacity="0"
     inkscape:showpageshadow="2"
     showguides="true"><inkscape:grid
       type="xygrid"
       id="grid535"
       spacingx="64"
       spacingy="64"
       originx="-192"
       originy="0"
       units="px"
       visible="true" /></sodipodi:namedview><g
     inkscape:label="Layer 1"
     inkscape:groupmode="layer"
     id="layer1"
     transform="translate(-192)"><g
       id="g63365"
       style="fill:none;fill-opacity:1;stroke:#843636;stroke-opacity:1"
       transform="matrix(0.90391899,0,0,0.90391899,-21.892025,52.923194)"><g
         id="g63355"
         style="fill:none;fill-opacity:1;stroke:#843636;stroke-opacity:1" /></g><g
       id="g2323"
       transform="matrix(0.90391899,0,0,0.90391899,-21.892025,52.923194)" /><rect
       style="fill:#45464a;fill-opacity:1;stroke:none;stroke-width:4;stroke-dasharray:none;stroke-opacity:1"
       id="rect344"
       width="64.000008"
       height="63.99995"
       x="192.00002"
       y="3.3062045e-06"
       ry="10.512293" /><rect
       style="fill:#ffffff;fill-opacity:1;stroke:none;stroke-width:3.53996;stroke-dasharray:none;stroke-opacity:1"
       id="rect952"
       width="57.000008"
       height="56.280979"
       x="196"
       y="3.9999993"
       ry="7.3386559" /><path
       id="rect960"
       style="fill:#7d7e86;stroke-width:3.96648"
       d="M 199.42572,50.105942 V 13.970768 c 0,-4.2559584 2.01317,-7.4324111 7.30833,-7.4324111 h 35.53193 c 4.04882,0 7.30834,3.3148517 7.30834,7.4324111 v 36.135174 c 0,4.117549 -3.25952,7.43241 -7.30834,7.43241 h -35.53193 c -4.04881,0 -7.30833,-3.314861 -7.30833,-7.43241 z"
       sodipodi:nodetypes="sssssssss" /><ellipse
       style="fill:#626369;fill-opacity:1;stroke:none;stroke-width:0.138879;stroke-dasharray:none;stroke-opacity:1"
       id="path2116"
       cx="-40.496319"
       cy="209.97704"
       rx="4.3605771"
       ry="4.3764033"
       transform="rotate(-90)" /><path
       id="path1"
       style="fill:#626369;fill-opacity:1;stroke:none;stroke-width:0.039;stroke-dasharray:none;stroke-opacity:1"
       d="m 249.57422,14.732421 c -2.87846,4.677841 -6.09872,8.61303 -9.50391,10.378907 -4.76875,2.472993 -13.39137,-0.400411 -17.75586,4.300781 -4.24251,4.56981 1.06559,13.946109 -3.69726,17.970703 -3.56563,3.012941 -9.39774,-0.240465 -13.95313,0.779297 -1.51401,0.338924 -3.34181,0.911981 -5.23828,1.572266 v 0.371094 c 0,4.117546 3.25978,7.433593 7.3086,7.433593 h 35.53125 c 4.0488,0 7.30859,-3.316047 7.30859,-7.433593 z" /><ellipse
       style="fill:#626369;fill-opacity:1;stroke:none;stroke-width:0.0254269;stroke-dasharray:none;stroke-opacity:1"
       id="ellipse1"
       cx="-24.236101"
       cy="207.63023"
       rx="0.794218"
       ry="0.80544448"
       transform="rotate(-90)" /><ellipse
       style="fill:#626369;fill-opacity:1;stroke:none;stroke-width:0.0254269;stroke-dasharray:none;stroke-opacity:1"
       id="ellipse2"
       cx="-16.914238"
       cy="239.21483"
       rx="0.794218"
       ry="0.80544448"
       transform="rotate(-90)" /><ellipse
       style="fill:#626369;fill-opacity:1;stroke:none;stroke-width:0.0880276;stroke-dasharray:none;stroke-opacity:1"
       id="ellipse3"
       cx="-13.898116"
       cy="219.4333"
       rx="2.7495763"
       ry="2.7884426"
       transform="rotate(-90)" /><g
       id="g2"><rect
         style="mix-blend-mode:normal;fill:#0a0a0b;fill-opacity:1;stroke-width:0.0452843;filter:url(#filter1)"
         id="rect3"
         width="11.499283"
         height="11.583433"
         x="19.624392"
         y="0.71359313"
         ry="0"
         transform="matrix(0.90391899,0,0,0.90391899,185.49938,40.110125)" /><rect
         style="fill:#d6d7d9;fill-opacity:1;stroke-width:0.0409333"
         id="rect1"
         width="10.39442"
         height="10.470485"
         x="203.23824"
         y="40.755157"
         ry="0" /><rect
         style="fill:#7d7e86;fill-opacity:1;stroke-width:0.0362491"
         id="rect2"
         width="9.0796995"
         height="9.4001637"
         x="203.89561"
         y="41.290318"
         ry="0" /><path
         id="path2"
         style="fill:#626369;fill-opacity:1;stroke-width:0.039"
         d="m 212.97572,44.246228 c -0.40505,0.281519 -0.8011,0.527271 -1.14649,0.683594 -1.32508,0.599731 -3.16843,-0.05743 -4.27149,0.890625 -1.08551,0.932986 -0.30753,3.231708 -1.49999,4.023437 -0.51008,0.338659 -1.34215,0.378117 -2.16211,0.302735 v 0.542968 h 9.08008 z" /></g><g
       id="g10"
       transform="translate(30.779375,-27.802674)"><rect
         style="mix-blend-mode:normal;fill:#0a0a0b;fill-opacity:1;stroke-width:0.0452843;filter:url(#filter1)"
         id="rect4"
         width="11.499283"
         height="11.583433"
         x="19.624392"
         y="0.71359313"
         ry="0"
         transform="matrix(0.90391899,0,0,0.90391899,185.49938,40.110125)" /><rect
         style="fill:#d6d7d9;fill-opacity:1;stroke-width:0.0409333"
         id="rect8"
         width="10.39442"
         height="10.470485"
         x="203.23824"
         y="40.755157"
         ry="0" /><rect
         style="fill:#7d7e86;fill-opacity:1;stroke-width:0.0362491"
         id="rect9"
         width="9.0796995"
         height="9.4001637"
         x="203.89561"
         y="41.290318"
         ry="0" /><path
         id="path9"
         style="fill:#626369;fill-opacity:1;stroke-width:0.039"
         d="m 212.97572,44.246228 c -0.40505,0.281519 -0.8011,0.527271 -1.14649,0.683594 -1.32508,0.599731 -3.16843,-0.05743 -4.27149,0.890625 -1.08551,0.932986 -0.30753,3.231708 -1.49999,4.023437 -0.51008,0.338659 -1.34215,0.378117 -2.16211,0.302735 v 0.542968 h 9.08008 z" /></g></g></svg>
