<?xml version="1.0" encoding="UTF-8" standalone="no"?>
<svg
   width="192"
   height="128"
   viewBox="0 0 192 128"
   version="1.1"
   id="SVGRoot"
   sodipodi:docname="195_196_197_211_212_213_bronze.svg"
   inkscape:version="1.3 (0e150ed6c4, 2023-07-21)"
   xml:space="preserve"
   xmlns:inkscape="http://www.inkscape.org/namespaces/inkscape"
   xmlns:sodipodi="http://sodipodi.sourceforge.net/DTD/sodipodi-0.dtd"
   xmlns="http://www.w3.org/2000/svg"
   xmlns:svg="http://www.w3.org/2000/svg"><defs
     id="defs823"><filter
       inkscape:collect="always"
       style="color-interpolation-filters:sRGB"
       id="filter1"
       x="-0.19103031"
       y="-0.18964253"
       width="1.3820606"
       height="1.3792851"><feGaussianBlur
         inkscape:collect="always"
         stdDeviation="0.91529649"
         id="feGaussianBlur1" /></filter></defs><sodipodi:namedview
     id="base"
     pagecolor="#8e8e8e"
     bordercolor="#666666"
     borderopacity="1.0"
     inkscape:pageopacity="0"
     inkscape:pageshadow="2"
     inkscape:zoom="5.6568545"
     inkscape:cx="96.254906"
     inkscape:cy="74.599762"
     inkscape:document-units="px"
     inkscape:current-layer="g976"
     showgrid="true"
     inkscape:window-width="3840"
     inkscape:window-height="2092"
     inkscape:window-x="1920"
     inkscape:window-y="32"
     inkscape:window-maximized="1"
     inkscape:pagecheckerboard="true"
     inkscape:blackoutopacity="0.0"
     inkscape:deskcolor="#aaaaaa"
     inkscape:deskopacity="0"
     inkscape:showpageshadow="2"
     showguides="true"><inkscape:grid
       type="xygrid"
       id="grid535"
       spacingx="64"
       spacingy="64"
       originx="-192"
       originy="0"
       units="px"
       visible="true" /><sodipodi:guide
       position="32,0.0"
       orientation="1,0"
       id="guide2"
       inkscape:locked="false" /><sodipodi:guide
       position="0.0,32.0"
       orientation="0,-1"
       id="guide1"
       inkscape:locked="false" /></sodipodi:namedview><g
     inkscape:label="Layer 1"
     inkscape:groupmode="layer"
     id="layer1"
     transform="translate(-192)"><g
       id="g976"
       transform="matrix(0.90391899,0,0,0.90391899,-21.892025,52.923194)"><g
         id="g63365"
         style="fill:none;fill-opacity:1;stroke:#843636;stroke-opacity:1"><g
           id="g63355"
           style="fill:none;fill-opacity:1;stroke:#843636;stroke-opacity:1" /></g><g
         id="g2323" /><rect
         style="fill:#5d4131;fill-opacity:1;stroke:none;stroke-width:0.270986;stroke-dasharray:none;stroke-opacity:1"
         id="rect344"
         width="212.40842"
         height="141.60556"
         x="236.62743"
         y="-58.548553"
         ry="7.1685643" /><rect
         style="fill:#ffffff;fill-opacity:1;stroke:none;stroke-width:0.208397;stroke-dasharray:none;stroke-opacity:1"
         id="rect2-3"
         width="202.3058"
         height="132.45624"
         x="242.03587"
         y="-54.537964"
         ry="7.0584426" /><rect
         style="fill:#a8765a;fill-opacity:1;stroke:none;stroke-width:0.221259;stroke-dasharray:none;stroke-opacity:1"
         id="rect3-6"
         width="192.79939"
         height="124.79408"
         x="246.4825"
         y="-50.317352"
         ry="7.0584426" /><ellipse
         style="fill:#845d46;fill-opacity:0.99607843;stroke:none;stroke-width:0.293245;stroke-dasharray:none;stroke-opacity:1"
         id="path4"
         cx="389.70505"
         cy="-19.014191"
         rx="6.9207826"
         ry="7.1198626" /><rect
         style="mix-blend-mode:normal;fill:#0a0a0b;fill-opacity:1;stroke-width:0.0452843;filter:url(#filter1)"
         id="rect3-3"
         width="11.499283"
         height="11.583433"
         x="253.99944"
         y="-44.429111"
         ry="0" /><rect
         style="fill:#d6d7d9;fill-opacity:1;stroke-width:0.0452843"
         id="rect1-7"
         width="11.499282"
         height="11.583432"
         x="253.99944"
         y="-44.429108"
         ry="0" /><rect
         style="fill:#a8765a;fill-opacity:1;stroke-width:0.0401022"
         id="rect2-6"
         width="10.044815"
         height="10.399343"
         x="254.72668"
         y="-43.837063"
         ry="0" /><path
         id="path2"
         style="fill:#845d46;fill-opacity:0.99607843;stroke-width:0.0431455"
         d="m 264.77196,-40.566959 c -0.44811,0.311442 -0.88626,0.583316 -1.26836,0.756256 -1.46593,0.663478 -3.50521,-0.06354 -4.72552,0.985292 -1.2009,1.032157 -0.34022,3.575219 -1.65943,4.451104 -0.5643,0.374656 -1.48481,0.418308 -2.39193,0.334914 v 0.600682 h 10.04524 z" /><path
         id="path5"
         style="fill:#845d46;fill-opacity:0.99607843;stroke:none;stroke-width:0.232322"
         d="m 423.23002,-50.318399 c -0.17825,1.548603 -0.45108,2.994775 -0.96801,4.08378 -3.24588,6.838046 -14.08545,8.698504 -15.98292,16.026135 -1.84506,7.12526 9.7786,12.810541 6.20994,19.247784 -6.53528,11.78840816 -30.97074,-1.452702 -37.5038,10.33693344 -6.46595,11.66856256 18.93417,27.58174556 11.55775,37.24234456 -9.82875,9.346844 -57.91488,-3.887984 -75.887,-4.630445 -8.80139,-0.363601 -31.41712,-0.401039 -40.36892,9.040495 -5.78909,6.105789 -6.86368,16.741193 -14.03827,21.080083 -2.58358,1.562452 -5.97352,2.270258 -9.7665,2.469715 v 2.839199 c 0,3.910366 3.14873,7.059105 7.05911,7.059105 h 178.68158 c 3.91035,0 7.0591,-3.148739 7.0591,-7.059105 V -43.259294 c 0,-3.910366 -3.14875,-7.059105 -7.0591,-7.059105 z m -9.02105,73.477789 a 3.6219037,3.6219037 0 0 1 3.62138,3.621383 3.6219037,3.6219037 0 0 1 -3.62138,3.621384 3.6219037,3.6219037 0 0 1 -3.62138,-3.621384 3.6219037,3.6219037 0 0 1 3.62138,-3.621383 z m -95.89104,26.922697 a 4.7137942,4.7137942 0 0 1 4.71255,4.714713 4.7137942,4.7137942 0 0 1 -4.71255,4.712553 4.7137942,4.7137942 0 0 1 -4.71472,-4.712553 4.7137942,4.7137942 0 0 1 4.71472,-4.714713 z" /><rect
         style="mix-blend-mode:normal;fill:#0a0a0b;fill-opacity:1;stroke-width:0.0452843;filter:url(#filter1)"
         id="rect5"
         width="11.499283"
         height="11.583433"
         x="421.24631"
         y="-44.429111"
         ry="0" /><rect
         style="fill:#d6d7d9;fill-opacity:1;stroke-width:0.0452843"
         id="rect7"
         width="11.499282"
         height="11.583432"
         x="421.24631"
         y="-44.429108"
         ry="0" /><rect
         style="fill:#a8765a;fill-opacity:1;stroke-width:0.0401022"
         id="rect8"
         width="10.044815"
         height="10.399343"
         x="421.97354"
         y="-43.837063"
         ry="0" /><path
         id="path8"
         style="fill:#845d46;fill-opacity:0.99607843;stroke-width:0.0431455"
         d="m 432.01882,-40.566958 c -0.44811,0.311442 -0.88625,0.583316 -1.26836,0.756256 -1.46592,0.663478 -3.50521,-0.06354 -4.72552,0.985292 -1.20089,1.032157 -0.34022,3.575219 -1.65943,4.451104 -0.5643,0.374656 -1.48481,0.418308 -2.39193,0.334914 v 0.600682 h 10.04524 z" /><path
         id="path6"
         style="fill:#77533f;fill-opacity:1;stroke:none;stroke-width:0.232322"
         d="m 439.16573,-2.8207111 c -3.07272,2.66665879 -5.72625,5.4807936 -7.13473,8.1762028 -4.64485,8.8888313 2.11927,21.1396123 -2.83488,29.9542023 -3.62774,6.454621 -12.5416,7.516638 -17.37659,13.124275 -4.09286,4.746907 -3.62626,12.631015 -8.95623,15.928902 -8.32028,5.148131 -20.51705,-4.108903 -28.86519,0.993936 -3.41618,2.088158 -6.61364,5.228112 -9.58284,9.003762 h 67.69352 c 3.91037,0 7.05694,-3.148732 7.05694,-7.059105 z" /><rect
         style="mix-blend-mode:normal;fill:#0a0a0b;fill-opacity:1;stroke-width:0.0452843;filter:url(#filter1)"
         id="rect12-5"
         width="11.499283"
         height="11.583433"
         x="253.99944"
         y="57.024441"
         ry="0" /><rect
         style="fill:#d6d7d9;fill-opacity:1;stroke-width:0.0452843"
         id="rect13-6"
         width="11.499282"
         height="11.583432"
         x="253.99944"
         y="57.024441"
         ry="0" /><rect
         style="fill:#a8765a;fill-opacity:1;stroke-width:0.0401022"
         id="rect14-2"
         width="10.044815"
         height="10.399343"
         x="254.72668"
         y="57.616486"
         ry="0" /><path
         id="path14"
         style="fill:#845d46;fill-opacity:0.99607843;stroke-width:0.0431455"
         d="m 264.77196,60.886591 c -0.44811,0.311442 -0.88626,0.583316 -1.26836,0.756256 -1.46593,0.663478 -3.50521,-0.06354 -4.72552,0.985292 -1.2009,1.032157 -0.34022,3.575219 -1.65943,4.451104 -0.5643,0.374656 -1.48481,0.418308 -2.39193,0.334914 v 0.600682 h 10.04524 z" /><rect
         style="mix-blend-mode:normal;fill:#0a0a0b;fill-opacity:1;stroke-width:0.0452843;filter:url(#filter1)"
         id="rect1"
         width="11.499283"
         height="11.583433"
         x="421.24655"
         y="55.094875"
         ry="0" /><rect
         style="fill:#d6d7d9;fill-opacity:1;stroke-width:0.0452843"
         id="rect2"
         width="11.499282"
         height="11.583432"
         x="421.24655"
         y="55.094875"
         ry="0" /><rect
         style="fill:#a8765a;fill-opacity:1;stroke-width:0.0401022"
         id="rect3"
         width="10.044815"
         height="10.399343"
         x="421.97382"
         y="55.68692"
         ry="0" /><path
         id="path3"
         style="fill:#845d46;fill-opacity:0.99607843;stroke-width:0.0431455"
         d="m 432.01907,58.957026 c -0.44811,0.311442 -0.88625,0.583316 -1.26836,0.756256 -1.46592,0.663478 -3.50521,-0.06354 -4.72552,0.985292 -1.20089,1.032157 -0.34022,3.575219 -1.65943,4.451104 -0.5643,0.374656 -1.48481,0.418308 -2.39193,0.334914 v 0.600682 h 10.04524 z" /><ellipse
         style="fill:#845d46;fill-opacity:0.99607843;stroke:none;stroke-width:0.240814;stroke-dasharray:none;stroke-opacity:1"
         id="ellipse9"
         cx="313.48141"
         cy="-0.2558136"
         rx="5.6833763"
         ry="5.8468614" /><ellipse
         style="fill:#845d46;fill-opacity:0.99607843;stroke:none;stroke-width:0.0676348;stroke-dasharray:none;stroke-opacity:1"
         id="ellipse10"
         cx="360.66415"
         cy="21.366343"
         rx="1.5962278"
         ry="1.642144" /><ellipse
         style="fill:#845d46;fill-opacity:0.99607843;stroke:none;stroke-width:0.0519156;stroke-dasharray:none;stroke-opacity:1"
         id="ellipse11"
         cx="258.23715"
         cy="20.105854"
         rx="1.2252448"
         ry="1.2604895" /></g></g></svg>
