<?xml version="1.0" encoding="UTF-8" standalone="no"?>
<svg
   width="192"
   height="192"
   viewBox="0 0 192 192"
   version="1.1"
   id="SVGRoot"
   sodipodi:docname="208_209_210_224_225_226_240_241_242_bronze.svg"
   inkscape:version="1.3 (0e150ed6c4, 2023-07-21)"
   xml:space="preserve"
   xmlns:inkscape="http://www.inkscape.org/namespaces/inkscape"
   xmlns:sodipodi="http://sodipodi.sourceforge.net/DTD/sodipodi-0.dtd"
   xmlns="http://www.w3.org/2000/svg"
   xmlns:svg="http://www.w3.org/2000/svg"><defs
     id="defs823"><filter
       inkscape:collect="always"
       style="color-interpolation-filters:sRGB"
       id="filter1"
       x="-0.19103031"
       y="-0.18964253"
       width="1.3820606"
       height="1.3792851"><feGaussianBlur
         inkscape:collect="always"
         stdDeviation="0.91529649"
         id="feGaussianBlur1" /></filter></defs><sodipodi:namedview
     id="base"
     pagecolor="#8e8e8e"
     bordercolor="#666666"
     borderopacity="1.0"
     inkscape:pageopacity="0"
     inkscape:pageshadow="2"
     inkscape:zoom="2.0000001"
     inkscape:cx="296.74999"
     inkscape:cy="-30.999999"
     inkscape:document-units="px"
     inkscape:current-layer="g976"
     showgrid="true"
     inkscape:window-width="3840"
     inkscape:window-height="2092"
     inkscape:window-x="1920"
     inkscape:window-y="32"
     inkscape:window-maximized="1"
     inkscape:pagecheckerboard="true"
     inkscape:blackoutopacity="0.0"
     inkscape:deskcolor="#aaaaaa"
     inkscape:deskopacity="0"
     inkscape:showpageshadow="2"
     showguides="true"><inkscape:grid
       type="xygrid"
       id="grid535"
       spacingx="64"
       spacingy="64"
       originx="-192"
       originy="0"
       units="px"
       visible="true" /></sodipodi:namedview><g
     inkscape:label="Layer 1"
     inkscape:groupmode="layer"
     id="layer1"
     transform="translate(-192)"><g
       id="g976"
       transform="matrix(0.90391899,0,0,0.90391899,-21.892025,52.923194)"><g
         id="g63365"
         style="fill:none;fill-opacity:1;stroke:#843636;stroke-opacity:1"><g
           id="g63355"
           style="fill:none;fill-opacity:1;stroke:#843636;stroke-opacity:1" /></g><g
         id="g2323" /><rect
         style="fill:#5d4131;fill-opacity:1;stroke:none;stroke-width:0.232322;stroke-opacity:1"
         id="rect5"
         width="212.40842"
         height="212.40842"
         x="236.62743"
         y="-58.548592"
         ry="11.466571" /><rect
         style="fill:#ffffff;fill-opacity:1;stroke:none;stroke-width:0.232322;stroke-opacity:1"
         id="rect8"
         width="204.05368"
         height="203.48268"
         x="240.42856"
         y="-54.09848"
         ry="7.0584426" /><rect
         style="fill:#a8765a;fill-opacity:0.99215686;stroke:none;stroke-width:0.232322;stroke-opacity:1"
         id="rect10"
         width="196.08054"
         height="196.37051"
         x="244.68509"
         y="-50.525635"
         ry="7.0584426" /><ellipse
         style="fill:#845d46;fill-opacity:1;stroke:none;stroke-width:0.111235;stroke-dasharray:none;stroke-opacity:1"
         id="path2116"
         cx="31.49312"
         cy="265.10501"
         rx="3.492589"
         ry="3.505265"
         transform="rotate(-90)" /><path
         id="path11"
         style="fill:#845d46;fill-opacity:1;stroke:none;stroke-width:0.232322;stroke-opacity:1"
         d="m 423.42039,-50.52582 c -4.19752,8.44292 -7.18674,16.70549 -7.19091,23.24297 -0.008,12.58671 20.09887,25.20389 11.86889,37.3223 -7.82443,11.52126 -25.30242,-6.07201 -34.11577,0.96585 -14.04946,11.21911 3.19185,40.27103 -11.2963,50.91761 -10.00737,7.35389 -26.70291,-9.9849 -35.93726,-1.68105 -13.62367,12.25087 9.70341,43.4036 -4.39493,55.10511 -11.4542,9.5069 -28.55783,-13.56752 -42.09102,-7.36809 -11.22593,5.14248 -8.45625,26.24466 -34.9671,27.46288 -4.54066,0.20865 -12.06933,0.84094 -20.6112,1.62919 v 1.71562 c 0,3.91037 3.14873,7.05909 7.05911,7.05909 h 181.96372 c 3.91038,0 7.05695,-3.14872 7.05695,-7.05909 V -43.46672 c 0,-3.91037 -3.14657,-7.0591 -7.05695,-7.0591 z" /><circle
         style="fill:#845d46;fill-opacity:1;stroke:none;stroke-width:0.216275;stroke-opacity:1"
         id="path12"
         cx="330.18246"
         cy="98.690208"
         r="9.1859894" /><circle
         style="fill:#845d46;fill-opacity:1;stroke:none;stroke-width:0.144207;stroke-opacity:1"
         id="circle12"
         cx="361.27286"
         cy="-15.098688"
         r="6.1249967" /><path
         id="rect11"
         style="fill:#77533f;fill-opacity:0.99215686;stroke:none;stroke-width:0.232322;stroke-opacity:1"
         d="m 440.76457,58.297205 c -2.80011,6.2584 -5.42482,12.63166 -6.87761,17.56457 -2.3653,8.031367 -0.0128,17.896027 -4.99344,24.625845 -5.70985,7.71508 -17.5066,6.45803 -24.77494,12.7267 -7.06166,6.09041 -6.88885,18.09239 -15.01059,22.6747 -7.29985,4.1186 -18.4411,-2.12254 -25.84017,1.81501 -3.26645,1.73831 -6.5587,4.66813 -9.72761,8.14163 h 80.16741 c 3.91038,0 7.05695,-3.14873 7.05695,-7.0591 z" /><rect
         style="mix-blend-mode:normal;fill:#0a0a0b;fill-opacity:1;stroke-width:0.0452843;filter:url(#filter1)"
         id="rect5-3"
         width="11.499283"
         height="11.583433"
         x="252.11717"
         y="-44.864708"
         ry="0" /><rect
         style="fill:#d6d7d9;fill-opacity:1;stroke-width:0.0452843"
         id="rect7"
         width="11.499282"
         height="11.583432"
         x="252.11717"
         y="-44.864708"
         ry="0" /><rect
         style="fill:#a8765a;fill-opacity:1;stroke-width:0.0401022"
         id="rect8-6"
         width="10.044815"
         height="10.399343"
         x="252.84442"
         y="-44.272663"
         ry="0" /><path
         id="path8"
         style="fill:#845d46;fill-opacity:1;stroke-width:0.0431455"
         d="m 262.88969,-41.002557 c -0.44811,0.311442 -0.88625,0.583316 -1.26836,0.756256 -1.46592,0.663478 -3.50521,-0.06353 -4.72552,0.985292 -1.20089,1.032157 -0.34022,3.575219 -1.65943,4.451104 -0.5643,0.374656 -1.48481,0.418308 -2.39193,0.334914 v 0.600682 h 10.04524 z" /><rect
         style="mix-blend-mode:normal;fill:#0a0a0b;fill-opacity:1;stroke-width:0.0452843;filter:url(#filter1)"
         id="rect9"
         width="11.499283"
         height="11.583433"
         x="422.3085"
         y="-44.864708"
         ry="0" /><rect
         style="fill:#d6d7d9;fill-opacity:1;stroke-width:0.0452843"
         id="rect12"
         width="11.499282"
         height="11.583432"
         x="422.3085"
         y="-44.864704"
         ry="0" /><rect
         style="fill:#a8765a;fill-opacity:1;stroke-width:0.0401022"
         id="rect13"
         width="10.044815"
         height="10.399343"
         x="423.03577"
         y="-44.272659"
         ry="0" /><path
         id="path13"
         style="fill:#845d46;fill-opacity:1;stroke-width:0.0431455"
         d="m 433.08103,-41.002555 c -0.44811,0.311442 -0.88625,0.583316 -1.26836,0.756256 -1.46592,0.663478 -3.50521,-0.06354 -4.72552,0.985292 -1.20089,1.032157 -0.34022,3.575219 -1.65943,4.451104 -0.5643,0.374656 -1.48481,0.418308 -2.39193,0.334914 v 0.600682 h 10.04524 z" /><rect
         style="mix-blend-mode:normal;fill:#0a0a0b;fill-opacity:1;stroke-width:0.0452843;filter:url(#filter1)"
         id="rect14"
         width="11.499283"
         height="11.583433"
         x="422.30878"
         y="128.8819"
         ry="0" /><rect
         style="fill:#d6d7d9;fill-opacity:1;stroke-width:0.0452843"
         id="rect15"
         width="11.499282"
         height="11.583432"
         x="422.30878"
         y="128.8819"
         ry="0" /><rect
         style="fill:#a8765a;fill-opacity:1;stroke-width:0.0401022"
         id="rect16"
         width="10.044815"
         height="10.399343"
         x="423.03601"
         y="129.47394"
         ry="0" /><path
         id="path16"
         style="fill:#845d46;fill-opacity:1;stroke-width:0.0431455"
         d="m 433.08129,132.74404 c -0.44811,0.31144 -0.88625,0.58332 -1.26836,0.75626 -1.46592,0.66348 -3.50521,-0.0635 -4.72552,0.98529 -1.20089,1.03216 -0.34022,3.57522 -1.65943,4.4511 -0.5643,0.37466 -1.48481,0.41831 -2.39193,0.33492 v 0.60068 h 10.04524 z" /><rect
         style="mix-blend-mode:normal;fill:#0a0a0b;fill-opacity:1;stroke-width:0.0452843;filter:url(#filter1)"
         id="rect17"
         width="11.499283"
         height="11.583433"
         x="252.11742"
         y="128.8819"
         ry="0" /><rect
         style="fill:#d6d7d9;fill-opacity:1;stroke-width:0.0452843"
         id="rect18"
         width="11.499282"
         height="11.583432"
         x="252.11742"
         y="128.8819"
         ry="0" /><rect
         style="fill:#a8765a;fill-opacity:1;stroke-width:0.0401022"
         id="rect19"
         width="10.044815"
         height="10.399343"
         x="252.84468"
         y="129.47394"
         ry="0" /><path
         id="path19"
         style="fill:#845d46;fill-opacity:1;stroke-width:0.0431455"
         d="m 262.88994,132.74404 c -0.44811,0.31144 -0.88625,0.58332 -1.26836,0.75626 -1.46592,0.66348 -3.50521,-0.0635 -4.72552,0.98529 -1.20089,1.03216 -0.34022,3.57522 -1.65943,4.4511 -0.5643,0.37466 -1.48481,0.41831 -2.39193,0.33492 v 0.60068 h 10.04524 z" /></g></g></svg>
