<?xml version="1.0" encoding="UTF-8" standalone="no"?>
<svg
   width="64"
   height="64"
   viewBox="0 0 64 64"
   version="1.1"
   id="SVGRoot"
   sodipodi:docname="23_gold.svg"
   inkscape:version="1.3 (0e150ed6c4, 2023-07-21)"
   xml:space="preserve"
   xmlns:inkscape="http://www.inkscape.org/namespaces/inkscape"
   xmlns:sodipodi="http://sodipodi.sourceforge.net/DTD/sodipodi-0.dtd"
   xmlns="http://www.w3.org/2000/svg"
   xmlns:svg="http://www.w3.org/2000/svg"><defs
     id="defs823" /><sodipodi:namedview
     id="base"
     pagecolor="#8e8e8e"
     bordercolor="#666666"
     borderopacity="1.0"
     inkscape:pageopacity="0"
     inkscape:pageshadow="2"
     inkscape:zoom="16"
     inkscape:cx="30.21875"
     inkscape:cy="43.875"
     inkscape:document-units="px"
     inkscape:current-layer="g976"
     showgrid="true"
     inkscape:window-width="3840"
     inkscape:window-height="2092"
     inkscape:window-x="1920"
     inkscape:window-y="32"
     inkscape:window-maximized="1"
     inkscape:pagecheckerboard="true"
     inkscape:blackoutopacity="0.0"
     inkscape:deskcolor="#aaaaaa"
     inkscape:deskopacity="0"
     inkscape:showpageshadow="2"
     showguides="true"><inkscape:grid
       type="xygrid"
       id="grid535"
       spacingx="64"
       spacingy="64"
       originx="-192"
       originy="0"
       units="px"
       visible="true" /></sodipodi:namedview><g
     inkscape:label="Layer 1"
     inkscape:groupmode="layer"
     id="layer1"
     transform="translate(-192)"><g
       id="g976"
       transform="matrix(0.90391899,0,0,0.90391899,-21.892025,52.923194)"><g
         id="g63365"
         style="fill:none;fill-opacity:1;stroke:#843636;stroke-opacity:1"><g
           id="g63355"
           style="fill:none;fill-opacity:1;stroke:#843636;stroke-opacity:1" /></g><g
         id="g2323" /><rect
         style="fill:#574e38;fill-opacity:1;stroke:none;stroke-width:4.42518;stroke-dasharray:none;stroke-opacity:1"
         id="rect344"
         width="70.802811"
         height="70.80275"
         x="236.62744"
         y="-58.548599"
         ry="11.629684" /><rect
         style="fill:#ffffff;fill-opacity:1;stroke:none;stroke-width:3.91624;stroke-dasharray:none;stroke-opacity:1"
         id="rect952"
         width="63.058758"
         height="62.263298"
         x="241.0526"
         y="-54.123428"
         ry="8.1187096" /><path
         id="rect960"
         style="fill:#9d8d66;stroke-width:4.38809;fill-opacity:1"
         d="m 244.84246,-3.116709 v -39.97612 c 0,-4.70834 2.22715,-8.22243 8.08516,-8.22243 h 39.30875 c 4.47918,0 8.08517,3.6672 8.08517,8.22243 v 39.97612 c 0,4.55522 -3.60599,8.22243 -8.08517,8.22243 h -39.30875 c -4.47918,0 -8.08516,-3.66721 -8.08516,-8.22243 z"
         sodipodi:nodetypes="sssssssss" /><path
         id="path1"
         style="fill:#7b6e4f;fill-opacity:1;stroke:none;stroke-width:25.0876"
         d="M 286.49492 -51.314478 C 288.94392 -46.48982 292.90804 -37.377957 290.38423 -32.943951 C 285.72017 -24.749783 269.37932 -31.80479 263.02507 -24.839052 C 258.41232 -19.782411 263.57198 -10.041412 259.15952 -4.8090837 C 256.54296 -1.7063427 250.99733 -0.44426612 245.43888 -0.012262852 C 246.63934 2.9939951 249.53095 5.1065068 252.92798 5.1065068 L 292.23598 5.1065068 C 296.71515 5.1065068 300.32143 1.4379834 300.32143 -3.1172321 L 300.32143 -43.0929 C 300.32143 -47.648126 296.71515 -51.314478 292.23598 -51.314478 L 286.49492 -51.314478 z " /><ellipse
         style="fill:#7b6e4f;fill-opacity:1;stroke:none;stroke-width:0.153641;stroke-dasharray:none;stroke-opacity:1"
         id="path2116"
         cx="41.22226"
         cy="270.1633"
         rx="4.8240795"
         ry="4.841588"
         transform="rotate(-90)" /><ellipse
         style="fill:#7b6e4f;fill-opacity:1;stroke:none;stroke-width:0.0676011;stroke-dasharray:none;stroke-opacity:1"
         id="ellipse1"
         cx="25.325745"
         cy="252.09348"
         rx="2.1447434"
         ry="2.1082411"
         transform="rotate(-90)" /></g></g></svg>
