<?xml version="1.0" encoding="UTF-8" standalone="no"?>
<svg
   width="64"
   height="64"
   viewBox="0 0 64 64"
   version="1.1"
   id="SVGRoot"
   sodipodi:docname="24_gold.svg"
   inkscape:version="1.3 (0e150ed6c4, 2023-07-21)"
   xml:space="preserve"
   xmlns:inkscape="http://www.inkscape.org/namespaces/inkscape"
   xmlns:sodipodi="http://sodipodi.sourceforge.net/DTD/sodipodi-0.dtd"
   xmlns="http://www.w3.org/2000/svg"
   xmlns:svg="http://www.w3.org/2000/svg"><defs
     id="defs823" /><sodipodi:namedview
     id="base"
     pagecolor="#8e8e8e"
     bordercolor="#666666"
     borderopacity="1.0"
     inkscape:pageopacity="0"
     inkscape:pageshadow="2"
     inkscape:zoom="11.313708"
     inkscape:cx="39.907341"
     inkscape:cy="45.785166"
     inkscape:document-units="px"
     inkscape:current-layer="g976"
     showgrid="true"
     inkscape:window-width="3840"
     inkscape:window-height="2092"
     inkscape:window-x="1920"
     inkscape:window-y="32"
     inkscape:window-maximized="1"
     inkscape:pagecheckerboard="true"
     inkscape:blackoutopacity="0.0"
     inkscape:deskcolor="#aaaaaa"
     inkscape:deskopacity="0"
     inkscape:showpageshadow="2"
     showguides="true"><inkscape:grid
       type="xygrid"
       id="grid535"
       spacingx="64"
       spacingy="64"
       originx="-192"
       originy="0"
       units="px"
       visible="true" /></sodipodi:namedview><g
     inkscape:label="Layer 1"
     inkscape:groupmode="layer"
     id="layer1"
     transform="translate(-192)"><g
       id="g976"
       transform="matrix(0.90391899,0,0,0.90391899,-21.892025,52.923194)"><g
         id="g63365"
         style="fill:none;fill-opacity:1;stroke:#843636;stroke-opacity:1"><g
           id="g63355"
           style="fill:none;fill-opacity:1;stroke:#843636;stroke-opacity:1" /></g><g
         id="g2323" /><rect
         style="fill:#574e38;fill-opacity:1;stroke:none;stroke-width:4.42518;stroke-dasharray:none;stroke-opacity:1"
         id="rect344"
         width="70.802811"
         height="70.80275"
         x="236.62744"
         y="-58.548599"
         ry="11.629684" /><rect
         style="fill:#ffffff;fill-opacity:1;stroke:none;stroke-width:3.91624;stroke-dasharray:none;stroke-opacity:1"
         id="rect952"
         width="63.058758"
         height="62.263298"
         x="241.0526"
         y="-54.123428"
         ry="8.1187096" /><path
         id="rect960"
         style="fill:#9d8d66;stroke-width:4.38809;fill-opacity:1"
         d="m 244.84246,-3.116709 v -39.97612 c 0,-4.70834 2.22715,-8.22243 8.08516,-8.22243 h 39.30875 c 4.47918,0 8.08517,3.6672 8.08517,8.22243 v 39.97612 c 0,4.55522 -3.60599,8.22243 -8.08517,8.22243 h -39.30875 c -4.47918,0 -8.08516,-3.66721 -8.08516,-8.22243 z"
         sodipodi:nodetypes="sssssssss" /><ellipse
         style="fill:#7b6e4f;fill-opacity:1;stroke:none;stroke-width:0.153641;stroke-dasharray:none;stroke-opacity:1"
         id="path2116"
         cx="14.165469"
         cy="256.57187"
         rx="4.8240795"
         ry="4.841588"
         transform="rotate(-90)" /><path
         id="path1"
         style="fill:#7b6e4f;fill-opacity:1;stroke:none;stroke-width:0.0431455;stroke-dasharray:none;stroke-opacity:1"
         d="M 300.32143 -42.250216 C 297.13701 -37.07515 293.57446 -32.721674 289.80732 -30.768096 C 284.53168 -28.032239 274.99252 -31.211068 270.16412 -26.010168 C 265.47065 -20.954616 271.34297 -10.581674 266.07386 -6.1292899 C 262.12923 -2.7960921 255.6772 -6.3953152 250.6376 -5.2671585 C 248.96266 -4.8922099 246.94058 -4.25824 244.84252 -3.5277708 L 244.84252 -3.1172321 C 244.84252 1.4379834 248.4488 5.1065068 252.92798 5.1065068 L 292.23598 5.1065068 C 296.71515 5.1065068 300.32143 1.4379834 300.32143 -3.1172321 L 300.32143 -42.250216 z " /><ellipse
         style="fill:#7b6e4f;fill-opacity:1;stroke:none;stroke-width:0.0281296;stroke-dasharray:none;stroke-opacity:1"
         id="ellipse1"
         cx="31.736353"
         cy="253.91905"
         rx="0.87863845"
         ry="0.89105827"
         transform="rotate(-90)" /><ellipse
         style="fill:#7b6e4f;fill-opacity:1;stroke:none;stroke-width:0.0281296;stroke-dasharray:none;stroke-opacity:1"
         id="ellipse2"
         cx="39.836487"
         cy="288.8609"
         rx="0.87863845"
         ry="0.89105827"
         transform="rotate(-90)" /><ellipse
         style="fill:#7b6e4f;fill-opacity:1;stroke:none;stroke-width:0.0973844;stroke-dasharray:none;stroke-opacity:1"
         id="ellipse3"
         cx="43.173203"
         cy="266.97672"
         rx="3.0418394"
         ry="3.0848367"
         transform="rotate(-90)" /></g></g></svg>
