<?xml version="1.0" encoding="UTF-8" standalone="no"?>
<svg
   width="64"
   height="64"
   viewBox="0 0 64 64"
   version="1.1"
   id="SVGRoot"
   sodipodi:docname="32_silver.svg"
   inkscape:version="1.3 (0e150ed6c4, 2023-07-21)"
   xml:space="preserve"
   xmlns:inkscape="http://www.inkscape.org/namespaces/inkscape"
   xmlns:sodipodi="http://sodipodi.sourceforge.net/DTD/sodipodi-0.dtd"
   xmlns="http://www.w3.org/2000/svg"
   xmlns:svg="http://www.w3.org/2000/svg"><defs
     id="defs823" /><sodipodi:namedview
     id="base"
     pagecolor="#8e8e8e"
     bordercolor="#666666"
     borderopacity="1.0"
     inkscape:pageopacity="0"
     inkscape:pageshadow="2"
     inkscape:zoom="5.6568543"
     inkscape:cx="54.182057"
     inkscape:cy="70.180348"
     inkscape:document-units="px"
     inkscape:current-layer="g976"
     showgrid="true"
     inkscape:window-width="3840"
     inkscape:window-height="2092"
     inkscape:window-x="1920"
     inkscape:window-y="32"
     inkscape:window-maximized="1"
     inkscape:pagecheckerboard="true"
     inkscape:blackoutopacity="0.0"
     inkscape:deskcolor="#aaaaaa"
     inkscape:deskopacity="0"
     inkscape:showpageshadow="2"
     showguides="true"><inkscape:grid
       type="xygrid"
       id="grid535"
       spacingx="64"
       spacingy="64"
       originx="-192"
       originy="0"
       units="px"
       visible="true" /></sodipodi:namedview><g
     inkscape:label="Layer 1"
     inkscape:groupmode="layer"
     id="layer1"
     transform="translate(-192)"><g
       id="g976"
       transform="matrix(0.90391899,0,0,0.90391899,-21.892025,52.923194)"><g
         id="g63365"
         style="fill:none;fill-opacity:1;stroke:#843636;stroke-opacity:1"><g
           id="g63355"
           style="fill:none;fill-opacity:1;stroke:#843636;stroke-opacity:1" /></g><g
         id="g2323" /><rect
         style="fill:#45464a;fill-opacity:1;stroke:none;stroke-width:4.42518;stroke-dasharray:none;stroke-opacity:1"
         id="rect344"
         width="70.802811"
         height="70.80275"
         x="236.62746"
         y="-58.548599"
         ry="11.629684" /><rect
         style="fill:#ffffff;fill-opacity:1;stroke:none;stroke-width:3.91624;stroke-dasharray:none;stroke-opacity:1"
         id="rect952"
         width="63.058758"
         height="62.263298"
         x="241.0526"
         y="-54.123428"
         ry="8.1187096" /><path
         id="rect960"
         style="fill:#7d7e86;stroke-width:4.38809"
         d="m 244.84246,-3.116709 v -39.97612 c 0,-4.70834 2.22715,-8.22243 8.08516,-8.22243 h 39.30875 c 4.47918,0 8.08517,3.6672 8.08517,8.22243 v 39.97612 c 0,4.55522 -3.60599,8.22243 -8.08517,8.22243 h -39.30875 c -4.47918,0 -8.08516,-3.66721 -8.08516,-8.22243 z"
         sodipodi:nodetypes="sssssssss" /><ellipse
         style="fill:#626369;fill-opacity:1;stroke:none;stroke-width:0.139476;stroke-dasharray:none;stroke-opacity:1"
         id="path2116"
         cx="35.651512"
         cy="268.82214"
         rx="4.4078693"
         ry="4.3667469"
         transform="rotate(-90)" /><ellipse
         style="fill:#626369;fill-opacity:1;stroke:none;stroke-width:0.0545077;stroke-dasharray:none;stroke-opacity:1"
         id="ellipse1"
         cx="27.371204"
         cy="293.1828"
         rx="1.7130837"
         ry="1.7160299"
         transform="rotate(-90)" /><path
         id="path2"
         style="fill:#626369;stroke-width:4.38809;fill-opacity:1"
         d="M 252.92798 -51.314478 C 247.06997 -51.314478 244.84252 -47.801236 244.84252 -43.0929 L 244.84252 -3.1172321 C 244.84252 1.4379834 248.4488 5.1065068 252.92798 5.1065068 L 291.46676 5.1065068 C 287.15575 1.3416934 283.92769 -2.6268876 282.705 -6.6457044 C 281.47509 -10.688246 283.93262 -18.744956 277.70939 -22.511946 C 271.2677 -26.411176 261.5286 -14.23102 256.13018 -19.480441 C 252.45071 -23.058356 256.53238 -31.744885 256.61418 -36.87648 C 256.67904 -40.942916 256.58637 -46.217054 256.46509 -51.314478 L 252.92798 -51.314478 z " /></g></g></svg>
