<?xml version="1.0" encoding="UTF-8" standalone="no"?>
<svg
   width="256"
   height="128"
   viewBox="0 0 256 128"
   version="1.1"
   id="SVGRoot"
   sodipodi:docname="35_36_37_50_51_52_53_silver.svg"
   inkscape:version="1.3 (0e150ed6c4, 2023-07-21)"
   xml:space="preserve"
   xmlns:inkscape="http://www.inkscape.org/namespaces/inkscape"
   xmlns:sodipodi="http://sodipodi.sourceforge.net/DTD/sodipodi-0.dtd"
   xmlns="http://www.w3.org/2000/svg"
   xmlns:svg="http://www.w3.org/2000/svg"><defs
     id="defs823"><filter
       inkscape:collect="always"
       style="color-interpolation-filters:sRGB"
       id="filter1"
       x="-0.19103031"
       y="-0.18964253"
       width="1.3820606"
       height="1.3792851"><feGaussianBlur
         inkscape:collect="always"
         stdDeviation="0.91529649"
         id="feGaussianBlur1" /></filter></defs><sodipodi:namedview
     id="base"
     pagecolor="#8e8e8e"
     bordercolor="#666666"
     borderopacity="1.0"
     inkscape:pageopacity="0"
     inkscape:pageshadow="2"
     inkscape:zoom="4"
     inkscape:cx="70.875001"
     inkscape:cy="63.250001"
     inkscape:document-units="px"
     inkscape:current-layer="layer1"
     showgrid="true"
     inkscape:window-width="3840"
     inkscape:window-height="2092"
     inkscape:window-x="1920"
     inkscape:window-y="32"
     inkscape:window-maximized="1"
     inkscape:pagecheckerboard="true"
     inkscape:blackoutopacity="0.0"
     inkscape:deskcolor="#aaaaaa"
     inkscape:deskopacity="0"
     inkscape:showpageshadow="2"
     showguides="true"><inkscape:grid
       type="xygrid"
       id="grid535"
       spacingx="64"
       spacingy="64"
       originx="0"
       originy="0"
       units="px"
       visible="true" /><sodipodi:guide
       position="64,0"
       orientation="1,0"
       id="guide1"
       inkscape:locked="false" /></sodipodi:namedview><g
     inkscape:label="Layer 1"
     inkscape:groupmode="layer"
     id="layer1"
     transform="translate(-192)"><g
       id="g63365"
       style="fill:none;fill-opacity:1;stroke:#843636;stroke-opacity:1"
       transform="matrix(0.90391899,0,0,0.90391899,-21.892025,52.923194)"><g
         id="g63355"
         style="fill:none;fill-opacity:1;stroke:#843636;stroke-opacity:1" /></g><g
       id="g2323"
       transform="matrix(0.90391899,0,0,0.90391899,-21.892025,52.923194)" /><rect
       style="fill:#45464a;fill-opacity:1;stroke:none;stroke-width:0.244949;stroke-dasharray:none;stroke-opacity:1"
       id="rect344-3"
       width="192"
       height="127.99995"
       x="256.00003"
       y="6.1035156e-05"
       ry="6.4798017" /><rect
       style="fill:#ffffff;fill-opacity:1;stroke:none;stroke-width:0.188374;stroke-dasharray:none;stroke-opacity:1"
       id="rect2-3"
       width="182.86806"
       height="119.72971"
       x="260.88885"
       y="3.6253128"
       ry="6.3802605" /><rect
       style="fill:#7d7e86;fill-opacity:1;stroke:none;stroke-width:0.2;stroke-dasharray:none;stroke-opacity:1"
       id="rect3-6"
       width="174.27504"
       height="112.80374"
       x="264.90823"
       y="7.4404144"
       ry="6.3802605" /><g
       id="g14"
       transform="matrix(0.90391899,0,0,0.90391899,-22.657554,52.641103)"><ellipse
         style="fill:#626369;fill-opacity:0.991157;stroke:none;stroke-width:0.259055;stroke-dasharray:none;stroke-opacity:1"
         id="path4-6"
         cx="427.94907"
         cy="-13.470661"
         rx="6.1138787"
         ry="6.2897477" /><path
         id="path5"
         style="fill:#626369;fill-opacity:1;stroke:none;stroke-width:0.232322"
         d="m 494.87789,-50.007239 c -0.17825,1.5486 -0.44893,2.99478 -0.96584,4.08378 -3.24588,6.83803 -14.08762,8.69851 -15.98509,16.026137 -1.84503,7.12523 9.7786,12.81056 6.20994,19.247787 -6.53525,11.7883796 -30.97076,-1.452657 -37.50379,10.33692957 -6.46592,11.66853743 18.9363,27.58177643 11.55991,37.24234343 -9.82872,9.34681 -57.91711,-3.887989 -75.88917,-4.630446 -8.80136,-0.363601 -31.41715,-0.401011 -40.36892,9.040496 -5.78906,6.10577 -6.86154,16.741217 -14.0361,21.080087 -2.58358,1.56245 -5.97355,2.27025 -9.7665,2.46971 v 2.8392 c 0,3.91035 3.14659,7.05911 7.05694,7.05911 h 178.68158 c 3.91035,0 7.06127,-3.14876 7.06127,-7.05911 V -42.948129 c 0,-3.91037 -3.15092,-7.05911 -7.06127,-7.05911 z M 475.14611,9.8449846 a 6.1138787,6.2897477 0 0 1 6.1127,6.2898864 6.1138787,6.2897477 0 0 1 -6.1127,6.28989 6.1138787,6.2897477 0 0 1 -6.11487,-6.28989 6.1138787,6.2897477 0 0 1 6.11487,-6.2898864 z" /><ellipse
         style="fill:#626369;fill-opacity:0.991157;stroke:none;stroke-width:0.238452;stroke-dasharray:none;stroke-opacity:1"
         id="ellipse12"
         cx="438.81946"
         cy="24.07255"
         rx="5.6276302"
         ry="5.7895117" /><ellipse
         style="fill:#626369;fill-opacity:0.991157;stroke:none;stroke-width:0.0602212;stroke-dasharray:none;stroke-opacity:1"
         id="ellipse13"
         cx="458.96307"
         cy="-39.642178"
         rx="1.4212626"
         ry="1.4621459" /></g><rect
       style="mix-blend-mode:normal;fill:#0a0a0b;fill-opacity:1;stroke-width:0.0452843;filter:url(#filter1)"
       id="rect3-3"
       width="11.499283"
       height="11.583433"
       x="324.80231"
       y="-44.429108"
       ry="0"
       transform="matrix(0.90391899,0,0,0.90391899,-21.892025,52.923194)" /><rect
       style="fill:#d6d7d9;fill-opacity:1;stroke-width:0.0409333"
       id="rect1-7"
       width="10.39442"
       height="10.470485"
       x="271.70294"
       y="12.762909"
       ry="0" /><rect
       style="fill:#7d7e86;fill-opacity:1;stroke-width:0.0362491"
       id="rect2-6"
       width="9.0796995"
       height="9.4001637"
       x="272.36032"
       y="13.298065"
       ry="0" /><path
       id="path2"
       style="fill:#626369;fill-opacity:1;stroke-width:0.039"
       d="m 281.44043,16.253931 c -0.40506,0.281517 -0.8011,0.527265 -1.1465,0.683589 -1.32507,0.599732 -3.16842,-0.0574 -4.27148,0.890631 -1.08551,0.93298 -0.30754,3.231701 -1.49999,4.023434 -0.51009,0.338663 -1.34215,0.378119 -2.16212,0.302732 v 0.542972 h 9.08009 z" /><rect
       style="mix-blend-mode:normal;fill:#0a0a0b;fill-opacity:1;stroke-width:0.0452843;filter:url(#filter1)"
       id="rect5"
       width="11.499283"
       height="11.583433"
       x="492.04913"
       y="-44.429108"
       ry="0"
       transform="matrix(0.90391899,0,0,0.90391899,-21.892025,52.923194)" /><rect
       style="fill:#d6d7d9;fill-opacity:1;stroke-width:0.0409333"
       id="rect7"
       width="10.39442"
       height="10.470485"
       x="422.88052"
       y="12.762909"
       ry="0" /><rect
       style="fill:#7d7e86;fill-opacity:1;stroke-width:0.0362491"
       id="rect8"
       width="9.0796995"
       height="9.4001637"
       x="423.5379"
       y="13.298065"
       ry="0" /><path
       id="path8"
       style="fill:#626369;fill-opacity:1;stroke-width:0.039"
       d="m 432.61805,16.253931 c -0.40506,0.281517 -0.8011,0.527265 -1.1465,0.683589 -1.32507,0.599732 -3.16842,-0.0574 -4.27148,0.890631 -1.08551,0.93298 -0.30753,3.231701 -1.49999,4.023434 -0.51008,0.338663 -1.34215,0.378119 -2.16211,0.302732 v 0.542972 h 9.08008 z" /><path
       id="path6"
       style="fill:#58595f;fill-opacity:1;stroke:none;stroke-width:0.21"
       d="m 439.07828,50.373487 c -2.77749,2.410444 -5.17607,4.95419 -6.44922,7.390622 -4.19857,8.034779 1.91565,19.108492 -2.5625,27.076164 -3.27919,5.834463 -11.33659,6.794434 -15.70703,11.863286 -3.69962,4.290821 -3.27785,11.417421 -8.09571,14.398441 -7.52086,4.65349 -18.54575,-3.71411 -26.09179,0.89844 -3.08795,1.88753 -5.9782,4.72579 -8.66211,8.13867 h 61.18945 c 3.53466,0 6.37891,-2.8462 6.37891,-6.38086 z" /><rect
       style="mix-blend-mode:normal;fill:#0a0a0b;fill-opacity:1;stroke-width:0.0452843;filter:url(#filter1)"
       id="rect1"
       width="11.499283"
       height="11.583433"
       x="492.04938"
       y="55.094807"
       ry="0"
       transform="matrix(0.90391899,0,0,0.90391899,-21.892025,52.923194)" /><rect
       style="fill:#d6d7d9;fill-opacity:1;stroke-width:0.0409333"
       id="rect2-7"
       width="10.39442"
       height="10.470485"
       x="422.88074"
       y="102.72443"
       ry="0" /><rect
       style="fill:#7d7e86;fill-opacity:1;stroke-width:0.0362491"
       id="rect3-5"
       width="9.0796995"
       height="9.4001637"
       x="423.53818"
       y="103.25959"
       ry="0" /><path
       id="path3"
       style="fill:#626369;fill-opacity:1;stroke-width:0.039"
       d="m 432.61828,106.21556 c -0.40506,0.28152 -0.8011,0.52726 -1.1465,0.68359 -1.32507,0.59973 -3.16843,-0.0574 -4.27149,0.89063 -1.0855,0.93298 -0.30753,3.2317 -1.49999,4.02343 -0.51008,0.33867 -1.34215,0.37812 -2.16211,0.30273 v 0.54298 h 9.08009 z" /><g
       id="g13"
       transform="matrix(0.90391899,0,0,0.90391899,71.949093,117.0282)"><g
         id="g11"><rect
           style="fill:#45464a;fill-opacity:1;stroke-width:0.221259"
           id="rect10"
           width="35.401402"
           height="35.401402"
           x="236.62743"
           y="-23.147202"
           ry="6.705132" /><rect
           style="fill:#ffffff;fill-opacity:1;stroke-width:0.221259"
           id="rect11"
           width="27.374458"
           height="27.158798"
           x="241.13106"
           y="-18.838718"
           ry="1.7709141" /><path
           id="path11"
           style="fill:#7d7e86;fill-opacity:1;stroke-width:0.241671"
           d="m 246.89738,-15.684039 c -1.74865,0 -3.15682,1.40817 -3.15682,3.156827 v 7.7959145 1.0177039 7.0569446 c 0,1.1519499 0.92883,2.0786224 2.08078,2.0786224 h 17.42413 c 1.15195,0 2.08078,-0.9266725 2.08078,-2.0786224 v -16.948767 c 0,-1.15195 -0.92883,-2.078623 -2.08078,-2.078623 h -5.41479 -2.48052 z" /></g></g><g
       id="g19"
       transform="matrix(0.90391899,0,0,0.90391899,-21.892025,112.9232)"><rect
         style="fill:#45464a;fill-opacity:1;stroke:none;stroke-width:0.232322"
         id="rect15"
         width="103.69969"
         height="70.802811"
         x="236.62743"
         y="-54.123428"
         ry="11.50093" /><rect
         style="fill:#ffffff;fill-opacity:0.993998;stroke:none;stroke-width:0.232322"
         id="rect12"
         width="95.447571"
         height="62.382668"
         x="240.80731"
         y="-49.732067"
         ry="7.4325714" /><path
         id="rect13"
         style="fill:#7d7e86;fill-opacity:1;stroke:none;stroke-width:0.232322"
         d="m 259.18545,-46.364246 c -11.70945,0.258009 -14.37132,2.352219 -14.89391,13.804904 V 3.8295144 c 0,2.833271 2.28117,5.114448 5.11445,5.114448 h 78.40209 c 2.83327,0 5.11445,-2.281177 5.11445,-5.114448 V -41.249798 c 0,-2.833271 -2.28118,-5.114448 -5.11445,-5.114448 z" /></g><g
       id="g17"
       transform="matrix(0.90391899,0,0,0.90391899,-21.892025,52.923194)"><path
         id="path16"
         style="fill:#626369;fill-opacity:1;stroke:none;stroke-width:0.232322"
         d="m 332.92253,28.34732 c -1.51663,0.929214 -3.01474,1.715814 -4.45975,2.281731 -4.34704,1.702452 -11.5767,-1.965402 -14.95009,1.261867 -4.56182,4.364198 3.43312,13.555558 -1.35478,17.670451 -6.99516,6.011888 -20.36022,-4.321137 -28.62319,-0.222556 -7.90298,3.920018 -5.35415,18.019191 -13.57371,21.222692 -7.7331,3.013906 -17.46532,-5.900625 -25.66947,-7.443716 v 7.089356 c 0,2.833268 2.28117,5.114448 5.11445,5.114448 h 78.40209 c 2.83327,0 5.11445,-2.28118 5.11445,-5.114448 z" /><circle
         style="fill:#626369;fill-opacity:1;stroke:none;stroke-width:0.248119;stroke-opacity:1"
         id="path17"
         cx="262.84134"
         cy="54.558098"
         r="7.5956864" /><circle
         style="fill:#626369;fill-opacity:1;stroke:none;stroke-width:0.0345654;stroke-opacity:1"
         id="circle17"
         cx="298.74957"
         cy="34.796696"
         r="1.0581518" /></g><rect
       style="mix-blend-mode:normal;fill:#0a0a0b;fill-opacity:1;stroke-width:0.0452843;filter:url(#filter1)"
       id="rect17"
       width="11.499283"
       height="11.583433"
       x="249.73126"
       y="26.415375"
       ry="0"
       transform="matrix(0.90391899,0,0,0.90391899,-21.892025,52.923194)" /><rect
       style="fill:#d6d7d9;fill-opacity:1;stroke-width:0.0409333"
       id="rect18"
       width="10.39442"
       height="10.470485"
       x="203.8448"
       y="76.800583"
       ry="0" /><rect
       style="fill:#7d7e86;fill-opacity:1;stroke-width:0.0362491"
       id="rect19"
       width="9.0796995"
       height="9.4001637"
       x="204.50217"
       y="77.335739"
       ry="0" /><path
       id="path19"
       style="fill:#626369;fill-opacity:1;stroke-width:0.039"
       d="m 213.58229,80.291578 c -0.40506,0.281516 -0.8011,0.527265 -1.1465,0.683588 -1.32507,0.599733 -3.16842,-0.0574 -4.27148,0.890632 -1.08551,0.93298 -0.30753,3.2317 -1.49999,4.023434 -0.51009,0.338662 -1.34215,0.378118 -2.16211,0.302731 v 0.542975 h 9.08008 z" /><rect
       style="mix-blend-mode:normal;fill:#0a0a0b;fill-opacity:1;stroke-width:0.0452843;filter:url(#filter1)"
       id="rect20"
       width="11.499283"
       height="11.583433"
       x="314.54193"
       y="93.621803"
       ry="0"
       transform="matrix(0.90391899,0,0,0.90391899,-20.694164,18.271099)" /><rect
       style="fill:#d6d7d9;fill-opacity:1;stroke-width:0.0409333"
       id="rect21"
       width="10.39442"
       height="10.470485"
       x="263.62625"
       y="102.89765"
       ry="0" /><rect
       style="fill:#7d7e86;fill-opacity:1;stroke-width:0.0362491"
       id="rect22"
       width="9.0796995"
       height="9.4001637"
       x="264.2836"
       y="103.43281"
       ry="0" /><path
       id="path22"
       style="fill:#626369;fill-opacity:1;stroke-width:0.039"
       d="m 273.36374,106.38864 c -0.40506,0.28152 -0.8011,0.52727 -1.1465,0.68359 -1.32507,0.59973 -3.16843,-0.0574 -4.27149,0.89063 -1.0855,0.93298 -0.30753,3.2317 -1.49999,4.02344 -0.51008,0.33866 -1.34215,0.37811 -2.16211,0.30273 v 0.54297 h 9.08009 z" /></g></svg>
