<?xml version="1.0" encoding="UTF-8" standalone="no"?>
<svg
   width="256"
   height="128"
   viewBox="0 0 256 128"
   version="1.1"
   id="SVGRoot"
   sodipodi:docname="42_43_44_57_58_59_60_gold.svg"
   inkscape:version="1.3 (0e150ed6c4, 2023-07-21)"
   xml:space="preserve"
   xmlns:inkscape="http://www.inkscape.org/namespaces/inkscape"
   xmlns:sodipodi="http://sodipodi.sourceforge.net/DTD/sodipodi-0.dtd"
   xmlns="http://www.w3.org/2000/svg"
   xmlns:svg="http://www.w3.org/2000/svg"><defs
     id="defs823"><filter
       inkscape:collect="always"
       style="color-interpolation-filters:sRGB"
       id="filter1"
       x="-0.19103031"
       y="-0.18964253"
       width="1.3820606"
       height="1.3792851"><feGaussianBlur
         inkscape:collect="always"
         stdDeviation="0.91529649"
         id="feGaussianBlur1" /></filter></defs><sodipodi:namedview
     id="base"
     pagecolor="#8e8e8e"
     bordercolor="#666666"
     borderopacity="1.0"
     inkscape:pageopacity="0"
     inkscape:pageshadow="2"
     inkscape:zoom="5.6568542"
     inkscape:cx="122.41786"
     inkscape:cy="79.019183"
     inkscape:document-units="px"
     inkscape:current-layer="layer1"
     showgrid="true"
     inkscape:window-width="3840"
     inkscape:window-height="2092"
     inkscape:window-x="1920"
     inkscape:window-y="32"
     inkscape:window-maximized="1"
     inkscape:pagecheckerboard="true"
     inkscape:blackoutopacity="0.0"
     inkscape:deskcolor="#aaaaaa"
     inkscape:deskopacity="0"
     inkscape:showpageshadow="2"
     showguides="true"><inkscape:grid
       type="xygrid"
       id="grid535"
       spacingx="64"
       spacingy="64"
       originx="0"
       originy="0"
       units="px"
       visible="true" /><sodipodi:guide
       position="64,0"
       orientation="1,0"
       id="guide1"
       inkscape:locked="false" /></sodipodi:namedview><g
     inkscape:label="Layer 1"
     inkscape:groupmode="layer"
     id="layer1"
     transform="translate(-192)"><g
       id="g63365"
       style="fill:none;fill-opacity:1;stroke:#843636;stroke-opacity:1"
       transform="matrix(0.90391899,0,0,0.90391899,-21.892025,52.923194)"><g
         id="g63355"
         style="fill:none;fill-opacity:1;stroke:#843636;stroke-opacity:1" /></g><g
       id="g2323"
       transform="matrix(0.90391899,0,0,0.90391899,-21.892025,52.923194)" /><rect
       style="fill:#574e38;fill-opacity:1;stroke:none;stroke-width:0.244949;stroke-dasharray:none;stroke-opacity:1"
       id="rect344-3"
       width="192"
       height="127.99995"
       x="256.00003"
       y="6.1035156e-05"
       ry="6.4798017" /><rect
       style="fill:#ffffff;fill-opacity:1;stroke:none;stroke-width:0.188374;stroke-dasharray:none;stroke-opacity:1"
       id="rect2-3"
       width="182.86806"
       height="119.72971"
       x="260.88885"
       y="3.6253128"
       ry="6.3802605" /><rect
       style="fill:#9d8d66;fill-opacity:1;stroke:none;stroke-width:0.2;stroke-dasharray:none;stroke-opacity:1"
       id="rect3-6"
       width="174.27504"
       height="112.80374"
       x="264.90823"
       y="7.4404144"
       ry="6.3802605" /><ellipse
       style="fill:#7b6e4f;fill-opacity:0.99607843;stroke:none;stroke-width:0.234165;stroke-dasharray:none;stroke-opacity:1"
       id="path4-6"
       cx="364.17374"
       cy="40.464718"
       rx="5.5264511"
       ry="5.6854224" /><path
       id="path5"
       style="fill:#7b6e4f;fill-opacity:0.99607843;stroke:none;stroke-width:0.21"
       d="m 424.67197,7.43861 c -0.16113,1.399809 -0.4058,2.707039 -0.87304,3.691406 -2.93402,6.181025 -12.73407,7.862749 -14.44923,14.48633 -1.66776,6.440631 8.83906,11.579708 5.61328,17.39844 -5.90733,10.65574 -27.99505,-1.313084 -33.90038,9.343747 -5.84467,10.547413 17.11688,24.931692 10.44922,33.664061 -8.88437,8.44876 -52.35238,-3.514427 -68.59766,-4.185548 -7.95572,-0.328665 -28.39856,-0.362481 -36.49024,8.171876 -5.23284,5.519122 -6.20227,15.132708 -12.68749,19.054688 -2.33535,1.41233 -5.39961,2.05213 -8.82813,2.23242 v 2.56641 c 0,3.53464 2.84426,6.38086 6.3789,6.38086 h 161.51368 c 3.53464,0 6.38281,-2.84622 6.38281,-6.38086 V 13.819474 c 0,-3.534658 -2.84817,-6.380864 -6.38281,-6.380864 z m -17.83593,54.101562 a 5.5264511,5.6854224 0 0 1 5.52538,5.685547 5.5264511,5.6854224 0 0 1 -5.52538,5.685551 5.5264511,5.6854224 0 0 1 -5.52735,-5.685551 5.5264511,5.6854224 0 0 1 5.52735,-5.685547 z" /><ellipse
       style="fill:#7b6e4f;fill-opacity:0.99607843;stroke:none;stroke-width:0.215541;stroke-dasharray:none;stroke-opacity:1"
       id="ellipse12"
       cx="373.99969"
       cy="74.400742"
       rx="5.0869217"
       ry="5.2332497" /><ellipse
       style="fill:#7b6e4f;fill-opacity:0.99607843;stroke:none;stroke-width:0.0544351;stroke-dasharray:none;stroke-opacity:1"
       id="ellipse13"
       cx="392.20789"
       cy="16.807785"
       rx="1.2847062"
       ry="1.3216615" /><rect
       style="mix-blend-mode:normal;fill:#0a0a0b;fill-opacity:1;stroke-width:0.0452843;filter:url(#filter1)"
       id="rect3-3"
       width="11.499283"
       height="11.583433"
       x="324.80231"
       y="-44.429108"
       ry="0"
       transform="matrix(0.90391899,0,0,0.90391899,-21.892025,52.923194)" /><rect
       style="fill:#d6d7d9;fill-opacity:1;stroke-width:0.0409333"
       id="rect1-7"
       width="10.39442"
       height="10.470485"
       x="271.70294"
       y="12.762909"
       ry="0" /><rect
       style="fill:#9d8d66;fill-opacity:1;stroke-width:0.0362491"
       id="rect2-6"
       width="9.0796995"
       height="9.4001637"
       x="272.36032"
       y="13.298065"
       ry="0" /><path
       id="path2"
       style="fill:#7b6e4f;fill-opacity:0.99607843;stroke-width:0.039"
       d="m 281.44043,16.253931 c -0.40506,0.281517 -0.8011,0.527265 -1.1465,0.683589 -1.32507,0.599732 -3.16842,-0.0574 -4.27148,0.890631 -1.08551,0.93298 -0.30754,3.231701 -1.49999,4.023434 -0.51009,0.338663 -1.34215,0.378119 -2.16212,0.302732 v 0.542972 h 9.08009 z" /><rect
       style="mix-blend-mode:normal;fill:#0a0a0b;fill-opacity:1;stroke-width:0.0452843;filter:url(#filter1)"
       id="rect5"
       width="11.499283"
       height="11.583433"
       x="492.04913"
       y="-44.429108"
       ry="0"
       transform="matrix(0.90391899,0,0,0.90391899,-21.892025,52.923194)" /><rect
       style="fill:#d6d7d9;fill-opacity:1;stroke-width:0.0409333"
       id="rect7"
       width="10.39442"
       height="10.470485"
       x="422.88052"
       y="12.762909"
       ry="0" /><rect
       style="fill:#9d8d66;fill-opacity:1;stroke-width:0.0362491"
       id="rect8"
       width="9.0796995"
       height="9.4001637"
       x="423.5379"
       y="13.298065"
       ry="0" /><path
       id="path8"
       style="fill:#7b6e4f;fill-opacity:0.99607843;stroke-width:0.039"
       d="m 432.61805,16.253931 c -0.40506,0.281517 -0.8011,0.527265 -1.1465,0.683589 -1.32507,0.599732 -3.16842,-0.0574 -4.27148,0.890631 -1.08551,0.93298 -0.30753,3.231701 -1.49999,4.023434 -0.51008,0.338663 -1.34215,0.378119 -2.16211,0.302732 v 0.542972 h 9.08008 z" /><path
       id="path6"
       style="fill:#6f6447;fill-opacity:1;stroke:none;stroke-width:0.21"
       d="m 439.07828,50.373487 c -2.77749,2.410444 -5.17607,4.95419 -6.44922,7.390622 -4.19857,8.034779 1.91565,19.108492 -2.5625,27.076164 -3.27919,5.834463 -11.33659,6.794434 -15.70703,11.863286 -3.69962,4.290821 -3.27785,11.417421 -8.09571,14.398441 -7.52086,4.65349 -18.54575,-3.71411 -26.09179,0.89844 -3.08795,1.88753 -5.9782,4.72579 -8.66211,8.13867 h 61.18945 c 3.53466,0 6.37891,-2.8462 6.37891,-6.38086 z" /><rect
       style="mix-blend-mode:normal;fill:#0a0a0b;fill-opacity:1;stroke-width:0.0452843;filter:url(#filter1)"
       id="rect1"
       width="11.499283"
       height="11.583433"
       x="492.04938"
       y="55.094807"
       ry="0"
       transform="matrix(0.90391899,0,0,0.90391899,-21.892025,52.923194)" /><rect
       style="fill:#d6d7d9;fill-opacity:1;stroke-width:0.0409333"
       id="rect2-7"
       width="10.39442"
       height="10.470485"
       x="422.88074"
       y="102.72443"
       ry="0" /><rect
       style="fill:#9d8d66;fill-opacity:1;stroke-width:0.0362491"
       id="rect3-5"
       width="9.0796995"
       height="9.4001637"
       x="423.53818"
       y="103.25959"
       ry="0" /><path
       id="path3"
       style="fill:#7b6e4f;fill-opacity:0.99607843;stroke-width:0.039"
       d="m 432.61828,106.21556 c -0.40506,0.28152 -0.8011,0.52726 -1.1465,0.68359 -1.32507,0.59973 -3.16843,-0.0574 -4.27149,0.89063 -1.0855,0.93298 -0.30753,3.2317 -1.49999,4.02343 -0.51008,0.33867 -1.34215,0.37812 -2.16211,0.30273 v 0.54298 h 9.08009 z" /><rect
       style="fill:#574e38;fill-opacity:1;stroke-width:0.2"
       id="rect10"
       width="32"
       height="32"
       x="285.84113"
       y="96.105003"
       ry="6.0608959" /><rect
       style="fill:#ffffff;fill-opacity:1;stroke-width:0.2"
       id="rect11"
       width="24.744293"
       height="24.549353"
       x="289.91205"
       y="99.999527"
       ry="1.6007628" /><path
       id="path11"
       style="fill:#9d8d66;fill-opacity:1;stroke-width:0.218451"
       d="m 295.12432,102.8511 c -1.58063,0 -2.85351,1.27287 -2.85351,2.85352 v 7.04687 0.91992 6.37891 c 0,1.04127 0.83959,1.8789 1.88086,1.8789 h 15.75 c 1.04127,0 1.88086,-0.83763 1.88086,-1.8789 v -15.32031 c 0,-1.04127 -0.83959,-1.87891 -1.88086,-1.87891 h -4.89453 -2.24219 z" /><rect
       style="fill:#574e38;fill-opacity:1;stroke:none;stroke-width:0.21"
       id="rect15"
       width="93.736122"
       height="64.000008"
       x="192"
       y="64.000008"
       ry="10.395909" /><rect
       style="fill:#ffffff;fill-opacity:0.993998;stroke:none;stroke-width:0.21"
       id="rect12"
       width="86.276871"
       height="56.388878"
       x="195.77827"
       y="67.969437"
       ry="6.7184424" /><path
       id="rect13"
       style="fill:#9d8d66;fill-opacity:1;stroke:none;stroke-width:0.21"
       d="m 212.39063,71.013678 c -10.5844,0.233219 -12.99051,2.126215 -13.46289,12.478514 v 32.892578 c 0,2.56105 2.06199,4.62305 4.62305,4.62305 h 70.86913 c 2.56105,0 4.62305,-2.062 4.62305,-4.62305 V 75.636724 c 0,-2.561047 -2.062,-4.623046 -4.62305,-4.623046 z" /><path
       id="path16"
       style="fill:#7b6e4f;fill-opacity:0.99607843;stroke:none;stroke-width:0.21"
       d="m 279.04297,78.546875 c -1.37091,0.839934 -2.72508,1.550957 -4.03125,2.0625 -3.92937,1.538879 -10.4644,-1.776564 -13.51367,1.140625 -4.12352,3.944882 3.10326,12.253127 -1.22461,15.972657 -6.32306,5.434263 -18.40399,-3.905958 -25.87305,-0.201173 -7.14365,3.543376 -4.83972,16.287886 -12.26953,19.183596 -6.9901,2.72433 -15.78724,-5.33369 -23.20312,-6.72852 v 6.40821 c 0,2.56104 2.06199,4.62304 4.62305,4.62304 h 70.86913 c 2.56105,0 4.62305,-2.062 4.62305,-4.62304 z" /><circle
       style="fill:#7b6e4f;fill-opacity:0.99607843;stroke:none;stroke-width:0.224279;stroke-opacity:1"
       id="path17"
       cx="215.69525"
       cy="102.2393"
       r="6.8658853" /><circle
       style="fill:#7b6e4f;fill-opacity:0.99607843;stroke:none;stroke-width:0.0312443;stroke-opacity:1"
       id="circle17"
       cx="248.15338"
       cy="84.376587"
       r="0.95648354" /><rect
       style="mix-blend-mode:normal;fill:#0a0a0b;fill-opacity:1;stroke-width:0.0452843;filter:url(#filter1)"
       id="rect17"
       width="11.499283"
       height="11.583433"
       x="249.73126"
       y="26.415375"
       ry="0"
       transform="matrix(0.90391899,0,0,0.90391899,-21.892025,52.923194)" /><rect
       style="fill:#d6d7d9;fill-opacity:1;stroke-width:0.0409333"
       id="rect18"
       width="10.39442"
       height="10.470485"
       x="203.8448"
       y="76.800583"
       ry="0" /><rect
       style="fill:#9d8d66;fill-opacity:1;stroke-width:0.0362491"
       id="rect19"
       width="9.0796995"
       height="9.4001637"
       x="204.50217"
       y="77.335739"
       ry="0" /><path
       id="path19"
       style="fill:#7b6e4f;fill-opacity:0.99607843;stroke-width:0.039"
       d="m 213.58229,80.291578 c -0.40506,0.281516 -0.8011,0.527265 -1.1465,0.683588 -1.32507,0.599733 -3.16842,-0.0574 -4.27148,0.890632 -1.08551,0.93298 -0.30753,3.2317 -1.49999,4.023434 -0.51009,0.338662 -1.34215,0.378118 -2.16211,0.302731 v 0.542975 h 9.08008 z" /><rect
       style="mix-blend-mode:normal;fill:#0a0a0b;fill-opacity:1;stroke-width:0.0452843;filter:url(#filter1)"
       id="rect20"
       width="11.499283"
       height="11.583433"
       x="314.54193"
       y="93.621803"
       ry="0"
       transform="matrix(0.90391899,0,0,0.90391899,-20.694164,18.271099)" /><rect
       style="fill:#d6d7d9;fill-opacity:1;stroke-width:0.0409333"
       id="rect21"
       width="10.39442"
       height="10.470485"
       x="263.62625"
       y="102.89765"
       ry="0" /><rect
       style="fill:#9d8d66;fill-opacity:1;stroke-width:0.0362491"
       id="rect22"
       width="9.0796995"
       height="9.4001637"
       x="264.2836"
       y="103.43281"
       ry="0" /><path
       id="path22"
       style="fill:#7b6e4f;fill-opacity:0.99607843;stroke-width:0.039"
       d="m 273.36374,106.38864 c -0.40506,0.28152 -0.8011,0.52727 -1.1465,0.68359 -1.32507,0.59973 -3.16843,-0.0574 -4.27149,0.89063 -1.0855,0.93298 -0.30753,3.2317 -1.49999,4.02344 -0.51008,0.33866 -1.34215,0.37811 -2.16211,0.30273 v 0.54297 h 9.08009 z" /></g></svg>
