<?xml version="1.0" encoding="UTF-8" standalone="no"?>
<svg
   width="192"
   height="192"
   viewBox="0 0 192 192"
   version="1.1"
   id="SVGRoot"
   sodipodi:docname="80_81_82_96_97_98_112_113_114_silver.svg"
   inkscape:version="1.3 (0e150ed6c4, 2023-07-21)"
   xml:space="preserve"
   xmlns:inkscape="http://www.inkscape.org/namespaces/inkscape"
   xmlns:sodipodi="http://sodipodi.sourceforge.net/DTD/sodipodi-0.dtd"
   xmlns="http://www.w3.org/2000/svg"
   xmlns:svg="http://www.w3.org/2000/svg"><defs
     id="defs823"><filter
       inkscape:collect="always"
       style="color-interpolation-filters:sRGB"
       id="filter1"
       x="-0.19103031"
       y="-0.18964253"
       width="1.3820606"
       height="1.3792851"><feGaussianBlur
         inkscape:collect="always"
         stdDeviation="0.91529649"
         id="feGaussianBlur1" /></filter></defs><sodipodi:namedview
     id="base"
     pagecolor="#8e8e8e"
     bordercolor="#666666"
     borderopacity="1.0"
     inkscape:pageopacity="0"
     inkscape:pageshadow="2"
     inkscape:zoom="1.4142136"
     inkscape:cx="177.83736"
     inkscape:cy="125.1579"
     inkscape:document-units="px"
     inkscape:current-layer="g976"
     showgrid="true"
     inkscape:window-width="3840"
     inkscape:window-height="2092"
     inkscape:window-x="1920"
     inkscape:window-y="32"
     inkscape:window-maximized="1"
     inkscape:pagecheckerboard="true"
     inkscape:blackoutopacity="0.0"
     inkscape:deskcolor="#aaaaaa"
     inkscape:deskopacity="0"
     inkscape:showpageshadow="2"
     showguides="true"><inkscape:grid
       type="xygrid"
       id="grid535"
       spacingx="64"
       spacingy="64"
       originx="-192"
       originy="0"
       units="px"
       visible="true" /></sodipodi:namedview><g
     inkscape:label="Layer 1"
     inkscape:groupmode="layer"
     id="layer1"
     transform="translate(-192)"><g
       id="g976"
       transform="matrix(0.90391899,0,0,0.90391899,-21.892025,52.923194)"><g
         id="g63365"
         style="fill:none;fill-opacity:1;stroke:#843636;stroke-opacity:1"><g
           id="g63355"
           style="fill:none;fill-opacity:1;stroke:#843636;stroke-opacity:1" /></g><g
         id="g2323" /><rect
         style="fill:#45464a;fill-opacity:1;stroke:none;stroke-width:0.232322;stroke-opacity:1"
         id="rect5"
         width="212.40842"
         height="212.40842"
         x="236.62743"
         y="-58.548592"
         ry="11.466571" /><rect
         style="fill:#ffffff;fill-opacity:1;stroke:none;stroke-width:0.232322;stroke-opacity:1"
         id="rect8"
         width="204.05368"
         height="203.48268"
         x="240.42856"
         y="-54.09848"
         ry="7.0584426" /><rect
         style="fill:#7d7e86;fill-opacity:0.992157;stroke:none;stroke-width:0.232322;stroke-opacity:1"
         id="rect10"
         width="196.08054"
         height="196.37051"
         x="244.68509"
         y="-50.525635"
         ry="7.0584426" /><g
         id="g2"><ellipse
           style="fill:#626369;fill-opacity:1;stroke:none;stroke-width:0.111235;stroke-dasharray:none;stroke-opacity:1"
           id="path2116"
           cx="31.49312"
           cy="265.10501"
           rx="3.492589"
           ry="3.505265"
           transform="rotate(-90)" /><g
           id="g12"
           transform="translate(0,221.25878)"><path
             id="path11"
             style="fill:#626369;fill-opacity:1;stroke:none;stroke-width:0.232322;stroke-opacity:1"
             d="m 423.42039,-271.7846 c -4.19752,8.44292 -7.18674,16.70549 -7.19091,23.24297 -0.008,12.58671 20.09887,25.20389 11.86889,37.3223 -7.82443,11.52126 -25.30242,-6.07201 -34.11577,0.96585 -14.04946,11.21911 3.19185,40.27103 -11.2963,50.91761 -10.00737,7.35389 -26.70291,-9.9849 -35.93726,-1.68105 -13.62367,12.25087 9.70341,43.4036 -4.39493,55.10511 -11.4542,9.506898 -28.55783,-13.56752 -42.09102,-7.36809 -11.22593,5.14248 -8.45625,26.244658 -34.9671,27.462878 -4.54066,0.20865 -12.06933,0.84094 -20.6112,1.62919 v 1.71562 c 0,3.91037 3.14873,7.059097 7.05911,7.059097 h 181.96372 c 3.91038,0 7.05695,-3.148727 7.05695,-7.059097 V -264.7255 c 0,-3.91037 -3.14657,-7.0591 -7.05695,-7.0591 z" /><circle
             style="fill:#626369;fill-opacity:1;stroke:none;stroke-width:0.216275;stroke-opacity:1"
             id="path12"
             cx="330.18246"
             cy="-122.56857"
             r="9.1859894" /><circle
             style="fill:#626369;fill-opacity:1;stroke:none;stroke-width:0.144207;stroke-opacity:1"
             id="circle12"
             cx="361.27286"
             cy="-236.35747"
             r="6.1249967" /></g></g><path
         id="rect11"
         style="fill:#58595f;fill-opacity:0.992157;stroke:none;stroke-width:0.232322;stroke-opacity:1"
         d="m 440.76457,58.297205 c -2.80011,6.2584 -5.42482,12.63166 -6.87761,17.56457 -2.3653,8.031367 -0.0128,17.896027 -4.99344,24.625845 -5.70985,7.71508 -17.5066,6.45803 -24.77494,12.7267 -7.06166,6.09041 -6.88885,18.09239 -15.01059,22.6747 -7.29985,4.1186 -18.4411,-2.12254 -25.84017,1.81501 -3.26645,1.73831 -6.5587,4.66813 -9.72761,8.14163 h 80.16741 c 3.91038,0 7.05695,-3.14873 7.05695,-7.0591 z" /><g
         id="g1"
         transform="translate(-169.12913,-0.4355987)"><g
           id="g8"
           transform="matrix(1.1062938,0,0,1.1062938,196.4051,-89.516286)"><rect
             style="mix-blend-mode:normal;fill:#0a0a0b;fill-opacity:1;stroke-width:0.0452843;filter:url(#filter1)"
             id="rect5-3"
             width="11.499283"
             height="11.583433"
             x="19.624392"
             y="0.71359313"
             ry="0"
             transform="matrix(0.90391899,0,0,0.90391899,185.49938,40.110125)" /><rect
             style="fill:#d6d7d9;fill-opacity:1;stroke-width:0.0409333"
             id="rect7"
             width="10.39442"
             height="10.470485"
             x="203.23824"
             y="40.755157"
             ry="0" /><rect
             style="fill:#7d7e86;fill-opacity:1;stroke-width:0.0362491"
             id="rect8-6"
             width="9.0796995"
             height="9.4001637"
             x="203.89561"
             y="41.290318"
             ry="0" /><path
             id="path8"
             style="fill:#626369;fill-opacity:1;stroke-width:0.039"
             d="m 212.97572,44.246228 c -0.40505,0.281519 -0.8011,0.527271 -1.14649,0.683594 -1.32508,0.599731 -3.16843,-0.05743 -4.27149,0.890625 -1.08551,0.932986 -0.30753,3.231708 -1.49999,4.023437 -0.51008,0.338659 -1.34215,0.378117 -2.16211,0.302735 v 0.542968 h 9.08008 z" /></g></g><g
         id="g14"
         transform="translate(1.0622127,-0.43559734)"><g
           id="g13"
           transform="matrix(1.1062938,0,0,1.1062938,196.4051,-89.516286)"><rect
             style="mix-blend-mode:normal;fill:#0a0a0b;fill-opacity:1;stroke-width:0.0452843;filter:url(#filter1)"
             id="rect9"
             width="11.499283"
             height="11.583433"
             x="19.624392"
             y="0.71359313"
             ry="0"
             transform="matrix(0.90391899,0,0,0.90391899,185.49938,40.110125)" /><rect
             style="fill:#d6d7d9;fill-opacity:1;stroke-width:0.0409333"
             id="rect12"
             width="10.39442"
             height="10.470485"
             x="203.23824"
             y="40.755157"
             ry="0" /><rect
             style="fill:#7d7e86;fill-opacity:1;stroke-width:0.0362491"
             id="rect13"
             width="9.0796995"
             height="9.4001637"
             x="203.89561"
             y="41.290318"
             ry="0" /><path
             id="path13"
             style="fill:#626369;fill-opacity:1;stroke-width:0.039"
             d="m 212.97572,44.246228 c -0.40505,0.281519 -0.8011,0.527271 -1.14649,0.683594 -1.32508,0.599731 -3.16843,-0.05743 -4.27149,0.890625 -1.08551,0.932986 -0.30753,3.231708 -1.49999,4.023437 -0.51008,0.338659 -1.34215,0.378117 -2.16211,0.302735 v 0.542968 h 9.08008 z" /></g></g><g
         id="g17"
         transform="translate(1.0624667,173.311)"><g
           id="g16"
           transform="matrix(1.1062938,0,0,1.1062938,196.4051,-89.516286)"><rect
             style="mix-blend-mode:normal;fill:#0a0a0b;fill-opacity:1;stroke-width:0.0452843;filter:url(#filter1)"
             id="rect14"
             width="11.499283"
             height="11.583433"
             x="19.624392"
             y="0.71359313"
             ry="0"
             transform="matrix(0.90391899,0,0,0.90391899,185.49938,40.110125)" /><rect
             style="fill:#d6d7d9;fill-opacity:1;stroke-width:0.0409333"
             id="rect15"
             width="10.39442"
             height="10.470485"
             x="203.23824"
             y="40.755157"
             ry="0" /><rect
             style="fill:#7d7e86;fill-opacity:1;stroke-width:0.0362491"
             id="rect16"
             width="9.0796995"
             height="9.4001637"
             x="203.89561"
             y="41.290318"
             ry="0" /><path
             id="path16"
             style="fill:#626369;fill-opacity:1;stroke-width:0.039"
             d="m 212.97572,44.246228 c -0.40505,0.281519 -0.8011,0.527271 -1.14649,0.683594 -1.32508,0.599731 -3.16843,-0.05743 -4.27149,0.890625 -1.08551,0.932986 -0.30753,3.231708 -1.49999,4.023437 -0.51008,0.338659 -1.34215,0.378117 -2.16211,0.302735 v 0.542968 h 9.08008 z" /></g></g><g
         id="g20"
         transform="translate(-169.12888,173.311)"><g
           id="g19"
           transform="matrix(1.1062938,0,0,1.1062938,196.4051,-89.516286)"><rect
             style="mix-blend-mode:normal;fill:#0a0a0b;fill-opacity:1;stroke-width:0.0452843;filter:url(#filter1)"
             id="rect17"
             width="11.499283"
             height="11.583433"
             x="19.624392"
             y="0.71359313"
             ry="0"
             transform="matrix(0.90391899,0,0,0.90391899,185.49938,40.110125)" /><rect
             style="fill:#d6d7d9;fill-opacity:1;stroke-width:0.0409333"
             id="rect18"
             width="10.39442"
             height="10.470485"
             x="203.23824"
             y="40.755157"
             ry="0" /><rect
             style="fill:#7d7e86;fill-opacity:1;stroke-width:0.0362491"
             id="rect19"
             width="9.0796995"
             height="9.4001637"
             x="203.89561"
             y="41.290318"
             ry="0" /><path
             id="path19"
             style="fill:#626369;fill-opacity:1;stroke-width:0.039"
             d="m 212.97572,44.246228 c -0.40505,0.281519 -0.8011,0.527271 -1.14649,0.683594 -1.32508,0.599731 -3.16843,-0.05743 -4.27149,0.890625 -1.08551,0.932986 -0.30753,3.231708 -1.49999,4.023437 -0.51008,0.338659 -1.34215,0.378117 -2.16211,0.302735 v 0.542968 h 9.08008 z" /></g></g></g></g></svg>
