<?xml version="1.0" encoding="UTF-8" standalone="no"?>
<svg
   width="64"
   height="64"
   viewBox="0 0 64 64"
   version="1.1"
   id="SVGRoot"
   sodipodi:docname="8_gold.svg"
   inkscape:version="1.3 (0e150ed6c4, 2023-07-21)"
   xml:space="preserve"
   xmlns:inkscape="http://www.inkscape.org/namespaces/inkscape"
   xmlns:sodipodi="http://sodipodi.sourceforge.net/DTD/sodipodi-0.dtd"
   xmlns="http://www.w3.org/2000/svg"
   xmlns:svg="http://www.w3.org/2000/svg"><defs
     id="defs823"><filter
       inkscape:collect="always"
       style="color-interpolation-filters:sRGB"
       id="filter2525"
       x="-0.31219294"
       y="-0.30803804"
       width="1.6243859"
       height="1.6160761"><feGaussianBlur
         inkscape:collect="always"
         stdDeviation="1.5360334"
         id="feGaussianBlur2523" /></filter></defs><sodipodi:namedview
     id="base"
     pagecolor="#8e8e8e"
     bordercolor="#666666"
     borderopacity="1.0"
     inkscape:pageopacity="0"
     inkscape:pageshadow="2"
     inkscape:zoom="5.6568543"
     inkscape:cx="-26.604892"
     inkscape:cy="59.750522"
     inkscape:document-units="px"
     inkscape:current-layer="g976"
     showgrid="true"
     inkscape:window-width="3840"
     inkscape:window-height="2092"
     inkscape:window-x="1920"
     inkscape:window-y="32"
     inkscape:window-maximized="1"
     inkscape:pagecheckerboard="true"
     inkscape:blackoutopacity="0.0"
     inkscape:deskcolor="#aaaaaa"
     inkscape:deskopacity="0"
     inkscape:showpageshadow="2"
     showguides="true"><inkscape:grid
       type="xygrid"
       id="grid535"
       spacingx="64"
       spacingy="64"
       originx="-192"
       originy="0"
       units="px"
       visible="true" /></sodipodi:namedview><g
     inkscape:label="Layer 1"
     inkscape:groupmode="layer"
     id="layer1"
     transform="translate(-192)"><g
       id="g976"
       transform="matrix(0.90391899,0,0,0.90391899,-21.892025,52.923194)"><g
         id="g63365"
         style="fill:none;fill-opacity:1;stroke:#843636;stroke-opacity:1"><g
           id="g63355"
           style="fill:none;fill-opacity:1;stroke:#843636;stroke-opacity:1" /></g><g
         id="g2323" /><rect
         style="fill:#574e38;fill-opacity:1;stroke:none;stroke-width:4.42518;stroke-dasharray:none;stroke-opacity:1"
         id="rect344"
         width="70.802811"
         height="70.80275"
         x="236.62744"
         y="-58.548599"
         ry="11.629684" /><rect
         style="fill:#ffffff;fill-opacity:1;stroke:none;stroke-width:3.91624;stroke-dasharray:none;stroke-opacity:1"
         id="rect952"
         width="63.058758"
         height="62.263298"
         x="241.0526"
         y="-54.123428"
         ry="8.1187096" /><path
         id="rect960"
         style="fill:#9d8d66;stroke-width:4.38809;fill-opacity:1"
         d="m 252.59397,-50.844279 h 39.97612 c 4.70834,0 8.22243,2.22715 8.22243,8.085163 v 39.308751 c 0,4.479181 -3.6672,8.085164 -8.22243,8.085164 h -39.97612 c -4.55522,0 -8.22243,-3.605983 -8.22243,-8.085164 v -39.308751 c 0,-4.479181 3.66721,-8.085163 8.22243,-8.085163 z"
         sodipodi:nodetypes="sssssssss" /><path
         id="rect2059"
         style="fill:#7b6e4f;fill-opacity:1;stroke-width:4.38809"
         d="m 252.59307,-50.84428 c -4.55522,0 -8.22158,3.605148 -8.22158,8.084326 v 39.31043 c 0,4.479176 3.66636,8.084325 8.22158,8.084325 h 37.60967 c -2.64493,-3.558793 -4.50802,-8.130384 -5.97874,-12.040439 -1.77551,-4.720374 -1.30507,-12.66726 -7.43939,-15.065954 -3.21247,-1.25616 -7.20383,0.516522 -10.07981,2.402989 -2.89358,1.898008 -6.89356,4.321253 -9.64982,1.58287 -3.89257,-3.867325 -0.34715,-11.292377 -0.55963,-16.72956 -0.16263,-4.161544 -0.0255,-10.330067 0.15557,-15.628987 z" /><ellipse
         style="fill:#7b6e4f;fill-opacity:1;stroke-width:4.77994"
         id="path2116"
         cx="268.97519"
         cy="-35.090675"
         rx="4.1088643"
         ry="4.3149948" /><ellipse
         style="fill:#7b6e4f;fill-opacity:1;stroke-width:1.79863"
         id="ellipse2118"
         cx="293.35925"
         cy="-26.691795"
         rx="1.5299654"
         ry="1.6408256" /><rect
         style="mix-blend-mode:normal;fill:#000000;fill-opacity:1;stroke-width:4.42518;filter:url(#filter2525)"
         id="rect2249"
         width="11.808339"
         height="11.967613"
         x="249.50063"
         y="-44.675365"
         ry="0.15397646" /><rect
         style="fill:#ffffff;fill-opacity:1;stroke-width:4.42518"
         id="rect2251"
         width="11.808339"
         height="11.967613"
         x="249.50063"
         y="-44.675362"
         ry="0.15397646" /><rect
         style="fill:#9d8d66;fill-opacity:1;stroke-width:3.7393"
         id="rect2257"
         width="10.044133"
         height="10.046266"
         x="250.42355"
         y="-43.632442"
         ry="0.1292562" /><path
         id="rect2261"
         style="fill:#7b6e4f;fill-opacity:1;stroke-width:3.7393"
         d="m 260.4673,-40.557103 c -0.23745,0.299138 -0.51155,0.543217 -0.83226,0.716735 -1.38201,0.747759 -3.47311,-0.90204 -4.71522,0.06039 -1.3409,1.03904 -0.12799,3.716119 -1.33108,4.91213 -0.73313,0.72881 -1.92672,0.700728 -3.17885,0.68474 l 0.0126,0.467812 c 0.002,0.07157 0.0597,0.128645 0.13128,0.128645 h 9.78488 c 0.0716,0 0.12864,-0.05703 0.12864,-0.128645 z"
         sodipodi:nodetypes="cccscssssc" /><rect
         style="mix-blend-mode:normal;fill:#000000;fill-opacity:1;stroke-width:4.42518;filter:url(#filter2525)"
         id="rect2547"
         width="11.808339"
         height="11.967613"
         x="282.83322"
         y="-14.206868"
         ry="0.15397646" /><rect
         style="fill:#ffffff;fill-opacity:1;stroke-width:4.42518"
         id="rect2549"
         width="11.808339"
         height="11.967613"
         x="282.83322"
         y="-14.206864"
         ry="0.15397646" /><rect
         style="fill:#9d8d66;fill-opacity:1;stroke-width:3.7393"
         id="rect2551"
         width="10.044133"
         height="10.046266"
         x="283.75613"
         y="-13.163945"
         ry="0.1292562" /><path
         id="path2553"
         style="fill:#7b6e4f;fill-opacity:1;stroke-width:3.7393"
         d="m 293.79989,-10.088606 c -0.23745,0.299138 -0.51155,0.543217 -0.83226,0.716735 -1.38201,0.747759 -3.47311,-0.90204 -4.71522,0.06039 -1.3409,1.03904 -0.12799,3.716119 -1.33108,4.91213 -0.73313,0.72881 -1.92672,0.700728 -3.17885,0.68474 l 0.0126,0.467812 c 0.002,0.07157 0.0597,0.128645 0.13128,0.128645 h 9.78488 c 0.0716,0 0.12864,-0.05703 0.12864,-0.128645 z"
         sodipodi:nodetypes="cccscssssc" /></g></g></svg>
