<?xml version="1.0" encoding="UTF-8" standalone="no"?>
<svg
   width="64"
   height="64"
   viewBox="0 0 64 64"
   version="1.1"
   id="SVGRoot"
   sodipodi:docname="9_gold.svg"
   inkscape:version="1.3 (0e150ed6c4, 2023-07-21)"
   xml:space="preserve"
   xmlns:inkscape="http://www.inkscape.org/namespaces/inkscape"
   xmlns:sodipodi="http://sodipodi.sourceforge.net/DTD/sodipodi-0.dtd"
   xmlns="http://www.w3.org/2000/svg"
   xmlns:svg="http://www.w3.org/2000/svg"><defs
     id="defs823" /><sodipodi:namedview
     id="base"
     pagecolor="#8e8e8e"
     bordercolor="#666666"
     borderopacity="1.0"
     inkscape:pageopacity="0"
     inkscape:pageshadow="2"
     inkscape:zoom="11.313708"
     inkscape:cx="14.18633"
     inkscape:cy="46.757436"
     inkscape:document-units="px"
     inkscape:current-layer="g976"
     showgrid="true"
     inkscape:window-width="3840"
     inkscape:window-height="2092"
     inkscape:window-x="1920"
     inkscape:window-y="32"
     inkscape:window-maximized="1"
     inkscape:pagecheckerboard="true"
     inkscape:blackoutopacity="0.0"
     inkscape:deskcolor="#aaaaaa"
     inkscape:deskopacity="0"
     inkscape:showpageshadow="2"
     showguides="true"><inkscape:grid
       type="xygrid"
       id="grid535"
       spacingx="64"
       spacingy="64"
       originx="-192"
       originy="0"
       units="px"
       visible="true" /></sodipodi:namedview><g
     inkscape:label="Layer 1"
     inkscape:groupmode="layer"
     id="layer1"
     transform="translate(-192)"><g
       id="g976"
       transform="matrix(0.90391899,0,0,0.90391899,-21.892025,52.923194)"><g
         id="g63365"
         style="fill:none;fill-opacity:1;stroke:#843636;stroke-opacity:1"><g
           id="g63355"
           style="fill:none;fill-opacity:1;stroke:#843636;stroke-opacity:1" /></g><g
         id="g2323" /><rect
         style="fill:#574e38;fill-opacity:1;stroke:none;stroke-width:4.42518;stroke-dasharray:none;stroke-opacity:1"
         id="rect344"
         width="70.802811"
         height="70.80275"
         x="236.62744"
         y="-58.548599"
         ry="11.629684" /><rect
         style="fill:#ffffff;fill-opacity:1;stroke:none;stroke-width:3.91624;stroke-dasharray:none;stroke-opacity:1"
         id="rect952"
         width="63.058758"
         height="62.263298"
         x="241.0526"
         y="-54.123428"
         ry="8.1187096" /><path
         id="rect960"
         style="fill:#9d8d66;stroke-width:4.38809;fill-opacity:1"
         d="m 244.84246,-3.116709 v -39.97612 c 0,-4.70834 2.22715,-8.22243 8.08516,-8.22243 h 39.30875 c 4.47918,0 8.08517,3.6672 8.08517,8.22243 v 39.97612 c 0,4.55522 -3.60599,8.22243 -8.08517,8.22243 h -39.30875 c -4.47918,0 -8.08516,-3.66721 -8.08516,-8.22243 z"
         sodipodi:nodetypes="sssssssss" /><path
         id="rect2059"
         style="fill:#6f6447;fill-opacity:1;stroke-width:4.38809"
         d="m 244.84246,-3.115809 c 0,4.55522 3.60515,8.22158 8.08432,8.22158 h 39.31043 c 4.47918,0 8.08433,-3.66636 8.08433,-8.22158 v -37.60967 c -3.55879,2.64493 -8.13038,4.50802 -12.04044,5.97874 -4.72037,1.77551 -12.66726,1.30507 -15.06595,7.43939 -1.25616,3.21247 0.51652,7.20383 2.40299,10.07981 1.898,2.89358 4.32125,6.89356 1.58287,9.64982 -3.86733,3.89257 -11.29238,0.34715 -16.72956,0.55963 -4.16155,0.16263 -10.33007,0.0255 -15.62899,-0.15557 z" /><ellipse
         style="fill:#6f6447;fill-opacity:1;stroke-width:4.77994"
         id="path2116"
         cx="19.497929"
         cy="260.59607"
         rx="4.1088643"
         ry="4.3149948"
         transform="rotate(-90)" /><ellipse
         style="fill:#6f6447;fill-opacity:1;stroke-width:1.79863"
         id="ellipse2118"
         cx="43.881992"
         cy="268.99493"
         rx="1.5299654"
         ry="1.6408256"
         transform="rotate(-90)" /></g></g></svg>
