<?xml version="1.0" encoding="UTF-8" standalone="no"?>
<svg
   width="64px"
   height="64px"
   viewBox="0 0 64 64"
   version="1.1"
   id="SVGRoot"
   sodipodi:docname="16_grass_top.svg"
   inkscape:version="1.2-dev (3978b257e3, 2021-12-14)"
   xmlns:inkscape="http://www.inkscape.org/namespaces/inkscape"
   xmlns:sodipodi="http://sodipodi.sourceforge.net/DTD/sodipodi-0.dtd"
   xmlns="http://www.w3.org/2000/svg"
   xmlns:svg="http://www.w3.org/2000/svg">
  <defs
     id="defs823">
    <clipPath
       clipPathUnits="userSpaceOnUse"
       id="clipPath1748">
      <path
         style="fill:#a16e36;fill-opacity:1;stroke:none;stroke-width:0.98873px;stroke-linecap:butt;stroke-linejoin:miter;stroke-opacity:1"
         d="M 0.75489256,-2.9673984 H 63.295587 V 61.058042 H 0.75489256 Z"
         id="path1750" />
    </clipPath>
    <clipPath
       clipPathUnits="userSpaceOnUse"
       id="clipPath927">
      <path
         style="fill:#b3b3b3;stroke:none;stroke-width:1px;stroke-linecap:butt;stroke-linejoin:miter;stroke-opacity:1"
         d="M 64,192 H 0 v -64 h 64 z"
         id="path929" />
    </clipPath>
    <filter
       inkscape:collect="always"
       style="color-interpolation-filters:sRGB"
       id="filter21537"
       x="-0.094128281"
       width="1.1882566"
       y="-0.28921859"
       height="1.5784372">
      <feGaussianBlur
         inkscape:collect="always"
         stdDeviation="2.5100876"
         id="feGaussianBlur21535" />
    </filter>
  </defs>
  <sodipodi:namedview
     id="base"
     pagecolor="#a2a2a2"
     bordercolor="#666666"
     borderopacity="1.0"
     inkscape:pageopacity="0"
     inkscape:pageshadow="2"
     inkscape:zoom="8.0000005"
     inkscape:cx="8.7499994"
     inkscape:cy="46.749997"
     inkscape:document-units="px"
     inkscape:current-layer="g1691"
     showgrid="true"
     inkscape:window-width="3840"
     inkscape:window-height="2100"
     inkscape:window-x="1920"
     inkscape:window-y="32"
     inkscape:window-maximized="1"
     inkscape:pagecheckerboard="true"
     inkscape:blackoutopacity="0.0"
     inkscape:deskcolor="#b4b4b4"
     inkscape:deskopacity="0" />
  <g
     inkscape:label="Layer 1"
     inkscape:groupmode="layer"
     id="layer1">
    <g
       id="g1691">
      <g
         id="g33379">
        <g
           id="g23015">
          <g
             id="g1775">
            <path
               style="fill:#a16e36;fill-opacity:1;stroke:none;stroke-width:1px;stroke-linecap:butt;stroke-linejoin:miter;stroke-opacity:1"
               d="M 0,0 H 64 V 64 H 0 Z"
               id="path1709" />
            <path
               id="path907-6-3"
               style="opacity:1;mix-blend-mode:normal;fill:#835a26;fill-opacity:1;stroke:none;stroke-width:1px;stroke-linecap:butt;stroke-linejoin:miter;stroke-opacity:1;filter:url(#filter21537)"
               d="M 18.703125,17.400391 C 10.885294,17.284256 5.651164,19.200453 -0.496094,20.398438 v 14 L 3.0552245,36.18079 7.388249,31.310368 15.026009,36.629221 21,30 l 5.251496,4.831696 2.232879,-6.085602 9.300781,6.320313 7.199219,-6.66211 13.8125,9.820313 4.707031,-3.826172 v -14 c -7.632966,2.216636 -16.134322,3.08617 -27.183594,0 -7.306068,-2.127006 -12.926489,-2.928366 -17.617187,-2.998047 z"
               transform="matrix(1.0233337,0,0,0.99960266,-0.772507,2.9662193)"
               clip-path="url(#clipPath1748)"
               sodipodi:nodetypes="sccccccccccccccs" />
            <g
               id="g1719">
              <path
                 style="fill:#324f21;fill-opacity:1;stroke:none;stroke-width:0.986397px;stroke-linecap:butt;stroke-linejoin:miter;stroke-opacity:1"
                 d="m 0,2 v 31.197475 l 7.4800562,-4.724484 7.6823668,7.378639 6.395213,-6.552119 3.398909,2.857521 4.096581,-4.09117 9.468513,6.272519 7.047494,-6.264266 12.029266,8.91267 L 64,33.165859 V 2 Z"
                 id="path623"
                 sodipodi:nodetypes="ccccccccccccc" />
              <g
                 id="g1713">
                <path
                   style="fill:#8cdb26;fill-opacity:1;stroke:none;stroke-width:1px;stroke-linecap:butt;stroke-linejoin:miter;stroke-opacity:1"
                   d="m 0,0 v 30.988983 l 7.495307,-4.516575 7.589854,7.19706 6.411768,-6.068241 3.293326,2.968323 4.190842,-4.22196 9.300365,6.320857 7.198934,-6.662051 12.19258,8.667508 L 64,30.984589 V 0 Z"
                   id="path903"
                   sodipodi:nodetypes="ccccccccccccc" />
                <path
                   id="path907"
                   style="fill:#68a421;fill-opacity:1;stroke:none;stroke-width:1px;stroke-linecap:butt;stroke-linejoin:miter;stroke-opacity:1"
                   d="M 19.199219,15.001953 C 11.381388,14.885818 2.2228184,16.512463 0,18 v 12.988983 l 7.4960938,-4.516327 7.5898442,7.197266 6.410156,-6.06836 3.294922,2.96875 4.189453,-4.222656 9.300781,6.320313 7.199219,-6.66211 12.192507,8.668045 L 64,30.984589 V 18 C 59.498751,20.221571 47.865678,21.08617 36.816406,18 29.510338,15.872994 23.889917,15.071634 19.199219,15.001953 Z"
                   sodipodi:nodetypes="scccccccccccccs" />
              </g>
              <path
                 style="fill:#9fe743;fill-opacity:1;stroke:none;stroke-width:1px;stroke-linecap:butt;stroke-linejoin:miter;stroke-opacity:1"
                 d="m 0,0 v 1.4963884 l 64,0 V 0 Z"
                 id="path13549"
                 sodipodi:nodetypes="ccccc" />
            </g>
          </g>
        </g>
      </g>
    </g>
  </g>
</svg>
