<?xml version="1.0" encoding="UTF-8" standalone="no"?>
<svg
   width="64"
   height="64"
   viewBox="0 0 64 64"
   version="1.1"
   id="SVGRoot"
   sodipodi:docname="22_grass_to_dirt.svg"
   inkscape:version="1.2-dev (3978b257e3, 2021-12-14)"
   xmlns:inkscape="http://www.inkscape.org/namespaces/inkscape"
   xmlns:sodipodi="http://sodipodi.sourceforge.net/DTD/sodipodi-0.dtd"
   xmlns="http://www.w3.org/2000/svg"
   xmlns:svg="http://www.w3.org/2000/svg">
  <defs
     id="defs823">
    <filter
       inkscape:collect="always"
       style="color-interpolation-filters:sRGB"
       id="filter7007"
       x="-0.12446377"
       y="-0.078279051"
       width="1.2489275"
       height="1.1565581">
      <feGaussianBlur
         inkscape:collect="always"
         stdDeviation="1.8759599"
         id="feGaussianBlur7009" />
    </filter>
    <clipPath
       clipPathUnits="userSpaceOnUse"
       id="clipPath1748-3">
      <path
         style="fill:#a16e36;fill-opacity:1;stroke:none;stroke-width:0.98873px;stroke-linecap:butt;stroke-linejoin:miter;stroke-opacity:1"
         d="M 0.75489256,-2.9673984 H 63.295587 V 61.058042 H 0.75489256 Z"
         id="path1750-6" />
    </clipPath>
    <clipPath
       clipPathUnits="userSpaceOnUse"
       id="clipPath10724">
      <path
         style="fill:#4d4d4d;stroke:none;stroke-width:0.980818px;stroke-linecap:butt;stroke-linejoin:miter;stroke-opacity:1"
         d="M 445.40539,128.08057 V 63.884016 h -61.37978 v 64.196554 z"
         id="path10726" />
    </clipPath>
  </defs>
  <sodipodi:namedview
     id="base"
     pagecolor="#8e8e8e"
     bordercolor="#666666"
     borderopacity="1.0"
     inkscape:pageopacity="0"
     inkscape:pageshadow="2"
     inkscape:zoom="5.6568546"
     inkscape:cx="-37.476657"
     inkscape:cy="35.885667"
     inkscape:document-units="px"
     inkscape:current-layer="layer1"
     showgrid="true"
     inkscape:window-width="3840"
     inkscape:window-height="2100"
     inkscape:window-x="1920"
     inkscape:window-y="32"
     inkscape:window-maximized="1"
     inkscape:pagecheckerboard="true"
     inkscape:blackoutopacity="0.0"
     inkscape:deskcolor="#a0a0a0"
     inkscape:deskopacity="0">
    <inkscape:grid
       type="xygrid"
       id="grid535"
       spacingx="64"
       spacingy="64"
       originx="-384"
       originy="-64" />
  </sodipodi:namedview>
  <g
     inkscape:label="Layer 1"
     inkscape:groupmode="layer"
     id="layer1"
     transform="translate(-384,-64)">
    <g
       id="g2220"
       transform="rotate(90,416,96)">
      <g
         id="g11311"
         transform="rotate(-90,416,96)">
        <g
           id="g2206"
           transform="translate(128)">
          <path
             id="path2202"
             style="fill:#a16e36;fill-opacity:1;stroke:none;stroke-width:1px;stroke-linecap:butt;stroke-linejoin:miter;stroke-opacity:1"
             d="M 8.4179688,0 V 64 H 64 V 0 Z"
             transform="translate(256,64)" />
          <path
             style="fill:#835a26;fill-opacity:1;stroke:none;stroke-width:1px;stroke-linecap:butt;stroke-linejoin:miter;stroke-opacity:1"
             d="m 256,64 4.45474,7.485431 -2.86061,6.440197 2.57111,5.332805 -0.38109,11.877491 2.63933,9.676296 -6.42348,5.8194 3.89423,5.81525 L 256,128 h 15.81859 l -0.23482,-2.43473 4.32156,-4.11544 -5.92233,-6.09239 -0.14323,-11.01622 7.16217,-8.396611 -9.27762,-8.71603 12.75316,-11.692176 -8.72853,-8.31779 V 64 Z"
             id="path2204" />
        </g>
        <path
           style="mix-blend-mode:normal;fill:#835a26;fill-opacity:1;stroke:none;stroke-width:1px;stroke-linecap:butt;stroke-linejoin:miter;stroke-opacity:1;filter:url(#filter7007)"
           d="m 400.88704,130.40582 17.29893,0.11722 4.67583,-8.09915 -9.6889,-12.68347 6.83506,-9.15958 -14.7814,-15.923617 4.90531,-4.900914 -11.1817,-6.749343 -12.26198,3.543574 1.66235,53.61584 z"
           id="path2208"
           transform="matrix(1.0426887,0,0,0.99693821,-16.419166,0.311583)"
           clip-path="url(#clipPath10724)" />
        <g
           id="g2218">
          <path
             style="fill:#324f21;fill-opacity:1;stroke:none;stroke-width:0.445;stroke-linecap:butt;stroke-linejoin:miter;stroke-miterlimit:4;stroke-dasharray:none;stroke-opacity:1"
             d="m 384,128 h 33.16586 c 1.93094,-1.83384 2.36013,-3.68229 3.38772,-5.75271 -2.87663,-5.5279 -6.44934,-8.92473 -10.08014,-13.23653 l 6.89999,-7.7548 c -8.12405,-12.053573 -10.11284,-11.773846 -14.57009,-16.045212 1.62993,-1.238323 2.84112,-2.73438 3.84571,-4.128176 C 399.32521,76.442262 391.58648,73.005916 384,73.678936 Z"
             id="path2210"
             sodipodi:nodetypes="ccccccccc" />
          <path
             style="fill:#8cdb26;fill-opacity:1;stroke:none;stroke-width:1px;stroke-linecap:butt;stroke-linejoin:miter;stroke-opacity:1"
             d="m 384,128 h 30.38525 c 1.80956,-1.79269 3.50392,-3.61685 4.46692,-5.64082 -2.6958,-5.40387 -6.64032,-8.7073 -10.04288,-12.92235 l 6.46625,-7.5808 c -7.61336,-11.783123 -10.45776,-12.433709 -14.63482,-16.609236 1.52747,-1.210539 3.33846,-2.347548 4.2799,-3.710071 C 398.05717,77.00053 391.10959,74.239843 384,74.897762 Z"
             id="path2212"
             sodipodi:nodetypes="ccccccccc" />
          <path
             id="path2214"
             style="fill:#68a421;fill-opacity:1;stroke:none;stroke-width:1px;stroke-linecap:butt;stroke-linejoin:miter;stroke-opacity:1"
             d="M 14.839844,14.041016 C 14.397216,17.452634 13.833898,20.833211 14,23.333984 c 0.68591,10.326928 6.513574,20.05913 6.283203,30.40625 C 20.211424,56.964187 16.299987,60.929159 18,64 h 12.984589 c 1.80956,-1.79269 2.903973,-3.616655 3.866973,-5.640625 -2.6958,-5.40387 -6.640408,-8.706825 -10.042968,-12.921875 l 6.466797,-7.582031 C 23.662031,26.072346 20.817685,25.421621 16.640625,21.246094 c 1.52747,-1.210539 3.337857,-2.346462 4.279297,-3.708985 -2.01886,-1.334305 -4.044678,-2.510847 -6.080078,-3.496093 z"
             transform="translate(384,64)"
             sodipodi:nodetypes="csscccccccc" />
          <path
             id="path2216"
             style="fill:#9fe743;fill-opacity:1;stroke:none;stroke-width:1px;stroke-linecap:butt;stroke-linejoin:miter;stroke-opacity:1"
             d="M 1.5173558,10.812787 C 0.82603597,10.813359 0.6943377,10.834184 0,10.898438 V 64 h 1.4963884 z"
             transform="translate(384,64)"
             sodipodi:nodetypes="ccccc" />
        </g>
      </g>
    </g>
  </g>
</svg>
