<?xml version="1.0" encoding="UTF-8" standalone="no"?>
<svg
   width="64"
   height="64"
   viewBox="0 0 64 64"
   version="1.1"
   id="SVGRoot"
   sodipodi:docname="24_cave_left.svg"
   inkscape:version="1.2-dev (1d8154c6cf, 2021-12-02)"
   xmlns:inkscape="http://www.inkscape.org/namespaces/inkscape"
   xmlns:sodipodi="http://sodipodi.sourceforge.net/DTD/sodipodi-0.dtd"
   xmlns="http://www.w3.org/2000/svg"
   xmlns:svg="http://www.w3.org/2000/svg">
  <defs
     id="defs823" />
  <sodipodi:namedview
     id="base"
     pagecolor="#8e8e8e"
     bordercolor="#666666"
     borderopacity="1.0"
     inkscape:pageopacity="0"
     inkscape:pageshadow="2"
     inkscape:zoom="11.313709"
     inkscape:cx="35.885668"
     inkscape:cy="43.663842"
     inkscape:document-units="px"
     inkscape:current-layer="layer1"
     showgrid="true"
     inkscape:window-width="3840"
     inkscape:window-height="2100"
     inkscape:window-x="1920"
     inkscape:window-y="32"
     inkscape:window-maximized="1"
     inkscape:pagecheckerboard="0"
     inkscape:blackoutopacity="0.0">
    <inkscape:grid
       type="xygrid"
       id="grid535"
       spacingx="64"
       spacingy="64"
       originx="-512"
       originy="-64" />
  </sodipodi:namedview>
  <g
     inkscape:label="Layer 1"
     inkscape:groupmode="layer"
     id="layer1"
     transform="translate(-512,-64)">
    <g
       id="g547"
       transform="rotate(90,256,320)"
       style="fill:#62492d;fill-opacity:1">
      <path
         style="fill:#62492d;fill-opacity:1;stroke:none;stroke-width:1px;stroke-linecap:butt;stroke-linejoin:miter;stroke-opacity:1"
         d="m 0,0 v 63 l 8,-4 7,2 3,-2 h 15 l 8,-2 6,6 6,-3 11,3 V 0 Z"
         id="path907" />
      <path
         style="fill:#543e24;fill-opacity:1;stroke:none;stroke-width:1px;stroke-linecap:butt;stroke-linejoin:miter;stroke-opacity:1"
         d="m 0,63 8,-4 7,2 3,-2 h 15 l 8,-2 6,6 6,-3 11,3 V 48 L 62.353598,47.97914 57.640837,43.39646 51.162654,49.740653 40.499971,49.562241 32.176179,43.055098 23,51 11,40 3,48 H 0 Z"
         id="path955"
         sodipodi:nodetypes="cccccccccccccccccccc" />
    </g>
  </g>
</svg>
