<?xml version="1.0" encoding="UTF-8" standalone="no"?>
<svg
   width="64"
   height="64"
   viewBox="0 0 64 64"
   version="1.1"
   id="SVGRoot"
   sodipodi:docname="32_grass_corner_left_top.svg"
   inkscape:version="1.2-dev (3978b257e3, 2021-12-14)"
   xmlns:inkscape="http://www.inkscape.org/namespaces/inkscape"
   xmlns:sodipodi="http://sodipodi.sourceforge.net/DTD/sodipodi-0.dtd"
   xmlns="http://www.w3.org/2000/svg"
   xmlns:svg="http://www.w3.org/2000/svg">
  <defs
     id="defs823">
    <filter
       inkscape:collect="always"
       style="color-interpolation-filters:sRGB"
       id="filter7202"
       x="-0.12438726"
       y="-0.11698153"
       width="1.2487745"
       height="1.2339631">
      <feGaussianBlur
         inkscape:collect="always"
         stdDeviation="2.4820556"
         id="feGaussianBlur7204" />
    </filter>
    <clipPath
       clipPathUnits="userSpaceOnUse"
       id="clipPath927">
      <path
         style="fill:#b3b3b3;stroke:none;stroke-width:1px;stroke-linecap:butt;stroke-linejoin:miter;stroke-opacity:1"
         d="M 64,192 H 0 v -64 h 64 z"
         id="path929" />
    </clipPath>
  </defs>
  <sodipodi:namedview
     id="base"
     pagecolor="#b9b9b9"
     bordercolor="#666666"
     borderopacity="1.0"
     inkscape:pageopacity="0"
     inkscape:pageshadow="2"
     inkscape:zoom="5.6568543"
     inkscape:cx="-22.273864"
     inkscape:cy="64.70027"
     inkscape:document-units="px"
     inkscape:current-layer="layer1"
     showgrid="true"
     inkscape:window-width="3840"
     inkscape:window-height="2100"
     inkscape:window-x="1920"
     inkscape:window-y="32"
     inkscape:window-maximized="1"
     inkscape:pagecheckerboard="true"
     inkscape:blackoutopacity="0.0"
     inkscape:deskcolor="#a4a4a4"
     inkscape:deskopacity="0"
     showguides="true">
    <inkscape:grid
       type="xygrid"
       id="grid535"
       spacingx="64"
       spacingy="64"
       originx="0"
       originy="-128" />
    <sodipodi:guide
       position="18.000000,0.00000"
       orientation="1,0"
       id="guide2085" />
    <sodipodi:guide
       position="0.0000,46.000000"
       orientation="0,-1"
       id="guide1164" />
  </sodipodi:namedview>
  <g
     inkscape:label="Layer 1"
     inkscape:groupmode="layer"
     id="layer1"
     transform="translate(0,-128)">
    <g
       id="g966">
      <g
         id="g6777">
        <g
           id="g6770"
           transform="translate(100)">
          <g
             id="g4587"
             transform="rotate(90,-68,160)">
            <g
               id="g41288"
               transform="rotate(-90,-68,160)">
              <path
                 style="fill:#a16e36;fill-opacity:1;stroke:none;stroke-width:1px;stroke-linecap:butt;stroke-linejoin:miter;stroke-opacity:1"
                 d="M -36,192 H -86.07256 L -79.7645,157.9216 -36,138.71999 Z"
                 id="path4575" />
              <path
                 style="mix-blend-mode:normal;fill:#835a26;fill-opacity:1;stroke:none;stroke-width:1px;stroke-linecap:butt;stroke-linejoin:miter;stroke-opacity:1;filter:url(#filter7202)"
                 d="m 22.404367,200.44233 c 0,0 10.725578,1.43934 10.679851,1.24409 -0.04573,-0.19526 3.81274,-6.85651 3.81274,-6.85651 l 0.549121,-5.33102 3.653534,-6.30176 -3.855715,-5.11102 4.271707,-0.7214 -0.0093,-5.07627 10.264043,0.24357 4.28513,-8.65433 11.815079,4.02325 2.424033,-11.90205 c 0,0 -22.693481,-5.26198 -22.896336,-5.21595 -0.202855,0.046 -24.290718,13.16615 -24.290718,13.16615 z"
                 id="path4577"
                 clip-path="url(#clipPath927)"
                 transform="translate(-100)"
                 sodipodi:nodetypes="csccccccccccccc" />
              <path
                 style="fill:#324f21;fill-opacity:1;stroke:none;stroke-width:1px;stroke-linecap:butt;stroke-linejoin:miter;stroke-opacity:1"
                 d="m -79.46914,192 h 12.697464 l 0.351137,-1.06939 -4.803812,-4.71596 8.950591,-6.7899 -3.749076,-6.39972 5.059715,-0.25252 0.04159,-5.95324 10.88227,0.11989 4.177261,-8.89736 9.862,3.17705 v -8.5383 l -30.87166,2.73263 z"
                 id="path4579"
                 sodipodi:nodetypes="cccccccccccccc" />
              <path
                 id="path4581"
                 style="fill:#9fe743;fill-opacity:1;stroke:none;stroke-width:1px;stroke-linecap:butt;stroke-linejoin:miter;stroke-opacity:1"
                 d="m -36,128 c -36.44199,0 -64,28.59478 -64,64 h 30.937261 v -0.64441 l -5.044683,-5.01575 9.529297,-7.27734 -4.419922,-6.99609 5.880859,-1.07813 0.0957,-6.32617 11.830078,0.2207 3.964844,-9.42383 L -36,158.9375 Z"
                 sodipodi:nodetypes="ccccccccccccc" />
              <path
                 id="path4583"
                 style="fill:#8cdb26;fill-opacity:1;stroke:none;stroke-width:0.97736px;stroke-linecap:butt;stroke-linejoin:miter;stroke-opacity:1"
                 d="m -36,129.47852 c -35.63382,0 -62.580078,27.93423 -62.580078,62.52148 h 28.543261 l 0.825253,-0.48305 -4.895858,-5.17711 9.529297,-7.27734 -4.419922,-6.99609 5.880859,-1.07813 0.0957,-6.32617 11.830078,0.2207 3.964844,-9.42383 L -36,158.9375 Z"
                 sodipodi:nodetypes="ccccccccccccc" />
              <path
                 id="path4585"
                 style="fill:#68a421;fill-opacity:1;stroke:none;stroke-width:0.97736px;stroke-linecap:butt;stroke-linejoin:miter;stroke-opacity:1"
                 d="m -36,146 c -3.951123,2.70863 -8.2651,5.43836 -12.30859,6.64258 -6.41337,1.91001 -14.57079,-1.74443 -19.95118,2.23437 -4.69041,3.46857 -4.26074,10.8855 -6.95703,16.0586 -2.50007,4.79663 -7.62109,10.82185 -8.39413,16.17539 -0.31805,2.20262 0.83739,3.73156 1.61093,4.88906 h 12.968445 l 0.292935,-0.84008 -5.3688,-4.82008 9.52929,-7.27734 -4.41992,-6.99609 5.88086,-1.07813 0.0957,-6.32617 11.83008,0.2207 3.96484,-9.42383 L -36,158.9375 Z"
                 sodipodi:nodetypes="csssscccccccccccc" />
            </g>
          </g>
        </g>
      </g>
    </g>
  </g>
</svg>
