<?xml version="1.0" encoding="UTF-8" standalone="no"?>
<svg
   width="64"
   height="64"
   viewBox="0 0 64 64"
   version="1.1"
   id="SVGRoot"
   sodipodi:docname="42_bone_cave.svg"
   inkscape:version="1.2-dev (1d8154c6cf, 2021-12-02)"
   inkscape:export-filename="/home/chiller/Desktop/git/TeeworldsDB/images/realistic/transparent/tiles/grass_main/66_bone.png"
   inkscape:export-xdpi="96"
   inkscape:export-ydpi="96"
   xmlns:inkscape="http://www.inkscape.org/namespaces/inkscape"
   xmlns:sodipodi="http://sodipodi.sourceforge.net/DTD/sodipodi-0.dtd"
   xmlns="http://www.w3.org/2000/svg"
   xmlns:svg="http://www.w3.org/2000/svg">
  <defs
     id="defs823">
    <filter
       inkscape:collect="always"
       style="color-interpolation-filters:sRGB"
       id="filter2883"
       x="-0.12918514"
       y="-0.21180747"
       width="1.2583703"
       height="1.4236149">
      <feGaussianBlur
         inkscape:collect="always"
         stdDeviation="1.1925946"
         id="feGaussianBlur2885" />
    </filter>
  </defs>
  <sodipodi:namedview
     id="base"
     pagecolor="#8e8e8e"
     bordercolor="#666666"
     borderopacity="1.0"
     inkscape:pageopacity="0"
     inkscape:pageshadow="2"
     inkscape:zoom="8.0000005"
     inkscape:cx="22.999999"
     inkscape:cy="37.749998"
     inkscape:document-units="px"
     inkscape:current-layer="g976"
     showgrid="true"
     inkscape:window-width="1920"
     inkscape:window-height="2100"
     inkscape:window-x="3840"
     inkscape:window-y="32"
     inkscape:window-maximized="0"
     inkscape:pagecheckerboard="0"
     inkscape:blackoutopacity="0.0">
    <inkscape:grid
       type="xygrid"
       id="grid535"
       spacingx="64"
       spacingy="64"
       originx="-128"
       originy="-256" />
  </sodipodi:namedview>
  <g
     inkscape:label="Layer 1"
     inkscape:groupmode="layer"
     id="layer1"
     transform="translate(-128,-256)">
    <path
       style="fill:#62492d;stroke:none;stroke-width:1px;stroke-linecap:butt;stroke-linejoin:miter;stroke-opacity:1;fill-opacity:1"
       d="m 128,256 h 64 v 64 h -64 z"
       id="path2980" />
    <g
       id="g2718"
       transform="matrix(-0.86917207,-1.0682889,1.0682889,-0.86917207,340.41155,592.41032)"
       style="fill:#000000;stroke:none;filter:url(#filter2883)">
      <g
         id="g2716"
         transform="translate(10.058772,4.6356416)"
         style="fill:#000000;stroke:none">
        <path
           style="fill:#000000;fill-opacity:1;stroke:none;stroke-width:0.2;stroke-linecap:butt;stroke-linejoin:miter;stroke-miterlimit:4;stroke-dasharray:none;stroke-opacity:0.998229"
           d="m 241.77875,31.881112 c -2.44808,-0.131357 -6.64928,-3.832833 -6.62272,-1.636887 -0.026,2.939793 1.74214,1.966671 2.61321,2.950006 0.15713,0.280864 0.15822,0.873948 -0.016,0.868677 -1.2044,-0.03644 -1.18704,1.379371 -0.67961,3.074842 1.46297,3.063132 3.05545,-0.728824 4.41601,-1.753421 2.7587,-3.438829 7.39551,-3.736066 8.94376,-3.832368 2.03935,0.143533 3.20798,1.573466 4.52458,1.73786 1.40843,0.197179 1.91362,-0.32681 2.30214,-1.840491 0.40214,-3.062602 -1.62341,-2.448812 -3.33932,-3.055727 0.50297,-1.048622 0.39643,-2.489393 0.18598,-2.932024 -0.28954,-1.031797 -3.48794,-0.792915 -3.38435,0.233605 -0.0588,3.346465 0.0841,3.044407 -1.19872,3.646901 -2.2015,0.892251 -6.48821,2.688891 -7.74496,2.539027 z"
           id="path2714"
           sodipodi:nodetypes="cccscccccccccc" />
      </g>
    </g>
    <g
       id="g976"
       transform="matrix(-0.86917207,-1.0682889,1.0682889,-0.86917207,340.41155,592.41032)">
      <g
         id="g970"
         transform="translate(10.058772,4.6356416)"
         style="fill:#86796a;fill-opacity:1;stroke:#5c4c3a;stroke-opacity:1">
        <path
           style="fill:#86796a;fill-opacity:1;stroke:#5c4c3a;stroke-width:0.2;stroke-linecap:butt;stroke-linejoin:miter;stroke-miterlimit:4;stroke-dasharray:none;stroke-opacity:1"
           d="m 241.77875,31.881112 c -2.44808,-0.131357 -6.64928,-3.832833 -6.62272,-1.636887 -0.026,2.939793 1.74214,1.966671 2.61321,2.950006 0.15713,0.280864 0.15822,0.873948 -0.016,0.868677 -1.2044,-0.03644 -1.18704,1.379371 -0.67961,3.074842 1.46297,3.063132 3.05545,-0.728824 4.41601,-1.753421 2.7587,-3.438829 7.39551,-3.736066 8.94376,-3.832368 2.03935,0.143533 3.20798,1.573466 4.52458,1.73786 1.40843,0.197179 1.91362,-0.32681 2.30214,-1.840491 0.40214,-3.062602 -1.62341,-2.448812 -3.33932,-3.055727 0.50297,-1.048622 0.39643,-2.489393 0.18598,-2.932024 -0.28954,-1.031797 -3.48794,-0.792915 -3.38435,0.233605 -0.0588,3.346465 0.0841,3.044407 -1.19872,3.646901 -2.2015,0.892251 -6.48821,2.688891 -7.74496,2.539027 z"
           id="path834"
           sodipodi:nodetypes="cccscccccccccc" />
      </g>
    </g>
  </g>
</svg>
