<?xml version="1.0" encoding="UTF-8" standalone="no"?>
<svg
   width="64px"
   height="64px"
   viewBox="0 0 64 64"
   version="1.1"
   id="SVGRoot"
   sodipodi:docname="43_bone_cave.svg"
   inkscape:version="1.2-dev (3978b257e3, 2021-12-14)"
   xmlns:inkscape="http://www.inkscape.org/namespaces/inkscape"
   xmlns:sodipodi="http://sodipodi.sourceforge.net/DTD/sodipodi-0.dtd"
   xmlns="http://www.w3.org/2000/svg"
   xmlns:svg="http://www.w3.org/2000/svg">
  <defs
     id="defs823">
    <filter
       inkscape:collect="always"
       style="color-interpolation-filters:sRGB"
       id="filter900"
       x="-0.55793313"
       width="2.1158663"
       y="-0.91476778"
       height="2.8295356">
      <feGaussianBlur
         inkscape:collect="always"
         stdDeviation="5.1506546"
         id="feGaussianBlur902" />
    </filter>
    <filter
       inkscape:collect="always"
       style="color-interpolation-filters:sRGB"
       id="filter964"
       x="-0.068843304"
       width="1.1376866"
       y="-0.11223104"
       height="1.2244621">
      <feGaussianBlur
         inkscape:collect="always"
         stdDeviation="0.63553869"
         id="feGaussianBlur966" />
    </filter>
    <clipPath
       clipPathUnits="userSpaceOnUse"
       id="clipPath4717">
      <path
         style="fill:#62492d;fill-opacity:1;stroke:none;stroke-width:1.10629px;stroke-linecap:butt;stroke-linejoin:miter;stroke-opacity:1"
         d="m 234.65727,-21.207697 h 70.8028 v 70.802805 h -70.8028 z"
         id="path4719" />
    </clipPath>
  </defs>
  <sodipodi:namedview
     id="base"
     pagecolor="#949494"
     bordercolor="#666666"
     borderopacity="1.0"
     inkscape:pageopacity="0"
     inkscape:pageshadow="2"
     inkscape:zoom="11.313709"
     inkscape:cx="13.523417"
     inkscape:cy="33.764349"
     inkscape:document-units="px"
     inkscape:current-layer="g976"
     showgrid="true"
     inkscape:window-width="3840"
     inkscape:window-height="2100"
     inkscape:window-x="1920"
     inkscape:window-y="32"
     inkscape:window-maximized="1"
     inkscape:pagecheckerboard="true"
     inkscape:blackoutopacity="0.0"
     inkscape:deskcolor="#868686"
     inkscape:deskopacity="0" />
  <g
     inkscape:label="Layer 1"
     inkscape:groupmode="layer"
     id="layer1">
    <g
       id="g976"
       transform="matrix(0.90391899,0,0,0.90391899,-212.11116,19.17004)">
      <g
         id="g5305">
        <path
           style="fill:#62492d;stroke:none;stroke-width:1px;stroke-linecap:butt;stroke-linejoin:miter;stroke-opacity:1;fill-opacity:1"
           d="M 0,0 H 64 V 64 H 0 Z"
           id="path901"
           transform="matrix(1.1062938,0,0,1.1062938,234.65727,-21.207697)" />
        <path
           style="fill:#000000;fill-opacity:1;stroke:none;stroke-width:0.2;stroke-linecap:butt;stroke-linejoin:miter;stroke-miterlimit:4;stroke-dasharray:none;stroke-opacity:0.998229;filter:url(#filter900)"
           d="m 257.5201,-4.7136374 c -2.44808,-0.131358 -6.64928,-3.832834 -6.62272,-1.636887 -0.026,2.939793 1.74214,1.96667 2.61321,2.950006 0.15713,0.280863 0.15822,0.873948 -0.016,0.868677 -1.2044,-0.03644 -1.18704,1.37937 -0.67961,3.07484197 1.46297,3.06313103 3.05545,-0.728825 4.41601,-1.75342097 2.7587,-3.43883 7.39551,-3.736066 8.94376,-3.832369 2.03935,0.143534 3.20798,1.573467 4.52458,1.737861 1.40843,0.197179 1.91362,-0.326811 2.30214,-1.840492 0.40214,-3.062602 -1.62341,-2.448812 -3.33932,-3.055727 0.0856,-1.343552 0.32793,-2.5377986 0.18598,-2.9320236 -0.28954,-1.031797 -3.48794,-0.792915 -3.38435,0.233605 -0.0588,3.3464646 0.0841,3.0444066 -1.19872,3.6469006 -2.2015,0.892252 -6.48821,2.688891 -7.74496,2.539028 z"
           id="path834-3"
           sodipodi:nodetypes="cccscccccccccc"
           clip-path="url(#clipPath4717)" />
        <g
           id="g970">
          <path
             style="opacity:0.344867;fill:#000000;fill-opacity:1;stroke:none;stroke-width:0.2;stroke-linecap:butt;stroke-linejoin:miter;stroke-miterlimit:4;stroke-dasharray:none;stroke-opacity:0.998229;filter:url(#filter964)"
             d="m 257.23281,-6.608325 c -2.44808,-0.1313574 -6.86934,-2.5700735 -6.84278,-0.374127 -0.026,2.9397927 1.74214,1.9666704 2.61321,2.9500056 0.15713,0.2808638 0.15822,0.8739484 -0.016,0.8686775 -1.2044,-0.036438 -1.18704,1.3793702 -0.67961,3.07484221 1.46297,3.06313099 3.53807,-0.34228297 4.89863,-1.36687901 2.7587,-3.4388298 6.91289,-4.1226083 8.46114,-4.2189111 2.03935,0.1435335 3.20798,1.5734666 4.52458,1.7378606 1.40843,0.197179 1.91362,-0.3268105 2.30214,-1.8404916 0.40214,-3.0626019 -1.62341,-2.4488117 -3.33932,-3.0557267 0.0856,-1.3435525 0.32793,-2.5377985 0.18598,-2.9320235 -0.28954,-1.031797 -3.48794,-0.792915 -3.38435,0.233605 -0.0588,3.3464644 -0.59454,2.5159158 -1.19872,3.6469005 -2.2015,0.8922516 -6.26815,1.4261312 -7.5249,1.2762675 z"
             id="path834-6"
             sodipodi:nodetypes="cccscccccccccc"
             transform="matrix(1.048565,0,0,1.1284651,-12.07692,1.3229117)" />
          <path
             style="fill:#86796a;fill-opacity:1;stroke:#c2c2c2;stroke-width:0.2;stroke-linecap:butt;stroke-linejoin:miter;stroke-miterlimit:4;stroke-dasharray:none;stroke-opacity:0.998229"
             d="m 258.00732,-5.1573958 c -2.44808,-0.1313574 -6.64928,-3.8328331 -6.62272,-1.6368866 -0.026,2.9397927 1.74214,1.9666704 2.61321,2.9500056 0.15713,0.2808638 0.15822,0.8739484 -0.016,0.8686775 -1.2044,-0.036438 -1.18704,1.3793704 -0.67961,3.07484198 1.46297,3.06313152 3.05545,-0.7288246 4.41601,-1.75342098 2.7587,-3.4388296 7.39551,-3.7360661 8.94376,-3.8323689 2.03935,0.1435335 3.20798,1.5734666 4.52458,1.7378606 1.40843,0.197179 1.91362,-0.3268105 2.30214,-1.8404916 0.40214,-3.0626019 -1.62341,-2.4488117 -3.33932,-3.0557267 0.50297,-1.0486221 0.39643,-2.4893931 0.18598,-2.9320241 -0.28954,-1.031797 -3.48794,-0.792915 -3.38435,0.233605 -0.0588,3.346465 0.0841,3.0444071 -1.19872,3.6469011 -2.2015,0.8922516 -6.48821,2.6888908 -7.74496,2.5390271 z"
             id="path834"
             sodipodi:nodetypes="cccscccccccccc" />
        </g>
      </g>
    </g>
  </g>
</svg>
