<?xml version="1.0" encoding="UTF-8" standalone="no"?>
<svg
   width="128"
   height="128"
   viewBox="0 0 128 128"
   version="1.1"
   id="SVGRoot"
   sodipodi:docname="64_65_80_81_tee_skeleton.svg"
   inkscape:version="1.2-dev (3978b257e3, 2021-12-14)"
   xmlns:inkscape="http://www.inkscape.org/namespaces/inkscape"
   xmlns:sodipodi="http://sodipodi.sourceforge.net/DTD/sodipodi-0.dtd"
   xmlns="http://www.w3.org/2000/svg"
   xmlns:svg="http://www.w3.org/2000/svg">
  <defs
     id="defs823">
    <filter
       inkscape:collect="always"
       style="color-interpolation-filters:sRGB"
       id="filter900"
       x="-0.55793313"
       width="2.1158663"
       y="-0.91476778"
       height="2.8295356">
      <feGaussianBlur
         inkscape:collect="always"
         stdDeviation="5.1506546"
         id="feGaussianBlur902" />
    </filter>
    <filter
       inkscape:collect="always"
       style="color-interpolation-filters:sRGB"
       id="filter964"
       x="-0.068843304"
       width="1.1376866"
       y="-0.11223104"
       height="1.2244621">
      <feGaussianBlur
         inkscape:collect="always"
         stdDeviation="0.63553869"
         id="feGaussianBlur966" />
    </filter>
    <filter
       inkscape:collect="always"
       style="color-interpolation-filters:sRGB"
       id="filter1220"
       x="-0.48201146"
       y="-0.30844083"
       width="1.9640229"
       height="1.6168817">
      <feGaussianBlur
         inkscape:collect="always"
         stdDeviation="2.1057251"
         id="feGaussianBlur1222" />
    </filter>
    <clipPath
       clipPathUnits="userSpaceOnUse"
       id="clipPath9797">
      <rect
         style="fill:#835a26;stroke-width:0.205041;stop-color:#000000"
         id="rect9799"
         width="131.2265"
         height="131.2265"
         x="186.90388"
         y="-76.028366"
         ry="0"
         transform="matrix(0.98453098,-0.17521061,-0.17521061,-0.98453098,0,0)" />
    </clipPath>
    <clipPath
       clipPathUnits="userSpaceOnUse"
       id="clipPath15011">
      <path
         style="fill:#a16e36;fill-opacity:1;stroke:none;stroke-width:1.10629px;stroke-linecap:butt;stroke-linejoin:miter;stroke-opacity:1"
         d="M 215.13315,-34.713385 353.96079,-6.8021748 326.04958,132.02546 187.22194,104.11425 Z"
         id="path15013" />
    </clipPath>
    <clipPath
       clipPathUnits="userSpaceOnUse"
       id="clipPath18913">
      <path
         style="fill:#a16e36;fill-opacity:1;stroke:none;stroke-width:1.02521px;stroke-linecap:butt;stroke-linejoin:miter;stroke-opacity:1"
         d="m 321.27542,-85.658197 -47.2184,122.436991 -122.43699,-47.2184 47.2184,-122.436994 z"
         id="path18915" />
    </clipPath>
    <clipPath
       clipPathUnits="userSpaceOnUse"
       id="clipPath24121">
      <path
         style="fill:#a16e36;fill-opacity:1;stroke:none;stroke-width:1.02521px;stroke-linecap:butt;stroke-linejoin:miter;stroke-opacity:1"
         d="M 282.44909,-123.39145 317.38636,3.0987935 190.89612,38.036063 155.95885,-88.454179 Z"
         id="path24123" />
    </clipPath>
    <clipPath
       clipPathUnits="userSpaceOnUse"
       id="clipPath28755">
      <path
         style="fill:#a16e36;fill-opacity:1;stroke:none;stroke-width:1.08344px;stroke-linecap:butt;stroke-linejoin:miter;stroke-opacity:1"
         d="M 202.61491,-140.94442 337.64619,-109.34131 306.04308,25.689961 171.0118,-5.9131493 Z"
         id="path28757" />
    </clipPath>
  </defs>
  <sodipodi:namedview
     id="base"
     pagecolor="#8e8e8e"
     bordercolor="#666666"
     borderopacity="1.0"
     inkscape:pageopacity="0"
     inkscape:pageshadow="2"
     inkscape:zoom="5.6568546"
     inkscape:cx="89.272225"
     inkscape:cy="108.36411"
     inkscape:document-units="px"
     inkscape:current-layer="layer1"
     showgrid="true"
     inkscape:window-width="3840"
     inkscape:window-height="2100"
     inkscape:window-x="1920"
     inkscape:window-y="32"
     inkscape:window-maximized="1"
     inkscape:pagecheckerboard="true"
     inkscape:blackoutopacity="0.0"
     inkscape:deskcolor="#c9c9c9"
     inkscape:deskopacity="0"
     showguides="true">
    <inkscape:grid
       type="xygrid"
       id="grid535"
       spacingx="64"
       spacingy="64"
       originx="0"
       originy="-256" />
    <sodipodi:guide
       position="215.99999,-35.37499"
       orientation="0,-1"
       id="guide2455" />
  </sodipodi:namedview>
  <g
     inkscape:label="Layer 1"
     inkscape:groupmode="layer"
     id="layer1"
     transform="translate(0,-256)">
    <path
       style="fill:#a16e36;fill-opacity:1;stroke:none;stroke-width:1px;stroke-linecap:butt;stroke-linejoin:miter;stroke-opacity:1"
       d="m 41.07324,-79.708203 h 64 v 64 h -64 z"
       id="path901" />
    <g
       id="g30135">
      <path
         style="fill:#a16e36;fill-opacity:1;stroke:none;stroke-width:1px;stroke-linecap:butt;stroke-linejoin:miter;stroke-opacity:1"
         d="M 0,256 H 128 V 384 H 0 Z"
         id="path1666" />
      <g
         id="g976"
         transform="matrix(0.88618621,-0.17816718,0.17816718,0.88618621,-184.46324,325.09219)">
        <path
           style="fill:#000000;fill-opacity:1;stroke:none;stroke-width:0.2;stroke-linecap:butt;stroke-linejoin:miter;stroke-miterlimit:4;stroke-dasharray:none;stroke-opacity:0.998229;filter:url(#filter900)"
           d="m 257.5201,-4.7136375 c -2.44808,-0.131358 -6.64928,-3.832833 -6.62272,-1.636887 -0.026,2.939793 1.74214,1.96667 2.61321,2.950006 0.15713,0.280863 0.15822,0.873948 -0.016,0.868677 -1.2044,-0.03644 -1.18704,1.37937 -0.67961,3.07484197 1.46297,3.06313103 3.05545,-0.728825 4.41601,-1.75342097 2.7587,-3.438829 7.39551,-3.736066 8.94376,-3.832369 2.03935,0.143534 3.20798,1.573467 4.52458,1.737861 1.40843,0.197179 1.91362,-0.326811 2.30214,-1.840492 0.40214,-3.062602 -1.62341,-2.448811 -3.33932,-3.055726 0.0856,-1.343553 0.32793,-2.5377995 0.18598,-2.9320245 -0.28954,-1.031797 -3.48794,-0.792915 -3.38435,0.233605 -0.0588,3.3464645 0.0841,3.0444075 -1.19872,3.6469015 -2.2015,0.892251 -6.48821,2.68889 -7.74496,2.539027 z"
           id="path834-3"
           sodipodi:nodetypes="cccscccccccccc"
           clip-path="url(#clipPath15011)" />
        <g
           id="g970">
          <path
             style="opacity:0.344867;fill:#000000;fill-opacity:1;stroke:none;stroke-width:0.2;stroke-linecap:butt;stroke-linejoin:miter;stroke-miterlimit:4;stroke-dasharray:none;stroke-opacity:0.998229;filter:url(#filter964)"
             d="m 257.23281,-6.608325 c -2.44808,-0.1313574 -6.86934,-2.5700735 -6.84278,-0.374127 -0.026,2.9397927 1.74214,1.9666704 2.61321,2.9500056 0.15713,0.2808638 0.15822,0.8739484 -0.016,0.8686775 -1.2044,-0.036438 -1.18704,1.3793702 -0.67961,3.07484221 1.46297,3.06313099 3.53807,-0.34228297 4.89863,-1.36687901 2.7587,-3.4388298 6.91289,-4.1226083 8.46114,-4.2189111 2.03935,0.1435335 3.20798,1.5734666 4.52458,1.7378606 1.40843,0.197179 1.91362,-0.3268105 2.30214,-1.8404916 0.40214,-3.0626019 -1.62341,-2.4488117 -3.33932,-3.0557267 0.0856,-1.3435525 0.32793,-2.5377985 0.18598,-2.9320235 -0.28954,-1.031797 -3.48794,-0.792915 -3.38435,0.233605 -0.0588,3.3464644 -0.59454,2.5159158 -1.19872,3.6469005 -2.2015,0.8922516 -6.26815,1.4261312 -7.5249,1.2762675 z"
             id="path834-6"
             sodipodi:nodetypes="cccscccccccccc"
             transform="matrix(1.048565,0,0,1.1284651,-12.07692,1.3229117)" />
          <path
             style="fill:#d5c9b6;fill-opacity:1;stroke:#c2c2c2;stroke-width:0.2;stroke-linecap:butt;stroke-linejoin:miter;stroke-miterlimit:4;stroke-dasharray:none;stroke-opacity:0.998229"
             d="m 258.00732,-5.1573958 c -2.44808,-0.1313574 -6.64928,-3.8328331 -6.62272,-1.6368866 -0.026,2.9397927 1.74214,1.9666704 2.61321,2.9500056 0.15713,0.2808638 0.15822,0.8739484 -0.016,0.8686775 -1.2044,-0.036438 -1.18704,1.3793704 -0.67961,3.07484198 1.46297,3.06313152 3.05545,-0.7288246 4.41601,-1.75342098 2.7587,-3.4388296 7.39551,-3.7360661 8.94376,-3.8323689 2.03935,0.1435335 3.20798,1.5734666 4.52458,1.7378606 1.40843,0.197179 1.91362,-0.3268105 2.30214,-1.8404916 0.40214,-3.0626019 -1.62341,-2.4488117 -3.33932,-3.0557267 0.50297,-1.0486221 0.39643,-2.4893931 0.18598,-2.9320241 -0.28954,-1.031797 -3.48794,-0.792915 -3.38435,0.233605 -0.0588,3.346465 0.0841,3.0444071 -1.19872,3.6469011 -2.2015,0.8922516 -6.48821,2.6888908 -7.74496,2.5390271 z"
             id="path834"
             sodipodi:nodetypes="cccscccccccccc" />
        </g>
      </g>
      <g
         id="g918"
         transform="matrix(0.73246323,-0.5296859,0.5296859,0.73246323,-160.27037,430.24269)">
        <path
           style="fill:#000000;fill-opacity:1;stroke:none;stroke-width:0.2;stroke-linecap:butt;stroke-linejoin:miter;stroke-miterlimit:4;stroke-dasharray:none;stroke-opacity:0.998229;filter:url(#filter900)"
           d="m 257.5201,-4.7136379 c -2.44808,-0.1313574 -6.64928,-3.8328331 -6.62272,-1.6368866 -0.026,2.9397927 1.74214,1.9666704 2.61321,2.9500056 0.15713,0.2808638 0.15822,0.8739484 -0.016,0.8686775 -1.2044,-0.036438 -1.18704,1.3793701 -0.67961,3.07484216 1.46297,3.06313104 3.05545,-0.728825 4.41601,-1.75342106 2.7587,-3.4388297 7.39551,-3.7360662 8.94376,-3.832369 2.03935,0.1435335 3.20798,1.5734666 4.52458,1.7378606 1.40843,0.197179 1.91362,-0.3268105 2.30214,-1.8404916 0.40214,-3.0626019 -1.62341,-2.4488117 -3.33932,-3.0557267 0.0856,-1.3435522 0.32793,-2.537799 0.18598,-2.932024 -0.28954,-1.031797 -3.48794,-0.792915 -3.38435,0.233605 -0.0588,3.3464649 0.0841,3.044407 -1.19872,3.646901 -2.2015,0.8922516 -6.48821,2.6888908 -7.74496,2.5390271 z"
           id="path910"
           sodipodi:nodetypes="cccscccccccccc" />
        <g
           id="g916">
          <path
             style="opacity:0.344867;fill:#000000;fill-opacity:1;stroke:none;stroke-width:0.2;stroke-linecap:butt;stroke-linejoin:miter;stroke-miterlimit:4;stroke-dasharray:none;stroke-opacity:0.998229;filter:url(#filter964)"
             d="m 257.23281,-6.608325 c -2.44808,-0.1313574 -6.86934,-2.5700735 -6.84278,-0.374127 -0.026,2.9397927 1.74214,1.9666704 2.61321,2.9500056 0.15713,0.2808638 0.15822,0.8739484 -0.016,0.8686775 -1.2044,-0.036438 -1.18704,1.3793702 -0.67961,3.07484221 1.46297,3.06313099 3.53807,-0.34228297 4.89863,-1.36687901 2.7587,-3.4388298 6.91289,-4.1226083 8.46114,-4.2189111 2.03935,0.1435335 3.20798,1.5734666 4.52458,1.7378606 1.40843,0.197179 1.91362,-0.3268105 2.30214,-1.8404916 0.40214,-3.0626019 -1.62341,-2.4488117 -3.33932,-3.0557267 0.0856,-1.3435525 0.32793,-2.5377985 0.18598,-2.9320235 -0.28954,-1.031797 -3.48794,-0.792915 -3.38435,0.233605 -0.0588,3.3464644 -0.59454,2.5159158 -1.19872,3.6469005 -2.2015,0.8922516 -6.26815,1.4261312 -7.5249,1.2762675 z"
             id="path912"
             sodipodi:nodetypes="cccscccccccccc"
             transform="matrix(1.048565,0,0,1.1284651,-12.07692,1.3229117)" />
          <path
             style="fill:#d5c9b6;fill-opacity:1;stroke:#c2c2c2;stroke-width:0.2;stroke-linecap:butt;stroke-linejoin:miter;stroke-miterlimit:4;stroke-dasharray:none;stroke-opacity:0.998229"
             d="m 258.00732,-5.1573958 c -2.44808,-0.1313574 -6.64928,-3.8328331 -6.62272,-1.6368866 -0.026,2.9397927 1.74214,1.9666704 2.61321,2.9500056 0.15713,0.2808638 0.15822,0.8739484 -0.016,0.8686775 -1.2044,-0.036438 -1.18704,1.3793704 -0.67961,3.07484198 1.46297,3.06313152 3.05545,-0.7288246 4.41601,-1.75342098 2.7587,-3.4388296 7.39551,-3.7360661 8.94376,-3.8323689 2.03935,0.1435335 3.20798,1.5734666 4.52458,1.7378606 1.40843,0.197179 1.91362,-0.3268105 2.30214,-1.8404916 0.40214,-3.0626019 -1.62341,-2.4488117 -3.33932,-3.0557267 0.50297,-1.0486221 0.39643,-2.4893931 0.18598,-2.9320241 -0.28954,-1.031797 -3.48794,-0.792915 -3.38435,0.233605 -0.0588,3.346465 0.0841,3.0444071 -1.19872,3.6469011 -2.2015,0.8922516 -6.48821,2.6888908 -7.74496,2.5390271 z"
             id="path914"
             sodipodi:nodetypes="cccscccccccccc" />
        </g>
      </g>
      <g
         id="g1589"
         transform="matrix(0.36354648,-0.82758896,0.82758896,0.36354648,-66.066196,527.94505)">
        <path
           style="fill:#000000;fill-opacity:1;stroke:none;stroke-width:0.2;stroke-linecap:butt;stroke-linejoin:miter;stroke-miterlimit:4;stroke-dasharray:none;stroke-opacity:0.998229;filter:url(#filter900)"
           d="m 257.5201,-4.7136379 c -2.44808,-0.1313574 -6.64928,-3.8328331 -6.62272,-1.6368866 -0.026,2.9397927 1.74214,1.9666704 2.61321,2.9500056 0.15713,0.2808638 0.15822,0.8739484 -0.016,0.8686775 -1.2044,-0.036438 -1.18704,1.3793701 -0.67961,3.07484216 1.46297,3.06313104 3.05545,-0.728825 4.41601,-1.75342106 2.7587,-3.4388297 7.39551,-3.7360662 8.94376,-3.832369 2.03935,0.1435335 3.20798,1.5734666 4.52458,1.7378606 1.40843,0.197179 1.91362,-0.3268105 2.30214,-1.8404916 0.40214,-3.0626019 -1.62341,-2.4488117 -3.33932,-3.0557267 0.0856,-1.3435522 0.32793,-2.537799 0.18598,-2.932024 -0.28954,-1.031797 -3.48794,-0.792915 -3.38435,0.233605 -0.0588,3.3464649 0.0841,3.044407 -1.19872,3.646901 -2.2015,0.8922516 -6.48821,2.6888908 -7.74496,2.5390271 z"
           id="path1581"
           sodipodi:nodetypes="cccscccccccccc" />
        <g
           id="g1587">
          <path
             style="opacity:0.344867;fill:#000000;fill-opacity:1;stroke:none;stroke-width:0.2;stroke-linecap:butt;stroke-linejoin:miter;stroke-miterlimit:4;stroke-dasharray:none;stroke-opacity:0.998229;filter:url(#filter964)"
             d="m 257.23281,-6.608325 c -2.44808,-0.1313574 -6.86934,-2.5700735 -6.84278,-0.374127 -0.026,2.9397927 1.74214,1.9666704 2.61321,2.9500056 0.15713,0.2808638 0.15822,0.8739484 -0.016,0.8686775 -1.2044,-0.036438 -1.18704,1.3793702 -0.67961,3.07484221 1.46297,3.06313099 3.53807,-0.34228297 4.89863,-1.36687901 2.7587,-3.4388298 6.91289,-4.1226083 8.46114,-4.2189111 2.03935,0.1435335 3.20798,1.5734666 4.52458,1.7378606 1.40843,0.197179 1.91362,-0.3268105 2.30214,-1.8404916 0.40214,-3.0626019 -1.62341,-2.4488117 -3.33932,-3.0557267 0.0856,-1.3435525 0.32793,-2.5377985 0.18598,-2.9320235 -0.28954,-1.031797 -3.48794,-0.792915 -3.38435,0.233605 -0.0588,3.3464644 -0.59454,2.5159158 -1.19872,3.6469005 -2.2015,0.8922516 -6.26815,1.4261312 -7.5249,1.2762675 z"
             id="path1583"
             sodipodi:nodetypes="cccscccccccccc"
             transform="matrix(1.048565,0,0,1.1284651,-12.07692,1.3229117)" />
          <path
             style="fill:#d5c9b6;fill-opacity:1;stroke:#c2c2c2;stroke-width:0.2;stroke-linecap:butt;stroke-linejoin:miter;stroke-miterlimit:4;stroke-dasharray:none;stroke-opacity:0.998229"
             d="m 258.00732,-5.1573958 c -2.44808,-0.1313574 -6.64928,-3.8328331 -6.62272,-1.6368866 -0.026,2.9397927 1.74214,1.9666704 2.61321,2.9500056 0.15713,0.2808638 0.15822,0.8739484 -0.016,0.8686775 -1.2044,-0.036438 -1.18704,1.3793704 -0.67961,3.07484198 1.46297,3.06313152 3.05545,-0.7288246 4.41601,-1.75342098 2.7587,-3.4388296 7.39551,-3.7360661 8.94376,-3.8323689 2.03935,0.1435335 3.20798,1.5734666 4.52458,1.7378606 1.40843,0.197179 1.91362,-0.3268105 2.30214,-1.8404916 0.40214,-3.0626019 -1.62341,-2.4488117 -3.33932,-3.0557267 0.50297,-1.0486221 0.39643,-2.4893931 0.18598,-2.9320241 -0.28954,-1.031797 -3.48794,-0.792915 -3.38435,0.233605 -0.0588,3.346465 0.0841,3.0444071 -1.19872,3.6469011 -2.2015,0.8922516 -6.48821,2.6888908 -7.74496,2.5390271 z"
             id="path1585"
             sodipodi:nodetypes="cccscccccccccc" />
        </g>
      </g>
      <g
         id="g1599"
         transform="matrix(0.09335624,0.69409918,-0.69409918,0.09335624,1.1673894,147.7061)">
        <path
           style="fill:#000000;fill-opacity:1;stroke:none;stroke-width:0.2;stroke-linecap:butt;stroke-linejoin:miter;stroke-miterlimit:4;stroke-dasharray:none;stroke-opacity:0.998229;filter:url(#filter900)"
           d="m 257.5201,-4.7136379 c -2.44808,-0.1313574 -6.64928,-3.8328331 -6.62272,-1.6368866 -0.026,2.9397927 1.74214,1.9666704 2.61321,2.9500056 0.15713,0.2808638 0.15822,0.8739484 -0.016,0.8686775 -1.2044,-0.036438 -1.18704,1.3793701 -0.67961,3.07484216 1.46297,3.06313104 3.05545,-0.728825 4.41601,-1.75342106 2.7587,-3.4388297 7.39551,-3.7360662 8.94376,-3.832369 2.03935,0.1435335 3.20798,1.5734666 4.52458,1.7378606 1.40843,0.197179 1.91362,-0.3268105 2.30214,-1.8404916 0.40214,-3.0626019 -1.62341,-2.4488117 -3.33932,-3.0557267 0.0856,-1.3435522 0.32793,-2.537799 0.18598,-2.932024 -0.28954,-1.031797 -3.48794,-0.792915 -3.38435,0.233605 -0.0588,3.3464649 0.0841,3.044407 -1.19872,3.646901 -2.2015,0.8922516 -6.48821,2.6888908 -7.74496,2.5390271 z"
           id="path1591"
           sodipodi:nodetypes="cccscccccccccc" />
        <g
           id="g1597">
          <path
             style="opacity:0.344867;fill:#000000;fill-opacity:1;stroke:none;stroke-width:0.2;stroke-linecap:butt;stroke-linejoin:miter;stroke-miterlimit:4;stroke-dasharray:none;stroke-opacity:0.998229;filter:url(#filter964)"
             d="m 257.23281,-6.608325 c -2.44808,-0.1313574 -6.86934,-2.5700735 -6.84278,-0.374127 -0.026,2.9397927 1.74214,1.9666704 2.61321,2.9500056 0.15713,0.2808638 0.15822,0.8739484 -0.016,0.8686775 -1.2044,-0.036438 -1.18704,1.3793702 -0.67961,3.07484221 1.46297,3.06313099 3.53807,-0.34228297 4.89863,-1.36687901 2.7587,-3.4388298 6.91289,-4.1226083 8.46114,-4.2189111 2.03935,0.1435335 3.20798,1.5734666 4.52458,1.7378606 1.40843,0.197179 1.91362,-0.3268105 2.30214,-1.8404916 0.40214,-3.0626019 -1.62341,-2.4488117 -3.33932,-3.0557267 0.0856,-1.3435525 0.32793,-2.5377985 0.18598,-2.9320235 -0.28954,-1.031797 -3.48794,-0.792915 -3.38435,0.233605 -0.0588,3.3464644 -0.59454,2.5159158 -1.19872,3.6469005 -2.2015,0.8922516 -6.26815,1.4261312 -7.5249,1.2762675 z"
             id="path1593"
             sodipodi:nodetypes="cccscccccccccc"
             transform="matrix(1.048565,0,0,1.1284651,-12.07692,1.3229117)" />
          <path
             style="fill:#d5c9b6;fill-opacity:1;stroke:#c2c2c2;stroke-width:0.2;stroke-linecap:butt;stroke-linejoin:miter;stroke-miterlimit:4;stroke-dasharray:none;stroke-opacity:0.998229"
             d="m 258.00732,-5.1573958 c -2.44808,-0.1313574 -6.64928,-3.8328331 -6.62272,-1.6368866 -0.026,2.9397927 1.74214,1.9666704 2.61321,2.9500056 0.15713,0.2808638 0.15822,0.8739484 -0.016,0.8686775 -1.2044,-0.036438 -1.18704,1.3793704 -0.67961,3.07484198 1.46297,3.06313152 3.05545,-0.7288246 4.41601,-1.75342098 2.7587,-3.4388296 7.39551,-3.7360661 8.94376,-3.8323689 2.03935,0.1435335 3.20798,1.5734666 4.52458,1.7378606 1.40843,0.197179 1.91362,-0.3268105 2.30214,-1.8404916 0.40214,-3.0626019 -1.62341,-2.4488117 -3.33932,-3.0557267 0.50297,-1.0486221 0.39643,-2.4893931 0.18598,-2.9320241 -0.28954,-1.031797 -3.48794,-0.792915 -3.38435,0.233605 -0.0588,3.346465 0.0841,3.0444071 -1.19872,3.6469011 -2.2015,0.8922516 -6.48821,2.6888908 -7.74496,2.5390271 z"
             id="path1595"
             sodipodi:nodetypes="cccscccccccccc" />
        </g>
      </g>
      <g
         id="g1609"
         transform="matrix(0.42353997,0.55776604,-0.55776604,0.42353997,-73.407898,199.12432)">
        <path
           style="fill:#000000;fill-opacity:1;stroke:none;stroke-width:0.2;stroke-linecap:butt;stroke-linejoin:miter;stroke-miterlimit:4;stroke-dasharray:none;stroke-opacity:0.998229;filter:url(#filter900)"
           d="m 257.5201,-4.7136379 c -2.44808,-0.1313574 -6.64928,-3.8328331 -6.62272,-1.6368866 -0.026,2.9397927 1.74214,1.9666704 2.61321,2.9500056 0.15713,0.2808638 0.15822,0.8739484 -0.016,0.8686775 -1.2044,-0.036438 -1.18704,1.3793701 -0.67961,3.07484216 1.46297,3.06313104 3.05545,-0.728825 4.41601,-1.75342106 2.7587,-3.4388297 7.39551,-3.7360662 8.94376,-3.832369 2.03935,0.1435335 3.20798,1.5734666 4.52458,1.7378606 1.40843,0.197179 1.91362,-0.3268105 2.30214,-1.8404916 0.40214,-3.0626019 -1.62341,-2.4488117 -3.33932,-3.0557267 0.0856,-1.3435522 0.32793,-2.537799 0.18598,-2.932024 -0.28954,-1.031797 -3.48794,-0.792915 -3.38435,0.233605 -0.0588,3.3464649 0.0841,3.044407 -1.19872,3.646901 -2.2015,0.8922516 -6.48821,2.6888908 -7.74496,2.5390271 z"
           id="path1601"
           sodipodi:nodetypes="cccscccccccccc" />
        <g
           id="g1607">
          <path
             style="opacity:0.344867;fill:#000000;fill-opacity:1;stroke:none;stroke-width:0.2;stroke-linecap:butt;stroke-linejoin:miter;stroke-miterlimit:4;stroke-dasharray:none;stroke-opacity:0.998229;filter:url(#filter964)"
             d="m 257.23281,-6.608325 c -2.44808,-0.1313574 -6.86934,-2.5700735 -6.84278,-0.374127 -0.026,2.9397927 1.74214,1.9666704 2.61321,2.9500056 0.15713,0.2808638 0.15822,0.8739484 -0.016,0.8686775 -1.2044,-0.036438 -1.18704,1.3793702 -0.67961,3.07484221 1.46297,3.06313099 3.53807,-0.34228297 4.89863,-1.36687901 2.7587,-3.4388298 6.91289,-4.1226083 8.46114,-4.2189111 2.03935,0.1435335 3.20798,1.5734666 4.52458,1.7378606 1.40843,0.197179 1.91362,-0.3268105 2.30214,-1.8404916 0.40214,-3.0626019 -1.62341,-2.4488117 -3.33932,-3.0557267 0.0856,-1.3435525 0.32793,-2.5377985 0.18598,-2.9320235 -0.28954,-1.031797 -3.48794,-0.792915 -3.38435,0.233605 -0.0588,3.3464644 -0.59454,2.5159158 -1.19872,3.6469005 -2.2015,0.8922516 -6.26815,1.4261312 -7.5249,1.2762675 z"
             id="path1603"
             sodipodi:nodetypes="cccscccccccccc"
             transform="matrix(1.048565,0,0,1.1284651,-12.07692,1.3229117)" />
          <path
             style="fill:#d5c9b6;fill-opacity:1;stroke:#c2c2c2;stroke-width:0.2;stroke-linecap:butt;stroke-linejoin:miter;stroke-miterlimit:4;stroke-dasharray:none;stroke-opacity:0.998229"
             d="m 258.00732,-5.1573958 c -2.44808,-0.1313574 -6.64928,-3.8328331 -6.62272,-1.6368866 -0.026,2.9397927 1.74214,1.9666704 2.61321,2.9500056 0.15713,0.2808638 0.15822,0.8739484 -0.016,0.8686775 -1.2044,-0.036438 -1.18704,1.3793704 -0.67961,3.07484198 1.46297,3.06313152 3.05545,-0.7288246 4.41601,-1.75342098 2.7587,-3.4388296 7.39551,-3.7360661 8.94376,-3.8323689 2.03935,0.1435335 3.20798,1.5734666 4.52458,1.7378606 1.40843,0.197179 1.91362,-0.3268105 2.30214,-1.8404916 0.40214,-3.0626019 -1.62341,-2.4488117 -3.33932,-3.0557267 0.50297,-1.0486221 0.39643,-2.4893931 0.18598,-2.9320241 -0.28954,-1.031797 -3.48794,-0.792915 -3.38435,0.233605 -0.0588,3.346465 0.0841,3.0444071 -1.19872,3.6469011 -2.2015,0.8922516 -6.48821,2.6888908 -7.74496,2.5390271 z"
             id="path1605"
             sodipodi:nodetypes="cccscccccccccc" />
        </g>
      </g>
      <g
         id="g1619"
         transform="matrix(-0.86199006,-0.40437144,0.40437144,-0.86199006,289.24661,450.50382)">
        <path
           style="fill:#000000;fill-opacity:1;stroke:none;stroke-width:0.2;stroke-linecap:butt;stroke-linejoin:miter;stroke-miterlimit:4;stroke-dasharray:none;stroke-opacity:0.998229;filter:url(#filter900)"
           d="m 257.5201,-4.7136379 c -2.44808,-0.1313574 -6.64928,-3.8328331 -6.62272,-1.6368866 -0.026,2.9397927 1.74214,1.9666704 2.61321,2.9500056 0.15713,0.2808638 0.15822,0.8739484 -0.016,0.8686775 -1.2044,-0.036438 -1.18704,1.3793701 -0.67961,3.07484216 1.46297,3.06313104 3.05545,-0.728825 4.41601,-1.75342106 2.7587,-3.4388297 7.39551,-3.7360662 8.94376,-3.832369 2.03935,0.1435335 3.20798,1.5734666 4.52458,1.7378606 1.40843,0.197179 1.91362,-0.3268105 2.30214,-1.8404916 0.40214,-3.0626019 -1.62341,-2.4488117 -3.33932,-3.0557267 0.0856,-1.3435522 0.32793,-2.537799 0.18598,-2.932024 -0.28954,-1.031797 -3.48794,-0.792915 -3.38435,0.233605 -0.0588,3.3464649 0.0841,3.044407 -1.19872,3.646901 -2.2015,0.8922516 -6.48821,2.6888908 -7.74496,2.5390271 z"
           id="path1611"
           sodipodi:nodetypes="cccscccccccccc" />
        <g
           id="g1617">
          <path
             style="opacity:0.344867;fill:#000000;fill-opacity:1;stroke:none;stroke-width:0.2;stroke-linecap:butt;stroke-linejoin:miter;stroke-miterlimit:4;stroke-dasharray:none;stroke-opacity:0.998229;filter:url(#filter964)"
             d="m 257.23281,-6.608325 c -2.44808,-0.1313574 -6.86934,-2.5700735 -6.84278,-0.374127 -0.026,2.9397927 1.74214,1.9666704 2.61321,2.9500056 0.15713,0.2808638 0.15822,0.8739484 -0.016,0.8686775 -1.2044,-0.036438 -1.18704,1.3793702 -0.67961,3.07484221 1.46297,3.06313099 3.53807,-0.34228297 4.89863,-1.36687901 2.7587,-3.4388298 6.91289,-4.1226083 8.46114,-4.2189111 2.03935,0.1435335 3.20798,1.5734666 4.52458,1.7378606 1.40843,0.197179 1.91362,-0.3268105 2.30214,-1.8404916 0.40214,-3.0626019 -1.62341,-2.4488117 -3.33932,-3.0557267 0.0856,-1.3435525 0.32793,-2.5377985 0.18598,-2.9320235 -0.28954,-1.031797 -3.48794,-0.792915 -3.38435,0.233605 -0.0588,3.3464644 -0.59454,2.5159158 -1.19872,3.6469005 -2.2015,0.8922516 -6.26815,1.4261312 -7.5249,1.2762675 z"
             id="path1613"
             sodipodi:nodetypes="cccscccccccccc"
             transform="matrix(1.048565,0,0,1.1284651,-12.07692,1.3229117)" />
          <path
             style="fill:#d5c9b6;fill-opacity:1;stroke:#c2c2c2;stroke-width:0.2;stroke-linecap:butt;stroke-linejoin:miter;stroke-miterlimit:4;stroke-dasharray:none;stroke-opacity:0.998229"
             d="m 258.00732,-5.1573958 c -2.44808,-0.1313574 -6.64928,-3.8328331 -6.62272,-1.6368866 -0.026,2.9397927 1.74214,1.9666704 2.61321,2.9500056 0.15713,0.2808638 0.15822,0.8739484 -0.016,0.8686775 -1.2044,-0.036438 -1.18704,1.3793704 -0.67961,3.07484198 1.46297,3.06313152 3.05545,-0.7288246 4.41601,-1.75342098 2.7587,-3.4388296 7.39551,-3.7360661 8.94376,-3.8323689 2.03935,0.1435335 3.20798,1.5734666 4.52458,1.7378606 1.40843,0.197179 1.91362,-0.3268105 2.30214,-1.8404916 0.40214,-3.0626019 -1.62341,-2.4488117 -3.33932,-3.0557267 0.50297,-1.0486221 0.39643,-2.4893931 0.18598,-2.9320241 -0.28954,-1.031797 -3.48794,-0.792915 -3.38435,0.233605 -0.0588,3.346465 0.0841,3.0444071 -1.19872,3.6469011 -2.2015,0.8922516 -6.48821,2.6888908 -7.74496,2.5390271 z"
             id="path1615"
             sodipodi:nodetypes="cccscccccccccc" />
        </g>
      </g>
      <g
         id="g1629"
         transform="matrix(0.94822089,-0.086141,0.086141,0.94822089,-163.21124,372.54001)">
        <path
           style="fill:#000000;fill-opacity:1;stroke:none;stroke-width:0.2;stroke-linecap:butt;stroke-linejoin:miter;stroke-miterlimit:4;stroke-dasharray:none;stroke-opacity:0.998229;filter:url(#filter900)"
           d="m 257.5201,-4.7136379 c -2.44808,-0.1313574 -6.64928,-3.8328331 -6.62272,-1.6368866 -0.026,2.9397927 1.74214,1.9666704 2.61321,2.9500056 0.15713,0.2808638 0.15822,0.8739484 -0.016,0.8686775 -1.2044,-0.036438 -1.18704,1.3793701 -0.67961,3.07484216 1.46297,3.06313104 3.05545,-0.728825 4.41601,-1.75342106 2.7587,-3.4388297 7.39551,-3.7360662 8.94376,-3.832369 2.03935,0.1435335 3.20798,1.5734666 4.52458,1.7378606 1.40843,0.197179 1.91362,-0.3268105 2.30214,-1.8404916 0.40214,-3.0626019 -1.62341,-2.4488117 -3.33932,-3.0557267 0.0856,-1.3435522 0.32793,-2.537799 0.18598,-2.932024 -0.28954,-1.031797 -3.48794,-0.792915 -3.38435,0.233605 -0.0588,3.3464649 0.0841,3.044407 -1.19872,3.646901 -2.2015,0.8922516 -6.48821,2.6888908 -7.74496,2.5390271 z"
           id="path1621"
           sodipodi:nodetypes="cccscccccccccc" />
        <g
           id="g1627">
          <path
             style="opacity:0.344867;fill:#000000;fill-opacity:1;stroke:none;stroke-width:0.2;stroke-linecap:butt;stroke-linejoin:miter;stroke-miterlimit:4;stroke-dasharray:none;stroke-opacity:0.998229;filter:url(#filter964)"
             d="m 257.23281,-6.608325 c -2.44808,-0.1313574 -6.86934,-2.5700735 -6.84278,-0.374127 -0.026,2.9397927 1.74214,1.9666704 2.61321,2.9500056 0.15713,0.2808638 0.15822,0.8739484 -0.016,0.8686775 -1.2044,-0.036438 -1.18704,1.3793702 -0.67961,3.07484221 1.46297,3.06313099 3.53807,-0.34228297 4.89863,-1.36687901 2.7587,-3.4388298 6.91289,-4.1226083 8.46114,-4.2189111 2.03935,0.1435335 3.20798,1.5734666 4.52458,1.7378606 1.40843,0.197179 1.91362,-0.3268105 2.30214,-1.8404916 0.40214,-3.0626019 -1.62341,-2.4488117 -3.33932,-3.0557267 0.0856,-1.3435525 0.32793,-2.5377985 0.18598,-2.9320235 -0.28954,-1.031797 -3.48794,-0.792915 -3.38435,0.233605 -0.0588,3.3464644 -0.59454,2.5159158 -1.19872,3.6469005 -2.2015,0.8922516 -6.26815,1.4261312 -7.5249,1.2762675 z"
             id="path1623"
             sodipodi:nodetypes="cccscccccccccc"
             transform="matrix(1.048565,0,0,1.1284651,-12.07692,1.3229117)" />
          <path
             style="fill:#d5c9b6;fill-opacity:1;stroke:#c2c2c2;stroke-width:0.2;stroke-linecap:butt;stroke-linejoin:miter;stroke-miterlimit:4;stroke-dasharray:none;stroke-opacity:0.998229"
             d="m 258.00732,-5.1573958 c -2.44808,-0.1313574 -6.64928,-3.8328331 -6.62272,-1.6368866 -0.026,2.9397927 1.74214,1.9666704 2.61321,2.9500056 0.15713,0.2808638 0.15822,0.8739484 -0.016,0.8686775 -1.2044,-0.036438 -1.18704,1.3793704 -0.67961,3.07484198 1.46297,3.06313152 3.05545,-0.7288246 4.41601,-1.75342098 2.7587,-3.4388296 7.39551,-3.7360661 8.94376,-3.8323689 2.03935,0.1435335 3.20798,1.5734666 4.52458,1.7378606 1.40843,0.197179 1.91362,-0.3268105 2.30214,-1.8404916 0.40214,-3.0626019 -1.62341,-2.4488117 -3.33932,-3.0557267 0.50297,-1.0486221 0.39643,-2.4893931 0.18598,-2.9320241 -0.28954,-1.031797 -3.48794,-0.792915 -3.38435,0.233605 -0.0588,3.346465 0.0841,3.0444071 -1.19872,3.6469011 -2.2015,0.8922516 -6.48821,2.6888908 -7.74496,2.5390271 z"
             id="path1625"
             sodipodi:nodetypes="cccscccccccccc" />
        </g>
      </g>
      <g
         id="g1639"
         transform="matrix(0.7408164,-0.51154263,0.51154263,0.7408164,-91.11385,469.32537)">
        <path
           style="fill:#000000;fill-opacity:1;stroke:none;stroke-width:0.2;stroke-linecap:butt;stroke-linejoin:miter;stroke-miterlimit:4;stroke-dasharray:none;stroke-opacity:0.998229;filter:url(#filter900)"
           d="m 257.5201,-4.7136379 c -2.44808,-0.1313574 -6.64928,-3.8328331 -6.62272,-1.6368866 -0.026,2.9397927 1.74214,1.9666704 2.61321,2.9500056 0.15713,0.2808638 0.15822,0.8739484 -0.016,0.8686775 -1.2044,-0.036438 -1.18704,1.3793701 -0.67961,3.07484216 1.46297,3.06313104 3.05545,-0.728825 4.41601,-1.75342106 2.7587,-3.4388297 7.39551,-3.7360662 8.94376,-3.832369 2.03935,0.1435335 3.20798,1.5734666 4.52458,1.7378606 1.40843,0.197179 1.91362,-0.3268105 2.30214,-1.8404916 0.40214,-3.0626019 -1.62341,-2.4488117 -3.33932,-3.0557267 0.0856,-1.3435522 0.32793,-2.537799 0.18598,-2.932024 -0.28954,-1.031797 -3.48794,-0.792915 -3.38435,0.233605 -0.0588,3.3464649 0.0841,3.044407 -1.19872,3.646901 -2.2015,0.8922516 -6.48821,2.6888908 -7.74496,2.5390271 z"
           id="path1631"
           sodipodi:nodetypes="cccscccccccccc" />
        <g
           id="g1637">
          <path
             style="opacity:0.344867;fill:#000000;fill-opacity:1;stroke:none;stroke-width:0.2;stroke-linecap:butt;stroke-linejoin:miter;stroke-miterlimit:4;stroke-dasharray:none;stroke-opacity:0.998229;filter:url(#filter964)"
             d="m 257.23281,-6.608325 c -2.44808,-0.1313574 -6.86934,-2.5700735 -6.84278,-0.374127 -0.026,2.9397927 1.74214,1.9666704 2.61321,2.9500056 0.15713,0.2808638 0.15822,0.8739484 -0.016,0.8686775 -1.2044,-0.036438 -1.18704,1.3793702 -0.67961,3.07484221 1.46297,3.06313099 3.53807,-0.34228297 4.89863,-1.36687901 2.7587,-3.4388298 6.91289,-4.1226083 8.46114,-4.2189111 2.03935,0.1435335 3.20798,1.5734666 4.52458,1.7378606 1.40843,0.197179 1.91362,-0.3268105 2.30214,-1.8404916 0.40214,-3.0626019 -1.62341,-2.4488117 -3.33932,-3.0557267 0.0856,-1.3435525 0.32793,-2.5377985 0.18598,-2.9320235 -0.28954,-1.031797 -3.48794,-0.792915 -3.38435,0.233605 -0.0588,3.3464644 -0.59454,2.5159158 -1.19872,3.6469005 -2.2015,0.8922516 -6.26815,1.4261312 -7.5249,1.2762675 z"
             id="path1633"
             sodipodi:nodetypes="cccscccccccccc"
             transform="matrix(1.048565,0,0,1.1284651,-12.07692,1.3229117)" />
          <path
             style="fill:#d5c9b6;fill-opacity:1;stroke:#c2c2c2;stroke-width:0.2;stroke-linecap:butt;stroke-linejoin:miter;stroke-miterlimit:4;stroke-dasharray:none;stroke-opacity:0.998229"
             d="m 258.00732,-5.1573958 c -2.44808,-0.1313574 -6.64928,-3.8328331 -6.62272,-1.6368866 -0.026,2.9397927 1.74214,1.9666704 2.61321,2.9500056 0.15713,0.2808638 0.15822,0.8739484 -0.016,0.8686775 -1.2044,-0.036438 -1.18704,1.3793704 -0.67961,3.07484198 1.46297,3.06313152 3.05545,-0.7288246 4.41601,-1.75342098 2.7587,-3.4388296 7.39551,-3.7360661 8.94376,-3.8323689 2.03935,0.1435335 3.20798,1.5734666 4.52458,1.7378606 1.40843,0.197179 1.91362,-0.3268105 2.30214,-1.8404916 0.40214,-3.0626019 -1.62341,-2.4488117 -3.33932,-3.0557267 0.50297,-1.0486221 0.39643,-2.4893931 0.18598,-2.9320241 -0.28954,-1.031797 -3.48794,-0.792915 -3.38435,0.233605 -0.0588,3.346465 0.0841,3.0444071 -1.19872,3.6469011 -2.2015,0.8922516 -6.48821,2.6888908 -7.74496,2.5390271 z"
             id="path1635"
             sodipodi:nodetypes="cccscccccccccc" />
        </g>
      </g>
      <g
         id="g1649"
         transform="matrix(0.25969038,-0.94020794,0.94020794,0.25969038,42.664315,553.60445)">
        <path
           style="fill:#000000;fill-opacity:1;stroke:none;stroke-width:0.2;stroke-linecap:butt;stroke-linejoin:miter;stroke-miterlimit:4;stroke-dasharray:none;stroke-opacity:0.998229;filter:url(#filter900)"
           d="m 257.5201,-4.7136379 c -2.44808,-0.131357 -6.64928,-3.832833 -6.62272,-1.636887 -0.026,2.939793 1.74214,1.966671 2.61321,2.950006 0.15713,0.280864 0.15822,0.873948 -0.016,0.868677 -1.2044,-0.03644 -1.18704,1.379371 -0.67961,3.07484303 1.46297,3.06313097 3.05545,-0.728825 4.41601,-1.75342103 2.7587,-3.43883 7.39551,-3.736067 8.94376,-3.832369 2.03935,0.143533 3.20798,1.573466 4.52458,1.73786 1.40843,0.197179 1.91362,-0.32681 2.30214,-1.840491 0.40214,-3.062602 -1.62341,-2.448812 -3.33932,-3.055727 0.0856,-1.343552 0.32793,-2.5377991 0.18598,-2.9320241 -0.28954,-1.031797 -3.48794,-0.792915 -3.38435,0.233605 -0.0588,3.3464651 0.0841,3.0444071 -1.19872,3.6469011 -2.2015,0.892251 -6.48821,2.688891 -7.74496,2.539027 z"
           id="path1641"
           sodipodi:nodetypes="cccscccccccccc"
           clip-path="url(#clipPath24121)" />
        <g
           id="g1647">
          <path
             style="opacity:0.344867;fill:#000000;fill-opacity:1;stroke:none;stroke-width:0.2;stroke-linecap:butt;stroke-linejoin:miter;stroke-miterlimit:4;stroke-dasharray:none;stroke-opacity:0.998229;filter:url(#filter964)"
             d="m 257.23281,-6.608325 c -2.44808,-0.1313574 -6.86934,-2.5700735 -6.84278,-0.374127 -0.026,2.9397927 1.74214,1.9666704 2.61321,2.9500056 0.15713,0.2808638 0.15822,0.8739484 -0.016,0.8686775 -1.2044,-0.036438 -1.18704,1.3793702 -0.67961,3.07484221 1.46297,3.06313099 3.53807,-0.34228297 4.89863,-1.36687901 2.7587,-3.4388298 6.91289,-4.1226083 8.46114,-4.2189111 2.03935,0.1435335 3.20798,1.5734666 4.52458,1.7378606 1.40843,0.197179 1.91362,-0.3268105 2.30214,-1.8404916 0.40214,-3.0626019 -1.62341,-2.4488117 -3.33932,-3.0557267 0.0856,-1.3435525 0.32793,-2.5377985 0.18598,-2.9320235 -0.28954,-1.031797 -3.48794,-0.792915 -3.38435,0.233605 -0.0588,3.3464644 -0.59454,2.5159158 -1.19872,3.6469005 -2.2015,0.8922516 -6.26815,1.4261312 -7.5249,1.2762675 z"
             id="path1643"
             sodipodi:nodetypes="cccscccccccccc"
             transform="matrix(1.048565,0,0,1.1284651,-12.07692,1.3229117)" />
          <path
             style="fill:#d5c9b6;fill-opacity:1;stroke:#c2c2c2;stroke-width:0.2;stroke-linecap:butt;stroke-linejoin:miter;stroke-miterlimit:4;stroke-dasharray:none;stroke-opacity:0.998229"
             d="m 258.00732,-5.1573958 c -2.44808,-0.1313574 -6.64928,-3.8328331 -6.62272,-1.6368866 -0.026,2.9397927 1.74214,1.9666704 2.61321,2.9500056 0.15713,0.2808638 0.15822,0.8739484 -0.016,0.8686775 -1.2044,-0.036438 -1.18704,1.3793704 -0.67961,3.07484198 1.46297,3.06313152 3.05545,-0.7288246 4.41601,-1.75342098 2.7587,-3.4388296 7.39551,-3.7360661 8.94376,-3.8323689 2.03935,0.1435335 3.20798,1.5734666 4.52458,1.7378606 1.40843,0.197179 1.91362,-0.3268105 2.30214,-1.8404916 0.40214,-3.0626019 -1.62341,-2.4488117 -3.33932,-3.0557267 0.50297,-1.0486221 0.39643,-2.4893931 0.18598,-2.9320241 -0.28954,-1.031797 -3.48794,-0.792915 -3.38435,0.233605 -0.0588,3.346465 0.0841,3.0444071 -1.19872,3.6469011 -2.2015,0.8922516 -6.48821,2.6888908 -7.74496,2.5390271 z"
             id="path1645"
             sodipodi:nodetypes="cccscccccccccc" />
        </g>
      </g>
      <g
         id="g1659"
         transform="matrix(-0.35097661,-0.91007994,0.91007994,-0.35097661,190.71597,518.32229)">
        <path
           style="fill:#000000;fill-opacity:1;stroke:none;stroke-width:0.2;stroke-linecap:butt;stroke-linejoin:miter;stroke-miterlimit:4;stroke-dasharray:none;stroke-opacity:0.998229;filter:url(#filter900)"
           d="m 257.5201,-4.7136379 c -2.44808,-0.1313574 -6.64928,-3.8328331 -6.62272,-1.6368866 -0.026,2.9397927 1.74214,1.9666704 2.61321,2.9500056 0.15713,0.2808638 0.15822,0.8739484 -0.016,0.8686775 -1.2044,-0.036438 -1.18704,1.3793701 -0.67961,3.07484219 1.46297,3.06313121 3.05545,-0.728825 4.41601,-1.75342109 2.7587,-3.4388297 7.39551,-3.7360662 8.94376,-3.832369 2.03935,0.1435335 3.20798,1.5734666 4.52458,1.7378606 1.40843,0.197179 1.91362,-0.3268105 2.30214,-1.8404916 0.40214,-3.0626019 -1.62341,-2.4488117 -3.33932,-3.0557267 0.0856,-1.3435522 0.32793,-2.537799 0.18598,-2.932024 -0.28954,-1.031797 -3.48794,-0.792915 -3.38435,0.233605 -0.0588,3.3464649 0.0841,3.044407 -1.19872,3.646901 -2.2015,0.8922516 -6.48821,2.6888908 -7.74496,2.5390271 z"
           id="path1651"
           sodipodi:nodetypes="cccscccccccccc"
           clip-path="url(#clipPath18913)" />
        <g
           id="g1657">
          <path
             style="opacity:0.344867;fill:#000000;fill-opacity:1;stroke:none;stroke-width:0.2;stroke-linecap:butt;stroke-linejoin:miter;stroke-miterlimit:4;stroke-dasharray:none;stroke-opacity:0.998229;filter:url(#filter964)"
             d="m 257.23281,-6.608325 c -2.44808,-0.1313574 -6.86934,-2.5700735 -6.84278,-0.374127 -0.026,2.9397927 1.74214,1.9666704 2.61321,2.9500056 0.15713,0.2808638 0.15822,0.8739484 -0.016,0.8686775 -1.2044,-0.036438 -1.18704,1.3793702 -0.67961,3.07484221 1.46297,3.06313099 3.53807,-0.34228297 4.89863,-1.36687901 2.7587,-3.4388298 6.91289,-4.1226083 8.46114,-4.2189111 2.03935,0.1435335 3.20798,1.5734666 4.52458,1.7378606 1.40843,0.197179 1.91362,-0.3268105 2.30214,-1.8404916 0.40214,-3.0626019 -1.62341,-2.4488117 -3.33932,-3.0557267 0.0856,-1.3435525 0.32793,-2.5377985 0.18598,-2.9320235 -0.28954,-1.031797 -3.48794,-0.792915 -3.38435,0.233605 -0.0588,3.3464644 -0.59454,2.5159158 -1.19872,3.6469005 -2.2015,0.8922516 -6.26815,1.4261312 -7.5249,1.2762675 z"
             id="path1653"
             sodipodi:nodetypes="cccscccccccccc"
             transform="matrix(1.048565,0,0,1.1284651,-12.07692,1.3229117)" />
          <path
             style="fill:#d5c9b6;fill-opacity:1;stroke:#c2c2c2;stroke-width:0.2;stroke-linecap:butt;stroke-linejoin:miter;stroke-miterlimit:4;stroke-dasharray:none;stroke-opacity:0.998229"
             d="m 258.00732,-5.1573958 c -2.44808,-0.1313574 -6.64928,-3.8328331 -6.62272,-1.6368866 -0.026,2.9397927 1.74214,1.9666704 2.61321,2.9500056 0.15713,0.2808638 0.15822,0.8739484 -0.016,0.8686775 -1.2044,-0.036438 -1.18704,1.3793704 -0.67961,3.07484198 1.46297,3.06313152 3.05545,-0.7288246 4.41601,-1.75342098 2.7587,-3.4388296 7.39551,-3.7360661 8.94376,-3.8323689 2.03935,0.1435335 3.20798,1.5734666 4.52458,1.7378606 1.40843,0.197179 1.91362,-0.3268105 2.30214,-1.8404916 0.40214,-3.0626019 -1.62341,-2.4488117 -3.33932,-3.0557267 0.50297,-1.0486221 0.39643,-2.4893931 0.18598,-2.9320241 -0.28954,-1.031797 -3.48794,-0.792915 -3.38435,0.233605 -0.0588,3.346465 0.0841,3.0444071 -1.19872,3.6469011 -2.2015,0.8922516 -6.48821,2.6888908 -7.74496,2.5390271 z"
             id="path1655"
             sodipodi:nodetypes="cccscccccccccc" />
        </g>
      </g>
      <g
         id="g1669"
         transform="matrix(0.96032409,-0.17090267,-0.17090267,-0.96032409,-182.30843,330.15904)"
         clip-path="url(#clipPath9797)">
        <path
           style="fill:#000000;fill-opacity:1;stroke:none;stroke-width:0.2;stroke-linecap:butt;stroke-linejoin:miter;stroke-miterlimit:4;stroke-dasharray:none;stroke-opacity:0.998229;filter:url(#filter900)"
           d="m 261.11264,15.473323 c -2.44808,-0.131357 -6.64928,-3.832833 -6.62272,-1.636887 -0.026,2.939793 1.74214,1.966671 2.61321,2.950006 0.15713,0.280864 0.15822,0.873948 -0.016,0.868677 -1.2044,-0.03644 -1.18704,1.379371 -0.67961,3.074843 1.46297,3.063131 3.05545,-0.728825 4.41601,-1.753421 2.7587,-3.43883 7.39551,-3.736067 8.94376,-3.832369 2.03935,0.143533 3.20798,1.573466 4.52458,1.73786 1.40843,0.197179 1.91362,-0.32681 2.30214,-1.840491 0.40214,-3.062602 -1.62341,-2.448812 -3.33932,-3.055727 0.0856,-1.343552 0.32793,-2.5377991 0.18598,-2.9320241 -0.28954,-1.031797 -3.48794,-0.792915 -3.38435,0.233605 -0.0588,3.3464651 0.0841,3.0444071 -1.19872,3.6469011 -2.2015,0.892251 -6.48821,2.688891 -7.74496,2.539027 z"
           id="path1661"
           sodipodi:nodetypes="cccscccccccccc" />
        <g
           id="g1667"
           transform="translate(3.5925429,20.186961)">
          <path
             style="opacity:0.344867;fill:#000000;fill-opacity:1;stroke:none;stroke-width:0.2;stroke-linecap:butt;stroke-linejoin:miter;stroke-miterlimit:4;stroke-dasharray:none;stroke-opacity:0.998229;filter:url(#filter964)"
             d="m 257.23281,-6.608325 c -2.44808,-0.1313574 -6.86934,-2.5700735 -6.84278,-0.374127 -0.026,2.9397927 1.74214,1.9666704 2.61321,2.9500056 0.15713,0.2808638 0.15822,0.8739484 -0.016,0.8686775 -1.2044,-0.036438 -1.18704,1.3793702 -0.67961,3.07484221 1.46297,3.06313099 3.53807,-0.34228297 4.89863,-1.36687901 2.7587,-3.4388298 6.91289,-4.1226083 8.46114,-4.2189111 2.03935,0.1435335 3.20798,1.5734666 4.52458,1.7378606 1.40843,0.197179 1.91362,-0.3268105 2.30214,-1.8404916 0.40214,-3.0626019 -1.62341,-2.4488117 -3.33932,-3.0557267 0.0856,-1.3435525 0.32793,-2.5377985 0.18598,-2.9320235 -0.28954,-1.031797 -3.48794,-0.792915 -3.38435,0.233605 -0.0588,3.3464644 -0.59454,2.5159158 -1.19872,3.6469005 -2.2015,0.8922516 -6.26815,1.4261312 -7.5249,1.2762675 z"
             id="path1663"
             sodipodi:nodetypes="cccscccccccccc"
             transform="matrix(1.048565,0,0,1.1284651,-12.07692,1.3229117)" />
          <path
             style="fill:#d5c9b6;fill-opacity:1;stroke:#c2c2c2;stroke-width:0.2;stroke-linecap:butt;stroke-linejoin:miter;stroke-miterlimit:4;stroke-dasharray:none;stroke-opacity:0.998229"
             d="m 258.00732,-5.1573958 c -2.44808,-0.1313574 -6.64928,-3.8328331 -6.62272,-1.6368866 -0.026,2.9397927 1.74214,1.9666704 2.61321,2.9500056 0.15713,0.2808638 0.15822,0.8739484 -0.016,0.8686775 -1.2044,-0.036438 -1.18704,1.3793704 -0.67961,3.07484198 1.46297,3.06313152 3.05545,-0.7288246 4.41601,-1.75342098 2.7587,-3.4388296 7.39551,-3.7360661 8.94376,-3.8323689 2.03935,0.1435335 3.20798,1.5734666 4.52458,1.7378606 1.40843,0.197179 1.91362,-0.3268105 2.30214,-1.8404916 0.40214,-3.0626019 -1.62341,-2.4488117 -3.33932,-3.0557267 0.50297,-1.0486221 0.39643,-2.4893931 0.18598,-2.9320241 -0.28954,-1.031797 -3.48794,-0.792915 -3.38435,0.233605 -0.0588,3.346465 0.0841,3.0444071 -1.19872,3.6469011 -2.2015,0.8922516 -6.48821,2.6888908 -7.74496,2.5390271 z"
             id="path1665"
             sodipodi:nodetypes="cccscccccccccc" />
        </g>
      </g>
      <g
         id="g1679"
         transform="matrix(-0.90445341,-0.29750152,0.29750152,-0.90445341,280.06154,430.92146)">
        <path
           style="fill:#000000;fill-opacity:1;stroke:none;stroke-width:0.2;stroke-linecap:butt;stroke-linejoin:miter;stroke-miterlimit:4;stroke-dasharray:none;stroke-opacity:0.998229;filter:url(#filter900)"
           d="m 257.5201,-4.7136379 c -2.44808,-0.1313574 -6.64928,-3.8328331 -6.62272,-1.6368866 -0.026,2.9397927 1.74214,1.9666704 2.61321,2.9500056 0.15713,0.2808638 0.15822,0.8739484 -0.016,0.8686775 -1.2044,-0.036438 -1.18704,1.3793701 -0.67961,3.07484216 1.46297,3.06313104 3.05545,-0.728825 4.41601,-1.75342106 2.7587,-3.4388297 7.39551,-3.7360662 8.94376,-3.832369 2.03935,0.1435335 3.20798,1.5734666 4.52458,1.7378606 1.40843,0.197179 1.91362,-0.3268105 2.30214,-1.8404916 0.40214,-3.0626019 -1.62341,-2.4488117 -3.33932,-3.0557267 0.0856,-1.3435522 0.32793,-2.537799 0.18598,-2.932024 -0.28954,-1.031797 -3.48794,-0.792915 -3.38435,0.233605 -0.0588,3.3464649 0.0841,3.044407 -1.19872,3.646901 -2.2015,0.8922516 -6.48821,2.6888908 -7.74496,2.5390271 z"
           id="path1671"
           sodipodi:nodetypes="cccscccccccccc" />
        <g
           id="g1677">
          <path
             style="opacity:0.344867;fill:#000000;fill-opacity:1;stroke:none;stroke-width:0.2;stroke-linecap:butt;stroke-linejoin:miter;stroke-miterlimit:4;stroke-dasharray:none;stroke-opacity:0.998229;filter:url(#filter964)"
             d="m 257.23281,-6.608325 c -2.44808,-0.1313574 -6.86934,-2.5700735 -6.84278,-0.374127 -0.026,2.9397927 1.74214,1.9666704 2.61321,2.9500056 0.15713,0.2808638 0.15822,0.8739484 -0.016,0.8686775 -1.2044,-0.036438 -1.18704,1.3793702 -0.67961,3.07484221 1.46297,3.06313099 3.53807,-0.34228297 4.89863,-1.36687901 2.7587,-3.4388298 6.91289,-4.1226083 8.46114,-4.2189111 2.03935,0.1435335 3.20798,1.5734666 4.52458,1.7378606 1.40843,0.197179 1.91362,-0.3268105 2.30214,-1.8404916 0.40214,-3.0626019 -1.62341,-2.4488117 -3.33932,-3.0557267 0.0856,-1.3435525 0.32793,-2.5377985 0.18598,-2.9320235 -0.28954,-1.031797 -3.48794,-0.792915 -3.38435,0.233605 -0.0588,3.3464644 -0.59454,2.5159158 -1.19872,3.6469005 -2.2015,0.8922516 -6.26815,1.4261312 -7.5249,1.2762675 z"
             id="path1673"
             sodipodi:nodetypes="cccscccccccccc"
             transform="matrix(1.048565,0,0,1.1284651,-12.07692,1.3229117)" />
          <path
             style="fill:#d5c9b6;fill-opacity:1;stroke:#c2c2c2;stroke-width:0.2;stroke-linecap:butt;stroke-linejoin:miter;stroke-miterlimit:4;stroke-dasharray:none;stroke-opacity:0.998229"
             d="m 258.00732,-5.1573958 c -2.44808,-0.1313574 -6.64928,-3.8328331 -6.62272,-1.6368866 -0.026,2.9397927 1.74214,1.9666704 2.61321,2.9500056 0.15713,0.2808638 0.15822,0.8739484 -0.016,0.8686775 -1.2044,-0.036438 -1.18704,1.3793704 -0.67961,3.07484198 1.46297,3.06313152 3.05545,-0.7288246 4.41601,-1.75342098 2.7587,-3.4388296 7.39551,-3.7360661 8.94376,-3.8323689 2.03935,0.1435335 3.20798,1.5734666 4.52458,1.7378606 1.40843,0.197179 1.91362,-0.3268105 2.30214,-1.8404916 0.40214,-3.0626019 -1.62341,-2.4488117 -3.33932,-3.0557267 0.50297,-1.0486221 0.39643,-2.4893931 0.18598,-2.9320241 -0.28954,-1.031797 -3.48794,-0.792915 -3.38435,0.233605 -0.0588,3.346465 0.0841,3.0444071 -1.19872,3.6469011 -2.2015,0.8922516 -6.48821,2.6888908 -7.74496,2.5390271 z"
             id="path1675"
             sodipodi:nodetypes="cccscccccccccc" />
        </g>
      </g>
      <g
         id="g1689"
         transform="matrix(0.89870124,-0.21033464,0.21033464,0.89870124,-152.44477,425.28386)">
        <path
           style="fill:#000000;fill-opacity:1;stroke:none;stroke-width:0.2;stroke-linecap:butt;stroke-linejoin:miter;stroke-miterlimit:4;stroke-dasharray:none;stroke-opacity:0.998229;filter:url(#filter900)"
           d="m 257.5201,-4.7136382 c -2.44808,-0.131357 -6.64928,-3.832833 -6.62272,-1.636886 -0.026,2.939792 1.74214,1.96667 2.61321,2.950005 0.15713,0.280864 0.15822,0.873949 -0.016,0.868678 -1.2044,-0.03644 -1.18704,1.37937 -0.67961,3.074842 1.46297,3.063131 3.05545,-0.728825 4.41601,-1.753421 2.7587,-3.43883 7.39551,-3.736066 8.94376,-3.832369 2.03935,0.143533 3.20798,1.573466 4.52458,1.73786 1.40843,0.197179 1.91362,-0.32681 2.30214,-1.840491 0.40214,-3.062602 -1.62341,-2.448812 -3.33932,-3.055727 0.0856,-1.343552 0.32793,-2.5377988 0.18598,-2.9320238 -0.28954,-1.031797 -3.48794,-0.792915 -3.38435,0.233605 -0.0588,3.3464648 0.0841,3.0444068 -1.19872,3.6469008 -2.2015,0.892252 -6.48821,2.688891 -7.74496,2.539027 z"
           id="path1681"
           sodipodi:nodetypes="cccscccccccccc"
           clip-path="url(#clipPath28755)" />
        <g
           id="g1687">
          <path
             style="opacity:0.344867;fill:#000000;fill-opacity:1;stroke:none;stroke-width:0.2;stroke-linecap:butt;stroke-linejoin:miter;stroke-miterlimit:4;stroke-dasharray:none;stroke-opacity:0.998229;filter:url(#filter964)"
             d="m 257.23281,-6.608325 c -2.44808,-0.1313574 -6.86934,-2.5700735 -6.84278,-0.374127 -0.026,2.9397927 1.74214,1.9666704 2.61321,2.9500056 0.15713,0.2808638 0.15822,0.8739484 -0.016,0.8686775 -1.2044,-0.036438 -1.18704,1.3793702 -0.67961,3.07484221 1.46297,3.06313099 3.53807,-0.34228297 4.89863,-1.36687901 2.7587,-3.4388298 6.91289,-4.1226083 8.46114,-4.2189111 2.03935,0.1435335 3.20798,1.5734666 4.52458,1.7378606 1.40843,0.197179 1.91362,-0.3268105 2.30214,-1.8404916 0.40214,-3.0626019 -1.62341,-2.4488117 -3.33932,-3.0557267 0.0856,-1.3435525 0.32793,-2.5377985 0.18598,-2.9320235 -0.28954,-1.031797 -3.48794,-0.792915 -3.38435,0.233605 -0.0588,3.3464644 -0.59454,2.5159158 -1.19872,3.6469005 -2.2015,0.8922516 -6.26815,1.4261312 -7.5249,1.2762675 z"
             id="path1683"
             sodipodi:nodetypes="cccscccccccccc"
             transform="matrix(1.048565,0,0,1.1284651,-12.07692,1.3229117)" />
          <path
             style="fill:#d5c9b6;fill-opacity:1;stroke:#c2c2c2;stroke-width:0.2;stroke-linecap:butt;stroke-linejoin:miter;stroke-miterlimit:4;stroke-dasharray:none;stroke-opacity:0.998229"
             d="m 258.00732,-5.1573958 c -2.44808,-0.1313574 -6.64928,-3.8328331 -6.62272,-1.6368866 -0.026,2.9397927 1.74214,1.9666704 2.61321,2.9500056 0.15713,0.2808638 0.15822,0.8739484 -0.016,0.8686775 -1.2044,-0.036438 -1.18704,1.3793704 -0.67961,3.07484198 1.46297,3.06313152 3.05545,-0.7288246 4.41601,-1.75342098 2.7587,-3.4388296 7.39551,-3.7360661 8.94376,-3.8323689 2.03935,0.1435335 3.20798,1.5734666 4.52458,1.7378606 1.40843,0.197179 1.91362,-0.3268105 2.30214,-1.8404916 0.40214,-3.0626019 -1.62341,-2.4488117 -3.33932,-3.0557267 0.50297,-1.0486221 0.39643,-2.4893931 0.18598,-2.9320241 -0.28954,-1.031797 -3.48794,-0.792915 -3.38435,0.233605 -0.0588,3.346465 0.0841,3.0444071 -1.19872,3.6469011 -2.2015,0.8922516 -6.48821,2.6888908 -7.74496,2.5390271 z"
             id="path1685"
             sodipodi:nodetypes="cccscccccccccc" />
        </g>
      </g>
      <ellipse
         style="mix-blend-mode:normal;fill:#000000;fill-opacity:0.79789126;stroke:none;stroke-width:0.221259;stroke-miterlimit:4;stroke-dasharray:none;stroke-opacity:1;filter:url(#filter1220);stop-color:#000000"
         id="ellipse1230"
         cx="280.96088"
         cy="-56.194942"
         transform="matrix(0.98734986,0,0,0.98974514,-207.49855,358.59721)"
         rx="5.2423444"
         ry="8.1923981" />
      <ellipse
         style="fill:#d5c9b6;fill-opacity:1;stroke:#c2c2c2;stroke-width:0.2;stroke-miterlimit:4;stroke-dasharray:none;stroke-opacity:1;stop-color:#000000"
         id="ellipse1232"
         cx="69.516319"
         cy="302.23715"
         rx="4.7386546"
         ry="7.4052644" />
      <ellipse
         style="mix-blend-mode:normal;fill:#000000;fill-opacity:0.79886228;stroke:none;stroke-width:0.221259;stroke-miterlimit:4;stroke-dasharray:none;stroke-opacity:1;filter:url(#filter1220);stop-color:#000000"
         id="ellipse1594"
         cx="280.96088"
         cy="-56.194942"
         transform="matrix(0.98734986,0,0,0.98974514,-195.11715,356.69155)"
         rx="5.2423444"
         ry="8.1923981" />
      <ellipse
         style="fill:#d5c9b6;fill-opacity:1;stroke:#c2c2c2;stroke-width:0.2;stroke-miterlimit:4;stroke-dasharray:none;stroke-opacity:1;stop-color:#000000"
         id="ellipse1596"
         cx="81.89772"
         cy="300.33148"
         rx="4.7386546"
         ry="7.4052644" />
    </g>
  </g>
</svg>
