<?xml version="1.0" encoding="UTF-8" standalone="no"?>
<svg
   width="64"
   height="64"
   viewBox="0 0 64 64"
   version="1.1"
   id="SVGRoot"
   sodipodi:docname="67_bone.svg"
   inkscape:version="1.2-dev (1d8154c6cf, 2021-12-02)"
   xmlns:inkscape="http://www.inkscape.org/namespaces/inkscape"
   xmlns:sodipodi="http://sodipodi.sourceforge.net/DTD/sodipodi-0.dtd"
   xmlns="http://www.w3.org/2000/svg"
   xmlns:svg="http://www.w3.org/2000/svg">
  <defs
     id="defs823">
    <filter
       inkscape:collect="always"
       style="color-interpolation-filters:sRGB"
       id="filter16824"
       x="-0.18835467"
       y="-0.33952537"
       width="1.3767093"
       height="1.6790507">
      <feGaussianBlur
         inkscape:collect="always"
         stdDeviation="3.2595699"
         id="feGaussianBlur16826" />
    </filter>
  </defs>
  <sodipodi:namedview
     id="base"
     pagecolor="#8e8e8e"
     bordercolor="#666666"
     borderopacity="1.0"
     inkscape:pageopacity="0"
     inkscape:pageshadow="2"
     inkscape:zoom="16.000001"
     inkscape:cx="-0.43749998"
     inkscape:cy="45.624998"
     inkscape:document-units="px"
     inkscape:current-layer="layer1"
     showgrid="true"
     inkscape:window-width="3840"
     inkscape:window-height="2100"
     inkscape:window-x="1920"
     inkscape:window-y="32"
     inkscape:window-maximized="1"
     inkscape:pagecheckerboard="0"
     inkscape:blackoutopacity="0.0">
    <inkscape:grid
       type="xygrid"
       id="grid535"
       spacingx="64"
       spacingy="64"
       originx="-192"
       originy="-256" />
  </sodipodi:namedview>
  <g
     inkscape:label="Layer 1"
     inkscape:groupmode="layer"
     id="layer1"
     transform="translate(-192,-256)">
    <path
       style="fill:#a16e36;fill-opacity:1;stroke:none;stroke-width:1px;stroke-linecap:butt;stroke-linejoin:miter;stroke-opacity:1"
       d="m 192,256 h 64 v 64 h -64 z"
       id="path901" />
    <path
       style="fill:#000000;fill-opacity:0.339105;stroke:none;stroke-width:0.448617;stroke-linecap:butt;stroke-linejoin:miter;stroke-miterlimit:4;stroke-dasharray:none;stroke-opacity:1;filter:url(#filter16824)"
       d="m 219.93193,284.21631 c 1.91213,0.47356 9.43664,0.21873 12.7301,-0.1422 2.02313,-0.22174 5.9204,-2.88114 6.57897,-3.03676 2.98339,-0.70492 6.39841,1.64 6.73199,4.33426 0.96946,7.83001 -7.033,0.89088 -0.61864,7.83827 2.99074,3.23927 -3.74765,6.08631 -6.20256,5.12775 -5.82153,-2.27311 -6.2412,-6.52438 -8.74363,-7.11185 -2.36788,-0.66212 -11.19612,-0.58813 -12.11938,-0.51666 -1.2708,0.0984 -1.99043,1.1093 -2.52398,1.6582 -0.27392,0.2818 -2.4404,2.19241 -3.63092,2.93673 -2.37684,0.57543 -4.27004,-1.57751 -5.32853,-3.37522 -0.25066,-0.67019 -0.394,-1.47103 -0.14467,-2.14172 0.51897,-1.39604 2.57964,-1.79883 3.14004,-3.17876 0.19807,-0.48769 -0.30443,-1.16115 -0.7782,-1.39049 -2.64014,-1.27797 -4.19007,-2.2288 -4.44995,-5.25248 0.0269,-2.46891 1.33684,-3.81593 3.63789,-4.23453 1.10256,-0.19118 3.30911,-0.50938 4.20687,0.15862 1.03826,0.77254 1.79263,2.52384 1.83322,2.64805 2.43357,4.97441 0.84951,4.44358 5.68138,5.67879 z"
       id="path14421"
       sodipodi:nodetypes="cssssscssccsssccscc" />
    <path
       style="fill:#d5c9b6;fill-opacity:1;stroke:#6b4b23;stroke-width:0.4;stroke-linecap:butt;stroke-linejoin:miter;stroke-miterlimit:4;stroke-dasharray:none;stroke-opacity:1"
       d="m 220.39138,285.00558 c 0.44901,0.0522 8.94363,0.46463 11.88018,0.14278 1.80388,-0.19771 5.99232,-2.51537 6.57952,-2.65412 2.66008,-0.62853 4.73044,0.0346 5.02787,2.43687 0.8644,6.98147 -7.47114,-0.65845 -1.0127,7.72345 2.3993,3.11387 -2.99795,5.72509 -4.85132,4.28057 -1.29156,-1.08735 -3.36617,-3.92338 -3.93632,-4.4848 -0.46759,-0.46043 -2.43259,-2.13446 -3.46657,-2.28824 -0.11108,-0.0165 -11.55982,-0.3986 -12.38303,-0.33487 -1.13308,0.0877 -2.39233,0.72603 -2.86806,1.21545 -0.24423,0.25126 -1.53647,2.10316 -2.59797,2.76682 -2.11926,0.51307 -3.32436,-0.69426 -4.26814,-2.29715 -0.2235,-0.59756 -0.3513,-1.31161 -0.12899,-1.90962 0.46273,-1.24475 2.30008,-1.60389 2.79975,-2.83427 0.1766,-0.43484 0.41155,-1.20347 -0.0109,-1.40796 -2.35402,-1.13947 -4.41897,-1.81911 -4.65069,-4.51511 0.024,-2.20135 1.19197,-3.40239 3.24365,-3.77563 0.98307,-0.17046 2.16775,-0.2095 2.96822,0.3861 0.92575,0.68882 1.37775,3.04901 1.41394,3.15976 0.83762,2.56306 0.57806,3.72923 6.26156,4.38997 z"
       id="path3669"
       sodipodi:nodetypes="ssssscssssccsssccsss" />
  </g>
</svg>
