<?xml version="1.0" encoding="UTF-8" standalone="no"?>
<svg
   width="64"
   height="64"
   viewBox="0 0 64 64"
   version="1.1"
   id="SVGRoot"
   sodipodi:docname="68_bone.svg"
   inkscape:version="1.2-dev (1d8154c6cf, 2021-12-02)"
   xmlns:inkscape="http://www.inkscape.org/namespaces/inkscape"
   xmlns:sodipodi="http://sodipodi.sourceforge.net/DTD/sodipodi-0.dtd"
   xmlns="http://www.w3.org/2000/svg"
   xmlns:svg="http://www.w3.org/2000/svg">
  <defs
     id="defs823">
    <filter
       inkscape:collect="always"
       style="color-interpolation-filters:sRGB"
       id="filter11431"
       x="-0.50370603"
       y="-0.45273761"
       width="2.0074121"
       height="1.9054752">
      <feGaussianBlur
         inkscape:collect="always"
         stdDeviation="3.5975114"
         id="feGaussianBlur11433" />
    </filter>
  </defs>
  <sodipodi:namedview
     id="base"
     pagecolor="#8e8e8e"
     bordercolor="#666666"
     borderopacity="1.0"
     inkscape:pageopacity="0"
     inkscape:pageshadow="2"
     inkscape:zoom="11.313709"
     inkscape:cx="15.99829"
     inkscape:cy="47.022599"
     inkscape:document-units="px"
     inkscape:current-layer="layer1"
     showgrid="true"
     inkscape:window-width="1920"
     inkscape:window-height="2100"
     inkscape:window-x="3840"
     inkscape:window-y="32"
     inkscape:window-maximized="0"
     inkscape:pagecheckerboard="0"
     inkscape:blackoutopacity="0.0">
    <inkscape:grid
       type="xygrid"
       id="grid535"
       spacingx="64"
       spacingy="64"
       originx="-256"
       originy="-256" />
  </sodipodi:namedview>
  <g
     inkscape:label="Layer 1"
     inkscape:groupmode="layer"
     id="layer1"
     transform="translate(-256,-256)">
    <path
       style="fill:#a16e36;fill-opacity:1;stroke:none;stroke-width:1px;stroke-linecap:butt;stroke-linejoin:miter;stroke-opacity:1"
       d="m 256,256 h 64 v 64 h -64 z"
       id="path901" />
    <path
       style="mix-blend-mode:normal;fill:#000000;fill-opacity:0.71836799;stroke:none;stroke-width:0.228034;stroke-linecap:butt;stroke-linejoin:miter;stroke-miterlimit:4;stroke-dasharray:none;stroke-opacity:1;filter:url(#filter11431)"
       d="m 287.01886,304.90914 c 0.34068,-0.48737 4.76592,-4.68355 4.97528,-4.85852 1.27198,-1.06302 2.96871,-0.72778 3.54439,-1.28433 2.43447,-2.35355 -0.31735,-5.44853 -2.83553,-3.96946 0,-0.11276 -0.35853,-1.12009 -0.62464,-1.89131 -0.55719,-1.61478 -4.13622,-1.22013 -4.00562,0.97529 0.10233,1.72011 0.6114,3.04615 -0.33205,4.16194 -1.49851,1.77227 -2.3141,3.85117 -5.44331,5.00348 -1.6183,0.59592 -2.73117,-0.20956 -2.93975,1.6766 -0.0858,0.77568 0.18448,1.92193 0.77165,2.43602 0.6531,0.57183 1.38278,-0.14625 2.00036,0.46378 0.71244,0.70372 -0.47374,1.79309 0.14414,2.58116 0.47171,0.60164 1.40174,0.8567 2.16111,0.76811 0.69441,-0.0811 2.79103,-0.27937 3.05248,-0.92777 0.7999,-1.98378 -1.07068,-4.27354 -0.46851,-5.13499 z"
       id="path7993"
       sodipodi:nodetypes="ssscsssssssssss" />
    <path
       style="fill:#d5c9b6;fill-opacity:1;stroke:#a38f73;stroke-width:0.2;stroke-linecap:butt;stroke-linejoin:miter;stroke-miterlimit:4;stroke-dasharray:none;stroke-opacity:1"
       d="m 286.18073,305.00484 c 0.13207,-0.31244 4.45813,-4.74066 4.64175,-4.89411 1.11561,-0.93234 3.25878,-1.50499 3.51659,-1.67755 2.69799,-1.80582 0.15101,-3.69123 -2.07972,-2.4094 0,-0.0989 -0.0821,-0.92002 -0.26255,-1.61243 -0.48876,-1.87537 -3.51041,-2.22429 -3.39576,0.3896 0.0662,1.50987 0.83912,2.79475 0.0117,3.77336 -1.31429,1.55439 -2.47337,3.94035 -5.21789,4.951 -1.41934,0.52266 -2.80365,-0.42306 -2.98658,1.23122 -0.0752,0.68032 -0.0653,1.55267 0.44964,2.00356 0.57281,0.50153 1.73348,-0.33368 2.27513,0.20135 0.62486,0.61721 -0.27735,1.93038 0.26457,2.62156 0.41372,0.52768 1.22942,0.75138 1.89543,0.67368 0.60904,-0.0711 1.29204,-0.4399 1.54494,-0.9985 0.59124,-1.30592 -1.49188,-2.27884 -0.65722,-4.25334 z"
       id="path2022"
       sodipodi:nodetypes="ssscssssssssssss" />
  </g>
</svg>
