<?xml version="1.0" encoding="UTF-8" standalone="no"?>
<svg
   width="64"
   height="64"
   viewBox="0 0 64 64"
   version="1.1"
   id="SVGRoot"
   sodipodi:docname="72_inverted_cave_corner_top_left.svg"
   inkscape:version="1.2-dev (1d8154c6cf, 2021-12-02)"
   xmlns:inkscape="http://www.inkscape.org/namespaces/inkscape"
   xmlns:sodipodi="http://sodipodi.sourceforge.net/DTD/sodipodi-0.dtd"
   xmlns="http://www.w3.org/2000/svg"
   xmlns:svg="http://www.w3.org/2000/svg">
  <defs
     id="defs823" />
  <sodipodi:namedview
     id="base"
     pagecolor="#8e8e8e"
     bordercolor="#666666"
     borderopacity="1.0"
     inkscape:pageopacity="0"
     inkscape:pageshadow="2"
     inkscape:zoom="11.313709"
     inkscape:cx="2.3864853"
     inkscape:cy="10.429825"
     inkscape:document-units="px"
     inkscape:current-layer="layer1"
     showgrid="true"
     inkscape:window-width="3840"
     inkscape:window-height="2100"
     inkscape:window-x="1920"
     inkscape:window-y="32"
     inkscape:window-maximized="1"
     inkscape:pagecheckerboard="0"
     inkscape:blackoutopacity="0.0">
    <inkscape:grid
       type="xygrid"
       id="grid535"
       spacingx="64"
       spacingy="64"
       originx="-512"
       originy="-256" />
  </sodipodi:namedview>
  <g
     inkscape:label="Layer 1"
     inkscape:groupmode="layer"
     id="layer1"
     transform="translate(-512,-256)">
    <path
       style="fill:#62492d;stroke:none;stroke-width:1px;stroke-linecap:butt;stroke-linejoin:miter;stroke-opacity:1;fill-opacity:1"
       d="m 576,320 v -64 h -64 v 64 z"
       id="path1355" />
    <g
       id="g1570"
       transform="matrix(1,0,0,-1,256,448)">
      <path
         style="fill:#62492d;fill-opacity:1;stroke:none;stroke-width:1px;stroke-linecap:butt;stroke-linejoin:miter;stroke-opacity:1"
         d="m 320,128 v 55.92193 L 299.1344,183.40378 281.25201,172.28715 265.64264,151.70464 264.08234,128 Z"
         id="path1008" />
      <path
         style="fill:#543e24;fill-opacity:1;stroke:none;stroke-width:1px;stroke-linecap:butt;stroke-linejoin:miter;stroke-opacity:1"
         d="m 256,128 v 6.94521 l 3.77752,-0.26337 0.40433,2.47303 -1.61073,0.2473 0.0884,2.53651 2.17909,3.37486 -0.35206,13.26628 5.15009,3.21476 0.15651,9.432 8.84716,8.39637 10.5193,-0.10116 11.0658,10.80154 7.07493,1.11314 3.93466,-1.81254 L 310.03767,192 H 320 V 175.84387 C 320,128 320,192 320,128 c -64,0 -30.84717,-0.41028 -64,0 z"
         id="path1006"
         sodipodi:nodetypes="cccccccccccccccccccc" />
    </g>
  </g>
</svg>
